<svg id="Layer_1" enable-background="new 0 0 512 512" height="512" viewBox="0 0 512 512" width="512" xmlns="http://www.w3.org/2000/svg"><g><path d="m415.64 53.5v405c0 25.41-20.57 46-45.94 46h-227.66c-25.36 0-45.93-20.59-45.93-46v-405c0-25.41 20.57-46 45.93-46h227.66c25.37 0 45.94 20.59 45.94 46z" fill="#56788b"/><path d="m415.64 53.5v405c0 25.41-20.57 46-45.94 46h-20c25.37 0 45.94-20.59 45.94-46v-405c0-25.41-20.57-46-45.94-46h20c25.37 0 45.94 20.59 45.94 46z" fill="#415e6f"/><path d="m385.68 52.26v407.48c0 8.98-7.27 16.26-16.23 16.26h-227.15c-8.97 0-16.23-7.28-16.23-16.26v-407.48c0-8.98 7.26-16.26 16.23-16.26h23.71l5.87 18.23c2.45 7.61 9.52 12.77 17.51 12.77h132.97c7.98 0 15.06-5.16 17.51-12.77l5.87-18.23h23.71c8.96 0 16.23 7.28 16.23 16.26z" fill="#d9f0f4"/><path d="m385.68 52.26v407.48c0 8.98-7.27 16.26-16.23 16.26h-20c8.96 0 16.23-7.28 16.23-16.26v-407.48c0-8.98-7.27-16.26-16.23-16.26h20c8.96 0 16.23 7.28 16.23 16.26z" fill="#bae1e5"/><path d="m164.25 120.7v75.62c0 8.52-6.9 15.43-15.41 15.43h-99.79l-41.55 31.61v-122.66c0-8.52 6.9-15.43 15.41-15.43h125.93c8.51 0 15.41 6.91 15.41 15.43z" fill="#ff6b81"/><path d="m164.25 120.7v75.62c0 8.52-6.9 15.43-15.41 15.43h-20c8.51 0 15.41-6.91 15.41-15.43v-75.62c0-8.52-6.9-15.43-15.41-15.43h20c8.51 0 15.41 6.91 15.41 15.43z" fill="#ed2061"/><path d="m504.5 365.7c0 13.72-11.1 24.84-24.8 24.84h-114.3l-19.12 26.4-19.13-26.4h-6.64c-13.69 0-24.8-11.12-24.8-24.84 0-13.71 11.11-24.83 24.8-24.83h159.19c13.7 0 24.8 11.12 24.8 24.83z" fill="#fbdf63"/><path d="m504.5 365.7c0 13.72-11.1 24.84-24.8 24.84h-20c13.7 0 24.8-11.12 24.8-24.84 0-13.71-11.1-24.83-24.8-24.83h20c13.7 0 24.8 11.12 24.8 24.83z" fill="#ffa402"/><path d="m282.734 280.283-64.178-8.64c-5.785-.779-10.102-5.723-10.102-11.569v-23.974c0-5.846 4.318-10.79 10.102-11.569l64.178-8.64z" fill="#4dd4f7"/><path d="m312.689 213.087v70c0 8.284-6.706 15-14.978 15-8.272 0-14.978-6.716-14.978-15v-70c0-8.284 6.706-15 14.978-15 8.272 0 14.978 6.716 14.978 15z" fill="#56788b"/></g><g><path d="m88.611 241.694v61.766c0 4.142 3.358 7.5 7.5 7.5s7.5-3.358 7.5-7.5v-61.766c0-4.142-3.358-7.5-7.5-7.5s-7.5 3.358-7.5 7.5z"/><path d="m415.636 412.294c-4.142 0-7.5 3.358-7.5 7.5v38.706c0 21.229-17.24 38.5-38.431 38.5h-227.663c-21.191 0-38.431-17.271-38.431-38.5v-119.631c0-4.142-3.358-7.5-7.5-7.5s-7.5 3.358-7.5 7.5v119.631c0 29.5 23.969 53.5 53.431 53.5h227.663c29.462 0 53.431-24 53.431-53.5v-38.706c0-4.142-3.358-7.5-7.5-7.5z"/><path d="m96.111 82.773c4.142 0 7.5-3.358 7.5-7.5v-21.773c0-21.229 17.24-38.5 38.431-38.5h227.663c21.191 0 38.431 17.271 38.431 38.5v257.414c0 4.142 3.358 7.5 7.5 7.5s7.5-3.358 7.5-7.5v-257.414c0-29.5-23.969-53.5-53.431-53.5h-227.663c-29.462 0-53.431 24-53.431 53.5v21.774c0 4.142 3.358 7.499 7.5 7.499z"/><path d="m393.181 52.255c0-13.099-10.646-23.755-23.731-23.755h-23.71c-3.256 0-6.141 2.101-7.139 5.201l-5.873 18.231c-1.458 4.526-5.625 7.568-10.371 7.568h-132.968c-4.745 0-8.913-3.042-10.371-7.568l-5.872-18.231c-.998-3.1-3.882-5.201-7.139-5.201h-23.709c-13.085 0-23.731 10.657-23.731 23.755v23.018c0 4.142 3.358 7.5 7.5 7.5s7.5-3.358 7.5-7.5v-23.018c0-4.828 3.917-8.755 8.731-8.755h18.246l4.197 13.031c3.462 10.748 13.368 17.969 24.648 17.969h132.969c11.281 0 21.187-7.221 24.648-17.969l4.198-13.031h18.246c4.814 0 8.731 3.928 8.731 8.755v40.798c0 4.142 3.358 7.5 7.5 7.5s7.5-3.358 7.5-7.5z"/><path d="m385.681 120.877c-4.142 0-7.5 3.358-7.5 7.5v182.536c0 4.142 3.358 7.5 7.5 7.5s7.5-3.358 7.5-7.5v-182.536c0-4.142-3.358-7.5-7.5-7.5z"/><path d="m126.066 234.301c-4.142 0-7.5 3.358-7.5 7.5v217.943c0 13.099 10.646 23.755 23.731 23.755h227.153c13.085 0 23.731-10.657 23.731-23.755v-39.904c0-4.142-3.358-7.5-7.5-7.5s-7.5 3.358-7.5 7.5v39.905c0 4.828-3.917 8.755-8.731 8.755h-227.152c-4.814 0-8.731-3.928-8.731-8.755v-217.944c-.001-4.142-3.359-7.5-7.501-7.5z"/><path d="m296.489 44.985c4.142 0 7.5-3.358 7.5-7.5s-3.358-7.5-7.5-7.5h-81.231c-4.142 0-7.5 3.358-7.5 7.5s3.358 7.5 7.5 7.5z"/><path d="m296.489 433.722h-81.231c-4.142 0-7.5 3.358-7.5 7.5s3.358 7.5 7.5 7.5h81.231c4.142 0 7.5-3.358 7.5-7.5s-3.358-7.5-7.5-7.5z"/><path d="m297.711 305.587c12.395 0 22.478-10.093 22.478-22.5v-70c0-12.407-10.083-22.5-22.478-22.5-11.101 0-20.342 8.099-22.151 18.702l-58.006 7.809c-9.465 1.274-16.602 9.443-16.602 19.001v4.487h-13.876c-4.142 0-7.5 3.358-7.5 7.5s3.358 7.5 7.5 7.5h13.876v4.487c0 9.558 7.137 17.727 16.602 19.001l1.947.262v29.575c0 4.142 3.358 7.5 7.5 7.5s7.5-3.358 7.5-7.5v-27.556l41.059 5.528c1.81 10.605 11.051 18.704 22.151 18.704zm-7.477-92.5c0-4.136 3.354-7.5 7.478-7.5s7.478 3.364 7.478 7.5v70c0 4.136-3.354 7.5-7.478 7.5-4.123 0-7.478-3.364-7.478-7.5m-74.281-23.013v-23.974c0-2.081 1.549-3.859 3.603-4.135l55.678-7.496v47.237l-55.678-7.496c-2.055-.277-3.603-2.055-3.603-4.136z"/><path d="m171.75 196.319v-75.617c0-12.643-10.276-22.929-22.906-22.929h-75.249c-4.142 0-7.5 3.358-7.5 7.5s3.358 7.5 7.5 7.5h75.249c4.359 0 7.906 3.557 7.906 7.929v75.617c0 4.372-3.547 7.929-7.906 7.929h-99.79c-1.641 0-3.236.538-4.542 1.531l-29.512 22.454v-107.531c0-4.372 3.546-7.929 7.906-7.929h16.221c4.142 0 7.5-3.358 7.5-7.5s-3.358-7.5-7.5-7.5h-16.221c-12.631 0-22.906 10.286-22.906 22.929v122.662c0 2.85 1.615 5.454 4.169 6.72 1.056.523 2.195.78 3.33.78 1.611 0 3.211-.519 4.542-1.531l39.542-30.084h97.261c12.63-.001 22.906-10.287 22.906-22.93z"/><path d="m133.315 140.944c0-4.142-3.358-7.5-7.5-7.5h-79.881c-4.142 0-7.5 3.358-7.5 7.5s3.358 7.5 7.5 7.5h79.881c4.143 0 7.5-3.358 7.5-7.5z"/><path d="m45.934 167.444c-4.142 0-7.5 3.358-7.5 7.5s3.358 7.5 7.5 7.5h69.896c4.142 0 7.5-3.358 7.5-7.5s-3.358-7.5-7.5-7.5z"/><path d="m479.701 333.368h-159.188c-17.81 0-32.299 14.506-32.299 32.336s14.489 32.335 32.299 32.335h2.812l16.877 23.304c1.411 1.947 3.669 3.101 6.074 3.101s4.664-1.153 6.074-3.101l16.877-23.304h57.533c4.142 0 7.5-3.358 7.5-7.5s-3.358-7.5-7.5-7.5h-61.362c-2.405 0-4.664 1.153-6.074 3.101l-13.049 18.018-13.049-18.018c-1.411-1.947-3.669-3.101-6.074-3.101h-6.64c-9.539 0-17.299-7.777-17.299-17.335 0-9.559 7.76-17.336 17.299-17.336h159.188c9.539 0 17.299 7.777 17.299 17.336s-7.76 17.335-17.299 17.335h-18.234c-4.142 0-7.5 3.358-7.5 7.5s3.358 7.5 7.5 7.5h18.234c17.81 0 32.299-14.506 32.299-32.335.001-17.83-14.488-32.336-32.298-32.336z"/><path d="m170.719 369.4h32.143c4.142 0 7.5-3.358 7.5-7.5s-3.358-7.5-7.5-7.5h-32.143c-4.142 0-7.5 3.358-7.5 7.5s3.358 7.5 7.5 7.5z"/><path d="m170.719 404.4h52.113c4.142 0 7.5-3.358 7.5-7.5s-3.358-7.5-7.5-7.5h-52.113c-4.142 0-7.5 3.358-7.5 7.5s3.358 7.5 7.5 7.5z"/><path d="m348.243 146.53c0-4.142-3.358-7.5-7.5-7.5h-32.143c-4.142 0-7.5 3.358-7.5 7.5s3.358 7.5 7.5 7.5h32.143c4.142 0 7.5-3.358 7.5-7.5z"/><path d="m340.743 104.03h-52.113c-4.142 0-7.5 3.358-7.5 7.5s3.358 7.5 7.5 7.5h52.113c4.142 0 7.5-3.358 7.5-7.5s-3.358-7.5-7.5-7.5z"/></g></svg>