<svg id="Layer_1" enable-background="new 0 0 512 512" height="512" viewBox="0 0 512 512" width="512" xmlns="http://www.w3.org/2000/svg"><g><path d="m504.5 107.598v286.56c0 25.4-20.54 46-45.88 46h-405.24c-25.34 0-45.88-20.6-45.88-46v-286.56c0-25.4 20.54-46 45.88-46h405.24c25.34 0 45.88 20.6 45.88 46z" fill="#56788b"/><path d="m504.5 107.598v286.56c0 25.4-20.54 46-45.88 46h-20c25.34 0 45.88-20.6 45.88-46v-286.56c0-25.4-20.54-46-45.88-46h20c25.34 0 45.88 20.6 45.88 46z" fill="#415e6f"/><path d="m474.58 106.358v258.04c0 8.98-7.26 16.26-16.22 16.26h-404.72c-8.96 0-16.22-7.28-16.22-16.26v-258.04c0-8.98 7.26-16.26 16.22-16.26h404.72c8.96 0 16.22 7.28 16.22 16.26z" fill="#d9f0f4"/><path d="m474.58 106.358v258.04c0 8.98-7.26 16.26-16.22 16.26h-20c8.96 0 16.22-7.28 16.22-16.26v-258.04c0-8.98-7.26-16.26-16.22-16.26h20c8.96 0 16.22 7.28 16.22 16.26z" fill="#bae1e5"/><path d="m253.41 22.508v90.86c0 8.29-6.72 15.01-15.01 15.01h-48.62l-15.73 22.67-15.73-22.67h-48.62c-8.29 0-15.01-6.72-15.01-15.01v-90.86c0-8.29 6.72-15.01 15.01-15.01h128.7c8.29 0 15.01 6.72 15.01 15.01z" fill="#ff6b81"/><path d="m253.41 22.508v90.86c0 8.29-6.72 15.01-15.01 15.01h-20c8.29 0 15.01-6.72 15.01-15.01v-90.86c0-8.29-6.72-15.01-15.01-15.01h20c8.29 0 15.01 6.72 15.01 15.01z" fill="#ed2061"/><path d="m198.785 47.139c-5.849-5.849-15.34-5.842-21.197.016l-3.536 3.536-3.536-3.536c-5.858-5.858-15.348-5.865-21.198-.016-5.849 5.849-5.842 15.339.016 21.197l24.717 24.717 24.717-24.717c5.859-5.857 5.866-15.348.017-21.197z" fill="#eef0f5"/><g><path d="m279.851 262.162-64.178-8.64c-5.785-.779-10.102-5.723-10.102-11.569v-23.974c0-5.846 4.318-10.79 10.102-11.569l64.178-8.64z" fill="#4dd4f7"/><path d="m309.806 194.966v70c0 8.284-6.706 15-14.978 15-8.272 0-14.978-6.716-14.978-15v-70c0-8.284 6.706-15 14.978-15 8.273 0 14.978 6.716 14.978 15z" fill="#56788b"/></g><path d="m315.908 504.5h-119.816l19.694-64.343h80.428z" fill="#90abbd"/><g><path d="m412.36 380.657c0 13.72-11.1 24.83-24.8 24.83h-139.19c-13.69 0-24.79-11.11-24.79-24.83s11.1-24.84 24.79-24.84h6.65l19.12-26.4 19.12 26.4h94.3c13.7.001 24.8 11.121 24.8 24.84z" fill="#fbdf63"/><path d="m412.36 380.657c0 13.72-11.1 24.83-24.8 24.83h-20c13.7 0 24.8-11.11 24.8-24.83s-11.1-24.84-24.8-24.84h20c13.7.001 24.8 11.121 24.8 24.84z" fill="#ffa402"/></g></g><g><path d="m7.5 173.641c4.142 0 7.5-3.358 7.5-7.5v-58.54c0-21.229 17.218-38.5 38.383-38.5h11.371c4.142 0 7.5-3.358 7.5-7.5s-3.358-7.5-7.5-7.5h-11.371c-29.436 0-53.383 24-53.383 53.5v58.54c0 4.142 3.358 7.5 7.5 7.5z"/><path d="m458.617 54.102h-176.513c-4.142 0-7.5 3.358-7.5 7.5s3.358 7.5 7.5 7.5h176.514c21.165 0 38.383 17.271 38.383 38.5v286.556c0 21.229-17.218 38.5-38.383 38.5h-405.235c-21.165 0-38.383-17.271-38.383-38.5v-193.117c0-4.142-3.358-7.5-7.5-7.5s-7.5 3.358-7.5 7.5v193.117c0 29.5 23.947 53.5 53.383 53.5h152.265l-15.103 49.342h-33.261c-4.142 0-7.5 3.358-7.5 7.5s3.358 7.5 7.5 7.5h197.434c4.142 0 7.5-3.358 7.5-7.5s-3.358-7.5-7.5-7.5h-33.261l-15.103-49.343h152.265c29.436 0 53.383-24 53.383-53.5v-286.556c-.002-29.499-23.949-53.499-53.385-53.499zm-252.386 442.898 15.103-49.343h69.332l15.103 49.343z"/><path d="m53.638 97.602h12.116c4.142 0 7.5-3.358 7.5-7.5s-3.358-7.5-7.5-7.5h-12.116c-13.076 0-23.714 10.657-23.714 23.755v258.044c0 13.099 10.638 23.755 23.714 23.755h139.809c4.142 0 7.5-3.358 7.5-7.5s-3.358-7.5-7.5-7.5h-139.809c-4.805 0-8.714-3.928-8.714-8.755v-258.044c0-4.828 3.909-8.755 8.714-8.755z"/><path d="m474.576 231.301c-4.142 0-7.5 3.358-7.5 7.5v125.6c0 4.828-3.909 8.755-8.714 8.755h-16.221c-4.142 0-7.5 3.358-7.5 7.5s3.358 7.5 7.5 7.5h16.221c13.076 0 23.714-10.657 23.714-23.755v-125.6c0-4.142-3.358-7.5-7.5-7.5z"/><path d="m482.076 106.357c0-13.099-10.638-23.755-23.714-23.755h-175.006c-4.142 0-7.5 3.358-7.5 7.5s3.358 7.5 7.5 7.5h175.006c4.805 0 8.714 3.928 8.714 8.755v97.12c0 4.142 3.358 7.5 7.5 7.5s7.5-3.358 7.5-7.5z"/><path d="m214.672 198.977c-9.465 1.274-16.602 9.443-16.602 19.002v4.487h-13.877c-4.142 0-7.5 3.358-7.5 7.5s3.358 7.5 7.5 7.5h13.877v4.487c0 9.559 7.137 17.727 16.602 19.001l1.947.262v29.575c0 4.142 3.358 7.5 7.5 7.5s7.5-3.358 7.5-7.5v-27.556l41.052 5.527c1.808 10.605 11.055 18.703 22.157 18.703 12.395 0 22.478-10.093 22.478-22.5v-70c0-12.407-10.083-22.5-22.478-22.5-11.102 0-20.349 8.098-22.157 18.703zm57.679 54.607-55.678-7.496c-2.054-.276-3.603-2.054-3.603-4.135v-23.974c0-2.082 1.549-3.859 3.603-4.136l55.678-7.496zm15-58.618c0-4.136 3.354-7.5 7.478-7.5s7.478 3.364 7.478 7.5v70c0 4.136-3.354 7.5-7.478 7.5-4.123 0-7.478-3.364-7.478-7.5z"/><path d="m109.701 135.878h44.696l13.493 19.445c1.401 2.02 3.704 3.224 6.162 3.224s4.76-1.205 6.162-3.224l13.493-19.445h44.697c12.411 0 22.507-10.097 22.507-22.507v-90.864c0-12.41-10.097-22.507-22.508-22.507h-76.677c-4.142 0-7.5 3.358-7.5 7.5s3.358 7.5 7.5 7.5h76.677c4.14 0 7.507 3.368 7.507 7.507v90.864c0 4.14-3.368 7.507-7.507 7.507h-48.621c-2.458 0-4.76 1.205-6.162 3.224l-9.568 13.789-9.569-13.789c-1.401-2.02-3.704-3.224-6.162-3.224h-48.621c-4.14 0-7.507-3.368-7.507-7.507v-90.864c0-4.139 3.368-7.507 7.507-7.507h17.135c4.142 0 7.5-3.358 7.5-7.5s-3.358-7.5-7.5-7.5h-17.135c-12.409 0-22.506 10.097-22.506 22.507v90.864c0 12.41 10.097 22.507 22.507 22.507z"/><path d="m64.055 402.938c-4.142 0-7.5 3.358-7.5 7.5s3.358 7.5 7.5 7.5h30.639c4.142 0 7.5-3.358 7.5-7.5s-3.358-7.5-7.5-7.5z"/><path d="m124.055 402.938c-4.142 0-7.5 3.358-7.5 7.5s3.358 7.5 7.5 7.5h30.639c4.142 0 7.5-3.358 7.5-7.5s-3.358-7.5-7.5-7.5z"/><path d="m168.749 98.357c1.464 1.464 3.384 2.197 5.303 2.197s3.839-.732 5.303-2.197l24.717-24.717c8.773-8.772 8.78-23.04.016-31.804-4.243-4.243-9.884-6.579-15.887-6.579h-.018c-5.206.004-10.143 1.765-14.132 5.001-3.99-3.236-8.926-4.997-14.132-5.001h-.018c-6.002 0-11.644 2.336-15.887 6.579-8.764 8.764-8.757 23.031.016 31.804zm-14.126-45.915c1.409-1.41 3.284-2.186 5.28-2.186h.006c2.002.001 3.886.783 5.305 2.202l3.536 3.535c2.929 2.929 7.677 2.929 10.605 0l3.536-3.536c1.418-1.418 3.302-2.2 5.304-2.201h.006c1.996 0 3.871.776 5.28 2.186 2.916 2.916 2.909 7.667-.016 10.591l-19.414 19.414-19.414-19.414c-2.923-2.924-2.93-7.675-.014-10.591z"/><path d="m94.694 299.4h32.143c4.142 0 7.5-3.358 7.5-7.5s-3.358-7.5-7.5-7.5h-32.143c-4.142 0-7.5 3.358-7.5 7.5s3.358 7.5 7.5 7.5z"/><path d="m94.694 334.4h52.113c4.142 0 7.5-3.358 7.5-7.5s-3.358-7.5-7.5-7.5h-52.113c-4.142 0-7.5 3.358-7.5 7.5s3.358 7.5 7.5 7.5z"/><path d="m428.018 180.015c0-4.142-3.358-7.5-7.5-7.5h-32.143c-4.142 0-7.5 3.358-7.5 7.5s3.358 7.5 7.5 7.5h32.143c4.142 0 7.5-3.358 7.5-7.5z"/><path d="m420.518 137.515h-52.113c-4.142 0-7.5 3.358-7.5 7.5s3.358 7.5 7.5 7.5h52.113c4.142 0 7.5-3.358 7.5-7.5s-3.358-7.5-7.5-7.5z"/><path d="m248.375 363.321h6.641c2.405 0 4.664-1.153 6.074-3.101l13.049-18.017 13.048 18.017c1.411 1.947 3.669 3.101 6.074 3.101h41.362c4.142 0 7.5-3.358 7.5-7.5s-3.358-7.5-7.5-7.5h-37.533l-16.877-23.303c-1.411-1.948-3.669-3.101-6.074-3.101s-4.664 1.153-6.074 3.101l-16.877 23.304h-2.812c-17.81 0-32.298 14.506-32.298 32.335s14.489 32.335 32.298 32.335h139.188c17.81 0 32.298-14.506 32.298-32.335s-14.489-32.335-32.298-32.335h-18.234c-4.142 0-7.5 3.358-7.5 7.5s3.358 7.5 7.5 7.5h18.234c9.539 0 17.298 7.777 17.298 17.335s-7.76 17.335-17.298 17.335h-139.189c-9.539 0-17.298-7.777-17.298-17.335s7.759-17.336 17.298-17.336z"/></g></svg>