<svg id="Layer_1" enable-background="new 0 0 512 512" height="512" viewBox="0 0 512 512" width="512" xmlns="http://www.w3.org/2000/svg"><g><path d="m504.5 213.499v160.56c0 25.4-20.53 46-45.85 46h-15.15l-1.56 1.83-46.66 54.92-48.21-56.75h-93.51c-25.32 0-45.85-20.6-45.85-46v-206.56h250.94c25.32 0 45.85 20.6 45.85 46z" fill="#09eaa3"/><path d="m504.5 213.499v160.56c0 25.4-20.53 46-45.85 46h-15.15l-1.56 1.83-3.29-1.83c25.32 0 45.85-20.6 45.85-46v-160.56c0-25.4-20.53-46-45.85-46h20c25.32 0 45.85 20.6 45.85 46z" fill="#14bb87"/><g><path d="m404.22 143.499v154.56c0 25.4-20.53 46-45.85 46h-193.44l-48.21 56.75-48.22-56.75h-15.15c-25.32 0-45.85-20.6-45.85-46v-154.56c0-25.4 20.53-46 45.85-46h305.02c25.32 0 45.85 20.6 45.85 46z" fill="#d9f0f4"/><path d="m404.22 143.499v154.56c0 25.4-20.53 46-45.85 46h-20c25.32 0 45.85-20.6 45.85-46v-154.56c0-25.4-20.53-46-45.85-46h20c25.32 0 45.85 20.6 45.85 46z" fill="#bae1e5"/></g><g><path d="m246.11 479.669c0 13.71-11.09 24.83-24.78 24.83h-189.05c-13.69 0-24.78-11.12-24.78-24.83 0-13.72 11.09-24.84 24.78-24.84h6.64l19.11-26.4 19.1 26.4h144.2c13.69 0 24.78 11.12 24.78 24.84z" fill="#4dd4f7"/><path d="m246.11 479.669c0 13.71-11.09 24.83-24.78 24.83h-20c13.69 0 24.78-11.12 24.78-24.83 0-13.72-11.09-24.84-24.78-24.84h20c13.69 0 24.78 11.12 24.78 24.84z" fill="#1e90ff"/></g><g fill="#56788b"><ellipse cx="169.74" cy="220.77" rx="14.989" ry="15"/><ellipse cx="96.654" cy="220.77" rx="14.989" ry="15"/><ellipse cx="242.826" cy="220.77" rx="14.989" ry="15"/><ellipse cx="315.912" cy="220.77" rx="14.989" ry="15"/></g><path d="m504.5 32.339c0 13.71-11.09 24.83-24.78 24.83h-6.64l-1.21 1.68-17.9 24.73-19.1-26.41h-144.2c-13.69 0-24.78-11.12-24.78-24.83 0-13.72 11.09-24.84 24.78-24.84h189.05c13.69 0 24.78 11.12 24.78 24.84z" fill="#fbdf63"/><g><path d="m504.5 32.339c0 13.71-11.09 24.83-24.78 24.83h-6.64l-1.21 1.68c-2.07-1.98-3.15-3.36-2.51-3.63 8.9-3.77 15.14-12.6 15.14-22.88 0-13.72-11.09-24.84-24.78-24.84h20c13.69 0 24.78 11.12 24.78 24.84z" fill="#ffa402"/></g></g><g><path d="m53.35 351.556h11.685l45.967 54.106c1.425 1.677 3.515 2.644 5.716 2.644s4.291-.967 5.716-2.644l45.967-54.106h189.965c29.418 0 53.351-24 53.351-53.5v-154.556c0-29.5-23.933-53.5-53.351-53.5h-234.556c-4.142 0-7.5 3.358-7.5 7.5s3.358 7.5 7.5 7.5h234.556c21.146 0 38.351 17.271 38.351 38.5v154.556c0 21.229-17.204 38.5-38.351 38.5h-193.435c-2.201 0-4.291.967-5.716 2.644l-42.498 50.022-42.497-50.022c-1.425-1.677-3.515-2.644-5.716-2.644h-15.154c-21.146 0-38.35-17.271-38.35-38.5v-154.556c0-21.229 17.204-38.5 38.35-38.5h35.68c4.142 0 7.5-3.358 7.5-7.5s-3.358-7.5-7.5-7.5h-35.68c-29.417 0-53.35 24-53.35 53.5v154.556c0 29.5 23.933 53.5 53.35 53.5z"/><path d="m504.5 312.958c-4.143 0-7.5 3.358-7.5 7.5v53.598c0 21.229-17.204 38.5-38.351 38.5h-15.153c-2.201 0-4.291.967-5.716 2.644l-42.498 50.022-42.498-50.022c-1.425-1.677-3.515-2.644-5.716-2.644h-93.505c-21.146 0-38.35-17.271-38.35-38.5 0-4.142-3.358-7.5-7.5-7.5s-7.5 3.358-7.5 7.5c0 29.5 23.933 53.5 53.35 53.5h90.036l45.968 54.106c1.425 1.677 3.515 2.644 5.716 2.644s4.291-.967 5.716-2.644l45.968-54.106h11.684c29.418 0 53.351-24 53.351-53.5v-53.598c-.002-4.143-3.359-7.5-7.502-7.5z"/><path d="m458.649 160h-24.216c-4.143 0-7.5 3.358-7.5 7.5s3.357 7.5 7.5 7.5h24.216c21.147 0 38.351 17.271 38.351 38.5v72.365c0 4.142 3.357 7.5 7.5 7.5s7.5-3.358 7.5-7.5v-72.365c0-29.5-23.933-53.5-53.351-53.5z"/><path d="m192.229 220.771c0-12.407-10.089-22.5-22.489-22.5s-22.489 10.093-22.489 22.5 10.089 22.5 22.489 22.5 22.489-10.094 22.489-22.5zm-29.979 0c0-4.136 3.36-7.5 7.489-7.5s7.489 3.364 7.489 7.5-3.36 7.5-7.489 7.5-7.489-3.365-7.489-7.5z"/><path d="m74.165 220.771c0 12.407 10.089 22.5 22.489 22.5s22.489-10.093 22.489-22.5-10.089-22.5-22.489-22.5-22.489 10.093-22.489 22.5zm22.489-7.5c4.129 0 7.489 3.364 7.489 7.5s-3.36 7.5-7.489 7.5-7.489-3.364-7.489-7.5 3.359-7.5 7.489-7.5z"/><path d="m265.315 220.771c0-12.407-10.089-22.5-22.489-22.5s-22.489 10.093-22.489 22.5 10.089 22.5 22.489 22.5 22.489-10.094 22.489-22.5zm-29.978 0c0-4.136 3.36-7.5 7.489-7.5s7.489 3.364 7.489 7.5-3.36 7.5-7.489 7.5-7.489-3.365-7.489-7.5z"/><path d="m338.401 220.771c0-12.407-10.089-22.5-22.489-22.5s-22.489 10.093-22.489 22.5 10.089 22.5 22.489 22.5 22.489-10.094 22.489-22.5zm-29.978 0c0-4.136 3.359-7.5 7.489-7.5s7.489 3.364 7.489 7.5-3.359 7.5-7.489 7.5-7.489-3.365-7.489-7.5z"/><path d="m221.333 447.329h-68.186c-4.142 0-7.5 3.358-7.5 7.5s3.358 7.5 7.5 7.5h68.186c9.529 0 17.281 7.777 17.281 17.335s-7.752 17.336-17.281 17.336h-189.052c-9.529 0-17.281-7.777-17.281-17.335s7.752-17.335 17.281-17.335h6.636c2.406 0 4.666-1.154 6.076-3.103l13.034-18.009 13.033 18.009c1.41 1.949 3.67 3.103 6.076 3.103h41.333c4.142 0 7.5-3.358 7.5-7.5s-3.358-7.5-7.5-7.5h-37.504l-16.863-23.301c-1.41-1.949-3.67-3.103-6.076-3.103s-4.666 1.154-6.076 3.103l-16.864 23.301h-2.806c-17.799-.001-32.28 14.504-32.28 32.335s14.481 32.335 32.281 32.335h189.053c17.8 0 32.281-14.505 32.281-32.335s-14.482-32.336-32.282-32.336z"/><path d="m290.666 64.671h28.215c4.143 0 7.5-3.358 7.5-7.5s-3.357-7.5-7.5-7.5h-28.215c-9.528 0-17.28-7.777-17.28-17.335s7.752-17.336 17.28-17.336h189.053c9.529 0 17.281 7.777 17.281 17.335s-7.752 17.335-17.281 17.335h-6.636c-2.405 0-4.665 1.154-6.076 3.103l-13.032 18.009-13.033-18.009c-1.411-1.949-3.671-3.103-6.076-3.103h-81.304c-4.143 0-7.5 3.358-7.5 7.5s3.357 7.5 7.5 7.5h77.474l16.863 23.301c1.411 1.949 3.671 3.103 6.076 3.103 2.406 0 4.665-1.154 6.076-3.103l16.862-23.301h2.806c17.8 0 32.281-14.505 32.281-32.335s-14.481-32.335-32.281-32.335h-189.053c-17.8 0-32.28 14.505-32.28 32.335s14.48 32.336 32.28 32.336z"/></g></svg>