<svg id="Layer_1" enable-background="new 0 0 512 512" height="512" viewBox="0 0 512 512" width="512" xmlns="http://www.w3.org/2000/svg"><g><g><path d="m415.911 53.5v405c0 25.41-20.57 46-45.94 46h-227.66c-25.36 0-45.93-20.59-45.93-46v-405c0-25.41 20.57-46 45.93-46h227.66c25.37 0 45.94 20.59 45.94 46z" fill="#56788b"/><path d="m415.911 53.5v405c0 25.41-20.57 46-45.94 46h-20c25.37 0 45.94-20.59 45.94-46v-405c0-25.41-20.57-46-45.94-46h20c25.37 0 45.94 20.59 45.94 46z" fill="#415e6f"/><path d="m385.951 52.26v407.48c0 8.98-7.27 16.26-16.23 16.26h-227.15c-8.97 0-16.23-7.28-16.23-16.26v-407.48c0-8.98 7.26-16.26 16.23-16.26h23.71l5.87 18.23c2.45 7.61 9.52 12.77 17.51 12.77h132.97c7.98 0 15.06-5.16 17.51-12.77l5.87-18.23h23.71c8.96 0 16.23 7.28 16.23 16.26z" fill="#d9f0f4"/><path d="m385.951 52.26v407.48c0 8.98-7.27 16.26-16.23 16.26h-20c8.96 0 16.23-7.28 16.23-16.26v-407.48c0-8.98-7.27-16.26-16.23-16.26h20c8.96 0 16.23 7.28 16.23 16.26z" fill="#bae1e5"/><path d="m164.521 120.7v75.62c0 8.52-6.9 15.43-15.41 15.43h-99.79l-41.55 31.61v-122.66c0-8.52 6.9-15.43 15.41-15.43h125.93c8.51 0 15.41 6.91 15.41 15.43z" fill="#4dd4f7"/><path d="m164.521 120.7v75.62c0 8.52-6.9 15.43-15.41 15.43h-20c8.51 0 15.41-6.91 15.41-15.43v-75.62c0-8.52-6.9-15.43-15.41-15.43h20c8.51 0 15.41 6.91 15.41 15.43z" fill="#1e90ff"/></g><path d="m504.231 140.569v216.86c0 8.45-6.85 15.3-15.3 15.3h-106.38l-30.56 38.49-30.55-38.49h-106.38c-8.45 0-15.3-6.85-15.3-15.3v-216.86c0-8.45 6.85-15.3 15.3-15.3h273.87c8.45 0 15.3 6.85 15.3 15.3z" fill="#ff6b81"/><path d="m504.231 140.569v216.86c0 8.45-6.85 15.3-15.3 15.3h-20c8.45 0 15.3-6.85 15.3-15.3v-216.86c0-8.45-6.85-15.3-15.3-15.3h20c8.45 0 15.3 6.85 15.3 15.3z" fill="#ed2061"/><path d="m394.762 224.067c-10.114-10.114-26.525-10.102-36.654.027l-6.113 6.113-6.113-6.113c-10.129-10.129-26.54-10.141-36.654-.027s-10.102 26.524.027 36.654l42.74 42.74 42.74-42.74c10.129-10.129 10.141-26.54.027-36.654z" fill="#d9f0f4"/></g><g><path d="m88.882 241.694v151.767c0 4.142 3.357 7.5 7.5 7.5s7.5-3.358 7.5-7.5v-151.767c0-4.142-3.357-7.5-7.5-7.5s-7.5 3.358-7.5 7.5z"/><path d="m415.907 409.295c-4.143 0-7.5 3.358-7.5 7.5v41.705c0 21.229-17.24 38.5-38.432 38.5h-227.662c-21.191 0-38.432-17.271-38.432-38.5v-29.632c0-4.142-3.357-7.5-7.5-7.5s-7.5 3.358-7.5 7.5v29.632c0 29.5 23.97 53.5 53.432 53.5h227.662c29.462 0 53.432-24 53.432-53.5v-41.706c0-4.141-3.357-7.499-7.5-7.499z"/><path d="m96.382 82.773c4.143 0 7.5-3.358 7.5-7.5v-21.773c0-21.229 17.24-38.5 38.432-38.5h227.662c21.191 0 38.432 17.271 38.432 38.5v41.554c0 4.142 3.357 7.5 7.5 7.5s7.5-3.358 7.5-7.5v-41.554c0-29.5-23.97-53.5-53.432-53.5h-227.663c-29.462 0-53.432 24-53.432 53.5v21.773c.001 4.143 3.358 7.5 7.501 7.5z"/><path d="m385.952 102.554c4.143 0 7.5-3.358 7.5-7.5v-42.799c0-13.099-10.646-23.755-23.731-23.755h-23.71c-3.256 0-6.141 2.101-7.139 5.201l-5.872 18.231c-1.458 4.526-5.626 7.568-10.371 7.568h-132.969c-4.745 0-8.913-3.042-10.371-7.568l-5.872-18.231c-.998-3.1-3.883-5.201-7.139-5.201h-23.71c-13.085 0-23.73 10.657-23.73 23.755v23.018c0 4.142 3.357 7.5 7.5 7.5s7.5-3.358 7.5-7.5v-23.018c0-4.828 3.916-8.755 8.73-8.755h18.246l4.197 13.031c3.463 10.748 13.368 17.969 24.649 17.969h132.969c11.281 0 21.187-7.221 24.648-17.969l4.197-13.031h18.246c4.814 0 8.731 3.928 8.731 8.755v42.798c.001 4.143 3.359 7.501 7.501 7.501z"/><path d="m133.838 459.745v-217.944c0-4.142-3.357-7.5-7.5-7.5s-7.5 3.358-7.5 7.5v217.943c0 13.099 10.646 23.755 23.73 23.755h227.152c13.086 0 23.731-10.657 23.731-23.755v-42.904c0-4.142-3.357-7.5-7.5-7.5s-7.5 3.358-7.5 7.5v42.905c0 4.828-3.917 8.755-8.731 8.755h-227.152c-4.814 0-8.73-3.928-8.73-8.755z"/><path d="m296.761 44.986c4.143 0 7.5-3.358 7.5-7.5s-3.357-7.5-7.5-7.5h-81.231c-4.143 0-7.5 3.358-7.5 7.5s3.357 7.5 7.5 7.5z"/><path d="m296.761 448.723c4.143 0 7.5-3.358 7.5-7.5s-3.357-7.5-7.5-7.5h-81.231c-4.143 0-7.5 3.358-7.5 7.5s3.357 7.5 7.5 7.5z"/><path d="m172.021 196.319v-75.617c0-12.643-10.275-22.929-22.905-22.929h-75.25c-4.143 0-7.5 3.358-7.5 7.5s3.357 7.5 7.5 7.5h75.249c4.359 0 7.905 3.557 7.905 7.929v75.617c0 4.372-3.546 7.929-7.905 7.929h-99.79c-1.641 0-3.235.538-4.541 1.531l-29.514 22.455v-107.532c0-4.372 3.547-7.929 7.906-7.929h16.221c4.143 0 7.5-3.358 7.5-7.5s-3.357-7.5-7.5-7.5h-16.22c-12.631 0-22.906 10.286-22.906 22.929v122.662c0 2.85 1.615 5.454 4.169 6.72 1.056.523 2.195.78 3.33.78 1.611 0 3.211-.519 4.542-1.531l39.542-30.084h97.262c12.629-.001 22.905-10.287 22.905-22.93z"/><path d="m133.587 140.944c0-4.142-3.357-7.5-7.5-7.5h-79.882c-4.143 0-7.5 3.358-7.5 7.5s3.357 7.5 7.5 7.5h79.882c4.142 0 7.5-3.358 7.5-7.5z"/><path d="m46.205 167.444c-4.143 0-7.5 3.358-7.5 7.5s3.357 7.5 7.5 7.5h69.896c4.143 0 7.5-3.358 7.5-7.5s-3.357-7.5-7.5-7.5z"/><path d="m488.933 117.773h-186.362c-4.143 0-7.5 3.358-7.5 7.5s3.357 7.5 7.5 7.5h186.361c4.299 0 7.797 3.498 7.797 7.798v157.006c0 4.142 3.357 7.5 7.5 7.5s7.5-3.358 7.5-7.5v-157.006c0-12.571-10.226-22.798-22.796-22.798z"/><path d="m504.229 324.796c-4.143 0-7.5 3.358-7.5 7.5v25.133c0 4.3-3.498 7.798-7.797 7.798h-106.383c-2.288 0-4.451 1.045-5.874 2.837l-24.68 31.091-24.681-31.091c-1.423-1.792-3.586-2.837-5.874-2.837h-106.382c-4.299 0-7.797-3.498-7.797-7.798v-216.858c0-4.3 3.498-7.798 7.797-7.798h52.442c4.143 0 7.5-3.358 7.5-7.5s-3.357-7.5-7.5-7.5h-52.442c-12.57 0-22.797 10.227-22.797 22.798v216.858c0 12.571 10.227 22.798 22.797 22.798h102.761l28.303 35.655c1.423 1.792 3.586 2.837 5.874 2.837s4.451-1.045 5.874-2.837l28.302-35.655h102.762c12.57 0 22.797-10.227 22.797-22.798v-25.133c-.002-4.142-3.359-7.5-7.502-7.5z"/><path d="m376.436 208.99c-8.925.006-17.316 3.487-23.631 9.801l-.81.81-.811-.811c-13.037-13.035-34.237-13.049-47.261-.026-13.021 13.022-13.009 34.223.027 47.26l42.74 42.74c1.465 1.464 3.385 2.197 5.304 2.197s3.839-.732 5.304-2.197l42.74-42.74c13.036-13.037 13.049-34.237.027-47.26h-.001c-6.304-6.304-14.686-9.774-23.604-9.774zm12.996 46.427-37.437 37.437-37.437-37.437c-7.188-7.188-7.201-18.874-.027-26.047 3.582-3.582 8.288-5.372 12.999-5.372 4.723 0 9.449 1.8 13.048 5.399l6.113 6.114c1.407 1.407 3.314 2.197 5.304 2.197s3.896-.79 5.304-2.197l6.113-6.114c7.188-7.189 18.874-7.201 26.047-.027 7.174 7.174 7.161 18.859-.027 26.047z"/><path d="m245.468 301.752h32.143c4.143 0 7.5-3.358 7.5-7.5s-3.357-7.5-7.5-7.5h-32.143c-4.143 0-7.5 3.358-7.5 7.5s3.357 7.5 7.5 7.5z"/><path d="m245.468 336.752h52.112c4.143 0 7.5-3.358 7.5-7.5s-3.357-7.5-7.5-7.5h-52.112c-4.143 0-7.5 3.358-7.5 7.5s3.357 7.5 7.5 7.5z"/><path d="m458.522 196.74h-32.142c-4.143 0-7.5 3.358-7.5 7.5s3.357 7.5 7.5 7.5h32.143c4.143 0 7.5-3.358 7.5-7.5s-3.358-7.5-7.501-7.5z"/><path d="m458.522 161.74h-52.112c-4.143 0-7.5 3.358-7.5 7.5s3.357 7.5 7.5 7.5h52.112c4.143 0 7.5-3.358 7.5-7.5s-3.357-7.5-7.5-7.5z"/></g></svg>