<svg id="Layer_1" enable-background="new 0 0 512 512" height="512" viewBox="0 0 512 512" width="512" xmlns="http://www.w3.org/2000/svg"><g><g><g><path d="m415.958 53.5v405c0 25.41-20.57 46-45.94 46h-227.66c-25.36 0-45.93-20.59-45.93-46v-405c0-25.41 20.57-46 45.93-46h227.66c25.37 0 45.94 20.59 45.94 46z" fill="#56788b"/><path d="m415.958 53.5v405c0 25.41-20.57 46-45.94 46h-20c25.37 0 45.94-20.59 45.94-46v-405c0-25.41-20.57-46-45.94-46h20c25.37 0 45.94 20.59 45.94 46z" fill="#415e6f"/><path d="m385.998 52.26v407.48c0 8.98-7.27 16.26-16.23 16.26h-227.15c-8.97 0-16.23-7.28-16.23-16.26v-407.48c0-8.98 7.26-16.26 16.23-16.26h23.71l5.87 18.23c2.45 7.61 9.52 12.77 17.51 12.77h132.97c7.98 0 15.06-5.16 17.51-12.77l5.87-18.23h23.71c8.96 0 16.23 7.28 16.23 16.26z" fill="#d9f0f4"/><path d="m385.998 52.26v407.48c0 8.98-7.27 16.26-16.23 16.26h-20c8.96 0 16.23-7.28 16.23-16.26v-407.48c0-8.98-7.27-16.26-16.23-16.26h20c8.96 0 16.23 7.28 16.23 16.26z" fill="#bae1e5"/><path d="m164.568 120.7v75.62c0 8.52-6.9 15.43-15.41 15.43h-99.79l-41.55 31.61v-122.66c0-8.52 6.9-15.43 15.41-15.43h125.93c8.51 0 15.41 6.91 15.41 15.43z" fill="#4dd4f7"/><path d="m164.568 120.7v75.62c0 8.52-6.9 15.43-15.41 15.43h-20c8.51 0 15.41-6.91 15.41-15.43v-75.62c0-8.52-6.9-15.43-15.41-15.43h20c8.51 0 15.41 6.91 15.41 15.43z" fill="#1e90ff"/></g></g><g><path d="m441.945 189.47c-6.687-6.689-17.529-6.689-24.217 0l-11.323 11.327 24.217 24.224 11.323-11.327c6.687-6.69 6.687-17.535 0-24.224z" fill="#ff6b81"/><path d="m280.394 312.018c-10.78 10.784-10.78 28.267 0 39.051s28.259 10.784 39.039 0z" fill="#ff6b81"/><path d="m352.53 384.173-14.142-14.142-91.082-91.111c-5.77-5.77-3.479-15.599 4.25-18.208l35.539-12.049 37.3-37.3c24.013-24.027 61.589-26.205 88.063-6.562 2.659 1.966 5.197 4.151 7.602 6.555 13.209 13.223 19.813 30.533 19.813 47.857s-6.597 34.641-19.82 47.85l-37.293 37.307-12.021 35.539c-2.631 7.736-12.446 10.027-18.209 4.264z" fill="#fbdf63"/><path d="m352.53 384.173-14.086-14.086c5.777 5.692 15.528 3.394 18.151-4.32l12.021-35.539 37.293-37.307c13.223-13.209 19.82-30.526 19.82-47.85 0-14.17-4.426-28.341-13.272-40.27 2.659 1.966 5.197 4.151 7.602 6.555 13.209 13.223 19.813 30.533 19.813 47.857s-6.597 34.641-19.82 47.85l-37.293 37.307-12.021 35.539c-2.63 7.736-12.445 10.027-18.208 4.264z" fill="#ffa402"/></g></g><g><path d="m88.68 241.694v151.767c0 4.142 3.357 7.5 7.5 7.5s7.5-3.358 7.5-7.5v-151.767c0-4.142-3.357-7.5-7.5-7.5s-7.5 3.358-7.5 7.5z"/><path d="m415.955 345.295c-4.143 0-7.5 3.358-7.5 7.5v105.705c0 21.229-17.257 38.5-38.468 38.5h-227.84c-21.211 0-38.468-17.271-38.468-38.5v-29.632c0-4.142-3.357-7.5-7.5-7.5s-7.5 3.358-7.5 7.5v29.632c0 29.5 23.985 53.5 53.468 53.5h227.84c29.482 0 53.468-24 53.468-53.5v-105.705c0-4.142-3.357-7.5-7.5-7.5z"/><path d="m96.18 82.773c4.143 0 7.5-3.358 7.5-7.5v-21.773c0-21.229 17.257-38.5 38.468-38.5h227.84c21.211 0 38.468 17.271 38.468 38.5v104.554c0 4.142 3.357 7.5 7.5 7.5s7.5-3.358 7.5-7.5v-104.554c-.001-29.5-23.986-53.5-53.469-53.5h-227.84c-29.482 0-53.467 24-53.467 53.5v21.773c0 4.143 3.357 7.5 7.5 7.5z"/><path d="m385.976 170.554c4.143 0 7.5-3.358 7.5-7.5v-110.799c0-13.099-10.651-23.755-23.744-23.755h-23.728c-3.256 0-6.14 2.101-7.139 5.199l-5.877 18.232c-1.459 4.527-5.633 7.569-10.385 7.569h-133.073c-4.752 0-8.925-3.042-10.384-7.57l-5.877-18.231c-.999-3.098-3.883-5.199-7.139-5.199h-23.729c-13.092 0-23.743 10.657-23.743 23.755v23.018c0 4.142 3.357 7.5 7.5 7.5s7.5-3.358 7.5-7.5v-23.018c0-4.828 3.922-8.755 8.743-8.755h18.267l4.2 13.032c3.466 10.747 13.376 17.968 24.662 17.968h133.073c11.287 0 21.197-7.221 24.662-17.967l4.2-13.033h18.266c4.821 0 8.744 3.928 8.744 8.755v110.798c.001 4.143 3.358 7.501 7.501 7.501z"/><path d="m126.159 234.301c-4.143 0-7.5 3.358-7.5 7.5v217.943c0 13.099 10.651 23.755 23.743 23.755h227.329c13.093 0 23.744-10.657 23.744-23.755v-50.904c0-4.142-3.357-7.5-7.5-7.5s-7.5 3.358-7.5 7.5v50.905c0 4.828-3.923 8.755-8.744 8.755h-227.329c-4.821 0-8.743-3.928-8.743-8.755v-217.944c0-4.142-3.357-7.5-7.5-7.5z"/><path d="m296.715 44.986c4.143 0 7.5-3.358 7.5-7.5s-3.357-7.5-7.5-7.5h-81.295c-4.143 0-7.5 3.358-7.5 7.5s3.357 7.5 7.5 7.5z"/><path d="m296.715 433.723h-81.295c-4.143 0-7.5 3.358-7.5 7.5s3.357 7.5 7.5 7.5h81.295c4.143 0 7.5-3.358 7.5-7.5s-3.358-7.5-7.5-7.5z"/><path d="m171.872 196.319v-75.617c0-12.643-10.281-22.929-22.918-22.929h-75.308c-4.143 0-7.5 3.358-7.5 7.5s3.357 7.5 7.5 7.5h75.308c4.366 0 7.918 3.557 7.918 7.929v75.617c0 4.372-3.552 7.929-7.918 7.929h-99.868c-1.64 0-3.234.537-4.539 1.529l-29.547 22.464v-107.539c0-4.372 3.552-7.929 7.918-7.929h16.233c4.143 0 7.5-3.358 7.5-7.5s-3.357-7.5-7.5-7.5h-16.233c-12.637 0-22.918 10.286-22.918 22.929v122.662c0 2.85 1.615 5.453 4.168 6.719 1.056.523 2.196.781 3.331.781 1.61 0 3.21-.518 4.54-1.529l39.574-30.086h97.341c12.637-.001 22.918-10.287 22.918-22.93z"/><path d="m133.407 140.944c0-4.142-3.357-7.5-7.5-7.5h-79.943c-4.143 0-7.5 3.358-7.5 7.5s3.357 7.5 7.5 7.5h79.943c4.143 0 7.5-3.358 7.5-7.5z"/><path d="m45.964 167.444c-4.143 0-7.5 3.358-7.5 7.5s3.357 7.5 7.5 7.5h69.951c4.143 0 7.5-3.358 7.5-7.5s-3.357-7.5-7.5-7.5z"/><path d="m447.248 218.997c9.6-9.603 9.6-25.227 0-34.83-4.65-4.652-10.835-7.214-17.412-7.214s-12.762 2.562-17.413 7.215l-7.376 7.379c-10.099-4.912-21.261-7.506-32.821-7.506-20.072 0-38.943 7.819-53.136 22.017l-36.058 36.068-33.878 11.477c-6.102 2.063-10.62 7.04-12.087 13.313-1.468 6.278.378 12.749 4.938 17.309l28.354 28.363c-8.714 13.586-7.137 31.913 4.731 43.783 6.63 6.633 15.446 10.286 24.823 10.286 6.824 0 13.351-1.935 18.954-5.545l28.353 28.362c3.524 3.525 8.192 5.427 13.032 5.427 1.411 0 2.837-.162 4.252-.492 6.277-1.464 11.262-5.982 13.332-12.087.001-.002.001-.003.002-.005l11.465-33.882 36.056-36.067c14.195-14.189 22.013-33.066 22.013-53.156 0-11.564-2.593-22.73-7.504-32.833zm-24.217-24.225c1.818-1.818 4.234-2.82 6.805-2.82s4.986 1.001 6.805 2.82c3.753 3.754 3.753 9.864 0 13.619l-4.902 4.903c-1.955-2.525-4.083-4.943-6.377-7.238s-4.71-4.423-7.234-6.378zm-123.118 156.885c-5.37 0-10.418-2.092-14.216-5.89-5.966-5.968-7.392-14.785-4.277-22.114l26.391 26.399c-2.464 1.052-5.138 1.605-7.898 1.605zm114.841-49.897-31.988 31.997-41.825-41.838c-2.927-2.929-7.676-2.93-10.606-.001-2.929 2.929-2.93 7.677-.001 10.607l43.832 43.845-10.534 31.133c-.547 1.613-1.822 2.132-2.533 2.298-.709.166-2.074.263-3.27-.932l-105.217-105.249c-1.204-1.205-1.105-2.578-.939-3.289.166-.708.684-1.977 2.29-2.52l31.127-10.545 20.598 20.605c1.464 1.465 3.384 2.198 5.304 2.198 1.919 0 3.838-.732 5.303-2.196 2.929-2.929 2.93-7.677.001-10.606l-18.593-18.599 31.995-32.005c11.36-11.363 26.464-17.622 42.528-17.622 10.72 0 21.012 2.787 30.05 8.018.219.145.443.276.673.395 4.25 2.535 8.215 5.616 11.806 9.208 3.595 3.597 6.679 7.568 9.215 11.827.115.219.24.434.378.643 5.235 9.045 8.025 19.348 8.025 30.079-.001 16.081-6.258 31.192-17.619 42.549z"/><path d="m313.244 152.764c-12.404 0-22.495 10.093-22.495 22.5 0 4.142 3.357 7.5 7.5 7.5s7.5-3.358 7.5-7.5c0-4.136 3.362-7.5 7.495-7.5 4.143 0 7.5-3.358 7.5-7.5s-3.357-7.5-7.5-7.5z"/><path d="m313.244 121.155c-29.827 0-54.094 24.273-54.094 54.109 0 4.142 3.357 7.5 7.5 7.5s7.5-3.358 7.5-7.5c0-21.565 17.537-39.109 39.094-39.109 4.143 0 7.5-3.358 7.5-7.5s-3.357-7.5-7.5-7.5z"/><path d="m450.405 334.969c0 4.142 3.357 7.5 7.5 7.5 12.404 0 22.496-10.093 22.496-22.5 0-4.142-3.357-7.5-7.5-7.5s-7.5 3.358-7.5 7.5c0 4.136-3.362 7.5-7.496 7.5-4.142 0-7.5 3.358-7.5 7.5z"/><path d="m504.5 312.469c-4.143 0-7.5 3.358-7.5 7.5 0 21.564-17.538 39.108-39.095 39.108-4.143 0-7.5 3.358-7.5 7.5s3.357 7.5 7.5 7.5c29.828 0 54.095-24.273 54.095-54.108 0-4.142-3.357-7.5-7.5-7.5z"/><path d="m170.944 369.401h32.143c4.143 0 7.5-3.358 7.5-7.5s-3.357-7.5-7.5-7.5h-32.143c-4.143 0-7.5 3.358-7.5 7.5s3.358 7.5 7.5 7.5z"/><path d="m223.058 389.401h-52.113c-4.143 0-7.5 3.358-7.5 7.5s3.357 7.5 7.5 7.5h52.113c4.143 0 7.5-3.358 7.5-7.5s-3.358-7.5-7.5-7.5z"/></g></svg>