<svg id="Layer_1" enable-background="new 0 0 512 512" height="512" viewBox="0 0 512 512" width="512" xmlns="http://www.w3.org/2000/svg"><g><path d="m474.376 53.54v404.92c0 25.43-20.55 46.04-45.89 46.04h-345.23c-25.34 0-45.88-20.61-45.88-46.04v-404.92c0-25.43 20.54-46.04 45.88-46.04h345.23c25.34 0 45.89 20.61 45.89 46.04z" fill="#4dd4f7"/><path d="m474.376 53.54v404.92c0 25.43-20.55 46.04-45.89 46.04h-20c25.34 0 45.89-20.61 45.89-46.04v-404.92c0-25.43-20.55-46.04-45.89-46.04h20c25.34 0 45.89 20.61 45.89 46.04z" fill="#1e90ff"/><path d="m444.446 83.32v376.38c0 8.99-7.26 16.27-16.21 16.27h-344.72c-8.96 0-16.22-7.28-16.22-16.27v-376.38c0-8.98 7.26-16.27 16.22-16.27h344.72c8.95 0 16.21 7.29 16.21 16.27z" fill="#d9f0f4"/><path d="m444.446 83.32v376.38c0 8.99-7.26 16.27-16.21 16.27h-20c8.95 0 16.21-7.28 16.21-16.27v-376.38c0-8.98-7.26-16.27-16.21-16.27h20c8.95 0 16.21 7.29 16.21 16.27z" fill="#bae1e5"/><path d="m328.656 291.515-72.783-30-72.782 30c-19.501 89.312 67.139 87.416 72.782 87.416s92.285 1.896 72.783-87.416z" fill="#fdd9b4"/><path d="m144.246 128.54v75.68c0 8.53-6.89 15.44-15.4 15.44h-79.79l-41.56 31.65v-122.77c0-8.53 6.9-15.45 15.41-15.45h105.94c8.511 0 15.4 6.92 15.4 15.45z" fill="#ff6b81"/><path d="m144.246 128.54v75.68c0 8.53-6.89 15.44-15.4 15.44h-20c8.51 0 15.4-6.91 15.4-15.44v-75.68c0-8.53-6.89-15.45-15.4-15.45h20c8.511 0 15.4 6.92 15.4 15.45z" fill="#ed2061"/><path d="m504.496 386.84c0 13.73-11.1 24.86-24.79 24.86h-64.31l-19.12 26.43-19.12-26.43h-6.64c-13.7 0-24.8-11.13-24.8-24.86s11.1-24.86 24.8-24.86h109.19c13.69 0 24.79 11.13 24.79 24.86z" fill="#fbdf63"/><path d="m504.496 386.84c0 13.73-11.1 24.86-24.79 24.86h-20c13.69 0 24.79-11.13 24.79-24.86s-11.1-24.86-24.79-24.86h20c13.69 0 24.79 11.13 24.79 24.86z" fill="#ffa402"/><path d="m326.454 223.573c2.315-3.877 3.645-8.411 3.645-13.255 0-14.301-11.591-25.894-25.888-25.894-5.561 0-10.713 1.754-14.932 4.739-3.368-6.564-10.203-11.056-18.087-11.056-8.197 0-15.26 4.856-18.472 11.848-4.611-7.13-12.631-11.848-21.752-11.848-11.951 0-22.011 8.1-24.991 19.11-2.462-1.061-5.177-1.649-8.028-1.649-11.221 0-20.317 9.098-20.317 20.321 0 5.193 1.948 9.931 5.153 13.524l.016.015c-11.384 5.651-19.209 17.397-19.209 30.972 0 19.084 15.466 34.555 34.544 34.555 14.514 0 26.938-8.955 32.051-21.642 6.293 4.746 14.124 7.56 22.612 7.56 8.661 0 16.637-2.93 22.994-7.851 5.859 13.28 19.139 22.549 34.584 22.549 20.867 0 37.783-16.92 37.783-37.791-.002-15.12-8.88-28.165-21.706-34.207z" fill="#f79e60"/></g><g><path d="m37.374 90.823c4.142 0 7.5-3.358 7.5-7.5v-29.782c0-21.251 17.218-38.541 38.383-38.541h242.001c4.142 0 7.5-3.358 7.5-7.5s-3.358-7.5-7.5-7.5h-242.001c-29.436 0-53.383 24.019-53.383 53.541v29.782c0 4.142 3.358 7.5 7.5 7.5z"/><path d="m360.303 15h68.188c21.165 0 38.383 17.29 38.383 38.541v278.605c0 4.142 3.358 7.5 7.5 7.5s7.5-3.358 7.5-7.5v-278.605c0-29.522-23.948-53.541-53.383-53.541h-68.188c-4.142 0-7.5 3.358-7.5 7.5s3.358 7.5 7.5 7.5z"/><path d="m474.374 433.494c-4.142 0-7.5 3.358-7.5 7.5v17.465c0 21.251-17.219 38.541-38.383 38.541h-345.234c-21.165 0-38.383-17.29-38.383-38.541v-192.712c0-4.142-3.358-7.5-7.5-7.5s-7.5 3.358-7.5 7.5v192.712c0 29.522 23.947 53.541 53.383 53.541h345.234c29.436 0 53.383-24.019 53.383-53.541v-17.465c0-4.142-3.358-7.5-7.5-7.5z"/><path d="m154.892 483.475h273.344c13.076 0 23.714-10.663 23.714-23.77v-17.918c0-4.142-3.358-7.5-7.5-7.5s-7.5 3.358-7.5 7.5v17.918c0 4.836-3.909 8.77-8.714 8.77h-273.344c-4.142 0-7.5 3.358-7.5 7.5s3.358 7.5 7.5 7.5z"/><path d="m67.298 242.495c-4.142 0-7.5 3.358-7.5 7.5v209.71c0 13.107 10.638 23.77 23.714 23.77h36.737c4.142 0 7.5-3.358 7.5-7.5s-3.358-7.5-7.5-7.5h-36.737c-4.805 0-8.714-3.934-8.714-8.77v-209.71c0-4.142-3.358-7.5-7.5-7.5z"/><path d="m451.95 83.323c0-13.107-10.638-23.77-23.714-23.77h-344.724c-13.076 0-23.714 10.663-23.714 23.77 0 4.142 3.358 7.5 7.5 7.5s7.5-3.358 7.5-7.5c0-4.836 3.909-8.77 8.714-8.77h344.724c4.805 0 8.714 3.934 8.714 8.77v99.44c0 4.142 3.358 7.5 7.5 7.5s7.5-3.358 7.5-7.5z"/><path d="m444.45 210.359c-4.142 0-7.5 3.358-7.5 7.5v114.287c0 4.142 3.358 7.5 7.5 7.5s7.5-3.358 7.5-7.5v-114.287c0-4.142-3.358-7.5-7.5-7.5z"/><path d="m355.658 257.78c0-14.982-7.516-28.955-19.632-37.322 1.038-3.261 1.573-6.682 1.573-10.141 0-18.413-14.978-33.394-33.388-33.394-4.406 0-8.697.851-12.691 2.495-5.179-5.558-12.474-8.812-20.329-8.812-7.187 0-13.973 2.8-19.049 7.56-5.884-4.835-13.317-7.56-21.175-7.56-12.501 0-23.764 6.996-29.471 17.685-1.17-.148-2.354-.223-3.549-.223-15.338 0-27.817 12.48-27.817 27.821 0 3.884.808 7.683 2.34 11.175-10.263 7.864-16.38 20.037-16.38 33.335 0 14.514 7.389 27.334 18.601 34.895-4.793 26.641-.765 48.119 12 63.899 9.44 11.669 23.251 19.762 41.05 24.053 6.147 1.482 15.949 3.245 27.819 3.184l.313-.001.313.001c.176.001.352.001.528.001 11.619 0 21.236-1.726 27.292-3.185 17.799-4.291 31.61-12.384 41.05-24.053 12.898-15.944 16.875-37.705 11.847-64.73 11.356-8.236 18.755-21.611 18.755-36.683zm-42.263 91.981c-16.399 20.272-47.898 21.738-57.14 21.67l-.381-.001-.381.001c-9.275.082-40.741-1.398-57.14-21.67-9.376-11.59-12.55-27.823-9.473-48.332 2.978.672 6.075 1.027 9.253 1.027 14.282 0 27.236-7.088 34.93-18.611 6.098 2.979 12.793 4.528 19.733 4.528 7.179 0 14.08-1.65 20.332-4.823 8.358 12.072 22.217 19.521 37.246 19.521 4.326 0 8.512-.61 12.477-1.749 3.105 20.56-.065 36.829-9.456 48.439zm-3.02-61.69c-11.996 0-22.877-7.096-27.722-18.077-.931-2.111-2.783-3.676-5.02-4.243-.608-.154-1.227-.23-1.842-.23-1.646 0-3.265.542-4.592 1.57-5.307 4.109-11.67 6.281-18.402 6.281-6.592 0-12.85-2.091-18.097-6.048-1.863-1.405-4.273-1.864-6.522-1.238-2.248.624-4.078 2.259-4.95 4.423-4.149 10.294-13.999 16.946-25.095 16.946-14.912 0-27.043-12.137-27.043-27.055 0-10.354 5.764-19.648 15.043-24.254 2.201-1.093 3.72-3.202 4.078-5.632.327-2.218-.363-4.46-1.848-6.112-2.085-2.346-3.232-5.368-3.232-8.512 0-7.07 5.75-12.821 12.817-12.821 1.762 0 3.465.349 5.061 1.036 1.997.86 4.27.812 6.229-.134s3.411-2.695 3.979-4.794c2.163-7.99 9.463-13.57 17.752-13.57 6.267 0 12.044 3.148 15.454 8.421 1.486 2.298 4.097 3.602 6.836 3.407 2.729-.196 5.135-1.863 6.277-4.351 2.086-4.542 6.662-7.478 11.656-7.478 4.832 0 9.206 2.674 11.415 6.979.992 1.934 2.774 3.342 4.886 3.86 2.113.518 4.344.094 6.118-1.161 3.11-2.199 6.775-3.362 10.602-3.362 10.139 0 18.388 8.251 18.388 18.394 0 3.324-.894 6.578-2.584 9.41-1.085 1.817-1.352 4.009-.734 6.034.618 2.024 2.063 3.694 3.977 4.596 10.57 4.979 17.4 15.744 17.4 27.423-.002 16.704-13.587 30.292-30.285 30.292z"/><path d="m275.789 330.984c-3.48-2.244-8.122-1.245-10.369 2.236-2.106 3.265-5.675 5.214-9.546 5.214s-7.439-1.949-9.546-5.214c-2.247-3.481-6.889-4.482-10.369-2.236s-4.481 6.888-2.236 10.369c4.881 7.565 13.162 12.082 22.15 12.082s17.27-4.517 22.151-12.082c2.246-3.481 1.245-8.124-2.235-10.369z"/><path d="m89.61 44.332h30.639c4.142 0 7.5-3.358 7.5-7.5s-3.358-7.5-7.5-7.5h-30.639c-4.142 0-7.5 3.358-7.5 7.5s3.358 7.5 7.5 7.5z"/><path d="m180.249 44.332c4.142 0 7.5-3.358 7.5-7.5s-3.358-7.5-7.5-7.5h-30.639c-4.142 0-7.5 3.358-7.5 7.5s3.358 7.5 7.5 7.5z"/><path d="m112.298 403.542h32.143c4.142 0 7.5-3.358 7.5-7.5s-3.358-7.5-7.5-7.5h-32.143c-4.142 0-7.5 3.358-7.5 7.5s3.358 7.5 7.5 7.5z"/><path d="m171.911 431.074c0-4.142-3.358-7.5-7.5-7.5h-52.113c-4.142 0-7.5 3.358-7.5 7.5s3.358 7.5 7.5 7.5h52.113c4.142 0 7.5-3.358 7.5-7.5z"/><path d="m399.392 139.539h-32.143c-4.142 0-7.5 3.358-7.5 7.5s3.358 7.5 7.5 7.5h32.143c4.142 0 7.5-3.358 7.5-7.5s-3.358-7.5-7.5-7.5z"/><path d="m399.392 104.507h-52.113c-4.142 0-7.5 3.358-7.5 7.5s3.358 7.5 7.5 7.5h52.113c4.142 0 7.5-3.358 7.5-7.5s-3.358-7.5-7.5-7.5z"/><path d="m128.844 227.165c12.63 0 22.906-10.292 22.906-22.943v-75.685c0-12.65-10.275-22.942-22.906-22.942h-9.249c-4.142 0-7.5 3.358-7.5 7.5s3.358 7.5 7.5 7.5h9.249c4.359 0 7.906 3.563 7.906 7.942v75.685c0 4.38-3.546 7.943-7.906 7.943h-79.79c-1.642 0-3.238.539-4.544 1.533l-29.51 22.472v-107.633c0-4.379 3.547-7.942 7.906-7.942h62.221c4.142 0 7.5-3.358 7.5-7.5s-3.358-7.5-7.5-7.5h-62.221c-12.63 0-22.906 10.292-22.906 22.942v122.771c0 2.851 1.616 5.455 4.17 6.721 1.055.522 2.194.779 3.329.779 1.612 0 3.213-.519 4.545-1.533l39.541-30.111h77.259z"/><path d="m116.316 148.797c0-4.142-3.358-7.5-7.5-7.5h-62.881c-4.142 0-7.5 3.358-7.5 7.5s3.358 7.5 7.5 7.5h62.881c4.142 0 7.5-3.358 7.5-7.5z"/><path d="m45.935 175.328c-4.142 0-7.5 3.358-7.5 7.5s3.358 7.5 7.5 7.5h52.896c4.142 0 7.5-3.358 7.5-7.5s-3.358-7.5-7.5-7.5z"/><path d="m479.702 354.484h-109.189c-17.81 0-32.298 14.516-32.298 32.357 0 17.842 14.489 32.358 32.298 32.358h2.81l16.877 23.325c1.41 1.949 3.67 3.104 6.076 3.104s4.666-1.154 6.076-3.104l16.877-23.325h60.472c17.81 0 32.298-14.516 32.298-32.358.001-17.841-14.488-32.357-32.297-32.357zm0 49.715h-64.302c-2.406 0-4.666 1.154-6.076 3.104l-13.047 18.031-13.046-18.031c-1.41-1.949-3.67-3.104-6.076-3.104h-6.641c-9.539 0-17.298-7.787-17.298-17.358s7.76-17.357 17.298-17.357h109.188c9.539 0 17.298 7.787 17.298 17.357 0 9.572-7.76 17.358-17.298 17.358z"/></g></svg>