<svg id="Layer_1" enable-background="new 0 0 512 512" height="512" viewBox="0 0 512 512" width="512" xmlns="http://www.w3.org/2000/svg"><g><g><path d="m474.376 53.54v404.92c0 25.43-20.55 46.04-45.89 46.04h-345.229c-25.34 0-45.88-20.61-45.88-46.04v-404.92c0-25.43 20.54-46.04 45.88-46.04h345.23c25.34 0 45.889 20.61 45.889 46.04z" fill="#09eaa3"/><path d="m474.376 53.54v404.92c0 25.43-20.55 46.04-45.89 46.04h-20c25.34 0 45.89-20.61 45.89-46.04v-404.92c0-25.43-20.55-46.04-45.89-46.04h20c25.341 0 45.89 20.61 45.89 46.04z" fill="#14bb87"/><path d="m444.447 83.32v376.38c0 8.99-7.26 16.27-16.21 16.27h-344.72c-8.96 0-16.22-7.28-16.22-16.27v-376.38c0-8.98 7.26-16.27 16.22-16.27h344.72c8.949 0 16.21 7.29 16.21 16.27z" fill="#d9f0f4"/><path d="m444.447 83.32v376.38c0 8.99-7.26 16.27-16.21 16.27h-20c8.95 0 16.21-7.28 16.21-16.27v-376.38c0-8.98-7.26-16.27-16.21-16.27h20c8.949 0 16.21 7.29 16.21 16.27z" fill="#bae1e5"/><path d="m144.246 128.54v75.68c0 8.53-6.89 15.44-15.4 15.44h-79.79l-41.56 31.65v-122.77c0-8.53 6.9-15.45 15.41-15.45h105.94c8.511 0 15.4 6.92 15.4 15.45z" fill="#4dd4f7"/><path d="m144.246 128.54v75.68c0 8.53-6.89 15.44-15.4 15.44h-20c8.51 0 15.4-6.91 15.4-15.44v-75.68c0-8.53-6.89-15.45-15.4-15.45h20c8.511 0 15.4 6.92 15.4 15.45z" fill="#1e90ff"/><path d="m504.496 386.84c0 13.73-11.1 24.86-24.79 24.86h-64.31l-19.12 26.43-19.12-26.43h-6.64c-13.7 0-24.8-11.13-24.8-24.86s11.1-24.86 24.8-24.86h109.19c13.691 0 24.79 11.13 24.79 24.86z" fill="#fbdf63"/><path d="m504.496 386.84c0 13.73-11.1 24.86-24.79 24.86h-20c13.69 0 24.79-11.13 24.79-24.86s-11.1-24.86-24.79-24.86h20c13.691 0 24.79 11.13 24.79 24.86z" fill="#ffa402"/></g><path d="m328.226 275.767s11.73 111.356-68.902 111.356c-80.315 0-68.142-107.969-68.142-107.969l68.449-51.692z" fill="#fdd9b4"/><path d="m328.398 275.77c-31.93 0-44.82-25.71-44.82-25.71-53.54 39.01-97.03 42.49-110.16 10.45-17.54-42.82 53.66-119.28 126.78-52.68 43.09-12.57 68.47 67.94 28.2 67.94z" fill="#56788b"/><path d="m328.398 275.77c-31.93 0-44.82-25.71-44.82-25.71-14-29.49 16.62-42.23 16.62-42.23 43.09-12.57 68.47 67.94 28.2 67.94z" fill="#415e6f"/></g><g><path d="m37.374 90.823c4.142 0 7.5-3.358 7.5-7.5v-29.782c0-21.251 17.218-38.541 38.383-38.541h242.001c4.142 0 7.5-3.358 7.5-7.5s-3.358-7.5-7.5-7.5h-242.001c-29.436 0-53.383 24.019-53.383 53.541v29.782c0 4.142 3.358 7.5 7.5 7.5z"/><path d="m360.303 15h68.188c21.165 0 38.383 17.29 38.383 38.541v278.605c0 4.142 3.358 7.5 7.5 7.5s7.5-3.358 7.5-7.5v-278.605c0-29.522-23.948-53.541-53.383-53.541h-68.188c-4.142 0-7.5 3.358-7.5 7.5s3.358 7.5 7.5 7.5z"/><path d="m474.374 433.494c-4.142 0-7.5 3.358-7.5 7.5v17.465c0 21.251-17.219 38.541-38.383 38.541h-345.234c-21.165 0-38.383-17.29-38.383-38.541v-192.712c0-4.142-3.358-7.5-7.5-7.5s-7.5 3.358-7.5 7.5v192.712c0 29.522 23.947 53.541 53.383 53.541h345.234c29.436 0 53.383-24.019 53.383-53.541v-17.465c0-4.142-3.358-7.5-7.5-7.5z"/><path d="m154.892 483.475h273.344c13.076 0 23.714-10.663 23.714-23.77v-17.918c0-4.142-3.358-7.5-7.5-7.5s-7.5 3.358-7.5 7.5v17.918c0 4.836-3.909 8.77-8.714 8.77h-273.344c-4.142 0-7.5 3.358-7.5 7.5s3.358 7.5 7.5 7.5z"/><path d="m67.298 242.495c-4.142 0-7.5 3.358-7.5 7.5v209.71c0 13.107 10.638 23.77 23.714 23.77h36.737c4.142 0 7.5-3.358 7.5-7.5s-3.358-7.5-7.5-7.5h-36.737c-4.805 0-8.714-3.934-8.714-8.77v-209.71c0-4.142-3.358-7.5-7.5-7.5z"/><path d="m451.95 83.323c0-13.107-10.638-23.77-23.714-23.77h-344.724c-13.076 0-23.714 10.663-23.714 23.77 0 4.142 3.358 7.5 7.5 7.5s7.5-3.358 7.5-7.5c0-4.836 3.909-8.77 8.714-8.77h344.724c4.805 0 8.714 3.934 8.714 8.77v99.44c0 4.142 3.358 7.5 7.5 7.5s7.5-3.358 7.5-7.5z"/><path d="m444.45 210.359c-4.142 0-7.5 3.358-7.5 7.5v114.287c0 4.142 3.358 7.5 7.5 7.5s7.5-3.358 7.5-7.5v-114.287c0-4.142-3.358-7.5-7.5-7.5z"/><path d="m89.61 44.332h30.639c4.142 0 7.5-3.358 7.5-7.5s-3.358-7.5-7.5-7.5h-30.639c-4.142 0-7.5 3.358-7.5 7.5s3.358 7.5 7.5 7.5z"/><path d="m180.249 44.332c4.142 0 7.5-3.358 7.5-7.5s-3.358-7.5-7.5-7.5h-30.639c-4.142 0-7.5 3.358-7.5 7.5s3.358 7.5 7.5 7.5z"/><path d="m112.298 403.542h32.143c4.142 0 7.5-3.358 7.5-7.5s-3.358-7.5-7.5-7.5h-32.143c-4.142 0-7.5 3.358-7.5 7.5s3.358 7.5 7.5 7.5z"/><path d="m171.911 431.074c0-4.142-3.358-7.5-7.5-7.5h-52.113c-4.142 0-7.5 3.358-7.5 7.5s3.358 7.5 7.5 7.5h52.113c4.142 0 7.5-3.358 7.5-7.5z"/><path d="m399.392 139.539h-32.143c-4.142 0-7.5 3.358-7.5 7.5s3.358 7.5 7.5 7.5h32.143c4.142 0 7.5-3.358 7.5-7.5s-3.358-7.5-7.5-7.5z"/><path d="m399.392 104.507h-52.113c-4.142 0-7.5 3.358-7.5 7.5s3.358 7.5 7.5 7.5h52.113c4.142 0 7.5-3.358 7.5-7.5s-3.358-7.5-7.5-7.5z"/><path d="m128.844 227.165c12.63 0 22.906-10.292 22.906-22.943v-75.685c0-12.65-10.275-22.942-22.906-22.942h-9.249c-4.142 0-7.5 3.358-7.5 7.5s3.358 7.5 7.5 7.5h9.249c4.359 0 7.906 3.563 7.906 7.942v75.685c0 4.38-3.546 7.943-7.906 7.943h-79.79c-1.642 0-3.238.539-4.544 1.533l-29.51 22.472v-107.633c0-4.379 3.547-7.942 7.906-7.942h62.221c4.142 0 7.5-3.358 7.5-7.5s-3.358-7.5-7.5-7.5h-62.221c-12.63 0-22.906 10.292-22.906 22.942v122.771c0 2.851 1.616 5.455 4.17 6.721 1.055.522 2.194.779 3.329.779 1.612 0 3.213-.519 4.545-1.533l39.541-30.111h77.259z"/><path d="m116.316 148.797c0-4.142-3.358-7.5-7.5-7.5h-62.881c-4.142 0-7.5 3.358-7.5 7.5s3.358 7.5 7.5 7.5h62.881c4.142 0 7.5-3.358 7.5-7.5z"/><path d="m45.935 175.328c-4.142 0-7.5 3.358-7.5 7.5s3.358 7.5 7.5 7.5h52.896c4.142 0 7.5-3.358 7.5-7.5s-3.358-7.5-7.5-7.5z"/><path d="m479.702 354.484h-109.189c-17.81 0-32.298 14.516-32.298 32.357 0 17.842 14.489 32.358 32.298 32.358h2.81l16.877 23.325c1.41 1.949 3.67 3.104 6.076 3.104s4.666-1.154 6.076-3.104l16.877-23.325h60.472c17.81 0 32.298-14.516 32.298-32.358.001-17.841-14.488-32.357-32.297-32.357zm0 49.715h-64.302c-2.406 0-4.666 1.154-6.076 3.104l-13.046 18.031-13.047-18.031c-1.411-1.949-3.67-3.104-6.076-3.104h-6.641c-9.539 0-17.298-7.787-17.298-17.358s7.76-17.357 17.298-17.357h109.188c9.539 0 17.298 7.787 17.298 17.357 0 9.572-7.76 17.358-17.298 17.358z"/><path d="m353.138 268.297c6.758-14.777 1.624-37.754-11.943-53.446-10.71-12.388-24.705-17.789-38.927-15.203-17.859-15.4-36.688-23.906-56.017-25.297-17.632-1.265-34.838 3.569-49.737 13.99-26.923 18.832-39.834 51.079-30.031 75.009 3.616 8.827 9.345 15.643 16.827 20.124-.939 15.439-1.372 61.412 23.55 89.303 12.954 14.497 30.605 21.847 52.464 21.847 21.587 0 39.125-7.322 52.125-21.763 24.703-27.441 25.488-72.736 24.734-90.493 7.706-1.892 13.595-6.726 16.955-14.071zm-50.371-53.395c6.998-1.905 17.223-1.644 27.081 9.759 9.484 10.97 13.903 28.096 9.649 37.397-1.219 2.666-3.696 6.209-11.097 6.209-26.323 0-37.378-20.168-38.089-21.521-3.163-6.709-3.735-12.523-1.749-17.772 3.226-8.525 12.397-13.216 14.205-14.072zm-97.656-14.269c7.692-5.38 19.886-11.48 35.632-11.48 1.447 0 2.925.051 4.432.16 14.29 1.028 28.47 6.933 42.261 17.581-4.73 3.681-9.974 9.144-12.845 16.62-2.869 7.471-2.918 15.475-.16 23.863-31.079 21.643-58.932 31.09-76.971 25.979-8.123-2.302-13.716-7.435-17.097-15.689-7.092-17.315 3.779-42.367 24.748-57.034zm95.188 162.192c-10.175 11.304-23.579 16.799-40.976 16.799-17.634 0-31.127-5.499-41.251-16.811-19.017-21.247-20.432-57.313-19.958-73.944 3.114.549 6.373.822 9.769.822 20.538-.001 46.005-9.981 73.742-29.052 6.215 7.958 18.811 19.915 39.544 22.231.64 15.661.093 56.668-20.87 79.955z"/><path d="m279.587 332.984c-3.48-2.246-8.123-1.245-10.368 2.235-2.107 3.266-5.676 5.215-9.547 5.215s-7.44-1.949-9.546-5.214c-2.246-3.481-6.888-4.482-10.368-2.236s-4.482 6.888-2.236 10.368c4.881 7.566 13.162 12.083 22.151 12.083 8.988 0 17.269-4.517 22.15-12.082 2.246-3.481 1.245-8.124-2.236-10.369z"/></g></svg>