<svg id="Layer_1" enable-background="new 0 0 512 512" height="512" viewBox="0 0 512 512" width="512" xmlns="http://www.w3.org/2000/svg"><g><g><g><path d="m474.376 53.54v404.92c0 25.43-20.55 46.04-45.89 46.04h-345.227c-25.34 0-45.88-20.61-45.88-46.04v-404.92c0-25.43 20.54-46.04 45.88-46.04h345.227c25.34 0 45.89 20.61 45.89 46.04z" fill="#f79e60"/><path d="m474.376 53.54v404.92c0 25.43-20.55 46.04-45.89 46.04h-20c25.34 0 45.89-20.61 45.89-46.04v-404.92c0-25.43-20.55-46.04-45.89-46.04h20c25.34 0 45.89 20.61 45.89 46.04z" fill="#d77d41"/><path d="m444.447 83.32v376.38c0 8.99-7.26 16.27-16.21 16.27h-344.718c-8.96 0-16.22-7.28-16.22-16.27v-376.38c0-8.98 7.26-16.27 16.22-16.27h344.717c8.951 0 16.211 7.29 16.211 16.27z" fill="#d9f0f4"/><path d="m444.447 83.32v376.38c0 8.99-7.26 16.27-16.21 16.27h-20c8.95 0 16.21-7.28 16.21-16.27v-376.38c0-8.98-7.26-16.27-16.21-16.27h20c8.95 0 16.21 7.29 16.21 16.27z" fill="#bae1e5"/><path d="m144.249 128.54v75.68c0 8.53-6.89 15.44-15.4 15.44h-79.79l-41.559 31.65v-122.77c0-8.53 6.9-15.45 15.41-15.45h105.939c8.51 0 15.4 6.92 15.4 15.45z" fill="#fbdf63"/><path d="m144.249 128.54v75.68c0 8.53-6.89 15.44-15.4 15.44h-20c8.51 0 15.4-6.91 15.4-15.44v-75.68c0-8.53-6.89-15.45-15.4-15.45h20c8.51 0 15.4 6.92 15.4 15.45z" fill="#ffa402"/><path d="m504.496 386.84c0 13.73-11.1 24.86-24.79 24.86h-64.31l-19.12 26.43-19.12-26.43h-6.64c-13.7 0-24.8-11.13-24.8-24.86s11.1-24.86 24.8-24.86h109.189c13.691 0 24.791 11.13 24.791 24.86z" fill="#fbdf63"/><path d="m504.496 386.84c0 13.73-11.1 24.86-24.79 24.86h-20c13.69 0 24.79-11.13 24.79-24.86s-11.1-24.86-24.79-24.86h20c13.69 0 24.79 11.13 24.79 24.86z" fill="#ffa402"/></g></g><path d="m184.965 277.354c0 107.955 67.539 104.58 70.911 104.58s70.911 3.375 70.911-104.58l-70.911-50.734z" fill="#fdd9b4"/><path d="m255.875 188.993c-14.504 0-89.348-9.17-79.753 90.009 0 0 79.753-11.598 79.753-52.383 0 40.785 79.752 52.383 79.752 52.383 9.596-99.179-65.248-90.009-79.752-90.009z" fill="#fff"/><path d="m256.128 139.316c-35.648 0-50.798 36.852-23.403 50.946h46.807c27.394-14.094 12.244-50.946-23.404-50.946z" fill="#fff"/><g fill="#d9f0f4"><ellipse cx="226.273" cy="315.051" rx="25.355" ry="17.303"/><ellipse cx="285.983" cy="315.051" rx="25.355" ry="17.303"/></g></g><g><path d="m37.374 90.823c4.142 0 7.5-3.358 7.5-7.5v-29.782c0-21.251 17.219-38.541 38.383-38.541h242.001c4.143 0 7.5-3.358 7.5-7.5s-3.357-7.5-7.5-7.5h-242.001c-29.435 0-53.383 24.019-53.383 53.541v29.782c0 4.142 3.358 7.5 7.5 7.5z"/><path d="m360.303 15h68.188c21.164 0 38.383 17.29 38.383 38.541v278.605c0 4.142 3.357 7.5 7.5 7.5s7.5-3.358 7.5-7.5v-278.605c0-29.522-23.947-53.541-53.383-53.541h-68.188c-4.143 0-7.5 3.358-7.5 7.5s3.358 7.5 7.5 7.5z"/><path d="m474.374 433.494c-4.143 0-7.5 3.358-7.5 7.5v17.465c0 21.251-17.219 38.541-38.383 38.541h-345.234c-21.165 0-38.383-17.29-38.383-38.541v-192.712c0-4.142-3.358-7.5-7.5-7.5s-7.5 3.358-7.5 7.5v192.712c0 29.522 23.948 53.541 53.383 53.541h345.234c29.436 0 53.383-24.019 53.383-53.541v-17.465c0-4.142-3.358-7.5-7.5-7.5z"/><path d="m154.892 483.475h273.344c13.076 0 23.714-10.663 23.714-23.77v-17.918c0-4.142-3.357-7.5-7.5-7.5s-7.5 3.358-7.5 7.5v17.918c0 4.836-3.909 8.77-8.714 8.77h-273.344c-4.142 0-7.5 3.358-7.5 7.5s3.358 7.5 7.5 7.5z"/><path d="m67.298 242.495c-4.142 0-7.5 3.358-7.5 7.5v209.71c0 13.107 10.638 23.77 23.714 23.77h36.736c4.142 0 7.5-3.358 7.5-7.5s-3.358-7.5-7.5-7.5h-36.736c-4.805 0-8.714-3.934-8.714-8.77v-209.71c0-4.142-3.358-7.5-7.5-7.5z"/><path d="m451.95 83.323c0-13.107-10.638-23.77-23.714-23.77h-344.724c-13.076 0-23.714 10.663-23.714 23.77 0 4.142 3.358 7.5 7.5 7.5s7.5-3.358 7.5-7.5c0-4.836 3.909-8.77 8.714-8.77h344.724c4.805 0 8.714 3.934 8.714 8.77v99.44c0 4.142 3.357 7.5 7.5 7.5s7.5-3.358 7.5-7.5z"/><path d="m444.45 210.359c-4.143 0-7.5 3.358-7.5 7.5v114.287c0 4.142 3.357 7.5 7.5 7.5s7.5-3.358 7.5-7.5v-114.287c0-4.142-3.357-7.5-7.5-7.5z"/><path d="m89.61 44.332h30.638c4.142 0 7.5-3.358 7.5-7.5s-3.358-7.5-7.5-7.5h-30.638c-4.142 0-7.5 3.358-7.5 7.5s3.358 7.5 7.5 7.5z"/><path d="m180.248 44.332c4.142 0 7.5-3.358 7.5-7.5s-3.358-7.5-7.5-7.5h-30.638c-4.142 0-7.5 3.358-7.5 7.5s3.358 7.5 7.5 7.5z"/><path d="m112.298 403.542h32.143c4.142 0 7.5-3.358 7.5-7.5s-3.358-7.5-7.5-7.5h-32.143c-4.142 0-7.5 3.358-7.5 7.5s3.358 7.5 7.5 7.5z"/><path d="m171.911 431.074c0-4.142-3.358-7.5-7.5-7.5h-52.113c-4.142 0-7.5 3.358-7.5 7.5s3.358 7.5 7.5 7.5h52.113c4.142 0 7.5-3.358 7.5-7.5z"/><path d="m399.392 139.539h-32.144c-4.143 0-7.5 3.358-7.5 7.5s3.357 7.5 7.5 7.5h32.144c4.143 0 7.5-3.358 7.5-7.5s-3.357-7.5-7.5-7.5z"/><path d="m399.392 104.507h-52.113c-4.143 0-7.5 3.358-7.5 7.5s3.357 7.5 7.5 7.5h52.113c4.143 0 7.5-3.358 7.5-7.5s-3.357-7.5-7.5-7.5z"/><path d="m128.844 227.165c12.63 0 22.906-10.292 22.906-22.943v-75.685c0-12.65-10.276-22.942-22.906-22.942h-9.249c-4.142 0-7.5 3.358-7.5 7.5s3.358 7.5 7.5 7.5h9.249c4.359 0 7.906 3.563 7.906 7.942v75.685c0 4.38-3.547 7.943-7.906 7.943h-79.79c-1.642 0-3.238.539-4.544 1.533l-29.51 22.472v-107.633c0-4.379 3.546-7.942 7.906-7.942h62.221c4.142 0 7.5-3.358 7.5-7.5s-3.358-7.5-7.5-7.5h-62.221c-12.63 0-22.906 10.292-22.906 22.942v122.771c0 2.851 1.616 5.455 4.17 6.721 1.055.522 2.194.779 3.329.779 1.612 0 3.213-.519 4.545-1.533l39.541-30.111h77.259z"/><path d="m116.316 148.797c0-4.142-3.358-7.5-7.5-7.5h-62.882c-4.142 0-7.5 3.358-7.5 7.5s3.358 7.5 7.5 7.5h62.881c4.143 0 7.501-3.358 7.501-7.5z"/><path d="m45.934 175.328c-4.142 0-7.5 3.358-7.5 7.5s3.358 7.5 7.5 7.5h52.896c4.142 0 7.5-3.358 7.5-7.5s-3.358-7.5-7.5-7.5z"/><path d="m479.702 354.484h-109.189c-17.81 0-32.299 14.516-32.299 32.357 0 17.842 14.489 32.358 32.299 32.358h2.81l16.878 23.325c1.41 1.949 3.67 3.104 6.076 3.104s4.666-1.154 6.076-3.104l16.877-23.325h60.472c17.809 0 32.298-14.516 32.298-32.358 0-17.841-14.49-32.357-32.298-32.357zm0 49.715h-64.303c-2.406 0-4.666 1.154-6.076 3.104l-13.046 18.031-13.047-18.031c-1.41-1.949-3.67-3.104-6.076-3.104h-6.641c-9.539 0-17.299-7.787-17.299-17.358s7.76-17.357 17.299-17.357h109.188c9.538 0 17.298 7.787 17.298 17.357.001 9.572-7.759 17.358-17.297 17.358z"/><path d="m334.548 286.425c.359.052.72.078 1.079.078 1.668 0 3.3-.556 4.628-1.598 1.614-1.266 2.64-3.138 2.837-5.18 3.344-34.562-2.912-60.568-18.596-77.296-8.371-8.929-18.333-14.146-28.128-17.165 4.43-6.712 5.893-14.801 3.859-23.201-4.313-17.81-22.446-30.248-44.1-30.248-21.653 0-39.787 12.438-44.099 30.247-2.021 8.345-.59 16.385 3.773 23.072-9.931 2.999-20.058 8.237-28.549 17.295-15.683 16.728-21.94 42.734-18.596 77.296.198 2.042 1.223 3.914 2.837 5.18 1.615 1.267 3.678 1.816 5.708 1.52.056-.008.199-.029.421-.063.266 7.439.867 14.505 1.803 21.19h-1.393c-4.142 0-7.5 3.358-7.5 7.5s3.358 7.5 7.5 7.5h4.203c4.724 19.732 12.941 35.43 24.595 46.909 18.113 17.84 40.25 19.977 49.232 19.977 8.447.142 30.159-1.561 48.856-19.977 11.654-11.478 19.872-27.176 24.596-46.909h4.203c4.143 0 7.5-3.358 7.5-7.5s-3.357-7.5-7.5-7.5h-1.393c.936-6.685 1.537-13.751 1.803-21.19.221.034.364.055.421.063zm-107.942-120.832c2.19-9.044 12.362-18.777 29.521-18.777s27.331 9.734 29.521 18.777c1.553 6.411-.857 12.194-6.646 16.254-8.059-.81-15.112-.584-19.871-.432-1.293.041-2.39.078-3.256.078s-1.963-.037-3.256-.078c-4.674-.15-11.556-.37-19.429.388-5.744-4.058-8.131-9.822-6.584-16.21zm-28.411 47.095c13.666-14.576 34.228-16.414 47.201-16.414 1.044 0 2.04.012 2.979.03v30.316c0 24.937-41.766 38.69-65.393 43.546-1.335-25.963 3.771-45.273 15.213-57.478zm96.197 146.085c-14.658 14.438-32.073 15.769-38.649 15.665-6.576.097-23.73-1.227-38.388-15.665-7.425-7.313-13.204-16.875-17.317-28.615 5.951 5.93 15.402 9.696 26.233 9.696 13.407 0 24.699-5.769 29.855-14.271 5.156 8.501 16.449 14.271 29.855 14.271 10.378 0 19.489-3.457 25.467-8.962-4.094 11.406-9.786 20.721-17.056 27.881zm-85.976-43.722c0-4.628 7.636-9.804 17.855-9.804s17.855 5.176 17.855 9.804c0 4.627-7.636 9.803-17.855 9.803s-17.855-5.175-17.855-9.803zm59.711 0c0-4.628 7.636-9.804 17.855-9.804s17.855 5.176 17.855 9.804c0 4.627-7.636 9.803-17.855 9.803s-17.855-5.175-17.855-9.803zm49.102-7.826c-4.247-9.96-16.461-16.978-31.247-16.978-13.407 0-24.699 5.769-29.855 14.271-5.156-8.501-16.449-14.271-29.855-14.271-14.947 0-27.266 7.171-31.383 17.304h-.321c-1.142-7.486-1.821-15.562-2.032-24.219 7.451-1.802 16.819-4.481 26.254-8.266 13.323-5.344 28.322-13.636 37.084-25.82 8.763 12.184 23.762 20.476 37.084 25.82 9.436 3.785 18.803 6.464 26.255 8.266-.209 8.532-.871 16.499-1.984 23.893zm11.538-37.059c-23.632-4.857-65.394-18.611-65.394-43.546v-30.316c12.594-.245 35.414.635 50.18 16.385 11.442 12.204 16.547 31.514 15.214 57.477z"/></g></svg>