<svg id="Layer_1" enable-background="new 0 0 512 512" height="512" viewBox="0 0 512 512" width="512" xmlns="http://www.w3.org/2000/svg"><g><g><g><path d="m416.203 53.5v405c0 25.41-20.57 46-45.94 46h-227.66c-25.36 0-45.93-20.59-45.93-46v-405c0-25.41 20.57-46 45.93-46h227.66c25.37 0 45.94 20.59 45.94 46z" fill="#56788b"/><path d="m416.203 53.5v405c0 25.41-20.57 46-45.94 46h-20c25.37 0 45.94-20.59 45.94-46v-405c0-25.41-20.57-46-45.94-46h20c25.37 0 45.94 20.59 45.94 46z" fill="#415e6f"/><path d="m386.243 52.26v407.48c0 8.98-7.27 16.26-16.23 16.26h-227.15c-8.97 0-16.23-7.28-16.23-16.26v-407.48c0-8.98 7.26-16.26 16.23-16.26h23.71l5.87 18.23c2.45 7.61 9.52 12.77 17.51 12.77h132.97c7.98 0 15.06-5.16 17.51-12.77l5.87-18.23h23.71c8.96 0 16.23 7.28 16.23 16.26z" fill="#d9f0f4"/><path d="m386.243 52.26v407.48c0 8.98-7.27 16.26-16.23 16.26h-20c8.96 0 16.23-7.28 16.23-16.26v-407.48c0-8.98-7.27-16.26-16.23-16.26h20c8.96 0 16.23 7.28 16.23 16.26z" fill="#bae1e5"/><path d="m164.813 120.7v75.62c0 8.52-6.9 15.43-15.41 15.43h-99.79l-41.55 31.61v-122.66c0-8.52 6.9-15.43 15.41-15.43h125.93c8.51 0 15.41 6.91 15.41 15.43z" fill="#4dd4f7"/><path d="m164.813 120.7v75.62c0 8.52-6.9 15.43-15.41 15.43h-20c8.51 0 15.41-6.91 15.41-15.43v-75.62c0-8.52-6.9-15.43-15.41-15.43h20c8.51 0 15.41 6.91 15.41 15.43z" fill="#1e90ff"/></g></g><path d="m504.501 217.46v153.33l-20-7.07-64.909-22.93v-93.33l64.909-22.93z" fill="#ff6b81"/><path d="m504.501 217.46v153.33l-20-7.07v-139.19z" fill="#ed2061"/><g><path d="m419.592 212.63v162.98c0 8.38-6.79 15.18-15.18 15.18h-183.03c-8.38 0-15.18-6.8-15.18-15.18v-162.98c0-8.38 6.8-15.17 15.18-15.17h183.03c8.39 0 15.18 6.79 15.18 15.17z" fill="#fbdf63"/><path d="m419.592 212.63v162.98c0 8.38-6.79 15.18-15.18 15.18h-20c8.39 0 15.18-6.8 15.18-15.18v-162.98c0-8.38-6.79-15.17-15.17-15.17h19.99c8.39 0 15.18 6.79 15.18 15.17z" fill="#ffa402"/></g><path d="m286.878 255.806v76.63l63.693-38.315z" fill="#fff"/></g><g><path d="m88.733 241.694v151.767c0 4.142 3.357 7.5 7.5 7.5s7.5-3.358 7.5-7.5v-151.767c0-4.142-3.357-7.5-7.5-7.5s-7.5 3.358-7.5 7.5z"/><path d="m416.2 413.295c-4.143 0-7.5 3.358-7.5 7.5v37.705c0 21.229-17.269 38.5-38.495 38.5h-227.976c-21.227 0-38.495-17.271-38.495-38.5v-29.632c0-4.142-3.357-7.5-7.5-7.5s-7.5 3.358-7.5 7.5v29.632c0 29.5 23.998 53.5 53.495 53.5h227.977c29.497 0 53.495-24 53.495-53.5v-37.706c-.001-4.141-3.358-7.499-7.501-7.499z"/><path d="m96.233 82.773c4.143 0 7.5-3.358 7.5-7.5v-21.773c0-21.229 17.269-38.5 38.495-38.5h227.977c21.227 0 38.495 17.271 38.495 38.5v115.554c0 4.142 3.357 7.5 7.5 7.5s7.5-3.358 7.5-7.5v-115.554c0-29.5-23.998-53.5-53.495-53.5h-227.976c-29.497 0-53.495 24-53.495 53.5v21.773c-.001 4.143 3.357 7.5 7.499 7.5z"/><path d="m386.203 176.554c4.143 0 7.5-3.358 7.5-7.5v-116.799c0-13.099-10.656-23.755-23.754-23.755h-23.742c-3.255 0-6.139 2.1-7.138 5.198l-5.881 18.232c-1.461 4.528-5.638 7.57-10.396 7.57h-133.152c-4.757 0-8.935-3.042-10.396-7.571l-5.881-18.231c-.999-3.098-3.883-5.198-7.138-5.198h-23.742c-13.098 0-23.753 10.657-23.753 23.755v23.018c0 4.142 3.357 7.5 7.5 7.5s7.5-3.358 7.5-7.5v-23.018c0-4.828 3.927-8.755 8.753-8.755h18.281l4.204 13.034c3.468 10.746 13.382 17.966 24.672 17.966h133.153c11.291 0 21.206-7.22 24.671-17.966l4.204-13.034h18.281c4.827 0 8.754 3.928 8.754 8.755v116.798c0 4.143 3.358 7.501 7.5 7.501z"/><path d="m133.73 459.745v-217.944c0-4.142-3.357-7.5-7.5-7.5s-7.5 3.358-7.5 7.5v217.943c0 13.099 10.655 23.755 23.753 23.755h227.466c13.098 0 23.754-10.657 23.754-23.755v-38.904c0-4.142-3.357-7.5-7.5-7.5s-7.5 3.358-7.5 7.5v38.905c0 4.828-3.927 8.755-8.754 8.755h-227.466c-4.826 0-8.753-3.928-8.753-8.755z"/><path d="m296.888 44.986c4.143 0 7.5-3.358 7.5-7.5s-3.357-7.5-7.5-7.5h-81.343c-4.143 0-7.5 3.358-7.5 7.5s3.357 7.5 7.5 7.5z"/><path d="m296.888 448.723c4.143 0 7.5-3.358 7.5-7.5s-3.357-7.5-7.5-7.5h-81.343c-4.143 0-7.5 3.358-7.5 7.5s3.357 7.5 7.5 7.5z"/><path d="m171.966 196.319v-75.617c0-12.643-10.285-22.929-22.927-22.929h-75.352c-4.143 0-7.5 3.358-7.5 7.5s3.357 7.5 7.5 7.5h75.353c4.371 0 7.927 3.557 7.927 7.929v75.617c0 4.372-3.556 7.929-7.927 7.929h-99.929c-1.639 0-3.232.537-4.537 1.528l-29.574 22.47v-107.544c0-4.372 3.556-7.929 7.927-7.929h16.243c4.143 0 7.5-3.358 7.5-7.5s-3.357-7.5-7.5-7.5h-16.243c-12.642 0-22.927 10.286-22.927 22.929v122.662c0 2.849 1.614 5.452 4.167 6.719 1.056.524 2.196.781 3.332.781 1.609 0 3.208-.518 4.538-1.528l39.601-30.087h97.401c12.642-.001 22.927-10.287 22.927-22.93z"/><path d="m133.479 140.944c0-4.142-3.357-7.5-7.5-7.5h-79.992c-4.143 0-7.5 3.358-7.5 7.5s3.357 7.5 7.5 7.5h79.991c4.143 0 7.501-3.358 7.501-7.5z"/><path d="m45.987 167.444c-4.143 0-7.5 3.358-7.5 7.5s3.357 7.5 7.5 7.5h69.992c4.143 0 7.5-3.358 7.5-7.5s-3.357-7.5-7.5-7.5z"/><path d="m504.5 307.871c4.143 0 7.5-3.358 7.5-7.5v-82.915c0-2.435-1.182-4.718-3.169-6.124-1.988-1.405-4.533-1.759-6.83-.948l-74.907 26.467v-24.219c0-12.504-10.175-22.677-22.681-22.677h-118.173c-4.143 0-7.5 3.358-7.5 7.5s3.357 7.5 7.5 7.5h118.173c4.235 0 7.681 3.444 7.681 7.677v162.978c0 4.233-3.445 7.676-7.681 7.676h-183.03c-4.235 0-7.681-3.443-7.681-7.676v-162.977c0-4.233 3.445-7.677 7.681-7.677h30.119c4.143 0 7.5-3.358 7.5-7.5s-3.357-7.5-7.5-7.5h-30.119c-12.506 0-22.681 10.173-22.681 22.677v162.977c0 12.504 10.175 22.676 22.681 22.676h183.03c12.506 0 22.681-10.172 22.681-22.676v-24.219l74.907 26.467c.813.287 1.658.428 2.498.428 1.531 0 3.048-.469 4.332-1.376 1.987-1.406 3.169-3.689 3.169-6.124v-35.039c0-4.142-3.357-7.5-7.5-7.5s-7.5 3.358-7.5 7.5v24.434l-69.906-24.7v-82.721l69.906-24.7v72.31c0 4.143 3.357 7.501 7.5 7.501z"/><path d="m286.878 339.936c1.339 0 2.678-.358 3.866-1.073l63.693-38.315c2.255-1.356 3.634-3.795 3.634-6.427s-1.379-5.07-3.634-6.427l-63.693-38.315c-2.317-1.394-5.204-1.433-7.558-.102s-3.809 3.825-3.809 6.529v76.63c0 2.704 1.455 5.198 3.809 6.529 1.147.648 2.419.971 3.692.971zm7.5-70.866 41.644 25.051-41.644 25.051z"/><path d="m341.695 138.861h-32.187c-4.143 0-7.5 3.358-7.5 7.5s3.357 7.5 7.5 7.5h32.187c4.143 0 7.5-3.358 7.5-7.5s-3.357-7.5-7.5-7.5z"/><path d="m341.695 103.861h-52.185c-4.143 0-7.5 3.358-7.5 7.5s3.357 7.5 7.5 7.5h52.185c4.143 0 7.5-3.358 7.5-7.5s-3.357-7.5-7.5-7.5z"/></g></svg>