<svg id="Layer_1" enable-background="new 0 0 512 512" height="512" viewBox="0 0 512 512" width="512" xmlns="http://www.w3.org/2000/svg"><g><path d="m494.27 146.2c-5.74-21.29-22.52-38.08-43.81-43.81-4.11-1.12-9.52-2.13-15.92-3.03-54.11-7.61-178.54-7.61-178.54-7.61s-155.57 0-194.46 10.23c-20.88 5.73-38.08 22.93-43.8 44.22-10.24 38.89-10.24 119.55-10.24 119.55s0 81.06 10.24 119.54c5.73 21.29 22.52 38.08 43.8 43.81 39.3 10.65 194.46 10.65 194.46 10.65s125.3 0 179.1-7.4c6.15-.85 11.37-1.79 15.36-2.84 21.29-5.73 38.07-22.52 43.81-43.8 10.23-38.9 10.23-119.56 10.23-119.56s.41-81.06-10.23-119.95z" fill="#d9f0f4"/><path d="m494.27 146.2c-5.74-21.29-22.52-38.08-43.81-43.81-4.11-1.12-9.52-2.13-15.92-3.03 19.19 7.17 34.04 23.3 39.42 43.29 10.96 40.05 10.54 123.52 10.54 123.52s0 83.05-10.54 123.1c-5.33 19.79-19.94 35.81-38.86 43.08 6.15-.85 11.37-1.79 15.36-2.84 21.29-5.73 38.07-22.52 43.81-43.8 10.23-38.9 10.23-119.56 10.23-119.56s.41-81.06-10.23-119.95z" fill="#bae1e5"/><path d="m465.33 154.12c-.01-.04-.02-.08-.03-.12-2.97-11-11.64-19.68-22.64-22.64-.04-.01-.08-.02-.12-.03-4.64-1.27-11.83-2.4-20.84-3.39-40.49-4.45-117.77-6.19-165.7-6.19-58.53 0-160.81 2.5-186.66 9.2-10.62 2.98-19.68 12.19-22.62 22.98-7.56 28.86-9.22 90.49-9.22 111.82 0 21.47 1.67 83.43 9.23 111.83 2.94 10.92 11.61 19.59 22.61 22.55 25.85 7.01 128.21 9.61 186.66 9.62 48.02 0 125.46-1.69 166.02-5.99 8.94-.95 16.08-2.03 20.73-3.24 10.93-2.98 19.55-11.6 22.53-22.54 7.56-28.86 9.22-90.49 9.22-111.83v-.15c.1-21.43-1.35-83.29-9.17-111.88z" fill="#ff6b81"/><path d="m465.3 154c-2.97-11-11.64-19.68-22.64-22.64-.04-.01-.08-.02-.12-.03-4.64-1.27-11.83-2.4-20.84-3.39.07.21.11.31.11.31.04.01.08.02.12.04 11.25 3.02 20.12 11.9 23.16 23.16.01.04.02.08.03.12 8 29.24 9.48 92.52 9.38 114.44v.15c0 21.82-1.7 84.86-9.43 114.39-3.05 11.19-11.87 20.16-23.05 23.2v.01c8.94-.95 16.08-2.03 20.73-3.24 10.93-2.98 19.55-11.6 22.53-22.54 7.56-28.86 9.22-90.49 9.22-111.83v-.15c.1-21.43-1.35-83.29-9.17-111.88-.01-.04-.02-.08-.03-.12z" fill="#ed2061"/><path d="m222.377 321.929 97.541-56.182-97.541-56.182z" fill="#fff"/><g><path d="m441.5 24.94v105.59c0 9.64-7.81 17.44-17.44 17.44h-56.5l-18.28 26.35-18.28-26.35h-56.5c-9.64 0-17.44-7.8-17.44-17.44v-105.59c0-9.63 7.8-17.44 17.44-17.44h149.56c9.63 0 17.44 7.81 17.44 17.44z" fill="#4dd4f7"/><path d="m441.5 24.94v105.59c0 9.64-7.81 17.44-17.44 17.44h-20c9.63 0 17.44-7.8 17.44-17.44v-105.59c0-9.63-7.81-17.44-17.44-17.44h20c9.63 0 17.44 7.81 17.44 17.44z" fill="#1e90ff"/><path d="m378.022 53.565c-6.797-6.798-17.826-6.789-24.634.018l-4.109 4.109-4.109-4.109c-6.808-6.808-17.837-6.816-24.634-.018-6.797 6.797-6.789 17.826.018 24.634l28.724 28.724 28.724-28.724c6.809-6.808 6.817-17.836.02-24.634z" fill="#fff"/></g><g><path d="m272.98 413.45v75.62c0 8.52-6.9 15.43-15.41 15.43h-146.04c-8.52 0-15.42-6.91-15.42-15.43v-122.66l41.59 31.62h119.87c8.51 0 15.41 6.9 15.41 15.42z" fill="#fbdf63"/><path d="m272.98 413.45v75.62c0 8.52-6.9 15.43-15.41 15.43h-20c8.51 0 15.41-6.91 15.41-15.43v-75.62c0-8.52-6.9-15.42-15.41-15.42h20c8.51 0 15.41 6.9 15.41 15.42z" fill="#ffa402"/></g></g><g><path d="m323.661 272.246c2.324-1.339 3.757-3.817 3.757-6.499s-1.433-5.16-3.757-6.499l-97.54-56.182c-2.32-1.337-5.18-1.335-7.496.006-2.319 1.34-3.747 3.815-3.747 6.493v112.363c0 2.678 1.428 5.153 3.747 6.493 1.161.671 2.457 1.007 3.753 1.007 1.292 0 2.585-.333 3.743-1.001l41.592-23.956c3.59-2.067 4.823-6.653 2.756-10.242-2.066-3.589-6.653-4.823-10.242-2.756l-30.349 17.48v-86.413l75.014 43.207-16.335 9.409c-3.59 2.067-4.823 6.653-2.756 10.242 2.066 3.59 6.656 4.824 10.242 2.756z"/><path d="m67.446 422.804c-1.447-.308-2.773-.624-3.953-.943-18.713-5.036-33.471-19.795-38.508-38.496-9.866-37.086-9.985-116.817-9.985-117.618 0-.797.114-80.116 9.979-117.598 5.005-18.599 20.136-33.88 38.474-38.912 19.794-5.21 79.132-8.774 162.8-9.776 4.142-.05 7.459-3.447 7.409-7.589-.049-4.111-3.396-7.41-7.497-7.41-.03 0-.062 0-.092 0-49.86.598-137.783 2.726-166.514 10.29-23.445 6.432-42.704 25.862-49.075 49.54-10.365 39.379-10.484 118.122-10.484 121.455 0 3.35.119 82.494 10.494 121.497 6.429 23.867 25.243 42.681 49.089 49.098 1.434.388 3.029.77 4.743 1.134.526.112 1.051.166 1.567.166 3.465 0 6.579-2.416 7.328-5.942.862-4.053-1.724-8.035-5.775-8.896z"/><path d="m501.508 144.25c-4.126-15.314-13.506-28.903-26.413-38.264-3.353-2.432-8.044-1.687-10.475 1.668-2.432 3.353-1.686 8.042 1.668 10.475 10.137 7.352 17.501 18.014 20.743 30.052 10.249 37.45 9.969 117.135 9.965 117.974 0 .797-.119 80.141-9.973 117.601-5.043 18.719-19.8 33.476-38.474 38.502-18.437 4.854-70.123 8.236-145.539 9.525-4.142.071-7.441 3.486-7.371 7.627.07 4.098 3.414 7.372 7.496 7.372.044 0 .088 0 .131-.001 54.178-.926 124.024-3.416 149.141-10.028 23.857-6.42 42.671-25.232 49.111-49.138 10.358-39.378 10.478-118.126 10.478-121.421.017-3.354.295-82.542-10.488-121.944z"/><path d="m233.661 121.845c-.048-4.112-3.396-7.412-7.497-7.412-.03 0-.061 0-.09 0-21.502.253-130.198 1.891-158.617 9.261-.046.012-.093.024-.139.038-13.256 3.71-24.181 14.791-27.85 28.294-2.011 7.671-3.755 18.022-5.186 30.768-.462 4.116 2.5 7.828 6.616 8.29.284.032.566.047.846.047 3.768 0 7.015-2.832 7.444-6.664 1.35-12.029 2.961-21.665 4.772-28.573 2.219-8.164 9.341-15.432 17.333-17.699 20.839-5.365 96.468-8.074 154.957-8.763 4.143-.048 7.46-3.445 7.411-7.587z"/><path d="m303.136 416.806c.045 0 .09 0 .135-.001 34.438-.606 117.151-2.7 141.444-9.051 13.479-3.667 24.131-14.32 27.817-27.871 7.766-29.636 9.466-92.145 9.466-113.729v-.116c.105-21.708-1.386-84.488-9.434-113.897l-.041-.148c-1.11-3.989-5.25-6.352-9.244-5.241-3.99 1.111-6.331 5.219-5.22 9.209.012.046.023.093.036.139 7.605 27.786 9.005 88.729 8.902 109.902v.152c0 21.047-1.612 81.825-8.958 109.86-2.277 8.374-8.893 14.99-17.19 17.248-15.717 4.108-67.247 7.303-137.842 8.546-4.142.073-7.439 3.49-7.367 7.631.072 4.096 3.415 7.367 7.496 7.367z"/><path d="m39.409 210.053c-4.147-.236-7.679 2.927-7.914 7.062-1.103 19.402-1.496 37.843-1.496 48.634.005 21.748 1.718 84.578 9.486 113.783 3.214 11.927 12.02 21.794 23.555 26.396.912.363 1.852.536 2.777.536 2.979 0 5.797-1.787 6.968-4.723 1.535-3.847-.34-8.21-4.187-9.745-7.17-2.86-12.639-8.979-14.623-16.343-7.35-27.628-8.972-88.704-8.977-109.905 0-10.583.387-28.692 1.473-47.781.235-4.136-2.926-7.679-7.062-7.914z"/><path d="m274.495 155.474h52.578l16.043 23.12c1.401 2.02 3.704 3.224 6.162 3.224s4.761-1.205 6.162-3.224l16.043-23.12h52.579c13.752 0 24.94-11.188 24.94-24.94v-105.594c0-13.752-11.188-24.94-24.94-24.94h-95.108c-4.143 0-7.5 3.358-7.5 7.5s3.357 7.5 7.5 7.5h95.108c5.48 0 9.939 4.459 9.939 9.94v105.594c0 5.481-4.459 9.94-9.939 9.94h-56.504c-2.458 0-4.761 1.205-6.162 3.224l-12.118 17.464-12.118-17.464c-1.401-2.02-3.704-3.224-6.162-3.224h-56.503c-5.48 0-9.939-4.459-9.939-9.94v-105.594c0-5.481 4.459-9.94 9.939-9.94h19.914c4.143 0 7.5-3.358 7.5-7.5s-3.357-7.5-7.5-7.5h-19.914c-13.752 0-24.94 11.188-24.94 24.94v105.594c.001 13.752 11.188 24.94 24.94 24.94z"/><path d="m343.975 112.227c1.407 1.407 3.314 2.197 5.304 2.197s3.897-.79 5.304-2.197l28.724-28.724c9.722-9.72 9.73-25.529.02-35.24 0 0 0 0-.001-.001-9.323-9.322-24.264-9.686-34.046-1.101-9.781-8.587-24.723-8.221-34.046 1.102-9.71 9.711-9.701 25.52.019 35.24zm-18.135-53.358c1.928-1.928 4.461-2.892 6.996-2.892 2.545 0 5.092.971 7.03 2.91l4.108 4.108c2.929 2.928 7.676 2.93 10.607 0l4.11-4.109c3.871-3.872 10.163-3.881 14.026-.018 3.862 3.862 3.854 10.155-.019 14.027l-23.421 23.421-23.42-23.421c-3.871-3.872-3.879-10.164-.017-14.026z"/><path d="m257.566 390.525h-117.34l-39.575-30.086c-2.269-1.724-5.317-2.015-7.871-.749-2.553 1.266-4.168 3.87-4.168 6.719v122.662c0 12.643 10.281 22.929 22.918 22.929h16.233c4.143 0 7.5-3.358 7.5-7.5s-3.357-7.5-7.5-7.5h-16.233c-4.366 0-7.918-3.557-7.918-7.929v-107.538l29.548 22.463c1.306.992 2.899 1.529 4.539 1.529h119.867c4.366 0 7.918 3.557 7.918 7.929v75.617c0 4.372-3.552 7.929-7.918 7.929h-95.307c-4.143 0-7.5 3.358-7.5 7.5s3.357 7.5 7.5 7.5h95.307c12.637 0 22.918-10.286 22.918-22.929v-75.617c0-12.643-10.282-22.929-22.918-22.929z"/><path d="m136.924 476.07h99.943c4.143 0 7.5-3.358 7.5-7.5s-3.357-7.5-7.5-7.5h-99.943c-4.143 0-7.5 3.358-7.5 7.5s3.358 7.5 7.5 7.5z"/><path d="m136.924 442.07h89.951c4.143 0 7.5-3.358 7.5-7.5s-3.357-7.5-7.5-7.5h-89.951c-4.143 0-7.5 3.358-7.5 7.5s3.358 7.5 7.5 7.5z"/></g></svg>