<svg id="Layer_1" enable-background="new 0 0 512 512" height="512" viewBox="0 0 512 512" width="512" xmlns="http://www.w3.org/2000/svg"><g><path d="m474.993 132.18v80.95c-6.79 0-13.54-.32-20.23-.97-20.75-2-40.94-7.1-60.26-15.24-16.42-6.93-31.72-15.85-45.72-26.64l.31 135.4.11 45.34c-.17 40.93-16.38 79.38-45.71 108.34-23.88 23.57-54.13 38.56-86.91 43.42-7.71 1.14-15.55 1.72-23.48 1.72-22.83 0-44.92-4.81-65.06-13.94-10.82-4.9-21.08-11.05-30.61-18.37-5.13-3.95-10.04-8.22-14.71-12.83-31.79-31.39-48.19-73.93-45.43-118.68 2.11-34.07 15.76-66.56 38.53-92.02 30.11-33.7 72.24-52.4 117.28-52.4 1.09 0 2.17.01 3.25.04 6.82.13 13.57.71 20.23 1.69v82.56c-6.41-2.11-13.19-3.39-20.23-3.67-1-.04-2-.06-3-.06-41.16 0-74.45 33.54-73.84 74.68.39 26.32 14.79 49.33 36.02 62.01 9.97 5.97 21.45 9.66 33.7 10.33 9.6.53 18.81-.81 27.35-3.62 29.4-9.71 50.61-37.3 50.61-69.83l.1-342.89h81.4c.07 8.06.89 15.92 2.41 23.54 6.15 30.83 23.55 57.58 47.76 75.81 16.07 12.11 35.14 20.47 55.9 23.76 6.52 1.04 13.2 1.58 20 1.58.02 0 .22 0 .23-.01z" fill="#56788b"/><g fill="#415e6f"><path d="m349.203 351.02c-.17 40.93-16.38 79.38-45.71 108.34-23.88 23.57-54.13 38.56-86.91 43.42-7.71 1.14-15.55 1.72-23.48 1.72-22.83 0-44.92-4.81-65.06-13.94 12.22 2.61 24.81 3.94 37.61 3.94 8.98 0 17.87-.66 26.6-1.95 37.13-5.5 71.4-22.49 98.46-49.19 33.22-32.8 58.19-91.32 58.38-137.68z"/><path d="m474.993 132.18v80.95c-6.79 0-13.54-.32-20.23-.97v-81.55c6.52 1.04 13.2 1.58 20 1.58.02 0 .22 0 .23-.01z"/><path d="m216.583 197.99v82.56c-6.41-2.11-13.19-3.39-20.23-3.67v-80.58c6.82.13 13.57.71 20.23 1.69z"/></g><g><g><path d="m216.579 22.95v99.309c0 8.53-6.89 15.44-15.4 15.44h-109.79l-41.56 31.65v-146.399c0-8.53 6.9-15.45 15.41-15.45h135.94c8.51 0 15.4 6.92 15.4 15.45z" fill="#fbdf63"/><path d="m216.579 22.95v99.309c0 8.53-6.89 15.44-15.4 15.44h-20c8.51 0 15.4-6.91 15.4-15.44v-99.309c0-8.53-6.89-15.45-15.4-15.45h20c8.51 0 15.4 6.92 15.4 15.45z" fill="#ffa402"/></g><path d="m161.946 48.976c-6.798-6.798-17.826-6.789-24.634.018l-4.109 4.109-4.109-4.109c-6.808-6.808-17.837-6.816-24.634-.018-6.797 6.797-6.789 17.826.018 24.634l28.724 28.724 28.724-28.724c6.81-6.808 6.818-17.837.02-24.634z" fill="#ff6b81"/></g></g><g><path d="m267.252 256.146c4.143 0 7.5-3.357 7.501-7.499l.035-233.647h66.675c.38 5.92 1.146 11.782 2.289 17.501 3.809 19.117 11.604 36.803 23.167 52.567 2.45 3.341 7.144 4.061 10.483 1.611 3.34-2.45 4.062-7.144 1.611-10.483-10.259-13.985-17.173-29.673-20.552-46.629-1.436-7.189-2.201-14.638-2.274-22.14-.04-4.114-3.386-7.427-7.5-7.427h-81.4c-4.142 0-7.5 3.357-7.5 7.499l-.037 241.146c.002 4.143 3.36 7.501 7.502 7.501z"/><path d="m480.3 126.87c-1.566-1.567-3.715-2.329-5.843-2.178-25.901-.064-50.473-8.3-71.081-23.827-3.308-2.494-8.011-1.831-10.503 1.477s-1.831 8.011 1.477 10.503c21.375 16.105 46.531 25.248 73.147 26.656v65.99c-24.22-.881-47.761-6.08-70.078-15.486-15.758-6.646-30.581-15.281-44.054-25.664-2.267-1.747-5.33-2.052-7.896-.785-2.566 1.266-4.189 3.882-4.182 6.744l.419 180.689c-.167 38.918-15.61 75.509-43.487 103.032-22.67 22.387-51.281 36.681-82.737 41.335-7.372 1.091-14.9 1.644-22.375 1.644-33.426 0-64.93-10.636-91.105-30.759-3.284-2.525-7.993-1.91-10.517 1.375-2.525 3.284-1.909 7.993 1.375 10.517 28.818 22.156 63.483 33.867 100.246 33.867 8.208 0 16.475-.607 24.571-1.805 34.632-5.125 66.127-20.859 91.082-45.501 30.735-30.346 47.764-70.705 47.948-113.691l-.386-166.108c11.11 7.38 22.923 13.723 35.271 18.931 26.449 11.147 54.483 16.799 83.332 16.799h.077c4.141-.001 7.498-3.359 7.498-7.5v-80.829c.03-1.993-.735-3.963-2.199-5.426z"/><path d="m209.079 204.6v66.248c-5.173-1.016-10.434-1.528-15.729-1.528-22.01 0-42.624 8.621-58.046 24.275-15.342 15.573-23.611 36.177-23.285 58.016.418 28.204 15.247 53.753 39.666 68.342 11.258 6.728 24.101 10.661 37.14 11.376 10.247.564 20.377-.78 30.105-3.99 33.354-11.006 55.763-41.93 55.763-76.947l.029-66.161c.002-4.142-3.354-7.501-7.497-7.503h-.003c-4.141 0-7.498 3.356-7.5 7.497l-.029 66.165c0 28.533-18.27 53.732-45.463 62.706-7.942 2.621-16.214 3.718-24.584 3.257-10.621-.583-21.087-3.79-30.267-9.275-19.923-11.903-32.021-32.721-32.362-55.688-.266-17.791 6.473-34.577 18.973-47.265 12.581-12.77 29.4-19.802 47.361-19.802 7.101 0 14.126 1.128 20.883 3.354 2.286.752 4.792.363 6.743-1.047 1.95-1.411 3.104-3.67 3.104-6.077v-82.56c0-3.718-2.724-6.875-6.402-7.419-8.14-1.204-16.407-1.814-24.571-1.814-47.6 0-91.239 19.498-122.879 54.902-23.862 26.696-38.215 60.987-40.414 96.556-2.507 40.648 10.249 80.29 35.916 111.621 1.483 1.81 3.636 2.748 5.806 2.747 1.672 0 3.354-.556 4.749-1.698 3.204-2.625 3.674-7.351 1.049-10.555-23.262-28.395-34.821-64.332-32.548-101.19 1.992-32.22 15-63.289 36.626-87.484 28.756-32.177 68.424-49.897 111.695-49.897 5.299-.006 10.648.277 15.971.838z"/><path d="m46.498 176.068c1.056.523 2.195.78 3.33.78 1.611 0 3.211-.519 4.542-1.531l39.542-30.085h107.261c12.63 0 22.906-10.286 22.906-22.929v-99.374c0-12.643-10.276-22.929-22.906-22.929h-85.249c-4.142 0-7.5 3.358-7.5 7.5s3.358 7.5 7.5 7.5h85.249c4.359 0 7.906 3.557 7.906 7.929v99.375c0 4.372-3.547 7.929-7.906 7.929h-109.79c-1.641 0-3.236.538-4.542 1.531l-29.513 22.455v-131.29c0-4.372 3.546-7.929 7.906-7.929h16.221c4.142 0 7.5-3.358 7.5-7.5s-3.357-7.5-7.499-7.5h-16.221c-12.63 0-22.906 10.286-22.906 22.929v146.42c0 2.85 1.615 5.454 4.169 6.719z"/><path d="m127.901 107.637c1.464 1.464 3.384 2.197 5.303 2.197s3.839-.732 5.303-2.197l28.724-28.724c9.721-9.721 9.729-25.53.019-35.24-4.706-4.706-10.952-7.297-17.623-7.29-6.106.004-11.877 2.19-16.424 6.188-9.781-8.586-24.723-8.221-34.045 1.102-9.711 9.711-9.703 25.52.018 35.24zm-18.137-53.358c1.928-1.928 4.461-2.892 6.997-2.892 2.544 0 5.091.971 7.03 2.91l4.109 4.109c1.407 1.407 3.314 2.197 5.303 2.197s3.897-.791 5.304-2.197l4.108-4.109c1.877-1.877 4.372-2.912 7.023-2.915h.007c2.645 0 5.129 1.029 6.997 2.896 3.862 3.862 3.854 10.155-.019 14.027l-23.421 23.421-23.421-23.421c-3.871-3.871-3.879-10.164-.017-14.026z"/></g></svg>