<svg id="Layer_1" enable-background="new 0 0 512.001 512.001" height="512" viewBox="0 0 512.001 512.001" width="512" xmlns="http://www.w3.org/2000/svg"><g><path d="m453.638 154.651c.2 4.37.29 8.77.29 13.18 0 134.74-102.57 290.13-290.12 290.13-57.59 0-111.18-16.88-156.31-45.81 7.98.94 16.11 1.41 24.33 1.41 47.78 0 91.74-16.29 126.64-43.64-44.63-.83-82.27-30.31-95.25-70.83 6.21 1.2 12.6 1.84 19.16 1.84 9.31 0 18.32-1.25 26.89-3.58-46.66-9.35-81.81-50.58-81.81-99.96 0-.46 0-.88.02-1.3 13.74 7.64 29.45 12.23 46.18 12.75-27.37-18.27-45.38-49.5-45.38-84.88 0-18.68 5.05-36.18 13.81-51.25 50.29 61.7 125.44 102.27 210.18 106.54-1.75-7.47-2.64-15.25-2.64-23.26 0-56.28 45.66-101.95 101.97-101.95 8.71 0 17.17 1.09 25.25 3.16h.01c19.12 4.86 36.1 15.13 49.18 29.06 23.22-4.59 45.04-13.07 64.74-24.75-7.62 23.8-23.78 43.77-44.83 56.4 20.62-2.47 40.28-7.94 58.55-16.06-13.65 20.449-30.95 38.409-50.86 52.8z" fill="#4dd4f7"/><path d="m453.638 154.651c.2 4.37.29 8.77.29 13.18 0 134.74-102.57 290.13-290.12 290.13-57.59 0-111.18-16.88-156.31-45.81 292.29 145.53 546.44-199.01 369.36-354.95 19.12 4.86 36.1 15.13 49.18 29.06 23.22-4.59 45.04-13.07 64.74-24.75-7.62 23.8-23.78 43.77-44.83 56.4 20.62-2.47 40.28-7.94 58.55-16.06-13.65 20.449-30.95 38.409-50.86 52.8z" fill="#00c2f3"/><g><path d="m261.366 32.358c0 13.72-11.1 24.84-24.8 24.84h-16.642l-19.12 26.4-19.13-26.4h-84.294c-13.69 0-24.8-11.12-24.8-24.84 0-13.71 11.11-24.83 24.8-24.83h139.186c13.7 0 24.8 11.12 24.8 24.83z" fill="#ff6b81"/><path d="m261.366 32.358c0 13.72-11.1 24.84-24.8 24.84h-20c13.7 0 24.8-11.12 24.8-24.84 0-13.71-11.1-24.83-24.8-24.83h20c13.7 0 24.8 11.12 24.8 24.83z" fill="#ed2061"/></g><g><path d="m504.501 479.597c0-13.72-11.1-24.84-24.8-24.84h-16.642l-19.12-26.4-19.13 26.4h-84.294c-13.69 0-24.8 11.12-24.8 24.84 0 13.71 11.11 24.83 24.8 24.83h139.186c13.7 0 24.8-11.12 24.8-24.83z" fill="#fbdf63"/><path d="m504.501 479.597c0-13.72-11.1-24.84-24.8-24.84h-20c13.7 0 24.8 11.12 24.8 24.84 0 13.71-11.1 24.83-24.8 24.83h20c13.7 0 24.8-11.12 24.8-24.83z" fill="#ffa402"/></g></g><g><path d="m243.15 171.123c-38.985-3.245-76.135-14.318-110.563-32.972-3.643-1.973-8.193-.62-10.167 3.021-1.973 3.642-.621 8.194 3.021 10.167 39.198 21.238 81.742 33.147 126.451 35.398.126.006.252.009.377.009 2.217 0 4.329-.982 5.757-2.694 1.51-1.809 2.082-4.222 1.545-6.516-1.623-6.931-2.446-14.178-2.446-21.542 0-39.329 24.779-74.935 61.66-88.6 3.884-1.439 5.866-5.754 4.427-9.639-1.44-3.884-5.754-5.868-9.639-4.427-42.735 15.834-71.448 57.092-71.448 102.665.002 5.102.345 10.162 1.025 15.13z"/><path d="m351.6 61.541c26.021 0 51.157 10.879 68.965 29.849 1.769 1.884 4.383 2.726 6.92 2.225 16.51-3.258 32.47-8.431 47.671-15.439-7.974 13.56-19.3 25.041-33.07 33.3-3.034 1.82-4.384 5.513-3.238 8.86s4.471 5.443 7.988 5.019c12.284-1.47 24.333-3.98 36.033-7.498-9.967 11.465-21.216 21.747-33.626 30.72-2.047 1.48-3.212 3.892-3.098 6.416.186 4.125.28 8.446.28 12.843 0 20.206-2.369 40.858-7.04 61.384-.919 4.039 1.61 8.059 5.648 8.978.561.127 1.12.188 1.671.188 3.423 0 6.515-2.358 7.306-5.837 4.919-21.617 7.414-43.389 7.414-64.713 0-3.216-.048-6.396-.144-9.499 19.357-14.553 35.982-32.137 49.457-52.318 1.853-2.777 1.649-6.444-.502-8.998-2.152-2.554-5.731-3.376-8.782-2.02-8.912 3.962-18.122 7.245-27.564 9.83 10.866-11.687 19.113-25.661 24.035-41.035.95-2.967-.033-6.211-2.469-8.153-2.437-1.941-5.82-2.174-8.498-.586-18.194 10.785-37.833 18.521-58.431 23.022-20.406-20.093-48.201-31.537-76.927-31.537-4.142 0-7.5 3.358-7.5 7.5s3.359 7.499 7.501 7.499z"/><path d="m444.761 264.94c1.351-3.916-.729-8.185-4.644-9.536-3.916-1.352-8.185.728-9.536 4.644-18.494 53.615-50.933 99.653-93.809 133.14-23.144 18.075-48.995 32.11-76.833 41.715-29.913 10.32-62.258 15.553-96.136 15.553-.08 0-.16.001-.24.004-43.711-.038-86.495-10.161-125.334-29.487 45.733-1.327 88.786-16.87 124.87-45.152 2.498-1.958 3.493-5.275 2.485-8.284s-3.8-5.059-6.973-5.117c-36.336-.673-68.649-22.016-83.789-54.253 12.331.873 24.611-.37 36.417-3.583 3.357-.914 5.645-4.015 5.526-7.492-.118-3.477-2.612-6.416-6.023-7.099-40.313-8.072-70.479-41.557-75.15-81.709 12.006 4.896 24.876 7.652 37.834 8.051 3.35.102 6.354-2.023 7.374-5.211s-.196-6.666-2.979-8.524c-26.324-17.569-42.04-46.966-42.04-78.638 0-13.029 2.704-25.91 7.883-37.792 15.979 18.144 34.094 34.282 53.976 48.068 3.406 2.36 8.077 1.514 10.437-1.889 2.36-3.404 1.515-8.077-1.889-10.437-21.859-15.158-41.47-33.307-58.288-53.942-1.556-1.909-3.952-2.93-6.404-2.738-2.455.193-4.658 1.58-5.895 3.708-9.696 16.688-14.821 35.714-14.821 55.022 0 27.367 10.13 53.271 27.933 73.116-6.097-1.909-12.002-4.436-17.59-7.545-2.281-1.269-5.057-1.261-7.33.02-2.273 1.282-3.717 3.653-3.813 6.261-.019.519-.021 1.023-.021 1.574 0 40.589 22.512 76.997 56.605 95.863-3.985-.251-7.981-.76-11.936-1.521-2.601-.502-5.272.408-7.028 2.39-1.756 1.981-2.338 4.742-1.53 7.264 12.196 38.062 43.905 65.893 82.062 73.782-31.684 20.273-68.07 30.9-106.309 30.9-7.904 0-15.792-.458-23.447-1.359-3.47-.406-6.762 1.633-7.939 4.922-1.177 3.29.073 6.956 3.014 8.841 47.963 30.742 103.412 46.991 160.354 46.991.083 0 .165-.001.246-.004 68.467-.051 131.38-20.95 181.952-60.446 45.168-35.275 79.318-83.711 98.758-140.071z"/><path d="m97.379 64.716h80.472l16.877 23.325c1.411 1.949 3.67 3.104 6.076 3.104s4.666-1.154 6.076-3.104l16.877-23.325h12.81c17.81 0 32.298-14.516 32.298-32.357.001-17.843-14.488-32.359-32.298-32.359h-139.188c-17.81 0-32.299 14.516-32.299 32.358s14.489 32.358 32.299 32.358zm0-49.716h139.188c9.539 0 17.298 7.787 17.298 17.358s-7.76 17.357-17.298 17.357h-16.641c-2.406 0-4.666 1.154-6.076 3.104l-13.046 18.031-13.047-18.031c-1.41-1.949-3.67-3.104-6.076-3.104h-84.302c-9.539 0-17.298-7.787-17.298-17.357-.001-9.571 7.759-17.358 17.298-17.358z"/><path d="m479.703 447.285h-12.81l-16.877-23.325c-1.411-1.949-3.67-3.104-6.076-3.104s-4.666 1.154-6.076 3.104l-16.877 23.325h-80.472c-17.81 0-32.299 14.516-32.299 32.357 0 17.842 14.489 32.358 32.299 32.358h19.284c4.142 0 7.5-3.358 7.5-7.5s-3.358-7.5-7.5-7.5h-19.284c-9.539 0-17.299-7.787-17.299-17.358s7.76-17.357 17.299-17.357h84.302c2.406 0 4.666-1.154 6.076-3.104l13.046-18.031 13.047 18.031c1.41 1.949 3.67 3.104 6.076 3.104h16.641c9.539 0 17.298 7.787 17.298 17.357 0 9.571-7.76 17.358-17.298 17.358h-85.12c-4.142 0-7.5 3.358-7.5 7.5s3.358 7.5 7.5 7.5h85.12c17.81 0 32.298-14.516 32.298-32.358 0-17.841-14.489-32.357-32.298-32.357z"/><path d="m239.19 408.822c-17.632 5.234-36.629 8.733-56.463 10.399-4.128.347-7.193 3.974-6.846 8.101.329 3.915 3.607 6.873 7.465 6.873.21 0 .422-.009.636-.027 20.854-1.751 40.864-5.441 59.477-10.966 3.971-1.179 6.234-5.354 5.056-9.324-1.179-3.971-5.353-6.236-9.325-5.056z"/><path d="m420.901 186.493c-4.125-.432-7.81 2.547-8.25 6.663-.04.368-4.171 37.354-23.886 80.889-11.506 25.407-26.002 48.058-43.084 67.324-21.254 23.971-46.628 42.769-75.419 55.872-3.77 1.715-5.436 6.163-3.72 9.933 1.257 2.763 3.981 4.396 6.831 4.396 1.039 0 2.095-.217 3.102-.676 30.81-14.021 57.94-34.144 80.64-59.809 18.097-20.462 33.415-44.458 45.528-71.323 20.588-45.659 24.758-83.439 24.926-85.025.432-4.118-2.552-7.806-6.668-8.244z"/><path d="m353.95 130.966c8.989 0 17.269-4.517 22.15-12.082 2.246-3.481 1.245-8.123-2.236-10.369-3.481-2.244-8.123-1.245-10.369 2.236-2.106 3.265-5.675 5.214-9.546 5.214s-7.44-1.949-9.546-5.214c-2.246-3.481-6.888-4.482-10.369-2.236-3.48 2.246-4.481 6.888-2.236 10.369 4.883 7.566 13.163 12.082 22.152 12.082z"/></g></svg>