<svg id="Layer_1" enable-background="new 0 0 512 512" height="512" viewBox="0 0 512 512" width="512" xmlns="http://www.w3.org/2000/svg"><g><g><path d="m504.5 107.601v286.56c0 25.4-20.54 46-45.88 46h-405.24c-25.34 0-45.88-20.6-45.88-46v-286.56c0-25.4 20.54-46 45.88-46h405.24c25.34 0 45.88 20.6 45.88 46z" fill="#56788b"/><path d="m504.5 107.601v286.56c0 25.4-20.54 46-45.88 46h-20c25.34 0 45.88-20.6 45.88-46v-286.56c0-25.4-20.54-46-45.88-46h20c25.34 0 45.88 20.6 45.88 46z" fill="#415e6f"/><path d="m474.58 106.361v258.04c0 8.98-7.26 16.26-16.22 16.26h-404.72c-8.96 0-16.22-7.28-16.22-16.26v-258.04c0-8.98 7.26-16.26 16.22-16.26h404.72c8.96 0 16.22 7.28 16.22 16.26z" fill="#d9f0f4"/><path d="m474.58 106.361v258.04c0 8.98-7.26 16.26-16.22 16.26h-20c8.96 0 16.22-7.28 16.22-16.26v-258.04c0-8.98-7.26-16.26-16.22-16.26h20c8.96 0 16.22 7.28 16.22 16.26z" fill="#bae1e5"/><path d="m315.908 504.504h-119.816l19.694-64.344h80.428z" fill="#90abbd"/><g><path d="m412.36 380.661c0 13.72-11.1 24.83-24.8 24.83h-139.19c-13.69 0-24.79-11.11-24.79-24.83s11.1-24.84 24.79-24.84h6.65l19.12-26.4 19.12 26.4h94.3c13.7 0 24.8 11.12 24.8 24.84z" fill="#fbdf63"/><path d="m412.36 380.661c0 13.72-11.1 24.83-24.8 24.83h-20c13.7 0 24.8-11.11 24.8-24.83s-11.1-24.84-24.8-24.84h20c13.7 0 24.8 11.12 24.8 24.84z" fill="#ffa402"/></g></g><g><path d="m176.817 235.378c0 16.05-7.86 30.26-19.95 38.99-7.91 5.72-17.63 9.09-28.13 9.09s-20.22-3.37-28.13-9.09c-12.09-8.73-19.95-22.94-19.95-38.99 0-26.55 21.53-48.08 48.08-48.08s48.08 21.53 48.08 48.08z" fill="#fff"/><path d="m156.867 274.368c-7.91 5.72-17.63 9.09-28.13 9.09s-20.22-3.37-28.13-9.09c0-15.54 12.59-27.65 28.13-27.65 15.53 0 28.13 12.11 28.13 27.65z" fill="#ff6b81"/><circle cx="128.736" cy="231.716" fill="#fdd9b4" r="15"/></g><g><path d="m304.331 235.379c0 16.05-7.86 30.26-19.95 38.99-7.91 5.72-17.63 9.09-28.13 9.09s-20.22-3.37-28.13-9.09c-12.09-8.73-19.95-22.94-19.95-38.99 0-26.55 21.53-48.08 48.08-48.08s48.08 21.53 48.08 48.08z" fill="#fff"/><path d="m284.381 274.369c-7.91 5.72-17.63 9.09-28.13 9.09s-20.22-3.37-28.13-9.09c0-15.54 12.59-27.65 28.13-27.65 15.53 0 28.13 12.11 28.13 27.65z" fill="#09eaa3"/><circle cx="256.25" cy="231.717" fill="#fdd9b4" r="15"/></g><g><path d="m431.849 235.379c0 16.05-7.86 30.26-19.95 38.99-7.91 5.72-17.63 9.09-28.13 9.09s-20.22-3.37-28.13-9.09c-12.09-8.73-19.95-22.94-19.95-38.99 0-26.55 21.53-48.08 48.08-48.08s48.08 21.53 48.08 48.08z" fill="#fff"/><path d="m411.899 274.369c-7.91 5.72-17.63 9.09-28.13 9.09s-20.22-3.37-28.13-9.09c0-15.54 12.59-27.65 28.13-27.65 15.53 0 28.13 12.11 28.13 27.65z" fill="#4dd4f7"/><circle cx="383.767" cy="231.717" fill="#fdd9b4" r="15"/></g><path d="m309.907 61.158c0 29.64-24.02 53.66-53.65 53.66-3.42 0-6.76-.32-10-.94-24.86-4.68-43.66-26.5-43.66-52.72 0-26.21 18.8-48.04 43.66-52.72 3.24-.62 6.58-.94 10-.94 29.63 0 53.65 24.03 53.65 53.66z" fill="#4dd4f7"/><path d="m309.907 61.158c0 29.64-24.02 53.66-53.65 53.66-3.42 0-6.76-.32-10-.94 24.85-4.68 43.65-26.5 43.65-52.72 0-26.21-18.8-48.04-43.65-52.72 3.24-.62 6.58-.94 10-.94 29.63 0 53.65 24.03 53.65 53.66z" fill="#00c2f3"/><circle cx="256.253" cy="61.159" fill="#56788b" r="20.169"/></g><g><path d="m458.617 54.102h-118.68c-4.143 0-7.5 3.358-7.5 7.5s3.357 7.5 7.5 7.5h118.681c21.164 0 38.383 17.271 38.383 38.5v286.556c0 21.229-17.219 38.5-38.383 38.5h-405.235c-21.165 0-38.383-17.271-38.383-38.5v-233.117c0-4.142-3.358-7.5-7.5-7.5s-7.5 3.358-7.5 7.5v233.117c0 29.5 23.948 53.5 53.383 53.5h152.264l-15.102 49.342h-33.261c-4.142 0-7.5 3.358-7.5 7.5s3.358 7.5 7.5 7.5h197.434c4.143 0 7.5-3.358 7.5-7.5s-3.357-7.5-7.5-7.5h-33.26l-15.103-49.343h152.264c29.436 0 53.383-24 53.383-53.5v-286.556c-.002-29.499-23.949-53.499-53.385-53.499zm-152.847 442.898h-99.538l15.103-49.343h69.332z"/><path d="m7.5 133.641c4.142 0 7.5-3.358 7.5-7.5v-18.54c0-21.229 17.219-38.5 38.383-38.5h119.778c4.142 0 7.5-3.358 7.5-7.5s-3.358-7.5-7.5-7.5h-119.778c-29.436 0-53.383 24-53.383 53.5v18.54c0 4.142 3.358 7.5 7.5 7.5z"/><path d="m442.141 388.157h16.222c13.076 0 23.714-10.657 23.714-23.755v-75.6c0-4.142-3.357-7.5-7.5-7.5s-7.5 3.358-7.5 7.5v75.6c0 4.828-3.909 8.755-8.714 8.755h-16.222c-4.143 0-7.5 3.358-7.5 7.5s3.357 7.5 7.5 7.5z"/><path d="m333.669 97.602h124.693c4.805 0 8.714 3.928 8.714 8.755v147.12c0 4.142 3.357 7.5 7.5 7.5s7.5-3.358 7.5-7.5v-147.12c0-13.099-10.638-23.755-23.714-23.755h-124.693c-4.143 0-7.5 3.358-7.5 7.5s3.357 7.5 7.5 7.5z"/><path d="m53.638 82.602c-13.076 0-23.714 10.657-23.714 23.755v258.044c0 13.099 10.638 23.755 23.714 23.755h139.809c4.142 0 7.5-3.358 7.5-7.5s-3.358-7.5-7.5-7.5h-139.809c-4.805 0-8.714-3.928-8.714-8.755v-258.044c0-4.828 3.909-8.755 8.714-8.755h125.125c4.142 0 7.5-3.358 7.5-7.5s-3.358-7.5-7.5-7.5z"/><path d="m64.056 402.938c-4.142 0-7.5 3.358-7.5 7.5s3.358 7.5 7.5 7.5h30.638c4.142 0 7.5-3.358 7.5-7.5s-3.358-7.5-7.5-7.5z"/><path d="m124.056 402.938c-4.142 0-7.5 3.358-7.5 7.5s3.358 7.5 7.5 7.5h30.638c4.142 0 7.5-3.358 7.5-7.5s-3.358-7.5-7.5-7.5z"/><path d="m297.09 348.321-16.877-23.304c-1.41-1.947-3.67-3.101-6.074-3.101s-4.664 1.153-6.074 3.101l-16.877 23.304h-2.812c-17.81 0-32.298 14.506-32.298 32.335s14.489 32.335 32.298 32.335h139.188c17.81 0 32.299-14.506 32.299-32.335s-14.489-32.335-32.299-32.335h-38.234c-4.143 0-7.5 3.358-7.5 7.5s3.357 7.5 7.5 7.5h38.234c9.539 0 17.299 7.777 17.299 17.335s-7.76 17.335-17.299 17.335h-139.189c-9.538 0-17.299-7.777-17.299-17.335s7.761-17.335 17.299-17.335h6.641c2.404 0 4.664-1.153 6.074-3.101l13.049-18.018 13.049 18.018c1.41 1.947 3.67 3.101 6.074 3.101h21.361c4.143 0 7.5-3.358 7.5-7.5s-3.357-7.5-7.5-7.5z"/><path d="m256.253 122.318c33.724 0 61.159-27.436 61.159-61.159s-27.435-61.159-61.159-61.159c-19.745 0-38.38 9.614-49.848 25.717-2.403 3.374-1.615 8.057 1.759 10.46 3.375 2.402 8.058 1.615 10.46-1.759 8.659-12.159 22.726-19.418 37.629-19.418 25.452 0 46.159 20.707 46.159 46.159s-20.707 46.159-46.159 46.159-46.159-20.707-46.159-46.159c0-4.142-3.358-7.5-7.5-7.5s-7.5 3.358-7.5 7.5c0 33.723 27.436 61.159 61.159 61.159z"/><path d="m283.922 61.159c0-15.257-12.412-27.669-27.669-27.669s-27.669 12.412-27.669 27.669c0 15.256 12.412 27.668 27.669 27.668s27.669-12.411 27.669-27.668zm-40.338 0c0-6.986 5.684-12.669 12.669-12.669s12.669 5.683 12.669 12.669c0 6.985-5.684 12.668-12.669 12.668s-12.669-5.682-12.669-12.668z"/><path d="m128.736 179.801c-30.646 0-55.579 24.932-55.579 55.578s24.933 55.579 55.579 55.579 55.578-24.933 55.578-55.579-24.932-55.578-55.578-55.578zm-20.272 90.721c1.788-9.399 10.052-16.305 20.271-16.305 10.22 0 18.483 6.906 20.271 16.305-5.968 3.456-12.893 5.436-20.271 5.436s-14.303-1.98-20.271-5.436zm12.772-38.806c0-4.136 3.364-7.5 7.5-7.5s7.5 3.364 7.5 7.5-3.364 7.5-7.5 7.5-7.5-3.364-7.5-7.5zm39.984 27.955c-2.932-6.44-7.757-11.791-13.819-15.403 2.421-3.588 3.835-7.908 3.835-12.552 0-12.407-10.093-22.5-22.5-22.5s-22.5 10.093-22.5 22.5c0 4.644 1.414 8.964 3.835 12.552-6.062 3.612-10.888 8.962-13.819 15.403-5.081-6.777-8.094-15.19-8.094-24.293 0-22.375 18.204-40.578 40.579-40.578s40.578 18.203 40.578 40.578c-.001 9.104-3.014 17.516-8.095 24.293z"/><path d="m311.831 235.379c0-30.646-24.933-55.578-55.578-55.578-30.646 0-55.579 24.932-55.579 55.578s24.933 55.579 55.579 55.579c30.645 0 55.578-24.933 55.578-55.579zm-75.849 35.143c1.789-9.399 10.052-16.305 20.271-16.305s18.483 6.906 20.271 16.305c-5.968 3.456-12.893 5.436-20.271 5.436-7.379 0-14.303-1.98-20.271-5.436zm12.771-38.806c0-4.136 3.364-7.5 7.5-7.5s7.5 3.364 7.5 7.5-3.364 7.5-7.5 7.5-7.5-3.364-7.5-7.5zm-33.079 3.663c0-22.375 18.204-40.578 40.579-40.578s40.578 18.203 40.578 40.578c0 9.103-3.013 17.515-8.094 24.293-2.932-6.44-7.757-11.791-13.819-15.403 2.421-3.588 3.835-7.908 3.835-12.552 0-12.407-10.094-22.5-22.5-22.5s-22.5 10.093-22.5 22.5c0 4.644 1.415 8.965 3.835 12.552-6.062 3.612-10.888 8.962-13.82 15.403-5.081-6.778-8.094-15.19-8.094-24.293z"/><path d="m383.771 179.801c-30.646 0-55.579 24.932-55.579 55.578s24.933 55.579 55.579 55.579 55.578-24.933 55.578-55.579-24.933-55.578-55.578-55.578zm-20.272 90.721c1.789-9.399 10.052-16.305 20.271-16.305s18.483 6.906 20.271 16.305c-5.968 3.456-12.893 5.436-20.271 5.436s-14.303-1.98-20.271-5.436zm12.772-38.806c0-4.136 3.364-7.5 7.5-7.5s7.5 3.364 7.5 7.5-3.364 7.5-7.5 7.5-7.5-3.364-7.5-7.5zm39.984 27.955c-2.932-6.44-7.757-11.791-13.819-15.403 2.421-3.588 3.835-7.908 3.835-12.552 0-12.407-10.094-22.5-22.5-22.5s-22.5 10.093-22.5 22.5c0 4.644 1.415 8.965 3.835 12.552-6.062 3.612-10.888 8.963-13.82 15.403-5.081-6.777-8.095-15.19-8.095-24.293 0-22.375 18.204-40.578 40.579-40.578s40.578 18.203 40.578 40.578c.001 9.104-3.012 17.516-8.093 24.293z"/></g></svg>