<svg id="Layer_1" enable-background="new 0 0 512 512" height="512" viewBox="0 0 512 512" width="512" xmlns="http://www.w3.org/2000/svg"><g><g><path d="m416.084 53.5v405c0 25.41-20.57 46-45.94 46h-227.66c-25.36 0-45.93-20.59-45.93-46v-405c0-25.41 20.57-46 45.93-46h227.66c25.37 0 45.94 20.59 45.94 46z" fill="#56788b"/><path d="m416.084 53.5v405c0 25.41-20.57 46-45.94 46h-20c25.37 0 45.94-20.59 45.94-46v-405c0-25.41-20.57-46-45.94-46h20c25.37 0 45.94 20.59 45.94 46z" fill="#415e6f"/><path d="m386.124 52.26v407.48c0 8.98-7.27 16.26-16.23 16.26h-227.15c-8.97 0-16.23-7.28-16.23-16.26v-407.48c0-8.98 7.26-16.26 16.23-16.26h23.71l5.87 18.23c2.45 7.61 9.52 12.77 17.51 12.77h132.97c7.98 0 15.06-5.16 17.51-12.77l5.87-18.23h23.71c8.96 0 16.23 7.28 16.23 16.26z" fill="#d9f0f4"/><path d="m386.124 52.26v407.48c0 8.98-7.27 16.26-16.23 16.26h-20c8.96 0 16.23-7.28 16.23-16.26v-407.48c0-8.98-7.27-16.26-16.23-16.26h20c8.96 0 16.23 7.28 16.23 16.26z" fill="#bae1e5"/><path d="m164.694 120.7v75.62c0 8.52-6.9 15.43-15.41 15.43h-99.79l-41.55 31.61v-122.66c0-8.52 6.9-15.43 15.41-15.43h125.93c8.51 0 15.41 6.91 15.41 15.43z" fill="#4dd4f7"/><path d="m164.694 120.7v75.62c0 8.52-6.9 15.43-15.41 15.43h-20c8.51 0 15.41-6.91 15.41-15.43v-75.62c0-8.52-6.9-15.43-15.41-15.43h20c8.51 0 15.41 6.91 15.41 15.43z" fill="#00c2f3"/></g><path d="m504.404 140.569v216.86c0 8.45-6.85 15.3-15.3 15.3h-183.445l-30.56 38.49-30.55-38.49h-29.314c-8.45 0-15.3-6.85-15.3-15.3v-216.86c0-8.45 6.85-15.3 15.3-15.3h273.87c8.449 0 15.299 6.85 15.299 15.3z" fill="#fbdf63"/><path d="m504.404 140.569v216.86c0 8.45-6.85 15.3-15.3 15.3h-20c8.45 0 15.3-6.85 15.3-15.3v-216.86c0-8.45-6.85-15.3-15.3-15.3h20c8.45 0 15.3 6.85 15.3 15.3z" fill="#ffa402"/></g><g><path d="m88.707 241.694v151.766c0 4.142 3.357 7.5 7.5 7.5s7.5-3.358 7.5-7.5v-151.766c0-4.142-3.357-7.5-7.5-7.5s-7.5 3.358-7.5 7.5z"/><path d="m416.081 409.294c-4.143 0-7.5 3.358-7.5 7.5v41.706c0 21.229-17.263 38.5-38.481 38.5h-227.912c-21.219 0-38.481-17.271-38.481-38.5v-29.632c0-4.142-3.357-7.5-7.5-7.5s-7.5 3.358-7.5 7.5v29.632c0 29.5 23.992 53.5 53.481 53.5h227.912c29.49 0 53.481-24 53.481-53.5v-41.706c0-4.142-3.357-7.5-7.5-7.5z"/><path d="m96.207 82.773c4.143 0 7.5-3.358 7.5-7.5v-21.773c0-21.229 17.263-38.5 38.481-38.5h227.912c21.219 0 38.481 17.271 38.481 38.5v41.554c0 4.142 3.357 7.5 7.5 7.5s7.5-3.358 7.5-7.5v-41.554c0-29.5-23.991-53.5-53.481-53.5h-227.912c-29.489 0-53.481 24-53.481 53.5v21.774c0 4.142 3.357 7.499 7.5 7.499z"/><path d="m386.093 102.554c4.143 0 7.5-3.358 7.5-7.5v-42.799c0-13.099-10.653-23.755-23.749-23.755h-23.735c-3.255 0-6.139 2.1-7.138 5.198l-5.879 18.231c-1.461 4.528-5.636 7.57-10.391 7.57h-133.114c-4.755 0-8.93-3.042-10.391-7.57l-5.879-18.231c-.999-3.098-3.883-5.198-7.138-5.198h-23.735c-13.096 0-23.749 10.657-23.749 23.755v23.018c0 4.142 3.357 7.5 7.5 7.5s7.5-3.358 7.5-7.5v-23.018c0-4.828 3.925-8.755 8.749-8.755h18.273l4.203 13.033c3.466 10.747 13.379 17.967 24.667 17.967h133.114c11.288 0 21.201-7.22 24.666-17.967l4.203-13.033h18.273c4.824 0 8.749 3.928 8.749 8.755v42.798c.001 4.143 3.358 7.501 7.501 7.501z"/><path d="m133.695 459.745v-217.944c0-4.142-3.357-7.5-7.5-7.5s-7.5 3.358-7.5 7.5v217.943c0 13.099 10.653 23.755 23.749 23.755h227.399c13.096 0 23.749-10.657 23.749-23.755v-42.904c0-4.142-3.357-7.5-7.5-7.5s-7.5 3.358-7.5 7.5v42.905c0 4.828-3.925 8.755-8.749 8.755h-227.399c-4.824 0-8.749-3.928-8.749-8.755z"/><path d="m296.804 44.985c4.143 0 7.5-3.358 7.5-7.5s-3.357-7.5-7.5-7.5h-81.319c-4.143 0-7.5 3.358-7.5 7.5s3.357 7.5 7.5 7.5z"/><path d="m296.804 448.722c4.143 0 7.5-3.358 7.5-7.5s-3.357-7.5-7.5-7.5h-81.319c-4.143 0-7.5 3.358-7.5 7.5s3.357 7.5 7.5 7.5z"/><path d="m171.92 196.319v-75.617c0-12.643-10.282-22.929-22.922-22.929h-75.331c-4.143 0-7.5 3.358-7.5 7.5s3.357 7.5 7.5 7.5h75.331c4.368 0 7.922 3.557 7.922 7.929v75.617c0 4.372-3.554 7.929-7.922 7.929h-99.899c-1.64 0-3.233.537-4.538 1.529l-29.561 22.466v-107.541c0-4.372 3.554-7.929 7.922-7.929h16.239c4.143 0 7.5-3.358 7.5-7.5s-3.357-7.5-7.5-7.5h-16.239c-12.64 0-22.922 10.286-22.922 22.929v122.662c0 2.85 1.614 5.453 4.167 6.719 1.057.524 2.196.781 3.332.781 1.609 0 3.209-.518 4.539-1.529l39.587-30.087h97.373c12.64 0 22.922-10.286 22.922-22.929z"/><path d="m133.444 140.944c0-4.142-3.357-7.5-7.5-7.5h-79.968c-4.143 0-7.5 3.358-7.5 7.5s3.357 7.5 7.5 7.5h79.969c4.142 0 7.499-3.358 7.499-7.5z"/><path d="m45.976 167.444c-4.143 0-7.5 3.358-7.5 7.5s3.357 7.5 7.5 7.5h69.973c4.143 0 7.5-3.358 7.5-7.5s-3.357-7.5-7.5-7.5z"/><path d="m489.186 117.773h-186.564c-4.143 0-7.5 3.358-7.5 7.5s3.357 7.5 7.5 7.5h186.563c4.309 0 7.814 3.498 7.814 7.798v157.006c0 4.142 3.357 7.5 7.5 7.5s7.5-3.358 7.5-7.5v-157.006c.001-12.571-10.233-22.798-22.813-22.798z"/><path d="m504.5 324.796c-4.143 0-7.5 3.358-7.5 7.5v25.133c0 4.3-3.506 7.798-7.814 7.798h-183.499c-2.287 0-4.449 1.043-5.872 2.834l-24.716 31.103-24.715-31.103c-1.423-1.791-3.585-2.834-5.872-2.834h-29.499c-4.309 0-7.814-3.498-7.814-7.798v-216.858c0-4.3 3.506-7.798 7.814-7.798h52.499c4.143 0 7.5-3.358 7.5-7.5s-3.357-7.5-7.5-7.5h-52.499c-12.58 0-22.814 10.227-22.814 22.798v216.858c0 12.571 10.234 22.798 22.814 22.798h25.879l28.335 35.658c1.423 1.791 3.585 2.834 5.872 2.834s4.449-1.043 5.872-2.834l28.336-35.658h179.879c12.58 0 22.814-10.227 22.814-22.798v-25.133c0-4.142-3.357-7.5-7.5-7.5z"/><path d="m450.007 174.216h-194.991c-4.143 0-7.5 3.358-7.5 7.5s3.357 7.5 7.5 7.5h194.991c4.143 0 7.5-3.358 7.5-7.5s-3.358-7.5-7.5-7.5z"/><path d="m255.016 223.216h164.992c4.143 0 7.5-3.358 7.5-7.5s-3.357-7.5-7.5-7.5h-164.992c-4.143 0-7.5 3.358-7.5 7.5s3.357 7.5 7.5 7.5z"/><path d="m385.986 310.216c-4.143 0-7.5 3.358-7.5 7.5s3.357 7.5 7.5 7.5h34.021c4.143 0 7.5-3.358 7.5-7.5s-3.357-7.5-7.5-7.5z"/><path d="m255.016 310.216c-4.143 0-7.5 3.358-7.5 7.5s3.357 7.5 7.5 7.5h96.04c4.143 0 7.5-3.358 7.5-7.5s-3.357-7.5-7.5-7.5z"/><path d="m450.007 242.216h-120.529c-4.143 0-7.5 3.358-7.5 7.5s3.357 7.5 7.5 7.5h120.529c4.143 0 7.5-3.358 7.5-7.5s-3.358-7.5-7.5-7.5z"/><path d="m255.016 257.216h38.057c4.143 0 7.5-3.358 7.5-7.5s-3.357-7.5-7.5-7.5h-38.057c-4.143 0-7.5 3.358-7.5 7.5s3.357 7.5 7.5 7.5z"/><path d="m457.507 283.716c0-4.142-3.357-7.5-7.5-7.5h-194.991c-4.143 0-7.5 3.358-7.5 7.5s3.357 7.5 7.5 7.5h194.991c4.142 0 7.5-3.358 7.5-7.5z"/></g></svg>