<svg id="Layer_1" enable-background="new 0 0 512 512" height="512" viewBox="0 0 512 512" width="512" xmlns="http://www.w3.org/2000/svg"><g><path d="m475.156 209.556h-438.31v68.69l438.31-10c16.207 0 29.345-13.138 29.345-29.345-.001-16.206-13.139-29.345-29.345-29.345z" fill="#90abbd"/><g><path d="m504.501 281.69v191.4c0 17.35-14.07 31.41-31.41 31.41h-434.19c-17.34 0-31.4-14.06-31.4-31.41v-191.4c0-7.2 5.83-13.04 13.04-13.04h470.91c7.21 0 13.05 5.84 13.05 13.04z" fill="#d9f0f4"/><path d="m504.501 281.69v191.4c0 17.35-14.07 31.41-31.41 31.41h-20.001c17.35 0 31.41-14.06 31.41-31.41v-191.4c0-7.2-5.84-13.04-13.04-13.04h19.991c7.21 0 13.05 5.84 13.05 13.04z" fill="#bae1e5"/><g><g fill="#90abbd"><path d="m42.514 303.408h35.388v35.388h-35.388z"/><path d="m239.016 303.408h35.388v35.388h-35.388z"/><path d="m173.145 303.408h35.388v35.388h-35.388z"/><path d="m107.899 303.408h35.388v35.388h-35.388z"/><path d="m304.404 303.408h35.388v35.388h-35.388z"/><path d="m42.199 368.883h35.388v35.388h-35.388z"/><path d="m238.702 368.883h35.388v35.388h-35.388z"/><path d="m172.831 368.883h35.388v35.388h-35.388z"/><path d="m107.585 368.883h35.388v35.388h-35.388z"/><path d="m42.328 434.357h35.388v35.388h-35.388z"/></g><path d="m405.181 452.05c0 9.77-7.93 17.7-17.7 17.7h-262.07c-4.89 0-9.32-1.98-12.52-5.19-3.2-3.2-5.18-7.62-5.18-12.51 0-9.77 7.92-17.69 17.7-17.69h262.07c4.89 0 9.31 1.98 12.51 5.18 3.21 3.2 5.19 7.62 5.19 12.51z" fill="#4dd4f7"/><path d="m304.09 368.883h35.388v35.388h-35.388z" fill="#90abbd"/><path d="m369.79 368.883h35.388v35.388h-35.388z" fill="#90abbd"/><path d="m435.035 368.883h35.388v100.863h-35.388z" fill="#4dd4f7"/><path d="m369.79 303.408h100.634v35.388h-100.634z" fill="#4dd4f7"/></g></g><circle cx="36.845" cy="238.901" fill="#56788b" r="29.345"/><g><path d="m344.45 22.8v97.86c0 8.44-6.86 15.29-15.32 15.29h-215.5l-30.58 38.5-30.59-38.5h-29.5c-8.46 0-15.32-6.85-15.32-15.29v-97.86c0-8.45 6.86-15.3 15.32-15.3h306.17c8.46 0 15.32 6.85 15.32 15.3z" fill="#09eaa3"/><path d="m344.45 22.8v97.86c0 8.44-6.86 15.29-15.32 15.29h-20c8.46 0 15.32-6.85 15.32-15.29v-97.86c0-8.45-6.86-15.3-15.32-15.3h20c8.46 0 15.32 6.85 15.32 15.3z" fill="#14bb87"/></g><g><path d="m444.75 209.151c0-13.72-11.1-24.84-24.8-24.84h-6.639l-19.12-26.4-19.13 26.4h-134.296c-13.69 0-24.8 11.12-24.8 24.84 0 13.71 11.11 24.83 24.8 24.83h179.185c13.7 0 24.8-11.12 24.8-24.83z" fill="#fbdf63"/><path d="m444.75 209.151c0-13.72-11.1-24.84-24.8-24.84h-20c13.7 0 24.8 11.12 24.8 24.84 0 13.71-11.1 24.83-24.8 24.83h20c13.7 0 24.8-11.12 24.8-24.83z" fill="#ffa402"/></g></g><g><path d="m502.267 264.231c6.04-6.565 9.733-15.321 9.733-24.924 0-20.316-16.528-36.845-36.845-36.845-4.143 0-7.5 3.358-7.5 7.5s3.357 7.5 7.5 7.5c12.045 0 21.845 9.799 21.845 21.845s-9.8 21.845-21.845 21.845h-408.657c4.518-6.117 7.192-13.674 7.192-21.845s-2.674-15.728-7.192-21.845h119.63c4.143 0 7.5-3.358 7.5-7.5s-3.357-7.5-7.5-7.5h-149.283c-20.317-.001-36.845 16.528-36.845 36.844 0 9.603 3.693 18.359 9.733 24.924-5.838 3.627-9.733 10.098-9.733 17.462v191.399c0 21.454 17.454 38.909 38.909 38.909h89.689c4.143 0 7.5-3.358 7.5-7.5s-3.357-7.5-7.5-7.5h-89.689c-13.183 0-23.909-10.726-23.909-23.909v-191.399c0-3.055 2.485-5.541 5.541-5.541h470.918c3.056 0 5.541 2.485 5.541 5.541v191.399c0 13.183-10.726 23.909-23.908 23.909h-309.326c-4.143 0-7.5 3.358-7.5 7.5s3.357 7.5 7.5 7.5h309.326c21.454 0 38.908-17.455 38.908-38.909v-191.399c0-7.364-3.895-13.835-9.733-17.461zm-465.422-46.77c12.046 0 21.846 9.799 21.846 21.845s-9.8 21.845-21.846 21.845c-12.045 0-21.845-9.8-21.845-21.845s9.8-21.845 21.845-21.845z"/><path d="m84.692 303.184c0-4.142-3.357-7.5-7.5-7.5h-35.388c-4.143 0-7.5 3.358-7.5 7.5v35.388c0 4.142 3.357 7.5 7.5 7.5h35.389c4.143 0 7.5-3.358 7.5-7.5v-35.388zm-15 27.888h-20.388v-20.388h20.389v20.388z"/><path d="m238.307 346.072h35.388c4.143 0 7.5-3.358 7.5-7.5v-35.388c0-4.142-3.357-7.5-7.5-7.5h-35.388c-4.143 0-7.5 3.358-7.5 7.5v35.388c0 4.142 3.357 7.5 7.5 7.5zm7.5-35.388h20.388v20.388h-20.388z"/><path d="m172.435 346.072h35.389c4.143 0 7.5-3.358 7.5-7.5v-35.388c0-4.142-3.357-7.5-7.5-7.5h-35.389c-4.143 0-7.5 3.358-7.5 7.5v35.388c0 4.142 3.357 7.5 7.5 7.5zm7.5-35.388h20.389v20.388h-20.389z"/><path d="m107.189 346.072h35.389c4.143 0 7.5-3.358 7.5-7.5v-35.388c0-4.142-3.357-7.5-7.5-7.5h-35.389c-4.143 0-7.5 3.358-7.5 7.5v35.388c0 4.142 3.358 7.5 7.5 7.5zm7.5-35.388h20.389v20.388h-20.389z"/><path d="m303.694 346.072h35.389c4.143 0 7.5-3.358 7.5-7.5v-35.388c0-4.142-3.357-7.5-7.5-7.5h-35.389c-4.143 0-7.5 3.358-7.5 7.5v35.388c0 4.142 3.358 7.5 7.5 7.5zm7.5-35.388h20.389v20.388h-20.389z"/><path d="m41.49 411.546h35.388c4.143 0 7.5-3.358 7.5-7.5v-35.388c0-4.142-3.357-7.5-7.5-7.5h-35.388c-4.143 0-7.5 3.358-7.5 7.5v35.388c0 4.142 3.358 7.5 7.5 7.5zm7.5-35.387h20.388v20.388h-20.388z"/><path d="m230.492 404.046c0 4.142 3.357 7.5 7.5 7.5h35.388c4.143 0 7.5-3.358 7.5-7.5v-35.388c0-4.142-3.357-7.5-7.5-7.5h-35.388c-4.143 0-7.5 3.358-7.5 7.5zm15-27.887h20.388v20.388h-20.388z"/><path d="m164.621 404.046c0 4.142 3.357 7.5 7.5 7.5h35.388c4.143 0 7.5-3.358 7.5-7.5v-35.388c0-4.142-3.357-7.5-7.5-7.5h-35.388c-4.143 0-7.5 3.358-7.5 7.5zm15-27.887h20.388v20.388h-20.388z"/><path d="m99.375 404.046c0 4.142 3.357 7.5 7.5 7.5h35.389c4.143 0 7.5-3.358 7.5-7.5v-35.388c0-4.142-3.357-7.5-7.5-7.5h-35.389c-4.143 0-7.5 3.358-7.5 7.5zm15-27.887h20.389v20.388h-20.389z"/><path d="m41.618 477.021h35.388c4.143 0 7.5-3.358 7.5-7.5v-35.388c0-4.142-3.357-7.5-7.5-7.5h-35.388c-4.143 0-7.5 3.358-7.5 7.5v35.388c0 4.143 3.358 7.5 7.5 7.5zm7.5-35.388h20.388v20.388h-20.388z"/><path d="m124.698 477.021h262.076c13.892 0 25.193-11.302 25.193-25.194s-11.302-25.194-25.193-25.194h-42.603c-4.143 0-7.5 3.358-7.5 7.5s3.357 7.5 7.5 7.5h42.603c5.621 0 10.193 4.573 10.193 10.194s-4.572 10.194-10.193 10.194h-262.076c-5.621 0-10.194-4.573-10.194-10.194s4.573-10.194 10.194-10.194h185.086c4.143 0 7.5-3.358 7.5-7.5s-3.357-7.5-7.5-7.5h-185.086c-13.893 0-25.194 11.302-25.194 25.194s11.302 25.194 25.194 25.194z"/><path d="m295.88 404.046c0 4.142 3.357 7.5 7.5 7.5h35.389c4.143 0 7.5-3.358 7.5-7.5v-35.388c0-4.142-3.357-7.5-7.5-7.5h-35.389c-4.143 0-7.5 3.358-7.5 7.5zm15-27.887h20.389v20.388h-20.389z"/><path d="m361.58 404.046c0 4.142 3.357 7.5 7.5 7.5h35.388c4.143 0 7.5-3.358 7.5-7.5v-35.388c0-4.142-3.357-7.5-7.5-7.5h-35.388c-4.143 0-7.5 3.358-7.5 7.5zm15-27.887h20.388v20.388h-20.388z"/><path d="m469.714 361.159h-35.389c-4.143 0-7.5 3.358-7.5 7.5v100.863c0 4.142 3.357 7.5 7.5 7.5h35.389c4.143 0 7.5-3.358 7.5-7.5v-100.863c0-4.142-3.358-7.5-7.5-7.5zm-7.5 100.862h-20.389v-85.863h20.389z"/><path d="m477.214 303.184c0-4.142-3.357-7.5-7.5-7.5h-100.634c-4.143 0-7.5 3.358-7.5 7.5v35.388c0 4.142 3.357 7.5 7.5 7.5h100.634c4.143 0 7.5-3.358 7.5-7.5zm-15 27.888h-85.634v-20.388h85.634z"/><path d="m346.203 184.315c0 4.142 3.357 7.5 7.5 7.5h21.362c2.405 0 4.664-1.153 6.074-3.101l13.049-18.018 13.049 18.018c1.41 1.947 3.669 3.101 6.074 3.101h6.641c9.538 0 17.298 7.777 17.298 17.336s-7.76 17.335-17.298 17.335h-179.188c-9.539 0-17.299-7.777-17.299-17.335 0-9.559 7.76-17.336 17.299-17.336h78.234c4.143 0 7.5-3.358 7.5-7.5s-3.357-7.5-7.5-7.5h-78.234c-17.81 0-32.299 14.506-32.299 32.336s14.489 32.335 32.299 32.335h179.188c17.809 0 32.298-14.505 32.298-32.335s-14.489-32.336-32.298-32.336h-2.813l-16.877-23.304c-1.41-1.947-3.669-3.101-6.074-3.101-2.404 0-4.664 1.153-6.074 3.101l-16.877 23.304h-17.534c-4.142 0-7.5 3.358-7.5 7.5z"/><path d="m22.959 143.454h25.879l28.336 35.658c1.423 1.791 3.585 2.834 5.872 2.834s4.449-1.043 5.872-2.834l28.335-35.658h211.879c12.58 0 22.814-10.227 22.814-22.798v-97.858c0-12.571-10.234-22.798-22.814-22.798h-218.564c-4.143 0-7.5 3.358-7.5 7.5s3.357 7.5 7.5 7.5h218.563c4.309 0 7.814 3.498 7.814 7.798v97.858c0 4.3-3.506 7.798-7.814 7.798h-215.498c-2.287 0-4.449 1.043-5.872 2.834l-24.715 31.102-24.716-31.102c-1.423-1.791-3.585-2.834-5.872-2.834h-29.499c-4.309 0-7.814-3.498-7.814-7.798v-97.858c0-4.3 3.506-7.798 7.814-7.798h52.499c4.143 0 7.5-3.358 7.5-7.5s-3.357-7.5-7.5-7.5h-52.499c-12.58 0-22.814 10.227-22.814 22.798v97.858c0 12.571 10.234 22.798 22.814 22.798z"/><path d="m289.954 48.443h-226.992c-4.143 0-7.5 3.358-7.5 7.5s3.357 7.5 7.5 7.5h226.992c4.143 0 7.5-3.358 7.5-7.5s-3.357-7.5-7.5-7.5z"/><path d="m289.954 83.443h-152.53c-4.143 0-7.5 3.358-7.5 7.5s3.357 7.5 7.5 7.5h152.53c4.143 0 7.5-3.358 7.5-7.5s-3.357-7.5-7.5-7.5z"/><path d="m62.962 83.443c-4.143 0-7.5 3.358-7.5 7.5s3.357 7.5 7.5 7.5h38.057c4.143 0 7.5-3.358 7.5-7.5s-3.357-7.5-7.5-7.5z"/></g></svg>