<svg id="Layer_1" enable-background="new 0 0 512 512" height="512" viewBox="0 0 512 512" width="512" xmlns="http://www.w3.org/2000/svg"><g><g><path d="m387.125 7.5v427.34h-255.042l-104.96 19.8v-427.34c0-10.94 8.86-19.8 19.8-19.8z" fill="#09eaa3"/><path d="m367.125 7.5h20v427.34h-20z" fill="#14bb87"/><path d="m59.923 7.5v440.95l-32.8 6.19v-427.34c0-10.94 8.86-19.8 19.8-19.8z" fill="#56788b"/><g><path d="m372.125 434.842v39.6h-325.202c-10.94 0-19.8-8.86-19.8-19.8 0-5.46 2.22-10.42 5.8-14s8.53-5.8 14-5.8z" fill="#d9f0f4"/><path d="m343.715 434.842h28.41v39.6h-28.41z" fill="#bae1e5"/></g><path d="m319.545 434.84v69.66l-31.38-13.94-31.38 13.94v-69.66z" fill="#ff6b81"/><path d="m319.545 434.84v69.66l-31.38-13.94v-55.72z" fill="#ed2061"/></g><path d="m484.88 108.598v210.62c0 8.52-6.9 15.43-15.41 15.43h-89.79l-41.55 31.61v-257.66c0-8.52 6.89-15.43 15.4-15.43h115.94c8.51 0 15.41 6.91 15.41 15.43z" fill="#fbdf63"/><path d="m484.88 108.598v210.62c0 8.52-6.9 15.43-15.41 15.43h-20c8.51 0 15.41-6.91 15.41-15.43v-210.62c0-8.52-6.9-15.43-15.41-15.43h20c8.51 0 15.41 6.91 15.41 15.43z" fill="#ffa402"/><g><path d="m277.775 166.034s11.73 111.356-68.902 111.356c-80.315 0-68.142-107.969-68.142-107.969l68.449-51.692z" fill="#fdd9b4"/><path d="m277.948 166.037c-31.93 0-44.82-25.71-44.82-25.71-53.54 39.01-97.03 42.49-110.16 10.45-17.54-42.82 53.66-119.28 126.78-52.68 43.09-12.57 68.47 67.94 28.2 67.94z" fill="#56788b"/><path d="m277.948 166.037c-31.93 0-44.82-25.71-44.82-25.71-14-29.49 16.62-42.23 16.62-42.23 43.09-12.57 68.47 67.94 28.2 67.94z" fill="#415e6f"/></g></g><g><path d="m387.125 368.207c-4.142 0-7.5 3.358-7.5 7.5v51.637h-247.536c-4.142 0-7.5 3.358-7.5 7.5s3.358 7.5 7.5 7.5h117.193v24.596h-202.359c-6.781 0-12.298-5.517-12.298-12.298s5.517-12.298 12.298-12.298h50.264c4.142 0 7.5-3.358 7.5-7.5s-3.358-7.5-7.5-7.5h-29.76v-412.344h129.766c4.142 0 7.5-3.358 7.5-7.5s-3.358-7.5-7.5-7.5h-150.27c-15.052 0-27.298 12.246-27.298 27.298v21.754c0 4.142 3.358 7.5 7.5 7.5s7.5-3.358 7.5-7.5v-21.754c0-6.781 5.517-12.298 12.298-12.298h5.504v412.344h-5.504c-4.421 0-8.6 1.057-12.298 2.931v-346.354c0-4.142-3.358-7.5-7.5-7.5s-7.5 3.358-7.5 7.5v370.72c0 15.052 12.246 27.298 27.298 27.298h202.359v22.56c0 2.539 1.284 4.905 3.413 6.289s4.813 1.596 7.133.565l28.333-12.591 28.333 12.591c.974.433 2.011.646 3.045.646 1.43 0 2.852-.409 4.087-1.211 2.129-1.383 3.413-3.75 3.413-6.289v-22.56h60.083c4.142 0 7.5-3.358 7.5-7.5s-3.358-7.5-7.5-7.5h-13.459v-24.596h13.459c4.142 0 7.5-3.358 7.5-7.5v-59.137c.003-4.141-3.355-7.499-7.497-7.499zm-75.083 124.753-20.833-9.258c-.97-.431-2.008-.646-3.046-.646s-2.076.215-3.046.646l-20.833 9.258v-50.616h47.759v50.616zm46.624-26.02h-31.624v-24.596h31.624z"/><path d="m231.89 15h147.735v48.251c0 4.142 3.358 7.5 7.5 7.5s7.5-3.358 7.5-7.5v-55.751c0-4.142-3.358-7.5-7.5-7.5h-155.235c-4.142 0-7.5 3.358-7.5 7.5s3.358 7.5 7.5 7.5z"/><path d="m229.136 223.25c-3.479-2.245-8.122-1.244-10.368 2.236-2.106 3.265-5.675 5.214-9.546 5.214s-7.439-1.949-9.546-5.214c-2.247-3.481-6.89-4.481-10.368-2.236-3.48 2.246-4.482 6.888-2.236 10.368 4.881 7.566 13.162 12.083 22.15 12.083 8.989 0 17.27-4.517 22.151-12.083 2.245-3.48 1.243-8.122-2.237-10.368z"/><path d="m285.732 172.635c7.706-1.892 13.596-6.726 16.956-14.071 6.758-14.777 1.624-37.754-11.943-53.446-10.71-12.389-24.702-17.792-38.927-15.203-17.859-15.4-36.688-23.906-56.017-25.297-17.641-1.269-34.839 3.569-49.738 13.99-26.923 18.832-39.834 51.079-30.031 75.01 3.616 8.826 9.345 15.642 16.827 20.123-.939 15.44-1.372 61.412 23.55 89.302 12.954 14.497 30.605 21.847 52.464 21.847 21.587 0 39.125-7.322 52.124-21.763 24.703-27.441 25.488-72.735 24.735-90.492zm-33.416-67.466c6.997-1.905 17.223-1.644 27.081 9.759 9.484 10.97 13.903 28.095 9.649 37.396-1.219 2.666-3.696 6.209-11.097 6.209-26.323 0-37.379-20.168-38.09-21.521-3.163-6.709-3.735-12.523-1.749-17.773 3.227-8.523 12.398-13.214 14.206-14.07zm-97.656-14.269c7.692-5.38 19.887-11.48 35.632-11.48 1.447 0 2.925.051 4.431.16 14.291 1.028 28.47 6.933 42.261 17.581-4.73 3.681-9.974 9.144-12.845 16.62-2.869 7.471-2.918 15.475-.16 23.863-31.08 21.643-58.933 31.089-76.97 25.979-8.124-2.302-13.716-7.435-17.098-15.689-7.091-17.315 3.78-42.367 24.749-57.034zm95.189 162.192c-10.175 11.304-23.579 16.799-40.976 16.799-17.634 0-31.127-5.499-41.251-16.811-19.017-21.247-20.432-57.313-19.958-73.943 3.113.549 6.373.822 9.768.822 20.538-.001 46.005-9.981 73.742-29.052 6.215 7.959 18.811 19.915 39.544 22.231.64 15.66.093 56.667-20.869 79.954z"/><path d="m263.162 325.676c0-4.142-3.358-7.5-7.5-7.5h-92.881c-4.142 0-7.5 3.358-7.5 7.5s3.358 7.5 7.5 7.5h92.881c4.142 0 7.5-3.358 7.5-7.5z"/><path d="m182.781 352.207c-4.142 0-7.5 3.358-7.5 7.5s3.358 7.5 7.5 7.5h52.896c4.142 0 7.5-3.358 7.5-7.5s-3.358-7.5-7.5-7.5z"/><path d="m469.469 85.671h-115.938c-12.63 0-22.906 10.286-22.906 22.929v27.768c0 4.142 3.358 7.5 7.5 7.5s7.5-3.358 7.5-7.5v-27.768c0-4.372 3.546-7.929 7.906-7.929h115.938c4.359 0 7.906 3.557 7.906 7.929v210.617c0 4.372-3.546 7.929-7.906 7.929h-89.79c-1.641 0-3.236.538-4.541 1.531l-29.513 22.454v-180.097c0-4.142-3.358-7.5-7.5-7.5s-7.5 3.358-7.5 7.5v195.227c0 2.85 1.615 5.454 4.169 6.72 1.056.523 2.195.78 3.33.78 1.611 0 3.211-.519 4.542-1.531l39.542-30.084h87.261c12.63 0 22.906-10.286 22.906-22.929v-210.617c0-12.643-10.275-22.929-22.906-22.929z"/><path d="m376.559 136.342h69.881c4.142 0 7.5-3.358 7.5-7.5s-3.358-7.5-7.5-7.5h-69.881c-4.142 0-7.5 3.358-7.5 7.5s3.358 7.5 7.5 7.5z"/><path d="m376.559 170.342h59.896c4.142 0 7.5-3.358 7.5-7.5s-3.358-7.5-7.5-7.5h-59.896c-4.142 0-7.5 3.358-7.5 7.5s3.358 7.5 7.5 7.5z"/><path d="m376.559 204.342h69.881c4.142 0 7.5-3.358 7.5-7.5s-3.358-7.5-7.5-7.5h-69.881c-4.142 0-7.5 3.358-7.5 7.5s3.358 7.5 7.5 7.5z"/><path d="m376.559 238.342h59.896c4.142 0 7.5-3.358 7.5-7.5s-3.358-7.5-7.5-7.5h-59.896c-4.142 0-7.5 3.358-7.5 7.5s3.358 7.5 7.5 7.5z"/><path d="m376.559 272.342h69.881c4.142 0 7.5-3.358 7.5-7.5s-3.358-7.5-7.5-7.5h-69.881c-4.142 0-7.5 3.358-7.5 7.5s3.358 7.5 7.5 7.5z"/><path d="m376.559 306.342h59.896c4.142 0 7.5-3.358 7.5-7.5s-3.358-7.5-7.5-7.5h-59.896c-4.142 0-7.5 3.358-7.5 7.5s3.358 7.5 7.5 7.5z"/></g></svg>