<svg id="Layer_1" enable-background="new 0 0 512.001 512.001" height="512" viewBox="0 0 512.001 512.001" width="512" xmlns="http://www.w3.org/2000/svg"><g><g><path d="m504.501 107.598v286.56c0 25.4-20.54 46-45.88 46h-405.24c-25.34 0-45.88-20.6-45.88-46v-286.56c0-25.4 20.54-46 45.88-46h405.24c25.34 0 45.88 20.6 45.88 46z" fill="#56788b"/><path d="m504.501 107.598v286.56c0 25.4-20.54 46-45.88 46h-20c25.34 0 45.88-20.6 45.88-46v-286.56c0-25.4-20.54-46-45.88-46h20c25.34 0 45.88 20.6 45.88 46z" fill="#415e6f"/><path d="m474.581 106.358v258.04c0 8.98-7.26 16.26-16.22 16.26h-404.72c-8.96 0-16.22-7.28-16.22-16.26v-258.04c0-8.98 7.26-16.26 16.22-16.26h404.72c8.96 0 16.22 7.28 16.22 16.26z" fill="#d9f0f4"/><path d="m474.581 106.358v258.04c0 8.98-7.26 16.26-16.22 16.26h-20c8.96 0 16.22-7.28 16.22-16.26v-258.04c0-8.98-7.26-16.26-16.22-16.26h20c8.96 0 16.22 7.28 16.22 16.26z" fill="#bae1e5"/><path d="m315.908 504.501h-119.815l19.694-64.344h80.427z" fill="#90abbd"/><g><path d="m412.361 380.658c0 13.72-11.1 24.83-24.8 24.83h-139.19c-13.69 0-24.79-11.11-24.79-24.83s11.1-24.84 24.79-24.84h6.65l19.12-26.4 19.12 26.4h94.3c13.7 0 24.8 11.12 24.8 24.84z" fill="#fbdf63"/><path d="m412.361 380.658c0 13.72-11.1 24.83-24.8 24.83h-20c13.7 0 24.8-11.11 24.8-24.83s-11.1-24.84-24.8-24.84h20c13.7 0 24.8 11.12 24.8 24.84z" fill="#ffa402"/></g></g><path d="m256.001 298.829c-.25-.16-2.76-1.7-6.88-4.52-24.83-17.07-108.16-81.1-108.16-171.75 0-60.17 46.18-109.55 105.04-114.62 3.29-.29 6.63-.44 10-.44 63.54.01 115.04 51.52 115.04 115.06 0 105.69-113.27 175.19-115.04 176.27z" fill="#ff6b81"/><path d="m256.001 298.829c-.25-.16-2.76-1.7-6.88-4.52 30.19-23.34 101.92-87.64 101.92-171.75 0-60.17-46.18-109.55-105.04-114.62 3.29-.29 6.63-.44 10-.44 63.54.01 115.04 51.52 115.04 115.06 0 105.69-113.27 175.19-115.04 176.27z" fill="#ed2061"/><circle cx="256.001" cy="122.187" fill="#fff" r="59.714"/></g><g><path d="m458.617 54.102h-72.681c-4.142 0-7.5 3.358-7.5 7.5s3.358 7.5 7.5 7.5h72.681c21.165 0 38.383 17.271 38.383 38.5v286.556c0 21.229-17.218 38.5-38.383 38.5h-405.233c-21.165 0-38.383-17.271-38.383-38.5v-233.117c0-4.142-3.358-7.5-7.5-7.5s-7.5 3.358-7.5 7.5v233.117c0 29.5 23.948 53.5 53.383 53.5h152.264l-15.103 49.343h-33.261c-4.142 0-7.5 3.358-7.5 7.5s3.358 7.5 7.5 7.5h197.434c4.142 0 7.5-3.358 7.5-7.5s-3.358-7.5-7.5-7.5h-33.261l-15.103-49.343h152.264c29.436 0 53.383-24 53.383-53.5v-286.556c-.001-29.5-23.948-53.5-53.384-53.5zm-152.848 442.899h-99.538l15.103-49.343h69.333z"/><path d="m7.5 133.642c4.142 0 7.5-3.358 7.5-7.5v-18.54c0-21.229 17.219-38.5 38.383-38.5h72.778c4.142 0 7.5-3.358 7.5-7.5s-3.358-7.5-7.5-7.5h-72.777c-29.436 0-53.383 24-53.383 53.5v18.54c-.001 4.142 3.357 7.5 7.499 7.5z"/><path d="m474.576 281.302c-4.142 0-7.5 3.358-7.5 7.5v75.6c0 4.828-3.909 8.755-8.714 8.755h-16.221c-4.142 0-7.5 3.358-7.5 7.5s3.358 7.5 7.5 7.5h16.221c13.076 0 23.714-10.657 23.714-23.755v-75.6c0-4.142-3.357-7.5-7.5-7.5z"/><path d="m482.076 106.357c0-13.099-10.638-23.755-23.714-23.755h-61.694c-4.142 0-7.5 3.358-7.5 7.5s3.358 7.5 7.5 7.5h61.694c4.805 0 8.714 3.928 8.714 8.755v147.121c0 4.142 3.358 7.5 7.5 7.5s7.5-3.358 7.5-7.5z"/><path d="m200.948 380.657c0-4.142-3.358-7.5-7.5-7.5h-139.81c-4.805 0-8.714-3.928-8.714-8.755v-258.045c0-4.828 3.909-8.755 8.714-8.755h61.125c4.142 0 7.5-3.358 7.5-7.5s-3.358-7.5-7.5-7.5h-61.125c-13.076 0-23.714 10.657-23.714 23.755v258.044c0 13.099 10.638 23.755 23.714 23.755h139.81c4.142.001 7.5-3.357 7.5-7.499z"/><path d="m64.056 402.938c-4.142 0-7.5 3.358-7.5 7.5s3.358 7.5 7.5 7.5h30.639c4.142 0 7.5-3.358 7.5-7.5s-3.358-7.5-7.5-7.5z"/><path d="m124.056 402.938c-4.142 0-7.5 3.358-7.5 7.5s3.358 7.5 7.5 7.5h30.639c4.142 0 7.5-3.358 7.5-7.5s-3.358-7.5-7.5-7.5z"/><path d="m349.329 348.322c-4.142 0-7.5 3.358-7.5 7.5s3.358 7.5 7.5 7.5h38.234c9.539 0 17.299 7.777 17.299 17.335s-7.76 17.335-17.299 17.335h-139.187c-9.539 0-17.299-7.777-17.299-17.335s7.76-17.335 17.299-17.335h6.64c2.405 0 4.664-1.153 6.074-3.101l13.049-18.018 13.049 18.018c1.411 1.947 3.669 3.101 6.074 3.101h21.362c4.142 0 7.5-3.358 7.5-7.5s-3.358-7.5-7.5-7.5h-17.533l-16.877-23.304c-1.411-1.947-3.669-3.101-6.074-3.101s-4.664 1.153-6.074 3.101l-16.877 23.304h-2.812c-17.81 0-32.299 14.506-32.299 32.335s14.489 32.335 32.299 32.335h139.188c17.81 0 32.299-14.506 32.299-32.335s-14.489-32.335-32.299-32.335z"/><path d="m193.013 255.77c28.089 30.034 55.84 47.472 58.881 49.342 1.197.784 2.621 1.231 4.124 1.231 1.609 0 3.125-.513 4.367-1.402 4.166-2.588 31.224-19.895 58.603-49.171 38.958-41.656 59.549-87.721 59.549-133.215 0-32.735-12.748-63.512-35.895-86.659-23.136-23.136-53.896-35.883-86.613-35.895h-.028c-.012 0-.021-.001-.03 0-67.554.027-122.507 54.994-122.507 122.554 0 45.493 20.592 91.558 59.549 133.215zm62.988-240.769c28.723.004 55.724 11.191 76.035 31.502 20.314 20.314 31.501 47.323 31.501 76.052 0 52.447-30.039 95.664-55.238 122.684-21.654 23.218-43.583 38.842-52.294 44.661-19.74-13.221-107.541-77.124-107.541-167.344 0-59.3 48.241-107.544 107.537-107.555z"/><path d="m256 189.402c37.063 0 67.215-30.152 67.215-67.215 0-37.062-30.152-67.214-67.215-67.214-23.071 0-44.265 11.624-56.692 31.094-2.229 3.491-1.205 8.128 2.287 10.357 3.489 2.229 8.127 1.206 10.357-2.287 9.658-15.131 26.125-24.164 44.048-24.164 28.792 0 52.215 23.423 52.215 52.214 0 28.792-23.423 52.215-52.215 52.215-28.791 0-52.214-23.423-52.214-52.215 0-4.142-3.358-7.5-7.5-7.5s-7.5 3.358-7.5 7.5c0 37.063 30.152 67.215 67.214 67.215z"/><path d="m114.837 293.401h-32.142c-4.142 0-7.5 3.358-7.5 7.5s3.358 7.5 7.5 7.5h32.143c4.142 0 7.5-3.358 7.5-7.5s-3.359-7.5-7.501-7.5z"/><path d="m75.195 335.901c0 4.142 3.358 7.5 7.5 7.5h52.113c4.142 0 7.5-3.358 7.5-7.5s-3.358-7.5-7.5-7.5h-52.113c-4.142 0-7.5 3.358-7.5 7.5z"/></g></svg>