<svg id="Layer_1" enable-background="new 0 0 512 512" height="512" viewBox="0 0 512 512" width="512" xmlns="http://www.w3.org/2000/svg"><g><g><g><path d="m423.851 53.501v405c0 25.41-20.57 46-45.94 46h-227.66c-25.36 0-45.93-20.59-45.93-46v-405c0-25.41 20.57-46 45.93-46h227.66c25.37 0 45.94 20.59 45.94 46z" fill="#56788b"/><path d="m423.851 53.501v405c0 25.41-20.57 46-45.94 46h-20c25.37 0 45.94-20.59 45.94-46v-405c0-25.41-20.57-46-45.94-46h20c25.37 0 45.94 20.59 45.94 46z" fill="#415e6f"/><path d="m393.891 52.261v407.48c0 8.98-7.27 16.26-16.23 16.26h-227.151c-8.97 0-16.23-7.28-16.23-16.26v-407.48c0-8.98 7.26-16.26 16.23-16.26h23.71l5.87 18.23c2.45 7.61 9.52 12.77 17.51 12.77h132.97c7.98 0 15.06-5.16 17.51-12.77l5.87-18.23h23.71c8.96 0 16.231 7.28 16.231 16.26z" fill="#4dd4f7"/><path d="m393.891 52.261v407.48c0 8.98-7.27 16.26-16.23 16.26h-20c8.96 0 16.23-7.28 16.23-16.26v-407.48c0-8.98-7.27-16.26-16.23-16.26h20c8.959 0 16.23 7.28 16.23 16.26z" fill="#00c2f3"/></g></g><g><path d="m284.18 130.961v87.46c0 8.74-7.08 15.81-15.81 15.81h-207.46c-8.73 0-15.81-7.07-15.81-15.81v-87.46c0-8.73 7.08-15.8 15.81-15.8h207.46c8.73 0 15.81 7.07 15.81 15.8z" fill="#ff6b81"/><path d="m284.18 130.961v87.46c0 8.74-7.08 15.81-15.81 15.81h-20c8.73 0 15.81-7.07 15.81-15.81v-87.46c0-8.73-7.08-15.8-15.81-15.8h20c8.73 0 15.81 7.07 15.81 15.8z" fill="#ed2061"/></g><g><path d="m460.53 222.261-35.82 35.82-4.87-4.87-30.96-30.95c-8.48-8.49-8.5-22.24-.02-30.72s22.23-8.47 30.72.02l5.13 5.13 5.12-5.13c3.51-3.51 7.91-5.56 12.47-6.17 6.48-.88 13.27 1.17 18.25 6.15 8.48 8.48 8.47 22.23-.02 30.72z" fill="#fbdf63"/><path d="m460.55 191.541c8.48 8.48 8.47 22.23-.02 30.72l-35.82 35.82-4.87-4.87c37.26-43.09 29.94-59.46 22.46-67.82 6.48-.88 13.27 1.17 18.25 6.15z" fill="#ffa402"/></g><path d="m458.11 337.601-49.42 49.43-5.25-5.25-44.18-44.17c-11.71-11.72-11.72-30.69-.03-42.39 11.7-11.69 30.67-11.68 42.39.03l7.07 7.07 7.07-7.07c4.76-4.76 10.72-7.59 16.9-8.48 9.03-1.31 18.53 1.51 25.48 8.45 11.7 11.7 11.68 30.67-.03 42.38z" fill="#ff6b81"/><path d="m458.14 295.221c11.7 11.7 11.68 30.67-.03 42.38l-49.42 49.43-5.25-5.25c52.68-63.05 39.66-84.08 29.22-95.01 9.03-1.31 18.53 1.51 25.48 8.45z" fill="#ed2061"/></g><g><path d="m96.558 263.694v129.766c0 4.142 3.358 7.5 7.5 7.5s7.5-3.358 7.5-7.5v-129.766c0-4.142-3.358-7.5-7.5-7.5s-7.5 3.358-7.5 7.5z"/><path d="m423.932 409.294c-4.143 0-7.5 3.358-7.5 7.5v41.706c0 21.229-17.263 38.5-38.481 38.5h-227.911c-21.219 0-38.482-17.271-38.482-38.5v-29.632c0-4.142-3.358-7.5-7.5-7.5s-7.5 3.358-7.5 7.5v29.632c0 29.5 23.992 53.5 53.482 53.5h227.91c29.489 0 53.481-24 53.481-53.5v-41.706c.001-4.142-3.357-7.5-7.499-7.5z"/><path d="m318.79 15h59.16c21.219 0 38.481 17.271 38.481 38.5v107.554c0 4.142 3.357 7.5 7.5 7.5s7.5-3.358 7.5-7.5v-107.554c.001-29.5-23.99-53.5-53.481-53.5h-59.16c-4.143 0-7.5 3.358-7.5 7.5s3.358 7.5 7.5 7.5z"/><path d="m104.058 92.773c4.142 0 7.5-3.358 7.5-7.5v-31.773c0-21.229 17.263-38.5 38.482-38.5h134.136c4.143 0 7.5-3.358 7.5-7.5s-3.357-7.5-7.5-7.5h-134.136c-29.49 0-53.482 24-53.482 53.5v31.773c0 4.142 3.358 7.5 7.5 7.5z"/><path d="m377.695 43.5c4.824 0 8.749 3.928 8.749 8.755v104.798c0 4.142 3.357 7.5 7.5 7.5s7.5-3.358 7.5-7.5v-104.798c0-13.099-10.653-23.755-23.749-23.755h-23.735c-3.255 0-6.139 2.1-7.138 5.198l-5.879 18.231c-1.461 4.528-5.636 7.571-10.391 7.571h-133.114c-4.755 0-8.931-3.042-10.391-7.571l-5.878-18.231c-.999-3.098-3.883-5.198-7.138-5.198h-23.735c-13.095 0-23.749 10.657-23.749 23.755v33.018c0 4.142 3.358 7.5 7.5 7.5s7.5-3.358 7.5-7.5v-33.018c0-4.828 3.925-8.755 8.749-8.755h18.273l4.202 13.033c3.465 10.747 13.378 17.967 24.667 17.967h133.114c11.288 0 21.201-7.221 24.666-17.967l4.203-13.033z"/><path d="m134.046 256.301c-4.142 0-7.5 3.358-7.5 7.5v195.944c0 13.099 10.654 23.755 23.749 23.755h227.399c13.096 0 23.749-10.657 23.749-23.755v-42.905c0-4.142-3.357-7.5-7.5-7.5s-7.5 3.358-7.5 7.5v42.905c0 4.828-3.925 8.755-8.749 8.755h-227.399c-4.824 0-8.749-3.928-8.749-8.755v-195.944c0-4.142-3.358-7.5-7.5-7.5z"/><path d="m215.835 37.485c0 4.142 3.358 7.5 7.5 7.5h81.32c4.143 0 7.5-3.358 7.5-7.5s-3.357-7.5-7.5-7.5h-81.32c-4.142 0-7.5 3.358-7.5 7.5z"/><path d="m223.335 448.722h81.32c4.143 0 7.5-3.358 7.5-7.5s-3.357-7.5-7.5-7.5h-81.32c-4.142 0-7.5 3.358-7.5 7.5s3.358 7.5 7.5 7.5z"/><path d="m75.117 137.354c-4.142 0-7.5 3.358-7.5 7.5v60c0 4.142 3.358 7.5 7.5 7.5h30c4.142 0 7.5-3.358 7.5-7.5s-3.358-7.5-7.5-7.5h-22.5v-52.5c0-4.142-3.357-7.5-7.5-7.5z"/><path d="m126.617 144.854v60c0 4.142 3.358 7.5 7.5 7.5s7.5-3.358 7.5-7.5v-60c0-4.142-3.358-7.5-7.5-7.5s-7.5 3.358-7.5 7.5z"/><path d="m171.393 143.035c-1.005-4.019-5.078-6.465-9.095-5.457-4.019 1.004-6.462 5.077-5.457 9.095l15 60c.834 3.339 3.834 5.681 7.276 5.681s6.441-2.342 7.276-5.681l15-60c1.005-4.018-1.438-8.09-5.457-9.095-4.014-1.003-8.09 1.438-9.095 5.457l-7.724 30.896z"/><path d="m254.117 152.354c4.142 0 7.5-3.358 7.5-7.5s-3.358-7.5-7.5-7.5h-30c-4.142 0-7.5 3.358-7.5 7.5v60c0 4.142 3.358 7.5 7.5 7.5h30c4.142 0 7.5-3.358 7.5-7.5s-3.358-7.5-7.5-7.5h-22.5v-15h22.5c4.142 0 7.5-3.358 7.5-7.5s-3.358-7.5-7.5-7.5h-22.5v-15z"/><path d="m291.676 218.426v-87.459c0-12.853-10.457-23.31-23.31-23.31h-68.8c-4.142 0-7.5 3.358-7.5 7.5s3.358 7.5 7.5 7.5h68.8c4.582 0 8.31 3.728 8.31 8.31v87.459c0 4.582-3.728 8.309-8.31 8.309h-207.459c-4.582 0-8.31-3.728-8.31-8.309v-87.459c0-4.582 3.728-8.31 8.31-8.31h103.73c4.142 0 7.5-3.358 7.5-7.5s-3.358-7.5-7.5-7.5h-103.73c-12.853 0-23.31 10.457-23.31 23.31v87.459c0 12.853 10.457 23.309 23.31 23.309h207.459c12.853 0 23.31-10.457 23.31-23.309z"/><path d="m463.444 289.918c-14.6-14.599-38.372-14.585-52.991.032l-1.766 1.766-1.767-1.766c-14.618-14.618-38.388-14.631-52.99-.031-14.601 14.601-14.587 38.373.031 52.991l49.422 49.422c1.465 1.464 3.385 2.197 5.304 2.197s3.839-.732 5.304-2.197l49.422-49.422c14.618-14.619 14.632-38.39.031-52.992.001.001 0 .001 0 0zm-10.639 42.385-44.118 44.119-44.118-44.119c-4.25-4.25-6.593-9.897-6.598-15.901-.004-6 2.327-11.639 6.566-15.877 4.37-4.371 10.112-6.555 15.859-6.555 5.761 0 11.527 2.196 15.917 6.586l7.069 7.069c2.93 2.929 7.678 2.929 10.607 0l7.068-7.069c8.771-8.771 23.026-8.782 31.778-.031 4.238 4.238 6.57 9.877 6.565 15.876-.001 6.005-2.345 11.652-6.595 15.902z"/><path d="m404.223 177.691h-.021c-7.8 0-15.13 3.036-20.642 8.548-5.519 5.518-8.555 12.856-8.549 20.665.006 7.804 3.05 15.142 8.57 20.663l35.822 35.822c1.407 1.407 3.314 2.197 5.304 2.197s3.896-.79 5.304-2.197l35.82-35.822c5.521-5.521 8.565-12.859 8.571-20.663.006-7.808-3.029-15.146-8.547-20.664h-.001c-11.328-11.329-29.735-11.377-41.147-.155-5.5-5.409-12.764-8.388-20.484-8.394zm30.912 19.178c2.69-2.691 6.266-4.174 10.066-4.177h.011c3.793 0 7.357 1.476 10.036 4.155 2.682 2.682 4.157 6.25 4.154 10.046-.003 3.801-1.486 7.376-4.178 10.067l-30.518 30.519-30.519-30.519c-2.691-2.691-4.175-6.267-4.178-10.068-.003-3.797 1.473-7.365 4.155-10.046 2.679-2.68 6.242-4.155 10.035-4.155h.011c3.801.003 7.377 1.486 10.067 4.177l5.124 5.124c2.93 2.929 7.678 2.929 10.607 0z"/><path d="m178.895 354.059c-4.142 0-7.5 3.358-7.5 7.5v41.222c0 4.142 3.358 7.5 7.5 7.5h31.222c4.142 0 7.5-3.358 7.5-7.5s-3.358-7.5-7.5-7.5h-23.722v-33.722c0-4.142-3.358-7.5-7.5-7.5z"/><path d="m349.053 155.249c4.143 0 7.5-3.358 7.5-7.5v-41.222c0-4.142-3.357-7.5-7.5-7.5h-31.223c-4.143 0-7.5 3.358-7.5 7.5s3.357 7.5 7.5 7.5h23.723v33.722c0 4.142 3.357 7.5 7.5 7.5z"/></g></svg>