<svg id="Layer_1" enable-background="new 0 0 512 512" height="512" viewBox="0 0 512 512" width="512" xmlns="http://www.w3.org/2000/svg"><g><g><path d="m474.078 53.542v314.918c0 25.43-20.55 46.04-45.89 46.04h-345.23c-25.34 0-45.88-20.61-45.88-46.04v-314.918c0-25.43 20.54-46.04 45.88-46.04h345.23c25.34 0 45.89 20.61 45.89 46.04z" fill="#09eaa3"/><path d="m474.078 53.542v314.918c0 25.43-20.55 46.04-45.89 46.04h-20c25.34 0 45.89-20.61 45.89-46.04v-314.918c0-25.43-20.55-46.04-45.89-46.04h20c25.34 0 45.89 20.61 45.89 46.04z" fill="#14bb87"/><path d="m444.148 83.322v286.378c0 8.99-7.26 16.27-16.21 16.27h-344.72c-8.96 0-16.22-7.28-16.22-16.27v-286.378c0-8.98 7.26-16.27 16.22-16.27h344.72c8.95 0 16.21 7.29 16.21 16.27z" fill="#d9f0f4"/><path d="m444.148 83.322v286.378c0 8.99-7.26 16.27-16.21 16.27h-20c8.95 0 16.21-7.28 16.21-16.27v-286.378c0-8.98-7.26-16.27-16.21-16.27h20c8.95 0 16.21 7.29 16.21 16.27z" fill="#bae1e5"/></g><path d="m471.405 435.581 12.61 17.37-30.95 31-17.38-12.61-28.75 11.93-3.36 21.21-20.25.01-23.54.01-3.38-21.2-28.77-11.92-17.36 12.62-30.97-30.97 12.6-17.39-11.93-28.77-21.19-3.36-.02-43.819 21.19-3.38 11.9-28.79-12.61-17.37 30.96-30.99 17.37 12.61 28.76-11.93 3.35-21.21 23.55-.01 20.25-.01 3.37 21.2 28.77 11.91 17.36-12.62 30.98 30.98-12.6 17.38 11.92 28.77 21.2 3.359.01 43.83-21.18 3.37z" fill="#56788b"/><path d="m471.405 435.581 12.61 17.37-30.95 31-17.38-12.61-28.75 11.93-3.36 21.21-20.25.01 3.86-24.35c1.08-6.87 5.66-12.68 12.08-15.34l28.76-11.93c6.43-2.67 13.78-1.81 19.41 2.28l3.55 2.58 6.82-6.84-2.58-3.56c-4.09-5.62-4.96-12.97-2.3-19.39l11.91-28.79c2.65-6.43 8.46-11.01 15.33-12.11l4.33-.69-.01-9.68-4.33-.68c-6.87-1.09-12.68-5.67-15.35-12.1l-11.92-28.77c-2.66-6.42-1.8-13.77 2.28-19.4l2.59-3.56-6.83-6.83-3.54 2.57c-5.63 4.09-12.98 4.96-19.41 2.3l-28.77-11.91c-6.43-2.66-11.01-8.47-12.1-15.34l-3.87-24.33 20.25-.01 3.37 21.2 28.77 11.91 17.36-12.62 30.98 30.98-12.6 17.38 11.92 28.77 21.2 3.36.01 43.83-21.18 3.37z" fill="#415e6f"/><circle cx="381.192" cy="381.554" fill="#fff" r="58.314"/><g><path d="m164.25 128.649v75.62c0 8.52-6.9 15.43-15.41 15.43h-99.79l-41.55 31.609v-122.66c0-8.52 6.9-15.43 15.41-15.43h125.93c8.51.001 15.41 6.911 15.41 15.431z" fill="#ff6b81"/><path d="m164.25 128.649v75.62c0 8.52-6.9 15.43-15.41 15.43h-20c8.51 0 15.41-6.91 15.41-15.43v-75.62c0-8.52-6.9-15.43-15.41-15.43h20c8.51 0 15.41 6.91 15.41 15.43z" fill="#ed2061"/></g></g><g><path d="m511.981 359.593c-.002-3.687-2.684-6.827-6.325-7.404l-17.051-2.704-8.71-21.017 10.14-13.987c2.164-2.984 1.838-7.099-.77-9.706l-30.979-30.975c-2.608-2.611-6.729-2.932-9.713-.763l-13.96 10.147-21.012-8.7-2.714-17.056c-.58-3.642-3.72-6.321-7.407-6.321h-.003l-43.794.018c-3.688.001-6.828 2.685-7.405 6.328l-2.701 17.065-20.996 8.712-13.974-10.143c-2.984-2.166-7.104-1.841-9.712.77l-30.956 30.997c-2.605 2.608-2.929 6.723-.763 9.706l10.146 13.974-8.698 21.032-17.041 2.715c-3.643.581-6.322 3.722-6.32 7.41l.019 43.821c.002 3.688 2.684 6.827 6.325 7.404l17.051 2.704 8.71 21.017-10.14 13.987c-2.164 2.984-1.838 7.099.77 9.706l30.977 30.975c2.609 2.609 6.729 2.932 9.713.763l13.96-10.147 21.012 8.7 2.714 17.056c.58 3.642 3.72 6.321 7.407 6.321h.003l43.794-.018c3.688-.001 6.828-2.684 7.404-6.327l2.703-17.065 20.997-8.712 13.974 10.143c2.986 2.167 7.104 1.841 9.712-.77l30.956-30.997c2.605-2.608 2.929-6.723.763-9.706l-10.146-13.974 8.698-21.031 17.041-2.715c3.643-.581 6.322-3.722 6.32-7.41zm-29.848 39.795c-2.576.411-4.754 2.13-5.751 4.541l-11.906 28.789c-.996 2.409-.67 5.163.861 7.272l8.851 12.191-21.906 21.936-12.188-8.847c-2.11-1.533-4.87-1.859-7.279-.857l-28.754 11.931c-2.409 1-4.126 3.178-4.533 5.754l-2.358 14.887-30.987.013-2.367-14.877c-.41-2.576-2.129-4.753-4.538-5.751l-28.771-11.913c-.924-.382-1.898-.57-2.868-.57-1.561 0-3.108.487-4.411 1.434l-12.176 8.851-21.921-21.92 8.847-12.204c1.53-2.111 1.854-4.865.856-7.273l-11.924-28.771c-.999-2.41-3.178-4.127-5.754-4.536l-14.875-2.359-.013-31.018 14.864-2.368c2.576-.411 4.754-2.13 5.751-4.541l11.906-28.789c.996-2.409.67-5.163-.861-7.272l-8.851-12.191 21.906-21.936 12.188 8.847c2.111 1.532 4.871 1.858 7.279.857l28.754-11.931c2.409-1 4.126-3.179 4.534-5.755l2.355-14.886 30.987-.013 2.367 14.877c.41 2.576 2.129 4.753 4.538 5.751l28.771 11.913c2.41.998 5.167.671 7.279-.863l12.176-8.851 21.923 21.92-8.847 12.204c-1.53 2.111-1.854 4.865-.856 7.273l11.924 28.771c.999 2.41 3.178 4.127 5.754 4.536l14.875 2.359.013 31.018z"/><path d="m37.354 90.824c4.143 0 7.5-3.358 7.5-7.5v-29.782c0-21.251 17.206-38.541 38.354-38.541h241.848c4.143 0 7.5-3.358 7.5-7.5s-3.357-7.5-7.5-7.5h-241.847c-29.42 0-53.354 24.018-53.354 53.541v29.782c-.001 4.142 3.357 7.5 7.499 7.5z"/><path d="m360.08 15.001h68.145c21.148 0 38.354 17.289 38.354 38.541v204.917c0 4.142 3.357 7.5 7.5 7.5s7.5-3.358 7.5-7.5v-204.917c0-29.522-23.935-53.541-53.354-53.541h-68.145c-4.143 0-7.5 3.358-7.5 7.5s3.358 7.5 7.5 7.5z"/><path d="m230.582 407h-147.373c-21.148 0-38.354-17.29-38.354-38.541v-102.712c0-4.142-3.357-7.5-7.5-7.5s-7.5 3.358-7.5 7.5v102.711c0 29.522 23.935 53.541 53.354 53.541h147.373c4.143 0 7.5-3.358 7.5-7.5s-3.357-7.499-7.5-7.499z"/><path d="m139.973 393.474h87.137c4.143 0 7.5-3.358 7.5-7.5s-3.357-7.5-7.5-7.5h-87.137c-4.143 0-7.5 3.358-7.5 7.5s3.357 7.5 7.5 7.5z"/><path d="m67.26 242.495c-4.143 0-7.5 3.358-7.5 7.5v119.709c0 13.107 10.633 23.77 23.703 23.77h21.404c4.143 0 7.5-3.358 7.5-7.5s-3.357-7.5-7.5-7.5h-21.404c-4.799 0-8.703-3.934-8.703-8.77v-119.709c0-4.142-3.358-7.5-7.5-7.5z"/><path d="m444.174 259.205c4.143 0 7.5-3.358 7.5-7.5v-168.381c0-13.106-10.634-23.77-23.704-23.77h-344.507c-13.07 0-23.703 10.663-23.703 23.77 0 4.142 3.357 7.5 7.5 7.5s7.5-3.358 7.5-7.5c0-4.835 3.904-8.77 8.703-8.77h344.507c4.8 0 8.704 3.934 8.704 8.77v168.381c0 4.142 3.357 7.5 7.5 7.5z"/><path d="m89.558 44.333h30.619c4.143 0 7.5-3.358 7.5-7.5s-3.357-7.5-7.5-7.5h-30.619c-4.143 0-7.5 3.358-7.5 7.5s3.357 7.5 7.5 7.5z"/><path d="m180.139 44.333c4.143 0 7.5-3.358 7.5-7.5s-3.357-7.5-7.5-7.5h-30.619c-4.143 0-7.5 3.358-7.5 7.5s3.357 7.5 7.5 7.5z"/><path d="m148.754 227.165c12.625 0 22.896-10.292 22.896-22.943v-75.684c0-12.65-10.271-22.942-22.896-22.942h-9.242c-4.143 0-7.5 3.358-7.5 7.5s3.357 7.5 7.5 7.5h9.242c4.354 0 7.896 3.563 7.896 7.942v75.684c0 4.38-3.542 7.943-7.896 7.943h-99.727c-1.643 0-3.239.539-4.546 1.535l-29.481 22.464v-107.626c0-4.379 3.542-7.942 7.896-7.942h82.169c4.143 0 7.5-3.358 7.5-7.5s-3.357-7.5-7.5-7.5h-82.169c-12.625-.001-22.896 10.291-22.896 22.942v122.771c0 2.851 1.616 5.456 4.172 6.721 1.055.522 2.193.779 3.327.779 1.613 0 3.215-.52 4.547-1.535l39.514-30.109z"/><path d="m136.238 148.798c0-4.142-3.357-7.5-7.5-7.5h-82.829c-4.143 0-7.5 3.358-7.5 7.5s3.357 7.5 7.5 7.5h82.829c4.143 0 7.5-3.358 7.5-7.5z"/><path d="m45.909 175.328c-4.143 0-7.5 3.358-7.5 7.5s3.357 7.5 7.5 7.5h72.851c4.143 0 7.5-3.358 7.5-7.5s-3.357-7.5-7.5-7.5z"/><path d="m439.469 374.054c-4.143 0-7.5 3.358-7.5 7.5 0 28.019-22.778 50.814-50.777 50.814s-50.777-22.795-50.777-50.814 22.778-50.814 50.777-50.814c17.182 0 33.071 8.599 42.504 23.001 2.271 3.466 6.919 4.434 10.384 2.165 3.465-2.27 4.435-6.918 2.165-10.383-12.215-18.649-32.796-29.782-55.053-29.782-36.27 0-65.777 29.524-65.777 65.814s29.508 65.814 65.777 65.814 65.777-29.524 65.777-65.814c0-4.143-3.358-7.501-7.5-7.501z"/><path d="m121.936 304.304h32.122c4.143 0 7.5-3.358 7.5-7.5s-3.357-7.5-7.5-7.5h-32.122c-4.143 0-7.5 3.358-7.5 7.5s3.357 7.5 7.5 7.5z"/><path d="m121.936 339.304h52.08c4.143 0 7.5-3.358 7.5-7.5s-3.357-7.5-7.5-7.5h-52.08c-4.143 0-7.5 3.358-7.5 7.5s3.357 7.5 7.5 7.5z"/><path d="m389.872 149.495h-32.123c-4.143 0-7.5 3.358-7.5 7.5s3.357 7.5 7.5 7.5h32.123c4.143 0 7.5-3.358 7.5-7.5s-3.357-7.5-7.5-7.5z"/><path d="m389.872 114.495h-52.08c-4.143 0-7.5 3.358-7.5 7.5s3.357 7.5 7.5 7.5h52.08c4.143 0 7.5-3.358 7.5-7.5s-3.357-7.5-7.5-7.5z"/></g></svg>