<svg id="Layer_1" enable-background="new 0 0 512 512" height="512" viewBox="0 0 512 512" width="512" xmlns="http://www.w3.org/2000/svg"><g><g><path d="m301.714 131v229.42c0 11.25-9.11 20.37-20.35 20.37h-199.29c-11.24 0-20.36-9.12-20.36-20.37v-229.42c0-11.25 9.12-20.36 20.36-20.36h199.29c11.24 0 20.35 9.11 20.35 20.36z" fill="#d9f0f4"/><path d="m301.714 131v229.42c0 11.25-9.11 20.37-20.35 20.37h-20c11.24 0 20.35-9.12 20.35-20.37v-229.42c0-11.25-9.11-20.36-20.35-20.36h20c11.24 0 20.35 9.11 20.35 20.36z" fill="#bae1e5"/><path d="m301.714 327.42v33c0 11.25-9.11 20.37-20.35 20.37h-199.29c-11.24 0-20.36-9.12-20.36-20.37v-52.99l52.55-52.58 72.75 72.79z" fill="#09eaa3"/><path d="m301.714 252.95v107.47c0 11.25-9.11 20.37-20.35 20.37h-147.15l126.25-127.84z" fill="#56788b"/><path d="m301.714 131v38.67h-240v-38.67c0-11.25 9.12-20.36 20.36-20.36h199.29c11.24 0 20.35 9.11 20.35 20.36z" fill="#90abbd"/><path d="m301.714 131v38.67h-20v-38.67c0-11.25-9.11-20.36-20.35-20.36h20c11.24 0 20.35 9.11 20.35 20.36z" fill="#56788b"/><path d="m281.714 252.95h20v107.47c0 11.25-9.11 20.37-20.35 20.37h-20c11.24 0 20.35-9.12 20.35-20.37z" fill="#415e6f"/><ellipse cx="175.199" cy="230.037" fill="#fbdf63" rx="20" ry="20.011"/></g><g><path d="m301.714 7.5v48.31c0 11.25-9.11 20.37-20.35 20.37h-199.29c-11.24 0-20.36-9.12-20.36-20.37v-48.31z" fill="#d9f0f4"/><path d="m301.714 22.81v33c0 11.25-9.11 20.37-20.35 20.37h-199.29c-11.24 0-20.36-9.12-20.36-20.37v-48.31h109.78l15.36 15.37.16.16 94.7-.18z" fill="#4dd4f7"/><path d="m301.714 7.5v48.31c0 11.25-9.11 20.37-20.35 20.37h-147.15l52.64-53.31 15.19-15.37h99.67z" fill="#56788b"/><path d="m301.714 7.5v48.31c0 11.25-9.11 20.37-20.35 20.37h-20c11.24 0 20.35-9.12 20.35-20.37v-48.31z" fill="#415e6f"/></g><g><path d="m383.788 348.057c-7.778 7.778-20.506 7.778-28.284 0l-13.994-14.008-81.049-81.091c-6.696-6.696-7.17-17.183-1.054-23.299s16.596-5.65 23.285 1.054l34.288 34.302c-6.696-6.696-7.17-17.183-1.054-23.299 6.117-6.117 16.589-5.643 23.285 1.054-6.696-6.696-7.17-17.183-1.054-23.299s16.589-5.643 23.285 1.054c-3.345-3.345-5.141-7.644-5.332-11.865s1.216-8.372 4.278-11.434c6.116-6.116 16.596-5.65 23.285 1.054l46.619 46.648 14.142 14.142c7.778 7.778 7.778 20.52 0 28.298z" fill="#fdd9b4"/><path d="m383.788 348.057c-7.778 7.778-20.506 7.778-28.284 0l-13.994-14.008c7.785 7.644 20.407 7.594 28.136-.134l60.649-60.691c7.778-7.778 7.778-20.506.007-28.291l14.135 14.135c7.778 7.778 7.778 20.52 0 28.298z" fill="#fab684"/></g><g><path d="m301.714 436.18v68.32h-240v-68.32c0-11.25 9.12-20.36 20.36-20.36h199.29c11.24 0 20.35 9.11 20.35 20.36z" fill="#d9f0f4"/><path d="m301.714 436.18v68.32h-20v-68.32c0-11.25-9.11-20.36-20.35-20.36h20c11.24 0 20.35 9.11 20.35 20.36z" fill="#bae1e5"/><path d="m301.719 436.177v38.67h-240v-38.67c0-11.25 9.12-20.36 20.36-20.36h199.29c11.24 0 20.35 9.11 20.35 20.36z" fill="#90abbd"/><path d="m301.719 436.177v38.67h-20v-38.67c0-11.25-9.11-20.36-20.35-20.36h20c11.24 0 20.35 9.11 20.35 20.36z" fill="#56788b"/></g></g><g><path d="m449.741 253.764-11.895-11.901c-2.928-2.93-7.676-2.931-10.606-.003s-2.931 7.677-.003 10.606l11.895 11.902c4.876 4.878 4.876 12.816 0 17.696l-60.648 60.682c-2.345 2.346-5.483 3.638-8.836 3.638-3.354 0-6.493-1.292-8.838-3.639l-95.044-95.095c-3.725-3.726-4.208-9.54-1.054-12.695 1.449-1.451 3.497-2.197 5.783-2.089 2.536.115 4.985 1.23 6.895 3.142l34.284 34.303c2.928 2.93 7.677 2.93 10.606.002 2.93-2.928 2.931-7.677.003-10.606-3.725-3.726-4.207-9.539-1.053-12.694 1.449-1.45 3.509-2.192 5.782-2.088 2.536.115 4.984 1.23 6.894 3.142 2.929 2.93 7.678 2.93 10.606.002 2.93-2.928 2.931-7.677.003-10.606-3.725-3.726-4.207-9.539-1.053-12.694 1.45-1.45 3.504-2.186 5.784-2.089 2.536.115 4.984 1.23 6.894 3.142 2.928 2.93 7.677 2.931 10.606.002 2.93-2.928 2.931-7.677.003-10.606-3.725-3.726-4.207-9.54-1.054-12.695 1.449-1.449 3.504-2.187 5.784-2.088 2.536.114 4.984 1.23 6.894 3.141l24.264 24.277c2.928 2.93 7.677 2.931 10.606.003 2.93-2.928 2.931-7.677.003-10.606l-24.264-24.277c-4.564-4.566-10.54-7.238-16.827-7.522-6.539-.291-12.604 2.002-17.069 6.469-4.285 4.287-6.435 9.952-6.491 15.752-6.032.051-11.581 2.33-15.743 6.494-4.285 4.287-6.436 9.952-6.491 15.751-6.031.051-11.58 2.33-15.741 6.493-2.045 2.046-3.604 4.407-4.681 6.946l-17.939-17.95c-4.565-4.566-10.541-7.238-16.826-7.522-6.551-.285-12.604 2.002-17.071 6.47-7.326 7.33-8.413 18.69-3.455 27.864l-63.824 64.625-67.253-67.29c-1.407-1.408-3.315-2.198-5.305-2.198s-3.898.791-5.305 2.198l-39.743 39.766v-61.279c0-4.142-3.358-7.5-7.5-7.5s-7.5 3.358-7.5 7.5v132.383c0 15.367 12.497 27.87 27.858 27.87h199.284c15.361 0 27.858-12.502 27.858-27.87v-22.772c0-4.142-3.358-7.5-7.5-7.5s-7.5 3.358-7.5 7.5v22.772c0 7.096-5.768 12.87-12.858 12.87h-129.202l108.334-109.695 89.707 89.755c5.179 5.182 12.085 8.035 19.447 8.035 7.362 0 14.269-2.854 19.446-8.035l60.648-60.682c10.721-10.731 10.721-28.183.001-38.907zm-318.665 119.524h-48.999c-7.09 0-12.858-5.773-12.858-12.87v-49.884l45.048-45.073 62.017 62.052z"/><path d="m61.719 200.423c4.142 0 7.5-3.358 7.5-7.5v-15.754h225v29.337c0 4.142 3.358 7.5 7.5 7.5s7.5-3.358 7.5-7.5v-75.501c0-15.367-12.497-27.869-27.858-27.869h-199.284c-15.361 0-27.858 12.502-27.858 27.869v61.918c0 4.142 3.358 7.5 7.5 7.5zm7.5-69.419c0-7.096 5.768-12.869 12.858-12.869h199.284c7.09 0 12.858 5.773 12.858 12.869v31.164h-225z"/><path d="m121.911 132.64h-30.639c-4.142 0-7.5 3.358-7.5 7.5s3.358 7.5 7.5 7.5h30.639c4.142 0 7.5-3.358 7.5-7.5s-3.358-7.5-7.5-7.5z"/><path d="m181.911 132.64h-30.639c-4.142 0-7.5 3.358-7.5 7.5s3.358 7.5 7.5 7.5h30.639c4.142 0 7.5-3.358 7.5-7.5s-3.358-7.5-7.5-7.5z"/><path d="m281.361 408.307h-31.162c-4.142 0-7.5 3.358-7.5 7.5s3.358 7.5 7.5 7.5h31.162c7.09 0 12.858 5.773 12.858 12.869v31.165h-225v-31.165c0-7.096 5.768-12.869 12.858-12.869h133.122c4.142 0 7.5-3.358 7.5-7.5s-3.358-7.5-7.5-7.5h-133.122c-15.361 0-27.858 12.502-27.858 27.869v68.324c0 4.143 3.358 7.5 7.5 7.5s7.5-3.357 7.5-7.5v-22.159h225v22.159c0 4.143 3.358 7.5 7.5 7.5s7.5-3.357 7.5-7.5v-68.324c0-15.367-12.497-27.869-27.858-27.869z"/><path d="m91.272 437.813c-4.142 0-7.5 3.358-7.5 7.5 0 4.143 3.358 7.5 7.5 7.5h30.639c4.142 0 7.5-3.357 7.5-7.5 0-4.142-3.358-7.5-7.5-7.5z"/><path d="m151.272 437.813c-4.142 0-7.5 3.358-7.5 7.5 0 4.143 3.358 7.5 7.5 7.5h30.639c4.142 0 7.5-3.357 7.5-7.5 0-4.142-3.358-7.5-7.5-7.5z"/><path d="m82.077 83.681h133.122c4.142 0 7.5-3.358 7.5-7.5s-3.358-7.5-7.5-7.5h-62.967l55.523-55.895c2.919-2.939 2.903-7.687-.035-10.606-2.939-2.919-7.687-2.904-10.606.035l-10.12 10.188-10.2-10.205c-2.928-2.93-7.677-2.931-10.606-.003-2.93 2.928-2.931 7.677-.003 10.606l10.237 10.242-45.333 45.637h-49.012c-7.09 0-12.858-5.773-12.858-12.87v-48.31c0-4.142-3.358-7.5-7.5-7.5s-7.5 3.358-7.5 7.5v48.311c0 15.368 12.497 27.87 27.858 27.87z"/><path d="m250.199 83.681h31.162c15.361 0 27.858-12.502 27.858-27.87v-48.311c0-4.142-3.358-7.5-7.5-7.5s-7.5 3.358-7.5 7.5v48.311c0 7.096-5.768 12.87-12.858 12.87h-31.162c-4.142 0-7.5 3.358-7.5 7.5s3.358 7.5 7.5 7.5z"/><path d="m147.699 230.036c0 15.17 12.336 27.512 27.5 27.512s27.5-12.342 27.5-27.512-12.336-27.511-27.5-27.511-27.5 12.342-27.5 27.511zm40 0c0 6.899-5.607 12.512-12.5 12.512s-12.5-5.613-12.5-12.512 5.607-12.511 12.5-12.511 12.5 5.613 12.5 12.511z"/><path d="m420.181 474.791-17.973 17.984v-94.111c0-4.142-3.358-7.5-7.5-7.5s-7.5 3.358-7.5 7.5v94.111l-17.974-17.984c-2.927-2.931-7.676-2.932-10.606-.003-2.93 2.928-2.931 7.677-.003 10.606l19.878 19.89c4.328 4.33 10.083 6.715 16.205 6.715 6.121 0 11.876-2.385 16.205-6.715l19.878-19.89c2.928-2.93 2.927-7.679-.003-10.606-2.93-2.93-7.679-2.929-10.607.003z"/><path d="m369.234 37.209 17.974-17.984v124.128c0 4.142 3.358 7.5 7.5 7.5s7.5-3.358 7.5-7.5v-124.128l17.973 17.983c1.465 1.466 3.384 2.198 5.305 2.198 1.918 0 3.837-.732 5.302-2.195 2.93-2.928 2.931-7.677.003-10.606l-19.878-19.889c-4.329-4.331-10.083-6.716-16.205-6.716s-11.877 2.385-16.205 6.716l-19.878 19.889c-2.928 2.93-2.927 7.678.003 10.606 2.929 2.928 7.678 2.927 10.606-.002z"/></g></svg>