<svg id="Layer_1" enable-background="new 0 0 512.002 512.002" height="512" viewBox="0 0 512.002 512.002" width="512" xmlns="http://www.w3.org/2000/svg"><g><path d="m338.322 148.892-70.65.38-175.45.93c-5.27-25.77-6.5-57.27 1.58-82.31 9.83-31.92 43.17-47.02 72.38-54.15 45.54-11.14 113.57-10.6 132.09 28.93 1.18 2.9 3.86 4.93 6.98 5.27 38.19 3.71 40.76 60.76 33.07 100.95z" fill="#56788b"/><path d="m338.322 148.892-70.65.38 10.68-44.77c-19.72-59.14 26.9-56.56 26.9-56.56 38.19 3.71 40.76 60.76 33.07 100.95z" fill="#415e6f"/><path d="m414.502 504.502h-395.5c0-56.04-15.7-154.29 139.85-165.28 9.38-.66 19.38-1.01 30.04-1.01h55.72c10.66 0 20.65.34 30.02 1.01 23.61 1.67 43.28 5.34 59.65 10.58 91.52 29.26 80.22 107.17 80.22 154.7z" fill="#ff6b81"/><path d="m414.502 504.502h-20c0-43.74 9.57-118.69-60.22-154.7 91.52 29.26 80.22 107.17 80.22 154.7z" fill="#ed2061"/><path d="m274.632 339.222v.02c-1.54 30.62-26.86 54.97-57.88 54.97-31.01 0-56.33-24.34-57.88-54.94l-.02-.05c9.38-.66 19.38-1.01 30.04-1.01h55.72c10.66 0 20.65.34 30.02 1.01z" fill="#d9f0f4"/><g fill="#fab684"><path d="m325.54 144.988h-17.448l.11 45.691h17.337c12.616 0 22.844-10.228 22.844-22.846s-10.226-22.845-22.843-22.845z"/><path d="m83.91 167.833c0 12.617 10.228 22.846 22.844 22.846h17.337l.11-45.691h-17.448c-12.615 0-22.843 10.228-22.843 22.845z"/></g><path d="m244.613 306.501h-55.718c2.331 6.319 3.534 22.528 0 31.708 0 15.39 12.473 27.866 27.859 27.866s27.859-12.476 27.859-27.866c-3.535-9.18-2.331-25.389 0-31.708z" fill="#fab684"/><path d="m309.712 222.172c0 22.12-18.81 48.54-55.92 78.55-10.41 8.45-23.82 13.06-37.24 13.03-3.36.01-6.7-.28-9.97-.84-9.8-1.68-19.06-5.86-26.86-12.19-37.11-30.01-55.92-56.43-55.92-78.55 0-2.35.09-4.7.28-7.01.96-9.65.68-53.71.66-82.16v-.03c-.25-9.64 5.15-18.55 13.82-22.8 18.94-8.42 48.55-12.62 78.19-12.6 21.27-.01 42.52 2.14 59.83 6.48 6.81 1.7 13.02 3.74 18.37 6.12 8.66 4.25 14.06 13.16 13.81 22.8v.03c-.02 28.45-.29 72.51.66 82.16.19 2.31.29 4.66.29 7.01z" fill="#fdd9b4"/><path d="m309.712 222.172c0 22.12-18.81 48.54-55.92 78.55-10.41 8.45-23.82 13.06-37.24 13.03-3.36.01-6.7-.28-9.97-.84 9.92-1.68 19.4-5.86 27.21-12.19 37.11-30.01 55.92-56.43 55.92-78.55 0-2.35-.1-4.7-.29-7.01-.95-9.65-.68-53.71-.66-82.16v-7.03c.23-9.02-4.48-17.4-12.18-21.92 6.81 1.7 13.02 3.74 18.37 6.12 8.66 4.25 14.06 13.16 13.81 22.8v.03c-.02 28.45-.29 72.51.66 82.16.19 2.31.29 4.66.29 7.01z" fill="#f9c19b"/><path d="m493.442 360.872c0 48.49-39.33 87.79-87.84 87.79-3.38 0-6.72-.19-10-.57-43.8-4.95-77.84-42.11-77.84-87.22s34.04-82.27 77.84-87.22c3.28-.38 6.62-.57 10-.57 48.51 0 87.84 39.3 87.84 87.79z" fill="#09eaa3"/><path d="m493.442 360.872c0 48.49-39.33 87.79-87.84 87.79-3.38 0-6.72-.19-10-.57 43.8-4.95 77.84-42.11 77.84-87.22s-34.04-82.27-77.84-87.22c3.28-.38 6.62-.57 10-.57 48.51 0 87.84 39.3 87.84 87.79z" fill="#14bb87"/></g><g><path d="m40.567 387.891c-3.491-2.231-8.127-1.211-10.359 2.279-20.362 31.85-19.557 69.764-18.91 100.229.105 4.978.206 9.679.206 14.104 0 4.142 3.358 7.5 7.5 7.5s7.5-3.358 7.5-7.5c0-4.583-.102-9.363-.209-14.422-.604-28.434-1.355-63.821 16.551-91.83 2.231-3.492 1.211-8.129-2.279-10.36z"/><path d="m287.491 332.819c-11.515-1.221-23.964-1.917-37.081-2.075-.974-6.226-.468-14.111.5-18.881 2.65-1.583 5.189-3.354 7.593-5.307 38.955-31.501 58.707-59.892 58.707-84.383 0-2.553-.105-5.121-.314-7.631-.003-.039-.006-.078-.01-.117-.271-2.739-.437-8.622-.537-16.246h9.191c16.732 0 30.344-13.613 30.344-30.346 0-8.622-3.614-16.416-9.407-21.945 5.028-29.872 4.522-67.642-11.404-88.923-7.316-9.776-17.104-15.323-28.997-16.476-.383-.042-.711-.29-.857-.646-.048-.119-.1-.237-.154-.354-9.428-20.119-30.733-33.157-61.612-37.704-23.787-3.502-52.599-1.799-79.046 4.673-42.11 10.271-69.005 30.752-77.746 59.135-7.222 22.391-8.127 52.105-2.57 82.085-4.775 5.364-7.68 12.427-7.68 20.156 0 16.733 13.612 30.346 30.344 30.346h10.405c-.1 7.624-.266 13.507-.537 16.247-.004.038-.007.077-.01.115-.208 2.509-.314 5.077-.314 7.633 0 24.492 19.752 52.882 58.695 84.373 2.415 1.961 4.959 3.74 7.607 5.328.966 4.771 1.47 12.648.498 18.87-57.352.665-99.125 11.299-127.578 32.454-3.324 2.471-4.015 7.169-1.543 10.494 1.472 1.979 3.733 3.025 6.024 3.025 1.556 0 3.125-.482 4.469-1.482 20.258-15.061 49.684-24.414 87.751-27.934 5.246 31.064 32.245 54.41 64.534 54.41 32.301 0 59.3-23.355 64.537-54.43 1.557.142 3.097.294 4.619.455.269.029.536.042.8.042 3.787 0 7.041-2.859 7.449-6.709.435-4.122-2.551-7.816-6.67-8.252zm38.049-149.64h-9.306c-.037-9.761-.023-20.552-.005-30.691h9.311c8.461 0 15.344 6.884 15.344 15.345s-6.883 15.346-15.344 15.346zm-2.477-117.227c12.254 16.375 12.903 47.346 9.406 72.335-2.226-.522-4.546-.799-6.929-.799h-9.284c.002-1.505.004-2.979.005-4.417.285-12.503-6.776-24.127-18.011-29.633-.084-.041-.168-.081-.253-.118-4.103-1.824-8.701-3.479-13.716-4.953-4.665-15.745-4.354-27.699.942-34.715 6.201-8.216 18.124-8.249 19.524-8.222 7.618.793 13.612 4.236 18.316 10.522zm-216.309 117.227c-8.46 0-15.344-6.884-15.344-15.346s6.883-15.345 15.344-15.345h10.524c.019 10.141.032 20.932-.004 30.691zm24.543 38.994c0-2.125.087-4.256.258-6.337.829-8.56.768-40.177.713-68.08-.01-5.185-.02-10.174-.023-14.78 0-.065-.001-.13-.002-.195-.173-6.652 3.551-12.846 9.497-15.816 5.847-2.584 13.004-4.821 21.276-6.648 4.044-.894 6.599-4.896 5.706-8.941-.894-4.044-4.894-6.595-8.941-5.706-9.316 2.058-17.482 4.631-24.271 7.649-.085.038-.17.078-.253.119-11.234 5.505-18.295 17.127-18.011 29.63.001 1.436.003 2.911.005 4.419h-10.497c-3.116 0-6.124.472-8.956 1.349-3.941-25.448-2.864-50.038 3.167-68.735 9.009-29.25 41.405-42.83 67.001-49.073 24.642-6.03 51.36-7.636 73.301-4.404 16.947 2.496 38.686 9.094 48.656 26.252-5.682 1.948-11.848 5.422-16.562 11.595-7.34 9.611-9.196 23.026-5.559 39.981-15.05-2.844-32.404-4.376-50.714-4.376h-.325c-7.155.002-14.327.229-21.299.7-4.133.28-7.256 3.856-6.977 7.989.279 4.132 3.851 7.25 7.989 6.977 6.535-.442 13.253-.666 19.989-.666h.597c29.958 0 57.851 4.439 74.706 11.89 5.946 2.971 9.669 9.164 9.496 15.815-.001.063-.002.155-.002.218-.003 4.598-.013 9.604-.023 14.806-.054 27.88-.115 59.471.714 68.028.171 2.083.258 4.215.258 6.338 0 19.462-18.375 44.608-53.151 72.73-8.917 7.243-20.726 11.341-32.524 11.349-11.619.059-23.039-4-32.098-11.36-34.766-28.109-53.141-53.255-53.141-72.717zm85.071 99.079h.341c6.243 0 12.412-.871 18.32-2.547-.383 6.972.109 14.671 2.05 20.684-.613 10.683-9.495 19.186-20.325 19.186s-19.712-8.503-20.325-19.186c1.938-6 2.431-13.68 2.053-20.64 5.793 1.648 11.815 2.503 17.886 2.503zm.386 65.457c-24.385 0-44.855-17.267-49.478-40.476 4.852-.244 9.829-.402 14.93-.476 3.466 15.886 17.64 27.818 34.548 27.818s31.082-11.931 34.548-27.818c5.093.073 10.075.231 14.931.471-4.62 23.213-25.089 40.481-49.479 40.481z"/><path d="m414.999 472.171c-4.134-.034-7.542 3.263-7.594 7.405-.045 3.579-.12 7.083-.192 10.491-.107 5.064-.209 9.848-.209 14.435 0 4.142 3.358 7.5 7.5 7.5s7.5-3.358 7.5-7.5c0-4.428.1-9.134.206-14.117.073-3.45.148-6.997.194-10.621.053-4.141-3.263-7.541-7.405-7.593z"/><path d="m216.554 261.286c10.959 0 21.056-5.505 27.008-14.726 2.247-3.48 1.247-8.122-2.233-10.369s-8.122-1.247-10.369 2.233c-3.178 4.922-8.564 7.861-14.407 7.861s-11.229-2.939-14.406-7.861c-2.247-3.48-6.889-4.479-10.369-2.233-3.48 2.247-4.48 6.889-2.233 10.369 5.953 9.221 16.05 14.726 27.009 14.726z"/><path d="m203.073 211.843c3.479 2.246 8.122 1.246 10.369-2.233.731-1.134 1.97-1.811 3.312-1.811s2.58.677 3.312 1.811c1.435 2.222 3.846 3.433 6.308 3.433 1.394 0 2.803-.388 4.061-1.2 3.48-2.247 4.48-6.889 2.233-10.369-3.507-5.432-9.456-8.675-15.914-8.675s-12.408 3.243-15.915 8.675c-2.246 3.48-1.246 8.123 2.234 10.369z"/><path d="m405.602 265.58c-5.585 0-11.184.487-16.64 1.448-4.08.718-6.804 4.607-6.086 8.687s4.611 6.805 8.687 6.086c4.6-.81 9.324-1.22 14.04-1.22 44.301 0 80.342 36.019 80.342 80.292s-36.042 80.292-80.342 80.292-80.342-36.019-80.342-80.292c0-27.629 13.95-52.982 37.317-67.822 3.497-2.22 4.531-6.855 2.311-10.352-2.22-3.496-6.854-4.531-10.352-2.311-27.724 17.606-44.276 47.693-44.276 80.484 0 52.544 42.77 95.292 95.342 95.292s95.342-42.748 95.342-95.292-42.771-95.292-95.343-95.292z"/><path d="m104.985 470.97c-1.404-.032-4.147.324-6.818 2.947-2.943 2.89-6.855 9.205-6.855 30.585 0 4.142 3.358 7.5 7.5 7.5s7.5-3.358 7.5-7.5c0-13.057 1.569-17.991 2.248-19.515 2.222-1.268 3.739-3.641 3.789-6.384.074-4.141-3.222-7.559-7.364-7.633z"/><path d="m335.34 473.917c-2.67-2.623-5.422-2.981-6.818-2.947-4.142.074-7.438 3.492-7.364 7.634.05 2.744 1.566 5.117 3.789 6.384.679 1.524 2.248 6.458 2.248 19.515 0 4.142 3.358 7.5 7.5 7.5s7.5-3.358 7.5-7.5c0-21.381-3.912-27.696-6.855-30.586z"/><path d="m372.556 368.372h25.546v25.546c0 4.142 3.358 7.5 7.5 7.5s7.5-3.358 7.5-7.5v-25.546h25.547c4.142 0 7.5-3.358 7.5-7.5s-3.358-7.5-7.5-7.5h-25.547v-25.546c0-4.142-3.358-7.5-7.5-7.5s-7.5 3.358-7.5 7.5v25.546h-25.546c-4.142 0-7.5 3.358-7.5 7.5s3.358 7.5 7.5 7.5z"/></g></svg>