<svg id="Layer_1" enable-background="new 0 0 512.002 512.002" height="512" viewBox="0 0 512.002 512.002" width="512" xmlns="http://www.w3.org/2000/svg"><g><path d="m338.322 148.892-70.65.38-175.45.93c-5.27-25.77-6.5-57.27 1.58-82.31 9.83-31.92 43.17-47.02 72.38-54.15 45.54-11.14 113.57-10.6 132.09 28.93 1.18 2.9 3.86 4.93 6.98 5.27 38.19 3.71 40.76 60.76 33.07 100.95z" fill="#f79e60"/><path d="m338.322 148.892-70.65.38 10.68-44.77c-19.72-59.14 26.9-56.56 26.9-56.56 38.19 3.71 40.76 60.76 33.07 100.95z" fill="#d77d41"/><path d="m414.502 504.502h-395.5c0-56.04-15.7-154.29 139.85-165.28 9.38-.66 19.38-1.01 30.04-1.01h55.72c10.66 0 20.65.34 30.02 1.01 23.61 1.67 43.28 5.34 59.65 10.58 91.52 29.26 80.22 107.17 80.22 154.7z" fill="#fbdf63"/><path d="m414.502 504.502h-20c0-43.74 9.57-118.69-60.22-154.7 91.52 29.26 80.22 107.17 80.22 154.7z" fill="#ffa402"/><path d="m274.632 339.222v.02c-1.54 30.62-26.86 54.97-57.88 54.97-31.01 0-56.33-24.34-57.88-54.94l-.02-.05c9.38-.66 19.38-1.01 30.04-1.01h55.72c10.66 0 20.65.34 30.02 1.01z" fill="#d9f0f4"/><g fill="#fab684"><path d="m325.54 144.988h-17.448l.11 45.691h17.337c12.616 0 22.844-10.228 22.844-22.846s-10.226-22.845-22.843-22.845z"/><path d="m83.91 167.833c0 12.617 10.228 22.846 22.844 22.846h17.337l.11-45.691h-17.448c-12.615 0-22.843 10.228-22.843 22.845z"/></g><path d="m244.613 306.501h-55.718c2.331 6.319 3.534 22.528 0 31.708 0 15.39 12.473 27.866 27.859 27.866s27.859-12.476 27.859-27.866c-3.534-9.18-2.331-25.389 0-31.708z" fill="#fab684"/><path d="m309.712 222.172c0 22.12-18.81 48.54-55.92 78.55-10.41 8.45-23.82 13.06-37.24 13.03-3.36.01-6.7-.28-9.97-.84-9.8-1.68-19.06-5.86-26.86-12.19-37.11-30.01-55.92-56.43-55.92-78.55 0-2.35.09-4.7.28-7.01.96-9.65.68-53.71.66-82.16v-.03c-.25-9.64 5.15-18.55 13.82-22.8 18.94-8.42 48.55-12.62 78.19-12.6 21.27-.01 42.52 2.14 59.83 6.48 6.81 1.7 13.02 3.74 18.37 6.12 8.66 4.25 14.06 13.16 13.81 22.8v.03c-.02 28.45-.29 72.51.66 82.16.19 2.31.29 4.66.29 7.01z" fill="#fdd9b4"/><path d="m309.712 222.172c0 22.12-18.81 48.54-55.92 78.55-10.41 8.45-23.82 13.06-37.24 13.03-3.36.01-6.7-.28-9.97-.84 9.92-1.68 19.4-5.86 27.21-12.19 37.11-30.01 55.92-56.43 55.92-78.55 0-2.35-.1-4.7-.29-7.01-.95-9.65-.68-53.71-.66-82.16v-7.03c.23-9.02-4.48-17.4-12.18-21.92 6.81 1.7 13.02 3.74 18.37 6.12 8.66 4.25 14.06 13.16 13.81 22.8v.03c-.02 28.45-.29 72.51.66 82.16.19 2.31.29 4.66.29 7.01z" fill="#f9c19b"/><path d="m493.442 360.872c0 48.49-39.33 87.79-87.84 87.79-3.38 0-6.72-.19-10-.57-43.8-4.95-77.84-42.11-77.84-87.22s34.04-82.27 77.84-87.22c3.28-.38 6.62-.57 10-.57 48.51 0 87.84 39.3 87.84 87.79z" fill="#ff6b81"/><path d="m493.442 360.872c0 48.49-39.33 87.79-87.84 87.79-3.38 0-6.72-.19-10-.57 43.8-4.95 77.84-42.11 77.84-87.22s-34.04-82.27-77.84-87.22c3.28-.38 6.62-.57 10-.57 48.51 0 87.84 39.3 87.84 87.79z" fill="#ed2061"/></g><g><path d="m40.567 387.891c-3.49-2.232-8.127-1.211-10.359 2.279-20.362 31.85-19.557 69.764-18.91 100.229.106 4.978.206 9.679.206 14.104 0 4.142 3.358 7.5 7.5 7.5s7.5-3.358 7.5-7.5c0-4.583-.102-9.363-.209-14.422-.604-28.434-1.355-63.821 16.551-91.83 2.231-3.492 1.211-8.129-2.279-10.36z"/><path d="m287.492 332.819c-11.516-1.221-23.965-1.917-37.081-2.075-.974-6.227-.468-14.111.5-18.881 2.65-1.583 5.189-3.354 7.592-5.307 38.955-31.501 58.707-59.891 58.707-84.383 0-2.56-.105-5.127-.313-7.633-.004-.038-.007-.077-.011-.115-.27-2.74-.437-8.623-.537-16.247h9.192c16.731 0 30.344-13.613 30.344-30.346 0-8.622-3.614-16.416-9.407-21.945 5.028-29.872 4.521-67.642-11.405-88.923-7.315-9.776-17.104-15.323-28.997-16.476-.383-.042-.711-.29-.855-.646-.049-.119-.101-.237-.155-.354-9.428-20.119-30.733-33.157-61.612-37.704-23.785-3.502-52.599-1.799-79.046 4.673-42.11 10.271-69.005 30.752-77.746 59.135-7.222 22.391-8.127 52.105-2.57 82.085-4.775 5.364-7.68 12.427-7.68 20.156 0 16.733 13.612 30.346 30.344 30.346h10.405c-.1 7.624-.266 13.507-.536 16.247-.003.038-.007.077-.01.115-.208 2.509-.314 5.077-.314 7.633 0 24.492 19.752 52.882 58.694 84.373 2.415 1.961 4.959 3.74 7.607 5.328.966 4.771 1.47 12.648.498 18.869-57.352.665-99.125 11.299-127.578 32.454-3.324 2.471-4.016 7.169-1.544 10.494 1.472 1.979 3.734 3.025 6.025 3.025 1.555 0 3.125-.482 4.469-1.482 20.258-15.061 49.685-24.414 87.752-27.934 5.246 31.064 32.244 54.41 64.533 54.41 32.301 0 59.3-23.355 64.537-54.43 1.557.142 3.097.294 4.619.455.269.029.536.042.8.042 3.787 0 7.041-2.859 7.449-6.709.434-4.12-2.551-7.814-6.67-8.25zm38.049-149.64h-9.307c-.037-9.759-.023-20.55-.005-30.691h9.312c8.461 0 15.344 6.884 15.344 15.345s-6.883 15.346-15.344 15.346zm-2.478-117.227c12.253 16.374 12.903 47.346 9.406 72.335-2.226-.522-4.546-.799-6.929-.799h-9.284c.002-1.505.004-2.979.005-4.418.286-12.503-6.775-24.125-18.012-29.631-.083-.041-.168-.081-.253-.118-4.103-1.824-8.701-3.479-13.716-4.953-4.665-15.745-4.354-27.699.942-34.715 6.208-8.225 18.146-8.247 19.527-8.221 7.619.792 13.611 4.235 18.314 10.52zm-216.309 117.227c-8.46 0-15.344-6.884-15.344-15.346s6.883-15.345 15.344-15.345h10.524c.019 10.139.032 20.93-.004 30.691zm24.544 38.994c0-2.125.087-4.256.258-6.337.829-8.554.768-40.145.713-68.024-.01-5.205-.02-10.212-.023-14.835 0-.065-.001-.13-.002-.195-.173-6.652 3.551-12.845 9.496-15.815 5.848-2.585 13.005-4.822 21.277-6.648 4.044-.894 6.599-4.896 5.706-8.941-.894-4.044-4.894-6.595-8.941-5.706-9.315 2.058-17.481 4.631-24.271 7.649-.085.038-.169.078-.253.119-11.235 5.505-18.296 17.128-18.011 29.632.001 1.435.003 2.91.005 4.417h-10.497c-3.116 0-6.124.472-8.956 1.349-3.941-25.448-2.864-50.038 3.167-68.735 9.01-29.25 41.405-42.83 67.001-49.073 24.643-6.03 51.358-7.635 73.301-4.404 16.946 2.496 38.685 9.097 48.655 26.253-5.682 1.948-11.848 5.422-16.562 11.595-7.34 9.611-9.197 23.026-5.56 39.981-15.05-2.844-32.404-4.376-50.714-4.376h-.325c-7.156.012-14.327.229-21.298.7-4.133.28-7.256 3.856-6.977 7.989.279 4.132 3.841 7.258 7.989 6.977 6.535-.442 13.253-.666 19.989-.666h.597c29.958 0 57.852 4.439 74.706 11.89 5.946 2.971 9.67 9.164 9.497 15.815-.002.063-.003.155-.003.218-.003 4.583-.013 9.572-.022 14.757-.055 27.903-.116 59.52.713 68.08.171 2.076.258 4.208.258 6.336 0 19.462-18.375 44.608-53.151 72.73-8.885 7.217-20.67 11.349-32.395 11.349h-.257c-11.599 0-22.944-4.028-31.97-11.36-34.765-28.113-53.14-53.259-53.14-72.721zm85.07 99.079h.341c6.243 0 12.411-.871 18.32-2.546-.383 6.972.109 14.671 2.051 20.684-.613 10.683-9.495 19.186-20.325 19.186s-19.712-8.503-20.325-19.186c1.937-6 2.431-13.68 2.052-20.64 5.792 1.647 11.815 2.502 17.886 2.502zm.386 65.457c-24.384 0-44.855-17.267-49.478-40.476 4.852-.244 9.829-.402 14.929-.476 3.466 15.886 17.64 27.818 34.548 27.818s31.082-11.931 34.548-27.818c5.093.073 10.076.231 14.931.471-4.619 23.213-25.088 40.481-49.478 40.481z"/><path d="m415 472.171c-4.115-.028-7.541 3.263-7.594 7.405-.046 3.579-.12 7.083-.192 10.491-.107 5.064-.209 9.848-.209 14.435 0 4.142 3.357 7.5 7.5 7.5s7.5-3.358 7.5-7.5c0-4.428.1-9.134.206-14.117.073-3.45.148-6.997.193-10.621.053-4.141-3.263-7.541-7.404-7.593z"/><path d="m191.779 260.087c3.48 2.246 8.122 1.246 10.369-2.233 3.177-4.922 8.563-7.861 14.406-7.861s11.229 2.939 14.406 7.861c1.435 2.222 3.846 3.433 6.308 3.433 1.394 0 2.803-.388 4.061-1.2 3.48-2.247 4.48-6.889 2.233-10.369-5.953-9.221-16.049-14.726-27.009-14.726-10.959 0-21.056 5.505-27.008 14.726-2.246 3.481-1.246 8.123 2.234 10.369z"/><path d="m203.073 211.843c3.479 2.245 8.123 1.247 10.369-2.233.731-1.134 1.97-1.811 3.312-1.811s2.58.677 3.312 1.811c1.435 2.222 3.846 3.433 6.308 3.433 1.394 0 2.803-.388 4.061-1.2 3.48-2.247 4.48-6.889 2.233-10.369-3.507-5.432-9.456-8.675-15.914-8.675s-12.408 3.243-15.915 8.675c-2.246 3.48-1.246 8.123 2.234 10.369z"/><path d="m405.602 265.58c-5.585 0-11.184.487-16.641 1.448-4.079.718-6.804 4.607-6.086 8.687s4.603 6.806 8.688 6.086c4.6-.81 9.323-1.22 14.039-1.22 44.301 0 80.342 36.019 80.342 80.292s-36.041 80.292-80.342 80.292-80.342-36.019-80.342-80.292c0-27.629 13.95-52.983 37.317-67.822 3.497-2.22 4.531-6.855 2.311-10.352s-6.853-4.531-10.352-2.311c-27.725 17.606-44.276 47.693-44.276 80.484 0 52.544 42.771 95.292 95.342 95.292s95.342-42.748 95.342-95.292-42.77-95.292-95.342-95.292z"/><path d="m104.986 470.97c-1.406-.021-4.147.324-6.818 2.947-2.943 2.89-6.855 9.205-6.855 30.585 0 4.142 3.358 7.5 7.5 7.5s7.5-3.358 7.5-7.5c0-13.057 1.569-17.991 2.248-19.515 2.222-1.268 3.739-3.641 3.788-6.384.075-4.141-3.222-7.559-7.363-7.633z"/><path d="m335.341 473.917c-2.669-2.622-5.427-2.967-6.817-2.947-4.142.074-7.438 3.492-7.364 7.634.05 2.743 1.566 5.116 3.788 6.384.68 1.524 2.248 6.458 2.248 19.515 0 4.142 3.357 7.5 7.5 7.5s7.5-3.358 7.5-7.5c-.001-21.382-3.913-27.697-6.855-30.586z"/><path d="m376.931 389.542c1.465 1.464 3.385 2.197 5.304 2.197s3.839-.732 5.304-2.197l18.063-18.064 18.063 18.064c1.465 1.465 3.384 2.197 5.304 2.197 1.919 0 3.839-.732 5.304-2.197 2.929-2.929 2.929-7.678 0-10.606l-18.064-18.064 18.064-18.064c2.929-2.929 2.929-7.678 0-10.606-2.93-2.929-7.678-2.929-10.607 0l-18.063 18.064-18.063-18.064c-2.929-2.929-7.677-2.93-10.607 0-2.929 2.929-2.929 7.678 0 10.606l18.064 18.064-18.064 18.064c-2.93 2.928-2.93 7.677-.002 10.606z"/></g></svg>