<svg id="Layer_1" enable-background="new 0 0 511.974 511.974" height="512" viewBox="0 0 511.974 511.974" width="512" xmlns="http://www.w3.org/2000/svg"><g><path d="m243.374 44.114c-16.805-44.048-200.409-84.173-171.478 106.227h171.478z" fill="#56788b"/><path d="m317.411 148.658c50.32-81.435-89.183-187.645-86.547-48.978v45.446z" fill="#415e6f"/><path d="m342.277 298.814h-291.91c16.06-41.73 17.19-117.98 17.19-117.98h257.53s1.13 76.25 17.19 117.98z" fill="#56788b"/><path d="m342.277 298.814h-145.85v-117.98h128.66s1.13 76.25 17.19 117.98z" fill="#415e6f"/><g><path d="m352.037 504.474h-311.22c0-138.68 53.69-161.84 97.73-165.57 10.92-.92 21.25-.65 30.02-.65h55.72c8.7 0 18.94-.27 29.77.63 44.08 3.669 97.98 26.65 97.98 165.59z" fill="#4dd4f7"/><path d="m352.037 504.474h-20c0-138.94-53.9-161.92-97.98-165.59-4.8-.4-9.48-.57-13.95-.63h4.18c8.7 0 18.94-.27 29.77.63 44.08 3.669 97.98 26.65 97.98 165.59z" fill="#00c2f3"/></g><path d="m254.307 339.294c-1.54 30.6-26.86 54.94-57.88 54.94-31.01 0-56.33-24.33-57.88-54.92v-.41c10.92-.92 21.25-.65 30.02-.65h55.72c8.7 0 18.94-.27 29.77.63z" fill="#d9f0f4"/><g><g fill="#fab684"><path d="m305.213 145.116h-17.448l.11 45.691h17.337c12.616 0 22.844-10.228 22.844-22.846s-10.226-22.845-22.843-22.845z"/><path d="m63.583 167.961c0 12.617 10.228 22.846 22.844 22.846h17.337l.11-45.691h-17.447c-12.616 0-22.844 10.228-22.844 22.845z"/></g><path d="m224.286 306.629h-55.718c2.331 6.319 3.534 22.528 0 31.708 0 15.39 12.473 27.866 27.859 27.866s27.859-12.476 27.859-27.866c-3.535-9.181-2.331-25.389 0-31.708z" fill="#fab684"/><path d="m289.385 222.3c0 22.12-18.81 48.54-55.92 78.55-10.41 8.45-23.82 13.06-37.24 13.03-3.36.01-6.7-.28-9.97-.84-9.8-1.68-19.06-5.86-26.86-12.19-37.11-30.01-55.92-56.43-55.92-78.55 0-2.35.09-4.7.28-7.01.96-9.65.68-53.71.66-82.16v-.03c-.25-9.64 5.15-18.55 13.82-22.8 18.94-8.42 48.55-12.62 78.19-12.6 21.27-.01 42.52 2.14 59.83 6.48 6.81 1.7 13.02 3.74 18.37 6.12 8.66 4.25 14.06 13.16 13.81 22.8v.03c-.02 28.45-.29 72.51.66 82.16.19 2.31.29 4.66.29 7.01z" fill="#fdd9b4"/><path d="m289.385 222.3c0 22.12-18.81 48.54-55.92 78.55-10.41 8.45-23.82 13.06-37.24 13.03-3.36.01-6.7-.28-9.97-.84 9.92-1.68 19.4-5.86 27.21-12.19 37.11-30.01 55.92-56.43 55.92-78.55 0-2.35-.1-4.7-.29-7.01-.95-9.65-.68-53.71-.66-82.16v-7.03c.23-9.02-4.48-17.4-12.18-21.92 6.81 1.7 13.02 3.74 18.37 6.12 8.66 4.25 14.06 13.16 13.81 22.8v.03c-.02 28.45-.29 72.51.66 82.16.19 2.31.29 4.66.29 7.01z" fill="#f9c19b"/></g><path d="m471.157 405.493v83.22c0 8.7-7.05 15.76-15.76 15.76h-111.45c-8.7 0-15.76-7.06-15.76-15.76v-83.22c0-8.71 7.06-15.76 15.76-15.76h111.45c8.71.001 15.76 7.051 15.76 15.76z" fill="#90abbd"/><path d="m471.157 405.493v83.22c0 8.7-7.05 15.76-15.76 15.76h-20c8.71 0 15.76-7.06 15.76-15.76v-83.22c0-8.71-7.05-15.76-15.76-15.76h20c8.71.001 15.76 7.051 15.76 15.76z" fill="#56788b"/></g><g><path d="m182.746 211.953c3.479 2.248 8.121 1.25 10.369-2.231.731-1.133 1.97-1.809 3.313-1.809 1.342 0 2.58.676 3.312 1.809 1.436 2.222 3.847 3.432 6.308 3.432 1.394 0 2.804-.388 4.062-1.201 3.48-2.247 4.479-6.89 2.232-10.369-3.507-5.43-9.456-8.671-15.913-8.671-6.458 0-12.407 3.242-15.914 8.671-2.249 3.479-1.25 8.121 2.231 10.369z"/><path d="m46.787 433.612c-4.08-.691-7.955 2.058-8.647 6.141-3.203 18.899-4.827 40.674-4.827 64.721 0 4.142 3.357 7.5 7.5 7.5s7.5-3.358 7.5-7.5c0-23.208 1.553-44.141 4.616-62.214.692-4.084-2.058-7.956-6.142-8.648z"/><path d="m322.259 362.516c-28.292-31.726-66.497-31.91-92.185-31.78-.961-6.212-.456-14.055.508-18.808 2.65-1.582 5.189-3.353 7.593-5.305.129-.104.256-.208.384-.312h103.719c2.472 0 4.784-1.217 6.183-3.254 1.399-2.038 1.704-4.633.817-6.939-3.935-10.222-7.298-23.671-9.999-39.975-.678-4.086-4.55-6.854-8.625-6.173-4.087.677-6.851 4.539-6.174 8.625 2.061 12.436 4.517 23.391 7.331 32.716h-75.943c27.237-25.424 41.015-48.59 41.015-69.036 0-2.551-.105-5.119-.314-7.63-.004-.039-.007-.077-.011-.115-.27-2.737-.437-8.616-.536-16.234h9.192c4.603 0 8.97-1.03 12.883-2.872.374 7.716 1.013 17.978 2.096 29.456.366 3.884 3.633 6.796 7.458 6.796.235 0 .474-.011.714-.034 4.123-.389 7.151-4.048 6.762-8.171-2.075-21.993-2.487-39.861-2.537-42.43 1.902-3.962 2.968-8.398 2.968-13.079 0-8.176-3.253-15.607-8.532-21.068 18.387-35.599 5.099-72.813-12.714-94.638-18.039-22.1-41.761-31.953-60.443-25.093-2.956 1.085-6.02 2.656-9.015 4.901-8.01-9.975-22.233-18.904-40.172-24.914-24.2-8.108-50.886-9.384-73.214-3.5-24.848 6.547-44.231 21.668-56.056 43.729-13.418 25.031-17.279 58.746-11.489 100.256-4.87 5.383-7.839 12.515-7.839 20.327 0 5.419 1.429 10.51 3.929 14.917-.339 12.579-2.732 77.082-16.646 113.24-.887 2.306-.582 4.902.817 6.939 1.398 2.037 3.711 3.254 6.183 3.254h103.929c.124.1.247.2.371.301 2.415 1.96 4.958 3.738 7.607 5.325.963 4.753 1.466 12.589.506 18.798-34.269-.176-90.639.212-116.156 74.744-1.342 3.919.748 8.183 4.666 9.525.806.275 1.625.406 2.431.406 3.117 0 6.028-1.958 7.095-5.073 15.819-46.205 43.912-59.453 71.046-63.187 5.166 31.147 32.21 54.581 64.566 54.581 32.338 0 59.361-23.398 64.554-54.513 17.375 2.456 35.43 8.848 50.083 25.28 1.481 1.662 3.536 2.508 5.601 2.508 1.775 0 3.559-.627 4.988-1.902 3.091-2.757 3.362-7.498.605-10.589zm-17.046-179.22h-9.306c-.036-9.756-.023-20.541-.004-30.67h9.311c8.461 0 15.344 6.879 15.344 15.335s-6.884 15.335-15.345 15.335zm-46.176-142.052c12.391-4.548 29.935 3.689 43.653 20.497 14.678 17.983 25.771 48.332 11.518 77.246-2.843-.884-5.864-1.36-8.994-1.36h-9.284c.002-1.503.003-2.976.004-4.413.286-12.5-6.775-24.118-18.012-29.621-.084-.041-.168-.081-.253-.119-10.362-4.604-23.879-8.133-39.316-10.384.468-28.399 7.883-47.148 20.684-51.846zm-170.405 13.22c9.946-18.557 25.645-30.773 46.657-36.31 19.572-5.158 43.127-3.985 64.626 3.219 16.387 5.49 29.429 13.867 34.722 22.062-6.177 9.932-10.74 25.043-11.261 47.927-8.52-.74-17.449-1.124-26.617-1.124-.212 0-.425 0-.635 0-7.057 0-14.116.235-20.988.7-4.133.279-7.257 3.856-6.978 7.989.28 4.133 3.855 7.258 7.989 6.977 6.537-.442 13.255-.666 19.989-.666h.598c29.958 0 57.851 4.437 74.706 11.884 5.946 2.968 9.669 9.157 9.496 15.804-.002.063-.003.155-.003.219-.003 4.613-.013 9.638-.022 14.86-.055 27.842-.115 59.389.713 67.936.172 2.083.259 4.215.259 6.336 0 19.45-18.375 44.583-53.15 72.692-8.885 7.213-20.67 11.344-32.396 11.344h-.262c-11.597 0-22.941-4.026-31.967-11.354-34.764-28.098-53.139-53.231-53.139-72.682 0-2.12.087-4.25.259-6.333.828-8.542.768-40.094.713-67.939-.01-5.222-.02-10.247-.022-14.883 0-.065-.001-.13-.003-.195-.173-6.646 3.551-12.835 9.495-15.804 5.849-2.584 13.006-4.82 21.277-6.646 4.045-.893 6.601-4.896 5.707-8.94-.893-4.044-4.899-6.599-8.939-5.707-9.316 2.056-17.482 4.629-24.272 7.646-.085.038-.169.078-.253.119-11.236 5.503-18.298 17.123-18.012 29.622.001 1.433.002 2.906.005 4.412h-10.497c-2.952 0-5.807.424-8.507 1.214-4.063-35.166-.471-63.516 10.712-84.379zm8.314 128.832h-10.519c-8.461 0-15.344-6.879-15.344-15.335s6.883-15.335 15.344-15.335h10.523c.019 10.13.033 20.915-.004 30.67zm-36.11 108.016c9.43-31.21 12.635-73.311 13.704-95.441 3.652 1.56 7.67 2.425 11.886 2.425h10.404c-.1 7.618-.266 13.497-.536 16.234-.004.038-.007.077-.011.115-.208 2.511-.314 5.079-.314 7.63 0 20.448 13.781 43.615 41.015 69.036h-76.148zm135.202 30h.346c6.242 0 12.41-.87 18.318-2.545-.383 6.968.109 14.662 2.05 20.671-.613 10.676-9.494 19.173-20.324 19.173s-19.712-8.497-20.325-19.173c1.937-5.997 2.431-13.671 2.052-20.628 5.792 1.647 11.813 2.502 17.883 2.502zm.389 65.42c-24.516 0-45.076-17.445-49.551-40.83 5.161-.196 10.19-.194 14.987-.171 3.439 15.917 17.631 27.88 34.564 27.88s31.124-11.963 34.563-27.88c4.725-.023 9.762-.023 14.984.189-4.481 23.378-25.033 40.812-49.547 40.812z"/><path d="m471.162 425.05c4.143 0 7.5-3.358 7.5-7.5v-12.057c0-12.826-10.436-23.261-23.262-23.261h-9.224v-42.009c0-25.64-20.859-46.5-46.5-46.5s-46.5 20.86-46.5 46.5v42.009h-9.225c-12.826 0-23.261 10.435-23.261 23.261v83.22c0 12.826 10.435 23.261 23.261 23.261h111.449c12.826 0 23.262-10.435 23.262-23.261v-36.129c0-4.142-3.357-7.5-7.5-7.5s-7.5 3.358-7.5 7.5v36.129c0 4.555-3.706 8.261-8.262 8.261h-111.448c-4.555 0-8.261-3.706-8.261-8.261v-83.22c0-4.555 3.706-8.261 8.261-8.261h111.448c4.556 0 8.262 3.706 8.262 8.261v12.057c0 4.142 3.357 7.5 7.5 7.5zm-102.986-42.818v-42.009c0-17.369 14.131-31.5 31.5-31.5s31.5 14.131 31.5 31.5v42.009z"/><path d="m175.52 253.085h41.415c4.143 0 7.5-3.358 7.5-7.5s-3.357-7.5-7.5-7.5h-41.415c-4.143 0-7.5 3.358-7.5 7.5s3.357 7.5 7.5 7.5z"/><path d="m392.176 430.784v32.638c0 4.142 3.357 7.5 7.5 7.5s7.5-3.358 7.5-7.5v-32.638c0-4.142-3.357-7.5-7.5-7.5s-7.5 3.358-7.5 7.5z"/><path d="m119.659 470.954c-1.366-.042-4.147.323-6.818 2.947-2.942 2.89-6.854 9.203-6.854 30.573 0 4.142 3.357 7.5 7.5 7.5s7.5-3.358 7.5-7.5c0-13.047 1.568-17.978 2.247-19.501 2.223-1.268 3.74-3.641 3.79-6.385.073-4.142-3.224-7.56-7.365-7.634z"/><path d="m280.015 473.9c-2.67-2.622-5.436-2.979-6.818-2.947-4.142.074-7.438 3.492-7.364 7.634.05 2.774 1.601 5.17 3.864 6.426.563 1.371 2.172 6.453 2.172 19.46 0 4.142 3.357 7.5 7.5 7.5s7.5-3.358 7.5-7.5c0-21.37-3.912-27.683-6.854-30.573z"/></g></svg>