<svg id="Layer_1" enable-background="new 0 0 512 512" height="512" viewBox="0 0 512 512" width="512" xmlns="http://www.w3.org/2000/svg"><g><g><path d="m247.852 44.139c-16.805-44.047-200.409-84.173-171.478 106.227h171.478z" fill="#f79e60"/><path d="m321.889 148.683c50.32-81.435-89.183-187.645-86.547-48.978v45.446z" fill="#d77d41"/><path d="m346.755 298.839h-291.91c16.06-41.73 17.19-117.98 17.19-117.98h257.53s1.13 76.25 17.19 117.98z" fill="#f79e60"/><path d="m346.755 298.839h-145.85v-117.98h128.66s1.13 76.25 17.19 117.98z" fill="#d77d41"/><g><path d="m351.119 504.499h-305.824c0-138.68 53.69-161.84 97.73-165.57 10.92-.92 21.25-.65 30.02-.65h55.72c8.7 0 18.94-.27 29.77.63 43.499 3.622 96.562 26.048 97.952 160.161.031 2.985-2.383 5.429-5.368 5.429z" fill="#9090fb"/><path d="m351.119 504.499h-14.604c0-138.94-53.9-161.92-97.98-165.59-4.8-.4-9.48-.57-13.95-.63h4.18c8.7 0 18.94-.27 29.77.63 43.499 3.622 96.562 26.048 97.952 160.161.031 2.985-2.383 5.429-5.368 5.429z" fill="#6c5fea"/></g><path d="m258.785 339.319c-1.54 30.6-26.86 54.94-57.88 54.94-31.01 0-56.33-24.33-57.88-54.92v-.41c10.92-.92 21.25-.65 30.02-.65h55.72c8.7 0 18.94-.27 29.77.63z" fill="#d9f0f4"/><g><g fill="#fab684"><path d="m309.691 145.141h-17.448l.11 45.691h17.337c12.616 0 22.844-10.228 22.844-22.846s-10.226-22.845-22.843-22.845z"/><path d="m68.061 167.986c0 12.617 10.228 22.846 22.844 22.846h17.337l.11-45.691h-17.447c-12.616 0-22.844 10.228-22.844 22.845z"/></g><path d="m228.764 306.654h-55.718c2.331 6.319 3.534 22.528 0 31.708 0 15.39 12.473 27.866 27.859 27.866s27.859-12.476 27.859-27.866c-3.535-9.181-2.331-25.389 0-31.708z" fill="#fab684"/><path d="m293.863 222.325c0 22.12-18.81 48.54-55.92 78.55-10.41 8.45-23.82 13.06-37.24 13.03-3.36.01-6.7-.28-9.97-.84-9.8-1.68-19.06-5.86-26.86-12.19-37.11-30.01-55.92-56.43-55.92-78.55 0-2.35.09-4.7.28-7.01.96-9.65.68-53.71.66-82.16v-.03c-.25-9.64 5.15-18.55 13.82-22.8 18.94-8.42 48.55-12.62 78.19-12.6 21.27-.01 42.52 2.14 59.83 6.48 6.81 1.7 13.02 3.74 18.37 6.12 8.66 4.25 14.06 13.16 13.81 22.8v.03c-.02 28.45-.29 72.51.66 82.16.19 2.31.29 4.66.29 7.01z" fill="#fdd9b4"/><path d="m293.863 222.325c0 22.12-18.81 48.54-55.92 78.55-10.41 8.45-23.82 13.06-37.24 13.03-3.36.01-6.7-.28-9.97-.84 9.92-1.68 19.4-5.86 27.21-12.19 37.11-30.01 55.92-56.43 55.92-78.55 0-2.35-.1-4.7-.29-7.01-.95-9.65-.68-53.71-.66-82.16v-7.03c.23-9.02-4.48-17.4-12.18-21.92 6.81 1.7 13.02 3.74 18.37 6.12 8.66 4.25 14.06 13.16 13.81 22.8v.03c-.02 28.45-.29 72.51.66 82.16.19 2.31.29 4.66.29 7.01z" fill="#f9c19b"/></g></g><path d="m452.221 437.69 14.49-2.31-.01-29.96-14.5-2.3-8.15-19.67 8.62-11.89-21.18-21.18-11.87 8.63-19.68-8.15-2.3-14.5-20.26.01-9.69.01-2.29 14.5-19.67 8.16-11.88-8.62-21.16 21.19 8.62 11.88-8.14 19.68-14.49 2.31.01 29.97 14.5 2.29 8.15 19.68-8.62 11.89 21.19 21.18 11.86-8.63 19.68 8.14 2.3 14.5h9.7l20.25-.01 2.3-14.51 19.66-8.15 11.88 8.62 21.16-21.2-8.62-11.87zm-101.37-17.26c0-17.58 14.26-31.84 31.85-31.84 17.58 0 31.84 14.26 31.84 31.84 0 17.59-14.26 31.84-31.84 31.84-17.59 0-31.85-14.25-31.85-31.84z" fill="#56788b"/><path d="m444.081 457.38 8.62 11.87-21.16 21.2-11.88-8.62-19.66 8.15-2.3 14.51-20.25.01 4.54-28.7 39.63-16.44 16.1-38.94-16.14-38.95-39.63-16.41-4.57-28.69 20.26-.01 2.3 14.5 19.68 8.15 11.87-8.63 21.18 21.18-8.62 11.89 8.15 19.67 14.5 2.3.01 29.96-14.49 2.31z" fill="#415e6f"/></g><g fill="none" stroke="#000" stroke-linejoin="round" stroke-miterlimit="10" stroke-width="15"><g><path d="m228.762 306.591c-2.331 6.316-3.534 22.517 0 31.694 0 15.383-12.473 27.853-27.859 27.853s-27.859-12.47-27.859-27.853c3.534-9.177 2.331-25.378 0-31.694"/><path id="Shape_9_" d="m145.548 103.179c-8.584 1.895-16.342 4.288-22.842 7.176-8.666 4.244-14.062 13.149-13.811 22.792v.028c.019 28.431.292 72.474-.66 82.119-.192 2.313-.288 4.661-.288 7.008 0 22.107 18.81 48.517 55.923 78.515 10.405 8.448 23.414 13.057 36.834 13.022 13.419.035 26.828-4.573 37.233-13.022 37.113-29.997 55.923-56.407 55.923-78.515 0-2.348-.096-4.696-.288-7.008-.952-9.644-.68-53.688-.66-82.119v-.028c.251-9.643-5.145-18.548-13.811-22.792-18.94-8.417-48.559-12.62-78.196-12.591-6.976-.007-13.95.221-20.785.683" stroke-linecap="round"/><path d="m292.352 190.823h17.337c12.616 0 22.844-10.224 22.844-22.835s-10.228-22.835-22.844-22.835h-17.448"/><path d="m108.241 190.823h-17.338c-12.616 0-22.844-10.224-22.844-22.835s10.228-22.835 22.844-22.835h17.448"/><path d="m191.29 205.679c2.037-3.153 5.579-5.24 9.613-5.24s7.576 2.087 9.613 5.24" stroke-linecap="round"/><path d="m258.783 339.318c-1.539 30.602-26.865 54.941-57.88 54.941-31.007 0-56.327-24.326-57.879-54.915"/><path d="m72.038 180.863s-1.137 76.245-17.195 117.976h107.027"/><path d="m336.356 257.396c2.47 14.907 5.831 29.572 10.399 41.443h-106.392" stroke-linecap="round"/><path d="m329.56 180.863s.284 19.061 2.576 43.339" stroke-linecap="round"/><path d="m247.85 44.141c-16.805-44.048-200.409-84.174-171.478 106.226"/><g stroke-linecap="round"><path d="m50.01 441.033c-3.03 17.874-4.721 38.851-4.721 63.467"/><path d="m173.044 338.285c-33.462 0-89.652-3.945-114.849 69.651"/><path d="m228.762 338.285c17.542 0 41.331-1.084 63.626 8.488"/></g><path d="m321.888 148.685c50.32-81.435-89.183-187.645-86.547-48.978"/><path d="m124 478.479s-6.038-.109-6.038 26.021" stroke-linecap="round"/><path d="m277.807 478.479s6.038-.109 6.038 26.021" stroke-linecap="round"/></g><g stroke-linecap="round"><path d="m452.669 371.559-8.617 11.887 8.153 19.674 14.495 2.298.012 29.965-14.488 2.308-8.141 19.685 8.622 11.877-21.167 21.195-11.879-8.622-19.661 8.158-2.297 14.504-29.946.012-2.307-14.497-19.673-8.146-11.869 8.628-21.181-21.18 8.617-11.887-8.153-19.674-14.495-2.298-.012-29.965 14.488-2.308 8.141-19.685-8.622-11.877 21.167-21.195 11.879 8.622 19.661-8.158 2.295-14.504 29.946-.012 2.307 14.497 19.673 8.146 11.869-8.628z"/><path d="m414.539 420.432c0 17.586-14.257 31.843-31.843 31.843s-31.843-14.257-31.843-31.843 14.257-31.843 31.843-31.843c4.7 0 9.163 1.018 13.179 2.847"/><path d="m221.411 242.632c-4.387 6.795-12.019 11.293-20.708 11.293s-16.32-4.498-20.707-11.293"/></g></g></svg>