<svg id="Layer_1" enable-background="new 0 0 512 512" height="512" viewBox="0 0 512 512" width="512" xmlns="http://www.w3.org/2000/svg"><g><g><g><path d="m434.296 53.5v405c0 25.41-20.57 46-45.94 46h-227.66c-25.36 0-45.93-20.59-45.93-46v-405c0-25.41 20.57-46 45.93-46h227.66c25.37 0 45.94 20.59 45.94 46z" fill="#56788b"/><path d="m434.296 53.5v405c0 25.41-20.57 46-45.94 46h-20c25.37 0 45.94-20.59 45.94-46v-405c0-25.41-20.57-46-45.94-46h20c25.37 0 45.94 20.59 45.94 46z" fill="#415e6f"/><path d="m404.336 52.26v407.48c0 8.98-7.27 16.26-16.23 16.26h-227.15c-8.97 0-16.23-7.28-16.23-16.26v-407.48c0-8.98 7.26-16.26 16.23-16.26h23.71l5.87 18.23c2.45 7.61 9.52 12.77 17.51 12.77h132.97c7.98 0 15.06-5.16 17.51-12.77l5.87-18.23h23.71c8.96 0 16.23 7.28 16.23 16.26z" fill="#d9f0f4"/><path d="m404.336 52.26v407.48c0 8.98-7.27 16.26-16.23 16.26h-20c8.96 0 16.23-7.28 16.23-16.26v-407.48c0-8.98-7.27-16.26-16.23-16.26h20c8.96 0 16.23 7.28 16.23 16.26z" fill="#bae1e5"/><path d="m182.906 120.7v75.62c0 8.52-6.9 15.43-15.41 15.43h-99.79l-41.55 31.61v-122.66c0-8.52 6.9-15.43 15.41-15.43h125.93c8.51 0 15.41 6.91 15.41 15.43z" fill="#ff6b81"/><path d="m182.906 120.7v75.62c0 8.52-6.9 15.43-15.41 15.43h-20c8.51 0 15.41-6.91 15.41-15.43v-75.62c0-8.52-6.9-15.43-15.41-15.43h20c8.51 0 15.41 6.91 15.41 15.43z" fill="#ed2061"/></g></g><g><path d="m486.35 290c0 60.03-48.67 108.7-108.7 108.7-3.37 0-6.71-.15-10-.46-55.35-5.05-98.7-51.58-98.7-108.24s43.35-103.19 98.7-108.24c3.29-.31 6.63-.46 10-.46 60.03 0 108.7 48.67 108.7 108.7z" fill="#fbdf63"/><path d="m486.35 290c0 60.03-48.67 108.7-108.7 108.7-3.37 0-6.71-.15-10-.46 55.35-5.05 98.7-51.58 98.7-108.24s-43.35-103.19-98.7-108.24c3.29-.31 6.63-.46 10-.46 60.03 0 108.7 48.67 108.7 108.7z" fill="#ffa402"/></g></g><g><path d="m106.885 241.694v151.767c0 4.143 3.358 7.5 7.5 7.5s7.5-3.357 7.5-7.5v-151.767c0-4.143-3.358-7.5-7.5-7.5s-7.5 3.358-7.5 7.5z"/><path d="m434.351 409.295c-4.142 0-7.5 3.357-7.5 7.5v41.705c0 21.229-17.269 38.5-38.495 38.5h-227.977c-21.226 0-38.495-17.271-38.495-38.5v-29.632c0-4.143-3.358-7.5-7.5-7.5s-7.5 3.357-7.5 7.5v29.632c0 29.5 23.998 53.5 53.495 53.5h227.977c29.497 0 53.495-24 53.495-53.5v-41.705c0-4.143-3.358-7.5-7.5-7.5z"/><path d="m114.385 82.773c4.142 0 7.5-3.357 7.5-7.5v-21.773c0-21.229 17.269-38.5 38.495-38.5h227.977c21.226 0 38.495 17.271 38.495 38.5v111.554c0 4.143 3.358 7.5 7.5 7.5s7.5-3.357 7.5-7.5v-111.554c0-29.5-23.998-53.5-53.495-53.5h-227.978c-29.497 0-53.495 24-53.495 53.5v21.773c.001 4.143 3.359 7.5 7.501 7.5z"/><path d="m404.354 161.554c4.142 0 7.5-3.357 7.5-7.5v-101.799c0-13.099-10.656-23.755-23.754-23.755h-23.742c-3.255 0-6.139 2.1-7.138 5.197l-5.88 18.232c-1.461 4.528-5.639 7.57-10.396 7.57h-133.152c-4.757 0-8.935-3.042-10.396-7.571l-5.88-18.231c-.999-3.098-3.882-5.197-7.138-5.197h-23.742c-13.098 0-23.754 10.656-23.754 23.755v23.019c0 4.143 3.358 7.5 7.5 7.5s7.5-3.357 7.5-7.5v-23.019c0-4.827 3.927-8.755 8.754-8.755h18.281l4.204 13.033c3.465 10.747 13.379 17.967 24.671 17.967h133.153c11.291 0 21.206-7.22 24.671-17.966l4.204-13.034h18.281c4.827 0 8.754 3.928 8.754 8.755v101.799c-.001 4.142 3.357 7.5 7.499 7.5z"/><path d="m144.381 234.301c-4.142 0-7.5 3.357-7.5 7.5v217.944c0 13.099 10.656 23.755 23.754 23.755h227.465c13.098 0 23.754-10.656 23.754-23.755v-32.905c0-4.143-3.358-7.5-7.5-7.5s-7.5 3.357-7.5 7.5v32.905c0 4.827-3.927 8.755-8.754 8.755h-227.465c-4.827 0-8.754-3.928-8.754-8.755v-217.944c0-4.143-3.358-7.5-7.5-7.5z"/><path d="m315.04 44.985c4.142 0 7.5-3.357 7.5-7.5s-3.358-7.5-7.5-7.5h-81.343c-4.142 0-7.5 3.357-7.5 7.5s3.358 7.5 7.5 7.5z"/><path d="m315.04 433.723h-81.343c-4.142 0-7.5 3.357-7.5 7.5s3.358 7.5 7.5 7.5h81.343c4.142 0 7.5-3.357 7.5-7.5s-3.358-7.5-7.5-7.5z"/><path d="m190.118 196.319v-75.617c0-12.643-10.285-22.929-22.927-22.929h-75.353c-4.142 0-7.5 3.357-7.5 7.5s3.358 7.5 7.5 7.5h75.353c4.371 0 7.927 3.557 7.927 7.929v75.617c0 4.372-3.556 7.929-7.927 7.929h-99.928c-1.639 0-3.232.537-4.537 1.528l-29.574 22.47v-107.544c0-4.372 3.556-7.929 7.927-7.929h16.243c4.142 0 7.5-3.357 7.5-7.5s-3.358-7.5-7.5-7.5h-16.243c-12.642 0-22.927 10.286-22.927 22.929v122.661c0 2.85 1.614 5.452 4.167 6.719 1.056.523 2.196.781 3.332.781 1.609 0 3.208-.518 4.538-1.528l39.6-30.087h97.402c12.642 0 22.927-10.286 22.927-22.929z"/><path d="m151.63 140.944c0-4.143-3.358-7.5-7.5-7.5h-79.991c-4.142 0-7.5 3.357-7.5 7.5s3.358 7.5 7.5 7.5h79.992c4.141 0 7.499-3.357 7.499-7.5z"/><path d="m64.139 167.444c-4.142 0-7.5 3.357-7.5 7.5s3.358 7.5 7.5 7.5h69.993c4.142 0 7.5-3.357 7.5-7.5s-3.358-7.5-7.5-7.5z"/><path d="m359.847 138.861h-32.187c-4.142 0-7.5 3.357-7.5 7.5s3.358 7.5 7.5 7.5h32.188c4.142 0 7.5-3.357 7.5-7.5s-3.359-7.5-7.501-7.5z"/><path d="m359.847 103.861h-52.185c-4.142 0-7.5 3.357-7.5 7.5s3.358 7.5 7.5 7.5h52.185c4.142 0 7.5-3.357 7.5-7.5s-3.358-7.5-7.5-7.5z"/><path d="m483.133 241.199c-1.742-3.758-6.201-5.394-9.958-3.651-3.758 1.741-5.393 6.199-3.651 9.958 6.188 13.354 9.325 27.651 9.325 42.494 0 55.801-45.397 101.198-101.198 101.198s-101.198-45.397-101.198-101.198 45.397-101.198 101.198-101.198c28.085 0 55.147 11.821 74.246 32.434 2.815 3.038 7.561 3.221 10.599.403 3.038-2.815 3.219-7.561.404-10.599-21.929-23.665-53.001-37.238-85.249-37.238-64.072 0-116.198 52.126-116.198 116.198s52.126 116.198 116.198 116.198 116.198-52.126 116.198-116.198c0-17.037-3.606-33.456-10.716-48.801z"/><path d="m433.35 290c0-4.143-3.358-7.5-7.5-7.5h-40.699v-60.699c0-4.143-3.358-7.5-7.5-7.5s-7.5 3.357-7.5 7.5v68.199c0 4.143 3.358 7.5 7.5 7.5h48.199c4.142 0 7.5-3.357 7.5-7.5z"/><path d="m370.151 346.804v17.554c0 4.143 3.358 7.5 7.5 7.5s7.5-3.357 7.5-7.5v-17.554c0-4.143-3.358-7.5-7.5-7.5s-7.5 3.357-7.5 7.5z"/><path d="m328.705 290.357c0-4.143-3.358-7.5-7.5-7.5h-17.553c-4.142 0-7.5 3.357-7.5 7.5s3.358 7.5 7.5 7.5h17.553c4.142 0 7.5-3.357 7.5-7.5z"/><path d="m325.326 350.184c1.919 0 3.839-.732 5.304-2.197l12.412-12.413c2.929-2.929 2.928-7.678 0-10.606-2.93-2.928-7.677-2.929-10.607.001l-12.412 12.413c-2.929 2.929-2.928 7.678 0 10.606 1.464 1.463 3.383 2.196 5.303 2.196z"/><path d="m435.279 232.729c-2.929-2.928-7.678-2.928-10.606 0l-12.412 12.412c-2.929 2.93-2.929 7.678 0 10.607 1.464 1.464 3.384 2.196 5.303 2.196s3.839-.732 5.303-2.196l12.412-12.412c2.929-2.93 2.929-7.678 0-10.607z"/><path d="m343.041 245.141-12.412-12.412c-2.929-2.928-7.678-2.928-10.606 0-2.929 2.93-2.929 7.678 0 10.607l12.412 12.412c1.464 1.464 3.384 2.196 5.303 2.196s3.839-.732 5.303-2.196c2.929-2.93 2.929-7.678 0-10.607z"/><path d="m424.672 347.986c1.465 1.465 3.384 2.197 5.304 2.197 1.919 0 3.839-.732 5.303-2.196 2.929-2.929 2.929-7.678 0-10.606l-12.412-12.413c-2.929-2.929-7.678-2.93-10.607-.001s-2.929 7.678 0 10.606z"/></g></svg>