<svg id="Layer_1" enable-background="new 0 0 512.011 512.011" height="512" viewBox="0 0 512.011 512.011" width="512" xmlns="http://www.w3.org/2000/svg"><g><g><g><path d="m404.224 143.501v154.56c0 25.4-20.53 46-45.85 46h-193.44l-48.21 56.75-48.22-56.75h-15.15c-25.32 0-45.85-20.6-45.85-46v-154.56c0-25.4 20.53-46 45.85-46h305.02c25.32 0 45.85 20.6 45.85 46z" fill="#ff6b81"/><path d="m404.224 143.501v154.56c0 25.4-20.53 46-45.85 46h-20c25.32 0 45.85-20.6 45.85-46v-154.56c0-25.4-20.53-46-45.85-46h20c25.32 0 45.85 20.6 45.85 46z" fill="#ed2061"/></g><g><path d="m246.114 479.671c0 13.71-11.09 24.83-24.78 24.83h-189.05c-13.69 0-24.78-11.12-24.78-24.83 0-13.72 11.09-24.84 24.78-24.84h6.64l19.11-26.4 19.1 26.4h144.2c13.69 0 24.78 11.12 24.78 24.84z" fill="#4dd4f7"/><path d="m246.114 479.671c0 13.71-11.09 24.83-24.78 24.83h-20c13.69 0 24.78-11.12 24.78-24.83 0-13.72-11.09-24.84-24.78-24.84h20c13.69 0 24.78 11.12 24.78 24.84z" fill="#00c2f3"/></g><path d="m504.504 32.341c0 13.71-11.09 24.83-24.78 24.83h-6.64l-1.21 1.68-17.9 24.73-19.1-26.41h-144.2c-13.69 0-24.78-11.12-24.78-24.83 0-13.72 11.09-24.84 24.78-24.84h189.05c13.69 0 24.78 11.12 24.78 24.84z" fill="#fbdf63"/><g><path d="m504.504 32.341c0 13.71-11.09 24.83-24.78 24.83h-6.64l-1.21 1.68c-2.07-1.98-3.15-3.36-2.51-3.63 8.9-3.77 15.14-12.6 15.14-22.88 0-13.72-11.09-24.84-24.78-24.84h20c13.69 0 24.78 11.12 24.78 24.84z" fill="#ffa402"/></g></g><g><path d="m438.018 411.709c-7.778 7.778-20.506 7.778-28.284 0l-13.994-14.008-81.049-81.091c-6.696-6.696-7.17-17.183-1.054-23.299s16.596-5.65 23.285 1.054l34.288 34.302c-6.696-6.696-7.17-17.183-1.054-23.299 6.117-6.116 16.589-5.643 23.285 1.054-6.696-6.696-7.17-17.183-1.054-23.299s16.589-5.643 23.285 1.054c-3.345-3.345-5.141-7.644-5.332-11.865s1.216-8.372 4.278-11.434c6.116-6.116 16.596-5.65 23.285 1.054l46.619 46.648 14.142 14.142c7.778 7.778 7.778 20.52 0 28.298z" fill="#fdd9b4"/><path d="m438.018 411.709c-7.778 7.778-20.506 7.778-28.284 0l-13.994-14.008c7.785 7.644 20.407 7.594 28.136-.134l60.649-60.691c7.778-7.778 7.778-20.506.007-28.291l14.135 14.135c7.778 7.778 7.778 20.52 0 28.298z" fill="#fab684"/></g><path d="m257.074 180.285c-11.696-11.696-30.671-11.682-42.384.031l-7.069 7.069-7.069-7.069c-11.713-11.713-30.689-11.727-42.384-.031-11.695 11.695-11.681 30.671.031 42.384l49.422 49.422 49.422-49.422c11.712-11.712 11.727-30.688.031-42.384z" fill="#fff"/></g><g><path d="m123.809 105.006h234.556c21.146 0 38.351 17.271 38.351 38.5v85.556c0 4.143 3.357 7.5 7.5 7.5s7.5-3.357 7.5-7.5v-85.556c0-29.5-23.933-53.5-53.351-53.5h-234.556c-4.142 0-7.5 3.357-7.5 7.5s3.358 7.5 7.5 7.5z"/><path d="m299.071 336.561h-134.14c-2.201 0-4.291.967-5.716 2.644l-42.498 50.022-42.498-50.022c-1.425-1.677-3.515-2.644-5.716-2.644h-15.153c-21.146 0-38.35-17.271-38.35-38.5v-154.555c0-21.229 17.204-38.5 38.35-38.5h35.68c4.142 0 7.5-3.357 7.5-7.5s-3.358-7.5-7.5-7.5h-35.68c-29.417 0-53.35 24-53.35 53.5v154.556c0 29.5 23.933 53.5 53.35 53.5h11.684l45.967 54.106c1.425 1.677 3.515 2.644 5.716 2.644s4.291-.967 5.716-2.644l45.967-54.106h130.671c4.143 0 7.5-3.357 7.5-7.5s-3.357-7.501-7.5-7.501z"/><path d="m221.333 447.335h-68.186c-4.142 0-7.5 3.357-7.5 7.5s3.358 7.5 7.5 7.5h68.186c9.529 0 17.281 7.777 17.281 17.336s-7.752 17.335-17.281 17.335h-189.052c-9.529 0-17.281-7.776-17.281-17.335s7.752-17.336 17.281-17.336h6.636c2.406 0 4.666-1.154 6.076-3.103l13.033-18.01 13.034 18.01c1.41 1.948 3.67 3.103 6.076 3.103h41.333c4.142 0 7.5-3.357 7.5-7.5s-3.358-7.5-7.5-7.5h-37.504l-16.864-23.302c-1.41-1.948-3.67-3.103-6.076-3.103s-4.666 1.154-6.076 3.103l-16.863 23.302h-2.806c-17.799 0-32.28 14.506-32.28 32.336 0 17.829 14.481 32.335 32.281 32.335h189.053c17.8 0 32.281-14.506 32.281-32.335-.001-17.83-14.482-32.336-32.282-32.336z"/><path d="m290.666 64.677h28.215c4.143 0 7.5-3.357 7.5-7.5s-3.357-7.5-7.5-7.5h-28.215c-9.528 0-17.28-7.776-17.28-17.335s7.752-17.336 17.28-17.336h189.053c9.529 0 17.281 7.777 17.281 17.336s-7.752 17.335-17.281 17.335h-6.636c-2.405 0-4.665 1.154-6.076 3.103l-13.033 18.009-13.032-18.009c-1.411-1.948-3.671-3.103-6.076-3.103h-81.304c-4.143 0-7.5 3.357-7.5 7.5s3.357 7.5 7.5 7.5h77.474l16.862 23.302c1.411 1.948 3.67 3.103 6.076 3.103 2.405 0 4.665-1.154 6.076-3.103l16.863-23.302h2.806c17.8 0 32.281-14.506 32.281-32.335 0-17.83-14.481-32.336-32.281-32.336h-189.053c-17.8 0-32.28 14.506-32.28 32.336 0 17.829 14.48 32.335 32.28 32.335z"/><path d="m209.387 175.013-1.767 1.767-1.766-1.767c-7.08-7.08-16.49-10.982-26.497-10.99h-.029c-10 0-19.398 3.892-26.465 10.959-14.601 14.602-14.586 38.373.032 52.991l49.422 49.422c1.464 1.464 3.384 2.196 5.303 2.196s3.839-.732 5.303-2.196l49.423-49.423c14.617-14.618 14.631-38.39.031-52.99l-.001-.001c-14.6-14.601-38.372-14.585-52.989.032zm42.353 42.353-44.119 44.119-44.119-44.119c-4.25-4.249-6.593-9.896-6.597-15.9-.004-6 2.327-11.638 6.566-15.877 4.234-4.234 9.865-6.565 15.859-6.565h.018c6.004.004 11.651 2.348 15.901 6.598l7.069 7.068c2.929 2.928 7.677 2.928 10.605 0l7.07-7.068c4.25-4.25 9.897-6.594 15.901-6.598h.018c5.993 0 11.625 2.331 15.859 6.565v.001c8.751 8.752 8.738 23.006-.031 31.776z"/><path d="m503.971 317.417-11.895-11.901c-2.929-2.931-7.678-2.932-10.606-.003-2.93 2.928-2.931 7.677-.003 10.606l11.895 11.902c4.877 4.878 4.877 12.816 0 17.695l-60.648 60.681c-2.345 2.348-5.482 3.64-8.836 3.64s-6.492-1.293-8.838-3.64l-95.045-95.096c-3.725-3.726-4.207-9.539-1.053-12.694 1.449-1.45 3.496-2.184 5.783-2.089 2.536.114 4.984 1.23 6.895 3.142l34.283 34.303c2.929 2.931 7.678 2.932 10.606.003 2.93-2.928 2.932-7.677.003-10.606-3.725-3.727-4.207-9.54-1.053-12.695 1.45-1.45 3.517-2.185 5.781-2.088 2.536.115 4.984 1.23 6.895 3.142l.001.001c2.927 2.93 7.676 2.928 10.606.002 2.929-2.929 2.93-7.678.002-10.606 0 0 0 0-.001-.001-3.724-3.726-4.206-9.538-1.051-12.694 1.447-1.449 3.498-2.204 5.781-2.088 2.536.114 4.984 1.23 6.894 3.142h.001c2.929 2.931 7.676 2.932 10.606.003 2.93-2.928 2.932-7.676.004-10.606 0 0 0 0-.001 0-3.725-3.727-4.207-9.541-1.055-12.695 1.451-1.45 3.521-2.181 5.784-2.089 2.536.114 4.984 1.23 6.895 3.141l24.264 24.277c2.929 2.931 7.678 2.932 10.606.003 2.93-2.928 2.931-7.677.003-10.606l-24.264-24.277c-4.564-4.566-10.54-7.237-16.827-7.521-6.527-.306-12.603 2.002-17.069 6.469-4.284 4.287-6.435 9.952-6.49 15.752-6.031.052-11.581 2.331-15.741 6.494-4.286 4.287-6.438 9.951-6.493 15.752-6.03.051-11.579 2.329-15.739 6.492-2.046 2.047-3.605 4.407-4.683 6.946l-17.939-17.949c-4.564-4.567-10.54-7.238-16.826-7.522-6.532-.305-12.604 2.002-17.07 6.47-9.053 9.057-8.58 24.266 1.054 33.902l95.044 95.095c5.179 5.182 12.085 8.036 19.446 8.036h.001c7.361 0 14.269-2.854 19.446-8.036l60.647-60.681c10.72-10.731 10.72-28.184 0-38.908z"/><path d="m359.071 226.81c-12.404 0-22.495 10.094-22.495 22.5 0 4.143 3.357 7.5 7.5 7.5s7.5-3.357 7.5-7.5c0-4.136 3.362-7.5 7.495-7.5 4.143 0 7.5-3.357 7.5-7.5s-3.357-7.5-7.5-7.5z"/><path d="m359.071 195.202c-29.827 0-54.094 24.272-54.094 54.108 0 4.143 3.357 7.5 7.5 7.5s7.5-3.357 7.5-7.5c0-21.564 17.537-39.108 39.094-39.108 4.143 0 7.5-3.357 7.5-7.5s-3.357-7.5-7.5-7.5z"/></g></svg>