<svg id="Layer_1" enable-background="new 0 0 512.011 512.011" height="512" viewBox="0 0 512.011 512.011" width="512" xmlns="http://www.w3.org/2000/svg"><g><path d="m415.64 53.506v405c0 25.41-20.57 46-45.94 46h-227.66c-25.36 0-45.93-20.59-45.93-46v-405c0-25.41 20.57-46 45.93-46h227.66c25.37 0 45.94 20.59 45.94 46z" fill="#56788b"/><path d="m415.64 53.506v405c0 25.41-20.57 46-45.94 46h-20c25.37 0 45.94-20.59 45.94-46v-405c0-25.41-20.57-46-45.94-46h20c25.37 0 45.94 20.59 45.94 46z" fill="#415e6f"/><path d="m385.68 52.266v407.48c0 8.98-7.27 16.26-16.23 16.26h-227.15c-8.97 0-16.23-7.28-16.23-16.26v-407.48c0-8.98 7.26-16.26 16.23-16.26h23.71l5.87 18.23c2.45 7.61 9.52 12.77 17.51 12.77h132.97c7.98 0 15.06-5.16 17.51-12.77l5.87-18.23h23.71c8.96 0 16.23 7.28 16.23 16.26z" fill="#d9f0f4"/><path d="m385.68 52.266v407.48c0 8.98-7.27 16.26-16.23 16.26h-20c8.96 0 16.23-7.28 16.23-16.26v-407.48c0-8.98-7.27-16.26-16.23-16.26h20c8.96 0 16.23 7.28 16.23 16.26z" fill="#bae1e5"/><path d="m164.25 120.706v75.62c0 8.52-6.9 15.43-15.41 15.43h-99.79l-41.55 31.61v-122.66c0-8.52 6.9-15.43 15.41-15.43h125.93c8.51 0 15.41 6.91 15.41 15.43z" fill="#ff6b81"/><path d="m164.25 120.706v75.62c0 8.52-6.9 15.43-15.41 15.43h-20c8.51 0 15.41-6.91 15.41-15.43v-75.62c0-8.52-6.9-15.43-15.41-15.43h20c8.51 0 15.41 6.91 15.41 15.43z" fill="#ed2061"/><path d="m282.718 260.288-64.178-8.64c-5.785-.779-10.102-5.723-10.102-11.569v-23.974c0-5.846 4.318-10.79 10.102-11.569l64.178-8.64z" fill="#4dd4f7"/><path d="m312.673 193.093v70c0 8.284-6.706 15-14.978 15-8.272 0-14.978-6.716-14.978-15v-70c0-8.284 6.706-15 14.978-15 8.272 0 14.978 6.715 14.978 15z" fill="#56788b"/><g><path d="m438.018 423.893c-7.778 7.778-20.506 7.778-28.284 0l-13.994-14.008-81.049-81.091c-6.696-6.696-7.17-17.183-1.054-23.299s16.596-5.65 23.285 1.054l34.288 34.302c-6.696-6.696-7.17-17.183-1.054-23.299s16.589-5.643 23.285 1.054c-6.696-6.696-7.17-17.183-1.054-23.299s16.589-5.643 23.285 1.054c-3.345-3.345-5.141-7.644-5.332-11.865s1.216-8.372 4.278-11.434c6.116-6.116 16.596-5.65 23.285 1.054l46.62 46.648 14.142 14.142c7.778 7.778 7.778 20.52 0 28.298z" fill="#fdd9b4"/><path d="m438.018 423.893c-7.778 7.778-20.506 7.778-28.284 0l-13.994-14.008c7.785 7.644 20.407 7.594 28.136-.134l60.649-60.691c7.778-7.778 7.778-20.506.007-28.291l14.135 14.135c7.778 7.778 7.778 20.52 0 28.298z" fill="#fab684"/></g></g><g><path d="m88.606 241.7v141.767c0 4.143 3.357 7.5 7.5 7.5s7.5-3.357 7.5-7.5v-141.767c0-4.143-3.357-7.5-7.5-7.5s-7.5 3.357-7.5 7.5z"/><path d="m415.614 451.007c-4.143 0-7.5 3.357-7.5 7.5 0 21.229-17.239 38.499-38.43 38.499h-227.649c-21.189 0-38.429-17.271-38.429-38.499v-39.632c0-4.143-3.357-7.5-7.5-7.5s-7.5 3.357-7.5 7.5v39.632c0 29.499 23.968 53.499 53.429 53.499h227.649c29.461 0 53.43-24 53.43-53.499 0-4.143-3.357-7.5-7.5-7.5z"/><path d="m96.106 82.779c4.143 0 7.5-3.357 7.5-7.5v-21.773c0-21.229 17.239-38.5 38.429-38.5h227.649c21.19 0 38.43 17.271 38.43 38.5v187.413c0 4.143 3.357 7.5 7.5 7.5s7.5-3.357 7.5-7.5v-187.413c0-29.5-23.969-53.5-53.43-53.5h-227.649c-29.461 0-53.429 24-53.429 53.5v21.773c0 4.143 3.358 7.5 7.5 7.5z"/><path d="m385.66 272.419c4.143 0 7.5-3.357 7.5-7.5v-212.657c0-13.099-10.646-23.756-23.73-23.756h-23.708c-3.256 0-6.141 2.102-7.139 5.201l-5.872 18.231c-1.458 4.526-5.625 7.567-10.37 7.567h-132.962c-4.745 0-8.912-3.041-10.37-7.567l-5.872-18.231c-.998-3.1-3.883-5.201-7.139-5.201h-23.708c-13.085 0-23.73 10.657-23.73 23.756v23.018c0 4.143 3.357 7.5 7.5 7.5s7.5-3.357 7.5-7.5v-23.018c0-4.828 3.916-8.756 8.73-8.756h18.244l4.197 13.03c3.462 10.748 13.366 17.97 24.647 17.97h132.962c11.28 0 21.186-7.222 24.647-17.97l4.197-13.03h18.244c4.814 0 8.73 3.928 8.73 8.756v212.657c.002 4.142 3.36 7.5 7.502 7.5z"/><path d="m126.06 234.307c-4.143 0-7.5 3.357-7.5 7.5v217.943c0 13.099 10.646 23.755 23.73 23.755h227.14c13.085 0 23.73-10.656 23.73-23.755v-18.905c0-4.143-3.357-7.5-7.5-7.5s-7.5 3.357-7.5 7.5v18.905c0 4.827-3.916 8.755-8.73 8.755h-227.14c-4.814 0-8.73-3.928-8.73-8.755v-217.943c0-4.142-3.358-7.5-7.5-7.5z"/><path d="m296.474 44.991c4.143 0 7.5-3.357 7.5-7.5s-3.357-7.5-7.5-7.5h-81.227c-4.143 0-7.5 3.357-7.5 7.5s3.357 7.5 7.5 7.5z"/><path d="m296.474 433.728h-81.227c-4.143 0-7.5 3.357-7.5 7.5s3.357 7.5 7.5 7.5h81.227c4.143 0 7.5-3.357 7.5-7.5s-3.358-7.5-7.5-7.5z"/><path d="m320.173 263.093v-70c0-12.406-10.083-22.5-22.478-22.5-11.101 0-20.348 8.099-22.156 18.704l-57.996 7.808c-9.465 1.274-16.602 9.443-16.602 19.001v4.487h-13.875c-4.143 0-7.5 3.357-7.5 7.5s3.357 7.5 7.5 7.5h13.875v4.487c0 9.56 7.138 17.728 16.602 19.001l1.946.262v29.576c0 4.143 3.357 7.5 7.5 7.5s7.5-3.357 7.5-7.5v-27.556l41.05 5.527c1.808 10.605 11.055 18.703 22.156 18.703 12.395 0 22.478-10.094 22.478-22.5zm-100.629-18.877c-2.054-.276-3.603-2.055-3.603-4.136v-23.975c0-2.081 1.549-3.858 3.604-4.136l55.674-7.495v47.237m29.954 11.382c0 4.136-3.354 7.5-7.478 7.5s-7.477-3.364-7.477-7.5v-70c0-4.136 3.354-7.5 7.477-7.5s7.478 3.364 7.478 7.5z"/><path d="m171.741 196.325v-75.617c0-12.643-10.275-22.929-22.905-22.929h-75.244c-4.143 0-7.5 3.357-7.5 7.5s3.357 7.5 7.5 7.5h75.244c4.359 0 7.905 3.557 7.905 7.929v75.617c0 4.372-3.546 7.929-7.905 7.929h-99.784c-1.641 0-3.236.538-4.541 1.531l-29.511 22.454v-107.531c0-4.372 3.546-7.929 7.905-7.929h16.22c4.143 0 7.5-3.357 7.5-7.5s-3.357-7.5-7.5-7.5h-16.22c-12.63 0-22.905 10.286-22.905 22.929v122.662c0 2.851 1.615 5.454 4.169 6.72 1.056.523 2.195.78 3.33.78 1.611 0 3.212-.519 4.542-1.531l39.54-30.085h97.255c12.63 0 22.905-10.286 22.905-22.929z"/><path d="m133.309 140.95c0-4.143-3.357-7.5-7.5-7.5h-79.877c-4.143 0-7.5 3.357-7.5 7.5s3.357 7.5 7.5 7.5h79.877c4.142 0 7.5-3.357 7.5-7.5z"/><path d="m45.932 167.45c-4.143 0-7.5 3.357-7.5 7.5s3.357 7.5 7.5 7.5h69.893c4.143 0 7.5-3.357 7.5-7.5s-3.357-7.5-7.5-7.5z"/><path d="m170.71 369.406h32.142c4.143 0 7.5-3.357 7.5-7.5s-3.357-7.5-7.5-7.5h-32.142c-4.143 0-7.5 3.357-7.5 7.5s3.357 7.5 7.5 7.5z"/><path d="m170.71 404.406h52.11c4.143 0 7.5-3.357 7.5-7.5s-3.357-7.5-7.5-7.5h-52.11c-4.143 0-7.5 3.357-7.5 7.5s3.357 7.5 7.5 7.5z"/><path d="m348.225 146.536c0-4.143-3.357-7.5-7.5-7.5h-32.141c-4.143 0-7.5 3.357-7.5 7.5s3.357 7.5 7.5 7.5h32.141c4.142 0 7.5-3.357 7.5-7.5z"/><path d="m340.725 104.036h-52.11c-4.143 0-7.5 3.357-7.5 7.5s3.357 7.5 7.5 7.5h52.11c4.143 0 7.5-3.357 7.5-7.5s-3.358-7.5-7.5-7.5z"/><path d="m503.972 329.6-11.895-11.901c-2.93-2.931-7.679-2.932-10.606-.003-2.93 2.928-2.931 7.677-.003 10.606l11.895 11.901c4.876 4.879 4.876 12.817 0 17.696l-60.646 60.682c-2.344 2.347-5.482 3.639-8.835 3.639-3.354 0-6.491-1.292-8.837-3.639l-95.038-95.095c-3.725-3.727-4.208-9.541-1.056-12.695 1.451-1.451 3.516-2.186 5.784-2.09 2.536.115 4.984 1.23 6.895 3.142l34.281 34.303c2.93 2.931 7.679 2.932 10.606.003 2.93-2.928 2.931-7.677.003-10.606-3.725-3.727-4.207-9.54-1.053-12.695 1.448-1.449 3.504-2.183 5.78-2.088 2.535.115 4.983 1.23 6.894 3.142 2.929 2.931 7.678 2.932 10.606.003 2.93-2.928 2.931-7.677.003-10.606-3.725-3.727-4.207-9.539-1.053-12.694 1.449-1.45 3.491-2.189 5.782-2.089 2.535.114 4.983 1.23 6.893 3.142h.001c2.928 2.93 7.675 2.933 10.606.003 2.93-2.928 2.932-7.676.004-10.606 0 0 0 0-.001 0-3.725-3.727-4.206-9.541-1.055-12.695 1.449-1.45 3.5-2.189 5.784-2.089 2.536.114 4.984 1.23 6.894 3.141l24.262 24.277c2.929 2.931 7.676 2.932 10.606.003 2.93-2.928 2.932-7.677.003-10.606l-24.262-24.277c-4.563-4.566-10.539-7.237-16.826-7.521-6.529-.3-12.604 2.001-17.07 6.47-4.283 4.286-6.434 9.951-6.488 15.752-6.032.051-11.581 2.33-15.741 6.493-4.285 4.287-6.437 9.952-6.492 15.752-6.03.052-11.579 2.33-15.739 6.493-2.045 2.046-3.604 4.406-4.682 6.945l-17.938-17.949c-4.564-4.566-10.54-7.238-16.826-7.522-6.546-.291-12.604 2.002-17.07 6.47-9.052 9.058-8.578 24.267 1.055 33.903l95.038 95.095c5.179 5.182 12.085 8.035 19.446 8.035s14.268-2.854 19.445-8.035l60.646-60.682c10.719-10.731 10.719-28.183 0-38.908z"/></g></svg>