<svg id="Layer_1" enable-background="new 0 0 512 512" height="512" viewBox="0 0 512 512" width="512" xmlns="http://www.w3.org/2000/svg"><g><g><path d="m474.646 53.539v404.919c0 25.43-20.55 46.04-45.89 46.04h-345.23c-25.34 0-45.88-20.61-45.88-46.04v-404.919c0-25.43 20.54-46.04 45.88-46.04h345.23c25.34.001 45.89 20.61 45.89 46.04z" fill="#4dd4f7"/><path d="m474.646 53.539v404.919c0 25.43-20.55 46.04-45.89 46.04h-20c25.34 0 45.89-20.61 45.89-46.04v-404.919c0-25.43-20.55-46.04-45.89-46.04h20c25.34.001 45.89 20.61 45.89 46.04z" fill="#00c2f3"/><path d="m444.716 83.319v376.379c0 8.99-7.26 16.27-16.21 16.27h-344.72c-8.96 0-16.22-7.28-16.22-16.27v-376.379c0-8.98 7.26-16.27 16.22-16.27h344.72c8.95 0 16.21 7.29 16.21 16.27z" fill="#d9f0f4"/><path d="m444.716 83.319v376.379c0 8.99-7.26 16.27-16.21 16.27h-20c8.95 0 16.21-7.28 16.21-16.27v-376.379c0-8.98-7.26-16.27-16.21-16.27h20c8.95 0 16.21 7.29 16.21 16.27z" fill="#bae1e5"/></g><path d="m504.5 129.205v198.05c0 8.98-7.26 16.25-16.22 16.25h-464.56c-8.96 0-16.22-7.27-16.22-16.25v-198.05c0-8.97 7.26-16.25 16.22-16.25h464.56c8.96 0 16.22 7.28 16.22 16.25z" fill="#ff6b81"/><g><path d="m53.73 112.955v230.55h-30.01c-8.96 0-16.22-7.27-16.22-16.25v-198.05c0-8.97 7.26-16.25 16.22-16.25z" fill="#56788b"/><path d="m504.5 129.205v198.05c0 8.98-7.26 16.25-16.22 16.25h-30.01v-230.55h30.01c8.96 0 16.22 7.28 16.22 16.25z" fill="#56788b"/><path d="m504.5 129.205v198.05c0 8.98-7.26 16.25-16.22 16.25h-20c8.96 0 16.22-7.27 16.22-16.25v-198.05c0-8.97-7.26-16.25-16.22-16.25h20c8.96 0 16.22 7.28 16.22 16.25z" fill="#415e6f"/></g><ellipse cx="183.088" cy="409.478" fill="#ff6b81" rx="21.334" ry="21.326"/><path d="m229.208 189.772v76.63l63.717-38.315z" fill="#fff"/></g><g><path d="m37.484 90.824c4.143 0 7.5-3.357 7.5-7.5v-29.782c0-21.252 17.226-38.542 38.4-38.542h242.092c4.143 0 7.5-3.357 7.5-7.5s-3.357-7.5-7.5-7.5h-242.092c-29.445 0-53.4 24.019-53.4 53.542v29.782c0 4.142 3.358 7.5 7.5 7.5z"/><path d="m141.926 497h-58.542c-21.174 0-38.399-17.289-38.399-38.541v-85.559c0-4.143-3.357-7.5-7.5-7.5s-7.5 3.357-7.5 7.5v85.559c0 29.522 23.955 53.541 53.399 53.541h58.542c4.143 0 7.5-3.357 7.5-7.5s-3.358-7.5-7.5-7.5z"/><path d="m474.646 365.4c-4.143 0-7.5 3.357-7.5 7.5v85.559c0 21.252-17.227 38.541-38.4 38.541h-252.3c-4.143 0-7.5 3.357-7.5 7.5s3.357 7.5 7.5 7.5h252.3c29.445 0 53.4-24.019 53.4-53.541v-85.559c0-4.143-3.357-7.5-7.5-7.5z"/><path d="m360.533 15h68.213c21.174 0 38.4 17.289 38.4 38.541v29.782c0 4.143 3.357 7.5 7.5 7.5s7.5-3.357 7.5-7.5v-29.781c0-29.522-23.955-53.541-53.4-53.541h-68.213c-4.143 0-7.5 3.357-7.5 7.5s3.358 7.499 7.5 7.499z"/><path d="m59.919 83.324c0 4.143 3.357 7.5 7.5 7.5s7.5-3.357 7.5-7.5c0-4.836 3.912-8.771 8.72-8.771h344.853c4.808 0 8.72 3.935 8.72 8.771 0 4.143 3.357 7.5 7.5 7.5s7.5-3.357 7.5-7.5c0-13.107-10.641-23.771-23.72-23.771h-344.853c-13.079 0-23.72 10.663-23.72 23.771z"/><path d="m67.419 365.4c-4.143 0-7.5 3.357-7.5 7.5v86.805c0 13.106 10.641 23.77 23.72 23.77h344.853c13.079 0 23.72-10.663 23.72-23.77v-86.805c0-4.143-3.357-7.5-7.5-7.5s-7.5 3.357-7.5 7.5v86.805c0 4.836-3.912 8.77-8.72 8.77h-344.853c-4.808 0-8.72-3.934-8.72-8.77v-86.805c0-4.143-3.357-7.5-7.5-7.5z"/><path d="m89.739 44.333h30.65c4.143 0 7.5-3.357 7.5-7.5s-3.357-7.5-7.5-7.5h-30.65c-4.143 0-7.5 3.357-7.5 7.5s3.358 7.5 7.5 7.5z"/><path d="m180.411 44.333c4.143 0 7.5-3.357 7.5-7.5s-3.357-7.5-7.5-7.5h-30.649c-4.143 0-7.5 3.357-7.5 7.5s3.357 7.5 7.5 7.5z"/><path d="m488.28 105.455h-328.195c-4.143 0-7.5 3.357-7.5 7.5s3.357 7.5 7.5 7.5h290.684v215.555h-100.867c-4.143 0-7.5 3.357-7.5 7.5s3.357 7.5 7.5 7.5h138.378c13.079 0 23.72-10.657 23.72-23.756v-198.045c0-13.098-10.641-23.754-23.72-23.754zm8.72 221.798c0 4.828-3.912 8.756-8.72 8.756h-22.512v-215.554h22.512c4.808 0 8.72 3.928 8.72 8.755z"/><path d="m321.971 343.509c0-4.143-3.357-7.5-7.5-7.5h-253.24v-215.554h64.284c4.143 0 7.5-3.357 7.5-7.5s-3.357-7.5-7.5-7.5h-101.795c-13.079 0-23.72 10.656-23.72 23.754v198.044c0 13.099 10.641 23.756 23.72 23.756h290.751c4.142 0 7.5-3.357 7.5-7.5zm-306.971-16.256v-198.044c0-4.827 3.912-8.755 8.72-8.755h22.512v215.555h-22.512c-4.808 0-8.72-3.927-8.72-8.756z"/><path d="m229.208 273.902c1.339 0 2.677-.358 3.865-1.072l63.718-38.314c2.255-1.356 3.635-3.796 3.635-6.428s-1.38-5.071-3.635-6.428l-63.718-38.315c-2.318-1.393-5.205-1.432-7.558-.101s-3.808 3.825-3.808 6.528v76.63c0 2.703 1.455 5.197 3.808 6.528 1.147.649 2.421.972 3.693.972zm7.5-70.868 41.664 25.054-41.664 25.053z"/><path d="m400.383 401.978h-189.451c-3.31-12.27-14.539-21.325-27.843-21.325-13.305 0-24.534 9.055-27.844 21.325h-43.497c-4.143 0-7.5 3.357-7.5 7.5s3.357 7.5 7.5 7.5h43.497c3.31 12.27 14.539 21.326 27.844 21.326 13.304 0 24.533-9.056 27.843-21.326h189.451c4.143 0 7.5-3.357 7.5-7.5s-3.358-7.5-7.5-7.5zm-217.294 21.326c-7.628 0-13.834-6.202-13.834-13.826 0-7.623 6.206-13.825 13.834-13.825s13.833 6.202 13.833 13.825c0 7.624-6.205 13.826-13.833 13.826z"/></g></svg>