<svg id="Layer_1" enable-background="new 0 0 512 512" height="512" viewBox="0 0 512 512" width="512" xmlns="http://www.w3.org/2000/svg"><g><g fill="#fab684"><path d="m295.513 223.107h27.337c12.616 0 22.844-10.228 22.844-22.846s-10.228-22.846-22.844-22.846h-19.448z"/><path d="m111.294 223.107h-27.337c-12.616 0-22.844-10.228-22.844-22.846s10.228-22.846 22.844-22.846h19.448z"/></g><g><g><path d="m358.974 504.397h-311.22c0-138.68 53.69-161.84 97.73-165.57 10.92-.92 21.25-.65 30.02-.65h55.72c8.7 0 18.94-.27 29.77.63 44.08 3.67 97.98 26.65 97.98 165.59z" fill="#4dd4f7"/><path d="m358.974 504.397h-20c0-138.94-53.9-161.92-97.98-165.59-4.8-.4-9.48-.57-13.95-.63h4.18c8.7 0 18.94-.27 29.77.63 44.08 3.67 97.98 26.65 97.98 165.59z" fill="#00c2f3"/></g><path d="m261.244 339.217c-1.54 30.6-26.86 54.94-57.88 54.94-31.01 0-56.33-24.33-57.88-54.92v-.41c10.92-.92 21.25-.65 30.02-.65h55.72c8.7 0 18.94-.27 29.77.63z" fill="#d9f0f4"/><path d="m231.223 306.552h-55.718c2.331 6.319 3.534 22.528 0 31.708 0 15.39 12.473 27.866 27.859 27.866s27.859-12.476 27.859-27.866c-3.534-9.181-2.331-25.389 0-31.708z" fill="#fab684"/></g><g><path d="m248.084 305.659c-.01 0-.02.01-.03.01-21.97 6.09-41.59 5.57-44.69 5.57-8.34 0-136.35 3.8-107.87-128l107.87-70.23 91.42 59.18 16.36 10.59c18.16 83.17-25.82 112.54-63.06 122.88z" fill="#fdd9b4"/><path d="m248.084 305.659c29.82-13.42 61.01-45.61 46.7-122.88v-10.59l16.36 10.59c18.16 83.17-25.82 112.54-63.06 122.88z" fill="#f9c19b"/></g><path d="m345 129.79c0 32.03-25.97 58-57.99 58-3.42 0-6.76-.3-10.02-.86-19.33-3.37-35.36-16.31-43.06-33.75-9.76 7.56-22 12.05-35.29 12.05-13.03 0-25.04-4.32-34.7-11.6-7.85 19.47-26.92 33.22-49.19 33.22-29.28 0-53.02-23.75-53.02-53.04 0-20.84 12.01-38.86 29.48-47.54l-.02-.02c-4.92-5.51-7.91-12.79-7.91-20.76 0-17.22 13.96-31.19 31.18-31.19 4.38 0 8.54.9 12.32 2.53 4.58-16.9 20.02-29.33 38.36-29.33 14 0 26.31 7.24 33.38 18.19 4.93-10.74 15.77-18.19 28.35-18.19 12.1 0 22.59 6.89 27.76 16.97 3.86-2.73 8.22-4.79 12.93-6 3.19-.83 6.54-1.27 9.99-1.27 21.94 0 39.73 17.79 39.73 39.74 0 7.43-2.04 14.39-5.59 20.34 19.68 9.28 33.31 29.3 33.31 52.51z" fill="#f79e60"/><path d="m345 129.79c0 32.03-25.97 58-57.99 58-3.42 0-6.76-.3-10.02-.86 27.27-4.73 48.01-28.52 48.01-57.14 0-23.21-13.63-43.23-33.31-52.51 3.55-5.95 5.59-12.91 5.59-20.34 0-18.49-12.63-34.03-29.72-38.47 3.19-.83 6.54-1.27 9.99-1.27 21.94 0 39.73 17.79 39.73 39.74 0 7.43-2.04 14.39-5.59 20.34 19.68 9.28 33.31 29.3 33.31 52.51z" fill="#d77d41"/><path d="m464.25 504.5h-223.26l107.69-179.1 3.94-6.55z" fill="#fbdf63"/><path d="m464.25 504.5h-29l-86.57-179.1 3.94-6.55z" fill="#ffa402"/></g><g><path d="m267.923 347.208c9.006 1.262 18.169 3.576 26.937 7.794 1.048.504 2.155.743 3.246.743 2.792 0 5.473-1.566 6.764-4.251 1.795-3.733.225-8.215-3.508-10.01-22.384-10.765-46.493-10.835-64.351-10.737-.734-4.747-.612-10.446-.084-14.991 22.323-4.146 48.613-13.752 66.185-35.409 11.19-13.792 17.636-30.767 19.31-50.746h.589c16.731 0 30.344-13.613 30.344-30.346 0-11.743-6.705-21.95-16.488-26.993 9.637-11.287 15.129-25.417 15.596-40.402.129-4.14-3.123-7.601-7.263-7.729-4.143-.175-7.601 3.123-7.73 7.263-.854 27.419-23.02 48.896-50.462 48.896-19.998 0-38.139-11.829-46.215-30.137-.931-2.111-2.783-3.676-5.02-4.243-2.238-.568-4.61-.072-6.435 1.341-8.854 6.856-19.468 10.48-30.697 10.48-10.997 0-21.436-3.489-30.188-10.091-1.862-1.404-4.273-1.863-6.522-1.238-2.249.624-4.078 2.259-4.951 4.423-6.982 17.326-23.56 28.521-42.233 28.521-25.097 0-45.515-20.428-45.515-45.537 0-17.427 9.701-33.069 25.316-40.821 2.212-1.099 3.729-3.227 4.078-5.672.314-2.207-.38-4.435-1.855-6.077-3.863-4.339-5.99-9.931-5.99-15.748 0-13.063 10.624-23.69 23.682-23.69 3.253 0 6.4.646 9.352 1.918 1.999.86 4.271.813 6.229-.134 1.958-.945 3.411-2.695 3.979-4.795 3.792-14.007 16.587-23.79 31.116-23.79 10.983 0 21.109 5.517 27.085 14.758 1.486 2.297 4.104 3.588 6.836 3.407 2.729-.196 5.135-1.863 6.277-4.351 3.855-8.391 12.308-13.814 21.535-13.814 8.926 0 17.006 4.94 21.086 12.894.992 1.934 2.775 3.343 4.886 3.86 2.113.517 4.344.095 6.118-1.161 5.453-3.857 11.879-5.896 18.585-5.896 17.773 0 32.232 14.464 32.232 32.243 0 5.825-1.568 11.531-4.534 16.501-1.085 1.817-1.351 4.009-.733 6.033s2.063 3.693 3.978 4.596c8.61 4.056 15.886 10.445 21.042 18.479 2.237 3.486 6.877 4.496 10.362 2.262 3.486-2.237 4.499-6.877 2.262-10.363-5.303-8.265-12.342-15.188-20.604-20.321 2.125-5.448 3.229-11.277 3.229-17.187 0-26.05-21.188-47.243-47.232-47.243-7.204 0-14.189 1.607-20.558 4.695-7.255-9.026-18.226-14.392-30.119-14.392-11.25 0-21.794 4.935-29.035 13.136-8.693-8.36-20.323-13.136-32.698-13.136-18.662 0-35.373 11.019-42.955 27.57-2.522-.511-5.102-.769-7.721-.769-21.33 0-38.682 17.356-38.682 38.69 0 6.49 1.622 12.81 4.663 18.422-16.353 11.2-26.211 29.641-26.211 49.896 0 14.981 5.468 28.708 14.512 39.29-8.953 5.282-14.972 15.029-14.972 26.156 0 16.732 13.612 30.346 30.344 30.346h.188c1.678 20.011 8.142 37.01 19.366 50.813 17.498 21.519 43.762 31.114 66.124 35.282.534 4.555.66 10.283-.078 15.05-34.259-.18-90.639.211-116.156 74.751-1.342 3.919.748 8.183 4.667 9.524.805.275 1.624.406 2.43.406 3.117 0 6.029-1.959 7.095-5.073 15.819-46.209 43.911-59.46 71.046-63.194 5.165 31.151 32.21 54.588 64.566 54.588 32.345.002 59.375-23.41 64.558-54.54zm55.961-163.273c8.056.454 14.471 7.152 14.471 15.321 0 8.462-6.883 15.346-15.344 15.346h-.21c-.26-8.824-1.331-18.15-3.216-27.967 1.464-.842 2.898-1.742 4.299-2.7zm-239.957 30.666c-8.373-.102-15.154-6.946-15.154-15.344 0-7.472 5.366-13.713 12.446-15.071 1.846 1.233 3.763 2.368 5.743 3.396-1.772 9.469-2.783 18.479-3.035 27.019zm31.382 56.351c-15.112-18.586-19.827-44.84-14.052-78.121 4.339.992 8.855 1.516 13.49 1.516 21.785 0 41.423-11.459 52.179-29.829 9.645 5.396 20.456 8.214 31.715 8.214 11.598 0 22.695-2.979 32.54-8.681 11.802 19.223 32.87 31.239 55.827 31.239 6.321 0 12.516-.895 18.434-2.624 5.814 33.326 1.124 59.616-13.978 78.23-8.052 9.925-34.903 32.854-88.398 32.852-53.438 0-79.701-22.889-87.757-32.796zm69.724 46.899c7.681.754 14.313.925 19.153.893v.004c4.621 0 10.636-.192 17.506-.856-.475 7.197-.027 15.294 1.997 21.559-.613 10.678-9.495 19.176-20.325 19.176s-19.712-8.498-20.325-19.176c2.028-6.278 2.474-14.394 1.994-21.6zm18.331 68.899c-24.517 0-45.076-17.447-49.551-40.836 5.161-.195 10.19-.193 14.988-.17 3.439 15.918 17.63 27.882 34.564 27.882 16.933 0 31.124-11.964 34.563-27.883 4.745-.024 9.78-.025 14.985.182-4.479 23.385-25.032 40.825-49.549 40.825z"/><path d="m53.724 433.633c-4.085-.689-7.956 2.058-8.648 6.142-3.203 18.897-4.827 40.675-4.827 64.726 0 4.143 3.358 7.5 7.5 7.5s7.5-3.357 7.5-7.5c0-23.213 1.553-44.146 4.616-62.22.693-4.085-2.057-7.956-6.141-8.648z"/><path d="m126.596 470.978c-1.396-.033-4.147.323-6.819 2.947-2.943 2.89-6.854 9.203-6.854 30.575 0 4.143 3.358 7.5 7.5 7.5s7.5-3.357 7.5-7.5c0-13.049 1.568-17.98 2.247-19.504 2.222-1.268 3.74-3.641 3.789-6.384.075-4.141-3.221-7.559-7.363-7.634z"/><path d="m230.373 262.776c2.247-3.479 1.247-8.122-2.233-10.368-3.48-2.249-8.122-1.248-10.369 2.233-3.178 4.923-8.563 7.861-14.406 7.861s-11.229-2.938-14.406-7.861c-2.246-3.48-6.889-4.48-10.369-2.234-3.48 2.247-4.48 6.889-2.234 10.369 5.952 9.222 16.049 14.727 27.009 14.727 10.958 0 21.055-5.505 27.008-14.727z"/><path d="m189.884 228.057c3.48 2.246 8.122 1.246 10.369-2.234.732-1.134 1.97-1.811 3.312-1.811s2.58.677 3.312 1.811c1.435 2.223 3.846 3.434 6.308 3.434 1.393 0 2.803-.388 4.061-1.199 3.48-2.247 4.48-6.889 2.234-10.369-3.506-5.433-9.456-8.676-15.914-8.676s-12.408 3.243-15.915 8.676c-2.248 3.479-1.247 8.121 2.233 10.368z"/><path d="m470.678 500.636-111.629-185.656c-1.356-2.255-3.796-3.635-6.428-3.635s-5.071 1.38-6.428 3.635l-111.63 185.654c-1.393 2.317-1.431 5.204-.101 7.558 1.331 2.353 3.825 3.808 6.528 3.808h144.011c4.142 0 7.5-3.357 7.5-7.5s-3.358-7.5-7.5-7.5h-130.75l98.37-163.6 98.369 163.6h-31.323c-4.142 0-7.5 3.357-7.5 7.5s3.358 7.5 7.5 7.5h44.583c2.703 0 5.197-1.455 6.528-3.808 1.332-2.353 1.294-5.24-.1-7.556z"/><path d="m360.121 387.919c0-4.143-3.358-7.5-7.5-7.5s-7.5 3.357-7.5 7.5v53.108c0 4.143 3.358 7.5 7.5 7.5s7.5-3.357 7.5-7.5z"/><circle cx="352.621" cy="471.029" r="7.5"/></g></svg>