<svg id="Layer_1" enable-background="new 0 0 511.996 511.996" height="512" viewBox="0 0 511.996 511.996" width="512" xmlns="http://www.w3.org/2000/svg"><g><g><g><path d="m404.202 143.495v154.559c0 25.4-20.53 46-45.849 46h-193.435l-48.209 56.75-48.219-56.75h-15.15c-25.319 0-45.849-20.6-45.849-46v-154.559c0-25.4 20.53-46 45.849-46h305.012c25.321 0 45.85 20.6 45.85 46z" fill="#9090fb"/><path d="m404.202 143.495v154.559c0 25.4-20.53 46-45.849 46h-19.999c25.319 0 45.849-20.6 45.849-46v-154.559c0-25.4-20.53-46-45.849-46h19.999c25.32 0 45.849 20.6 45.849 46z" fill="#6c5fea"/></g><g><path d="m246.096 479.662c0 13.71-11.09 24.83-24.779 24.83h-189.046c-13.69 0-24.779-11.12-24.779-24.83 0-13.72 11.09-24.84 24.779-24.84h6.64l19.11-26.4 19.1 26.4h144.196c13.689 0 24.779 11.12 24.779 24.84z" fill="#ff6b81"/><path d="m246.096 479.662c0 13.71-11.09 24.83-24.779 24.83h-19.999c13.69 0 24.779-11.12 24.779-24.83 0-13.72-11.09-24.84-24.779-24.84h19.999c13.689 0 24.779 11.12 24.779 24.84z" fill="#ed2061"/></g><path d="m504.48 32.336c0 13.71-11.09 24.83-24.779 24.83h-6.64l-1.21 1.68-17.9 24.73-19.1-26.41h-144.196c-13.69 0-24.779-11.12-24.779-24.83 0-13.72 11.09-24.84 24.779-24.84h189.045c13.69 0 24.78 11.12 24.78 24.84z" fill="#fbdf63"/><g><path d="m504.48 32.336c0 13.71-11.09 24.83-24.779 24.83h-6.64l-1.21 1.68c-2.07-1.98-3.15-3.36-2.51-3.63 8.9-3.77 15.14-12.6 15.14-22.88 0-13.72-11.09-24.84-24.779-24.84h20c13.688 0 24.778 11.12 24.778 24.84z" fill="#ffa402"/></g></g><g><path d="m490.002 377.517 14.49-2.31-.01-29.96-14.5-2.3-8.15-19.67 8.62-11.89-21.179-21.18-11.87 8.63-19.68-8.15-2.3-14.5-20.26.01-9.69.01-2.29 14.5-19.669 8.16-11.88-8.62-21.16 21.19 8.62 11.88-8.14 19.68-14.49 2.31.01 29.97 14.5 2.29 8.15 19.68-8.62 11.89 21.189 21.18 11.86-8.63 19.679 8.14 2.3 14.5h9.7l20.25-.01 2.3-14.51 19.659-8.15 11.88 8.62 21.159-21.2-8.62-11.87zm-101.367-17.26c0-17.58 14.259-31.84 31.849-31.84 17.58 0 31.839 14.26 31.839 31.84 0 17.59-14.26 31.84-31.839 31.84-17.59 0-31.849-14.25-31.849-31.84z" fill="#56788b"/><path d="m481.863 397.207 8.619 11.869-21.159 21.2-11.88-8.62-19.659 8.15-2.3 14.51-20.25.01 4.54-28.7 39.629-16.439 16.1-38.94-16.14-38.95-39.629-16.41-4.57-28.689 20.26-.01 2.3 14.499 19.679 8.15 11.87-8.63 21.179 21.18-8.619 11.89 8.149 19.67 14.5 2.3.01 29.96-14.49 2.31z" fill="#415e6f"/></g></g><g><path d="m123.808 105h234.544c21.145 0 38.348 17.271 38.348 38.499v102.555c0 4.143 3.358 7.5 7.5 7.5s7.5-3.357 7.5-7.5v-102.555c0-29.499-23.931-53.499-53.348-53.499h-234.544c-4.142 0-7.5 3.357-7.5 7.5s3.358 7.5 7.5 7.5z"/><path d="m306.355 336.553h-141.428c-2.201 0-4.291.967-5.716 2.645l-42.495 50.021-42.496-50.021c-1.425-1.678-3.515-2.645-5.716-2.645h-15.152c-21.145 0-38.348-17.271-38.348-38.499v-154.555c0-21.229 17.203-38.499 38.348-38.499h35.678c4.142 0 7.5-3.357 7.5-7.5s-3.358-7.5-7.5-7.5h-35.678c-29.416 0-53.348 24-53.348 53.499v154.555c0 29.499 23.932 53.499 53.348 53.499h11.683l45.965 54.105c1.425 1.678 3.515 2.645 5.716 2.645s4.291-.967 5.716-2.645l45.965-54.105h137.958c4.142 0 7.5-3.357 7.5-7.5s-3.358-7.5-7.5-7.5z"/><path d="m221.327 447.325h-68.182c-4.142 0-7.5 3.357-7.5 7.5s3.358 7.5 7.5 7.5h68.182c9.528 0 17.28 7.777 17.28 17.336s-7.751 17.335-17.28 17.335h-189.043c-9.528 0-17.28-7.776-17.28-17.335s7.751-17.336 17.28-17.336h6.635c2.406 0 4.666-1.154 6.076-3.103l13.033-18.008 13.032 18.008c1.41 1.948 3.67 3.103 6.076 3.103h41.331c4.142 0 7.5-3.357 7.5-7.5s-3.358-7.5-7.5-7.5h-37.5l-16.862-23.301c-1.41-1.948-3.67-3.103-6.076-3.103s-4.666 1.154-6.076 3.103l-16.863 23.301h-2.805c-17.799 0-32.28 14.506-32.28 32.336 0 17.829 14.48 32.335 32.28 32.335h189.043c17.799 0 32.28-14.506 32.28-32.335-.001-17.83-14.481-32.336-32.281-32.336z"/><path d="m290.656 64.671h28.213c4.142 0 7.5-3.357 7.5-7.5s-3.358-7.5-7.5-7.5h-28.213c-9.528 0-17.28-7.776-17.28-17.335s7.752-17.336 17.28-17.336h189.044c9.528 0 17.28 7.777 17.28 17.336s-7.751 17.335-17.28 17.335h-6.635c-2.406 0-4.666 1.154-6.076 3.103l-13.033 18.009-13.032-18.008c-1.411-1.949-3.67-3.104-6.076-3.104h-81.3c-4.142 0-7.5 3.357-7.5 7.5s3.358 7.5 7.5 7.5h77.469l16.862 23.301c1.411 1.949 3.67 3.104 6.076 3.104s4.666-1.154 6.076-3.103l16.863-23.302h2.805c17.799 0 32.28-14.506 32.28-32.335.001-17.83-14.48-32.336-32.279-32.336h-189.044c-17.799 0-32.28 14.506-32.28 32.336.001 17.829 14.481 32.335 32.28 32.335z"/><path d="m109.857 253.935c-4.142 0-7.5 3.357-7.5 7.5s3.358 7.5 7.5 7.5h39.998c4.142 0 7.5-3.357 7.5-7.5v-40c0-4.143-3.358-7.5-7.5-7.5h-32.498v-25h32.498c4.142 0 7.5-3.357 7.5-7.5s-3.358-7.5-7.5-7.5h-39.998c-4.142 0-7.5 3.357-7.5 7.5v40c0 4.143 3.358 7.5 7.5 7.5h32.498v25z"/><path d="m224.851 188.935c4.142 0 7.5-3.357 7.5-7.5s-3.358-7.5-7.5-7.5h-39.998c-4.142 0-7.5 3.357-7.5 7.5v80c0 4.143 3.358 7.5 7.5 7.5h39.998c4.142 0 7.5-3.357 7.5-7.5s-3.358-7.5-7.5-7.5h-32.498v-25h32.498c4.142 0 7.5-3.357 7.5-7.5s-3.358-7.5-7.5-7.5h-32.498v-25z"/><path d="m259.849 173.935c-4.142 0-7.5 3.357-7.5 7.5v80c0 4.143 3.358 7.5 7.5 7.5h39.998c4.142 0 7.5-3.357 7.5-7.5v-80c0-4.143-3.358-7.5-7.5-7.5zm32.498 80h-24.998v-65h24.998z"/><path d="m511.98 345.239c-.001-3.688-2.684-6.827-6.326-7.404l-10.347-1.641-4.939-11.919 6.154-8.489c2.164-2.985 1.837-7.1-.769-9.706l-21.182-21.18c-2.609-2.608-6.729-2.934-9.713-.763l-8.47 6.157-11.913-4.933-1.647-10.352c-.58-3.642-3.72-6.321-7.407-6.321h-.003l-29.944.012c-3.688.001-6.828 2.685-7.405 6.328l-1.639 10.357-11.903 4.939-8.479-6.154c-2.987-2.169-7.106-1.842-9.712.77l-21.167 21.194c-2.605 2.608-2.928 6.723-.763 9.706l6.157 8.481-4.932 11.928-10.341 1.648c-3.642.58-6.321 3.722-6.32 7.409l.012 29.965c.001 3.688 2.684 6.827 6.326 7.404l10.347 1.641 4.939 11.919-6.154 8.49c-2.164 2.984-1.837 7.099.769 9.705l21.18 21.18c2.608 2.607 6.729 2.933 9.713.763l8.47-6.157 11.913 4.933 1.647 10.352c.58 3.642 3.72 6.321 7.407 6.321h.003l29.944-.012c3.688-.001 6.828-2.685 7.405-6.327l1.64-10.358 11.903-4.939 8.479 6.154c2.986 2.167 7.105 1.841 9.712-.77l21.166-21.194c2.605-2.608 2.928-6.723.763-9.706l-6.157-8.481 4.933-11.928 10.341-1.648c3.642-.58 6.321-3.722 6.32-7.409zm-23.155 24.87c-2.576.41-4.754 2.13-5.75 4.54l-8.141 19.685c-.996 2.409-.67 5.163.861 7.272l4.863 6.698-12.117 12.134-6.694-4.858c-2.112-1.534-4.87-1.858-7.28-.858l-19.661 8.158c-2.409 1-4.125 3.179-4.533 5.755l-1.295 8.18-17.138.006-1.3-8.172c-.41-2.575-2.128-4.753-4.537-5.751l-19.672-8.146c-.924-.383-1.899-.57-2.869-.57-1.561 0-3.109.487-4.411 1.434l-6.686 4.86-12.125-12.125 4.861-6.705c1.53-2.111 1.854-4.865.856-7.273l-8.153-19.674c-.999-2.41-3.178-4.128-5.754-4.536l-8.17-1.296-.007-17.16 8.165-1.302c2.576-.41 4.754-2.13 5.75-4.54l8.14-19.685c.996-2.409.67-5.163-.861-7.272l-4.863-6.698 12.117-12.134 6.694 4.858c2.112 1.535 4.87 1.857 7.28.858l19.66-8.158c2.409-1 4.125-3.18 4.533-5.756l1.294-8.179 17.137-.006 1.3 8.172c.41 2.575 2.128 4.753 4.537 5.751l19.672 8.146c2.412.998 5.168.67 7.28-.863l6.686-4.86 12.126 12.125-4.861 6.705c-1.53 2.111-1.854 4.865-.856 7.273l8.152 19.674c.999 2.41 3.178 4.128 5.754 4.536l8.171 1.296.007 17.16z"/><path d="m452.323 352.757c-4.142 0-7.5 3.357-7.5 7.5 0 13.422-10.919 24.342-24.341 24.342-13.421 0-24.341-10.92-24.341-24.342 0-13.423 10.919-24.343 24.341-24.343 3.515 0 6.904.731 10.071 2.173 3.771 1.717 8.218.051 9.934-3.719 1.716-3.771.051-8.218-3.719-9.934-5.132-2.336-10.611-3.521-16.286-3.521-21.692 0-39.341 17.649-39.341 39.343s17.648 39.342 39.341 39.342 39.341-17.648 39.341-39.342c0-4.142-3.358-7.499-7.5-7.499z"/></g></svg>