<svg id="Layer_1" enable-background="new 0 0 512 512" height="512" viewBox="0 0 512 512" width="512" xmlns="http://www.w3.org/2000/svg"><g><g><path d="m285.98 479.663c0 13.71-11.09 24.83-24.779 24.83h-228.922c-13.69 0-24.779-11.12-24.779-24.83 0-13.72 11.09-24.84 24.779-24.84h6.64l19.11-26.399 19.1 26.399h184.071c13.69 0 24.78 11.12 24.78 24.84z" fill="#09eaa3"/><path d="m285.98 479.663c0 13.71-11.09 24.83-24.779 24.83h-19.999c13.69 0 24.779-11.12 24.779-24.83 0-13.72-11.09-24.84-24.779-24.84h19.998c13.69 0 24.78 11.12 24.78 24.84z" fill="#14bb87"/></g><g><path d="m504.259 32.337c0 13.71-11.09 24.83-24.78 24.83h-6.64l-1.21 1.68-17.9 24.73-19.1-26.41h-124.098c-13.69 0-24.78-11.12-24.78-24.83 0-13.72 11.09-24.84 24.78-24.84h168.949c13.689.001 24.779 11.121 24.779 24.84z" fill="#fbdf63"/><g><path d="m504.259 32.337c0 13.71-11.09 24.83-24.78 24.83h-6.64l-1.21 1.68c-2.07-1.98-3.15-3.36-2.51-3.63 8.9-3.77 15.14-12.6 15.14-22.88 0-13.72-11.09-24.84-24.78-24.84h20c13.69.001 24.78 11.121 24.78 24.84z" fill="#ffa402"/></g></g><g><path d="m504.5 256s-111.2 150.919-248.38 150.919c-4.54 0-9.06-.17-13.54-.49-130.88-9.34-234.84-150.429-234.84-150.429s103.96-141.089 234.84-150.429c4.48-.32 9-.49 13.54-.49 137.18 0 248.38 150.919 248.38 150.919z" fill="#d9f0f4"/><path d="m504.5 256s-111.2 150.919-248.38 150.919c-4.54 0-9.06-.17-13.54-.49 119.78-8.49 217.02-127.369 232.71-147.529 1.33-1.71 1.33-4.09 0-5.8-15.69-20.16-112.93-139.039-232.71-147.529 4.48-.32 9-.49 13.54-.49 137.18 0 248.38 150.919 248.38 150.919z" fill="#bae1e5"/></g><g><path d="m355.44 256c0 54.88-44.47 99.369-99.32 99.369-3.38 0-6.71-.17-10-.5-50.16-5.02-89.32-47.37-89.32-98.869s39.16-93.849 89.32-98.869c3.29-.33 6.62-.5 10-.5 54.85 0 99.32 44.489 99.32 99.369z" fill="#4dd4f7"/><path d="m355.44 256c0 54.88-44.47 99.369-99.32 99.369-3.38 0-6.71-.17-10-.5 50.16-5.02 89.32-47.37 89.32-98.869s-39.16-93.849-89.32-98.869c3.29-.33 6.62-.5 10-.5 54.85 0 99.32 44.489 99.32 99.369z" fill="#00c2f3"/></g><g><path d="m299.059 237.388-24.843-24.556c-5.636-2.385-11.832-3.704-18.336-3.704-26.017 0-47.107 21.101-47.107 47.129 0 26.029 21.091 47.13 47.107 47.13s47.107-21.101 47.107-47.13c0-6.708-1.402-13.091-3.928-18.869z" fill="#56788b"/><ellipse cx="288.687" cy="223.196" fill="#fff" rx="17.575" ry="17.584"/></g></g><g><path d="m510.538 251.551c-1.157-1.569-28.851-38.886-73.965-76.755-26.584-22.315-53.684-40.115-80.548-52.906-33.879-16.131-67.491-24.31-99.905-24.31-43.611 0-88.936 14.669-134.713 43.6-3.501 2.213-4.546 6.845-2.333 10.347 2.214 3.503 6.847 4.547 10.347 2.333 43.341-27.391 85.969-41.279 126.699-41.279 30.11 0 61.496 7.661 93.285 22.771 25.684 12.208 51.679 29.271 77.262 50.713 34.956 29.298 59.652 58.948 68.354 69.936-8.704 10.99-33.4 40.64-68.354 69.936-25.583 21.442-51.578 38.505-77.262 50.713-31.789 15.11-63.175 22.771-93.285 22.771s-61.496-7.661-93.285-22.771c-25.684-12.208-51.679-29.271-77.262-50.713-34.953-29.296-59.649-58.945-68.353-69.935 10.011-12.634 41.178-49.939 84.858-83.12 3.298-2.506 3.941-7.211 1.436-10.51-2.504-3.299-7.211-3.938-10.509-1.436-55.092 41.85-89.851 88.644-91.303 90.615-1.949 2.646-1.949 6.253 0 8.898 1.157 1.569 28.851 38.886 73.965 76.755 26.583 22.315 53.684 40.115 80.548 52.906 33.878 16.131 67.491 24.31 99.905 24.31s66.026-8.179 99.905-24.31c26.864-12.791 53.964-30.591 80.548-52.906 45.114-37.869 72.808-75.186 73.965-76.755 1.949-2.645 1.949-6.253 0-8.898z"/><path d="m347.511 295.692c3.916 1.361 8.187-.714 9.544-4.626 3.905-11.252 5.886-23.05 5.886-35.066 0-58.928-47.919-106.868-106.82-106.868s-106.82 47.94-106.82 106.868 47.919 106.868 106.82 106.868c33.358 0 64.194-15.169 84.603-41.616 2.53-3.279 1.924-7.989-1.355-10.52-3.281-2.532-7.989-1.923-10.52 1.355-17.546 22.739-44.055 35.78-72.728 35.78-50.63 0-91.82-41.212-91.82-91.868s41.19-91.868 91.82-91.868 91.82 41.212 91.82 91.868c0 10.338-1.701 20.481-5.056 30.148-1.359 3.915.713 8.188 4.626 9.545z"/><path d="m288.687 198.112c-6.226 0-11.928 2.281-16.317 6.052-5.309-1.684-10.835-2.536-16.49-2.536-30.11 0-54.607 24.507-54.607 54.63 0 30.122 24.497 54.629 54.607 54.629s54.606-24.507 54.606-54.629c0-5.797-.891-11.453-2.655-16.879 3.699-4.371 5.932-10.021 5.932-16.183 0-13.831-11.249-25.084-25.076-25.084zm10.076 25.084c0 5.56-4.52 10.083-10.075 10.083-5.556 0-10.076-4.523-10.076-10.083 0-5.561 4.521-10.084 10.076-10.084s10.075 4.524 10.075 10.084zm-42.883 72.692c-21.84 0-39.607-17.777-39.607-39.629s17.768-39.63 39.607-39.63c2.848 0 5.648.297 8.38.885-.424 1.826-.649 3.729-.649 5.682 0 13.831 11.249 25.083 25.076 25.083 2.015 0 3.974-.239 5.853-.69.629 2.823.946 5.72.946 8.67 0 21.851-17.767 39.629-39.606 39.629z"/><path d="m261.211 447.327h-68.153c-4.142 0-7.5 3.357-7.5 7.5s3.358 7.5 7.5 7.5h68.153c9.521 0 17.269 7.776 17.269 17.335 0 9.56-7.747 17.336-17.269 17.336h-228.942c-9.522 0-17.269-7.776-17.269-17.336 0-9.559 7.747-17.335 17.269-17.335h6.632c2.406 0 4.667-1.154 6.077-3.104l13.023-18.003 13.023 18.003c1.41 1.95 3.67 3.104 6.077 3.104h81.293c4.142 0 7.5-3.357 7.5-7.5s-3.358-7.5-7.5-7.5h-77.461l-16.854-23.3c-1.41-1.95-3.67-3.104-6.077-3.104s-4.667 1.154-6.077 3.104l-16.854 23.3h-2.801c-17.794 0-32.27 14.506-32.27 32.335 0 17.83 14.476 32.336 32.269 32.336h228.942c17.793 0 32.269-14.506 32.269-32.336-.001-17.829-14.476-32.335-32.269-32.335z"/><path d="m310.52 64.673h28.2c4.143 0 7.5-3.357 7.5-7.5s-3.357-7.5-7.5-7.5h-28.2c-9.521 0-17.269-7.776-17.269-17.335s7.747-17.336 17.269-17.336h168.97c9.522 0 17.27 7.777 17.27 17.336s-7.747 17.335-17.27 17.335h-6.632c-2.406 0-4.666 1.154-6.077 3.104l-13.023 18.003-13.022-18.003c-1.41-1.95-3.671-3.104-6.077-3.104h-61.274c-4.143 0-7.5 3.357-7.5 7.5s3.357 7.5 7.5 7.5h57.443l16.854 23.3c1.41 1.95 3.671 3.104 6.077 3.104s4.666-1.154 6.077-3.104l16.854-23.3h2.801c17.794 0 32.27-14.506 32.27-32.335 0-17.83-14.476-32.336-32.27-32.336h-168.971c-17.793 0-32.269 14.506-32.269 32.336 0 17.829 14.476 32.335 32.269 32.335z"/><path d="m464.097 422.211h-112.141c-4.143 0-7.5 3.357-7.5 7.5s3.357 7.5 7.5 7.5h112.141c4.143 0 7.5-3.357 7.5-7.5s-3.358-7.5-7.5-7.5z"/><path d="m464.097 457.211h-52.109c-4.143 0-7.5 3.357-7.5 7.5s3.357 7.5 7.5 7.5h52.109c4.143 0 7.5-3.357 7.5-7.5s-3.358-7.5-7.5-7.5z"/><path d="m48.348 90.002h98.392c4.142 0 7.5-3.357 7.5-7.5s-3.358-7.5-7.5-7.5h-98.392c-4.142 0-7.5 3.357-7.5 7.5s3.358 7.5 7.5 7.5z"/><path d="m48.348 55.002h52.11c4.142 0 7.5-3.357 7.5-7.5s-3.358-7.5-7.5-7.5h-52.11c-4.142 0-7.5 3.357-7.5 7.5s3.358 7.5 7.5 7.5z"/></g></svg>