<svg id="Layer_1" enable-background="new 0 0 512 512" height="512" viewBox="0 0 512 512" width="512" xmlns="http://www.w3.org/2000/svg"><g><g><path d="m416.085 53.5v405c0 25.41-20.57 46-45.94 46h-227.66c-25.36 0-45.93-20.59-45.93-46v-405c0-25.41 20.57-46 45.93-46h227.66c25.37 0 45.94 20.59 45.94 46z" fill="#56788b"/><path d="m416.085 53.5v405c0 25.41-20.57 46-45.94 46h-20c25.37 0 45.94-20.59 45.94-46v-405c0-25.41-20.57-46-45.94-46h20c25.37 0 45.94 20.59 45.94 46z" fill="#415e6f"/><path d="m386.125 52.26v407.48c0 8.98-7.27 16.26-16.23 16.26h-227.15c-8.97 0-16.23-7.28-16.23-16.26v-407.48c0-8.98 7.26-16.26 16.23-16.26h23.71l5.87 18.23c2.45 7.61 9.52 12.77 17.51 12.77h132.97c7.98 0 15.06-5.16 17.51-12.77l5.87-18.23h23.71c8.96 0 16.23 7.28 16.23 16.26z" fill="#d9f0f4"/><path d="m386.125 52.26v407.48c0 8.98-7.27 16.26-16.23 16.26h-20c8.96 0 16.23-7.28 16.23-16.26v-407.48c0-8.98-7.27-16.26-16.23-16.26h20c8.96 0 16.23 7.28 16.23 16.26z" fill="#bae1e5"/><path d="m164.695 120.7v75.62c0 8.52-6.9 15.43-15.41 15.43h-99.79l-41.55 31.61v-122.66c0-8.52 6.9-15.43 15.41-15.43h125.93c8.51 0 15.41 6.91 15.41 15.43z" fill="#4dd4f7"/><path d="m164.695 120.7v75.62c0 8.52-6.9 15.43-15.41 15.43h-20c8.51 0 15.41-6.91 15.41-15.43v-75.62c0-8.52-6.9-15.43-15.41-15.43h20c8.51 0 15.41 6.91 15.41 15.43z" fill="#00c2f3"/></g><path d="m504.405 140.568v199.858c0 8.45-6.85 15.3-15.3 15.3h-106.446l-30.56 38.49-30.55-38.49h-106.314c-8.45 0-15.3-6.85-15.3-15.3v-199.858c0-8.45 6.85-15.3 15.3-15.3h273.87c8.45 0 15.3 6.85 15.3 15.3z" fill="#fbdf63"/><path d="m504.405 140.568v199.858c0 8.45-6.85 15.3-15.3 15.3h-20c8.45 0 15.3-6.85 15.3-15.3v-199.858c0-8.45-6.85-15.3-15.3-15.3h20c8.45 0 15.3 6.85 15.3 15.3z" fill="#ffa402"/><g fill="#56788b"><circle cx="292.099" cy="204.72" r="20"/><circle cx="412.099" cy="204.72" r="20"/></g></g><g><path d="m88.707 241.694v151.766c0 4.143 3.357 7.5 7.5 7.5s7.5-3.357 7.5-7.5v-151.766c0-4.143-3.357-7.5-7.5-7.5s-7.5 3.358-7.5 7.5z"/><path d="m416.081 378.294c-4.143 0-7.5 3.357-7.5 7.5v72.706c0 21.229-17.263 38.5-38.481 38.5h-227.91c-21.22 0-38.482-17.271-38.482-38.5v-29.632c0-4.143-3.357-7.5-7.5-7.5s-7.5 3.357-7.5 7.5v29.632c0 29.5 23.992 53.5 53.482 53.5h227.91c29.49 0 53.481-24 53.481-53.5v-72.706c0-4.143-3.357-7.5-7.5-7.5z"/><path d="m96.207 82.772c4.143 0 7.5-3.357 7.5-7.5v-21.773c0-21.228 17.263-38.499 38.482-38.499h227.911c21.219 0 38.481 17.271 38.481 38.499v41.554c0 4.143 3.357 7.5 7.5 7.5s7.5-3.357 7.5-7.5v-41.554c0-29.499-23.991-53.499-53.481-53.499h-227.91c-29.49 0-53.482 24-53.482 53.499v21.773c-.001 4.143 3.356 7.5 7.499 7.5z"/><path d="m386.093 102.553c4.143 0 7.5-3.357 7.5-7.5v-42.798c0-13.099-10.653-23.755-23.749-23.755h-23.735c-3.255 0-6.139 2.1-7.138 5.198l-5.88 18.231c-1.459 4.528-5.635 7.57-10.39 7.57h-133.114c-4.755 0-8.93-3.043-10.391-7.571l-5.879-18.23c-.999-3.099-3.883-5.198-7.138-5.198h-23.735c-13.096 0-23.749 10.656-23.749 23.755v23.018c0 4.143 3.357 7.5 7.5 7.5s7.5-3.357 7.5-7.5v-23.018c0-4.827 3.925-8.755 8.749-8.755h18.273l4.203 13.032c3.465 10.747 13.378 17.968 24.666 17.968h133.114c11.29 0 21.203-7.221 24.666-17.968l4.204-13.032h18.273c4.824 0 8.749 3.928 8.749 8.755v42.798c.001 4.142 3.358 7.5 7.501 7.5z"/><path d="m133.695 459.744v-217.943c0-4.143-3.357-7.5-7.5-7.5s-7.5 3.357-7.5 7.5v217.943c0 13.099 10.653 23.756 23.749 23.756h227.399c13.096 0 23.749-10.657 23.749-23.756v-57.904c0-4.143-3.357-7.5-7.5-7.5s-7.5 3.357-7.5 7.5v57.904c0 4.828-3.925 8.756-8.749 8.756h-227.399c-4.824 0-8.749-3.928-8.749-8.756z"/><path d="m296.804 44.985c4.143 0 7.5-3.357 7.5-7.5s-3.357-7.5-7.5-7.5h-81.319c-4.143 0-7.5 3.357-7.5 7.5s3.357 7.5 7.5 7.5z"/><path d="m296.804 448.722c4.143 0 7.5-3.357 7.5-7.5s-3.357-7.5-7.5-7.5h-81.319c-4.143 0-7.5 3.357-7.5 7.5s3.357 7.5 7.5 7.5z"/><path d="m171.921 196.318v-75.616c0-12.644-10.283-22.93-22.923-22.93h-75.331c-4.143 0-7.5 3.357-7.5 7.5s3.357 7.5 7.5 7.5h75.331c4.369 0 7.923 3.558 7.923 7.93v75.616c0 4.372-3.554 7.929-7.923 7.929h-99.898c-1.639 0-3.233.537-4.538 1.529l-29.562 22.467v-107.541c0-4.372 3.554-7.93 7.923-7.93h16.238c4.143 0 7.5-3.357 7.5-7.5s-3.357-7.5-7.5-7.5h-16.238c-12.64 0-22.923 10.287-22.923 22.93v122.661c0 2.85 1.614 5.453 4.167 6.719 1.057.523 2.196.781 3.332.781 1.609 0 3.209-.518 4.539-1.529l39.588-30.087h97.372c12.64 0 22.923-10.286 22.923-22.929z"/><path d="m133.444 140.944c0-4.143-3.357-7.5-7.5-7.5h-79.968c-4.143 0-7.5 3.357-7.5 7.5s3.357 7.5 7.5 7.5h79.969c4.142 0 7.499-3.357 7.499-7.5z"/><path d="m45.976 167.444c-4.143 0-7.5 3.357-7.5 7.5s3.357 7.5 7.5 7.5h69.973c4.143 0 7.5-3.357 7.5-7.5s-3.357-7.5-7.5-7.5z"/><path d="m489.186 117.772h-186.564c-4.143 0-7.5 3.357-7.5 7.5s3.357 7.5 7.5 7.5h186.563c4.309 0 7.814 3.498 7.814 7.798v140.007c0 4.143 3.357 7.5 7.5 7.5s7.5-3.357 7.5-7.5v-140.007c.001-12.57-10.233-22.798-22.813-22.798z"/><path d="m504.5 307.796c-4.143 0-7.5 3.357-7.5 7.5v25.133c0 4.3-3.506 7.798-7.814 7.798h-106.499c-2.287 0-4.449 1.043-5.872 2.834l-24.716 31.103-24.715-31.103c-1.423-1.79-3.585-2.834-5.872-2.834h-106.499c-4.309 0-7.814-3.498-7.814-7.798v-199.859c0-4.3 3.506-7.798 7.814-7.798h52.499c4.143 0 7.5-3.357 7.5-7.5s-3.357-7.5-7.5-7.5h-52.499c-12.58 0-22.814 10.228-22.814 22.798v199.858c0 12.57 10.234 22.798 22.814 22.798h102.879l28.335 35.658c1.423 1.79 3.585 2.834 5.872 2.834s4.449-1.044 5.872-2.834l28.336-35.658h102.879c12.58 0 22.814-10.228 22.814-22.798v-25.133c0-4.142-3.357-7.499-7.5-7.499z"/><path d="m292.099 177.22c-15.163 0-27.5 12.337-27.5 27.5s12.337 27.5 27.5 27.5h120c15.163 0 27.5-12.337 27.5-27.5s-12.337-27.5-27.5-27.5-27.5 12.337-27.5 27.5c0 4.498 1.086 8.748 3.009 12.5h-71.018c1.923-3.752 3.009-8.002 3.009-12.5 0-15.163-12.337-27.5-27.5-27.5zm-12.5 27.5c0-6.893 5.607-12.5 12.5-12.5s12.5 5.607 12.5 12.5-5.607 12.5-12.5 12.5-12.5-5.608-12.5-12.5zm120 0c0-6.893 5.607-12.5 12.5-12.5s12.5 5.607 12.5 12.5-5.607 12.5-12.5 12.5-12.5-5.608-12.5-12.5z"/><path d="m257.099 275.246v15.901c0 4.143 3.357 7.5 7.5 7.5s7.5-3.357 7.5-7.5v-15.901c0-4.143-3.357-7.5-7.5-7.5s-7.5 3.358-7.5 7.5z"/><path d="m292.099 263.196v40c0 4.143 3.357 7.5 7.5 7.5s7.5-3.357 7.5-7.5v-40c0-4.143-3.357-7.5-7.5-7.5s-7.5 3.358-7.5 7.5z"/><path d="m432.099 275.246v15.901c0 4.143 3.357 7.5 7.5 7.5s7.5-3.357 7.5-7.5v-15.901c0-4.143-3.357-7.5-7.5-7.5s-7.5 3.358-7.5 7.5z"/><path d="m327.099 268.196v30c0 4.143 3.357 7.5 7.5 7.5s7.5-3.357 7.5-7.5v-30c0-4.143-3.357-7.5-7.5-7.5s-7.5 3.358-7.5 7.5z"/><path d="m397.099 263.196v40c0 4.143 3.357 7.5 7.5 7.5s7.5-3.357 7.5-7.5v-40c0-4.143-3.357-7.5-7.5-7.5s-7.5 3.358-7.5 7.5z"/><path d="m362.099 273.196v20c0 4.143 3.357 7.5 7.5 7.5s7.5-3.357 7.5-7.5v-20c0-4.143-3.357-7.5-7.5-7.5s-7.5 3.358-7.5 7.5z"/></g></svg>