<svg id="Layer_1" enable-background="new 0 0 512 512" height="512" viewBox="0 0 512 512" width="512" xmlns="http://www.w3.org/2000/svg"><g><path d="m420.613 252.528c0 90.84-73.65 164.49-164.49 164.49-3.36 0-6.69-.1-10-.3-86.19-5.17-154.49-76.71-154.49-164.19 0-87.49 68.3-159.03 154.49-164.19 3.31-.2 6.64-.3 10-.3 90.84 0 164.49 73.64 164.49 164.49z" fill="#d9f0f4"/><path d="m420.613 252.528c0 90.84-73.65 164.49-164.49 164.49-3.36 0-6.69-.1-10-.3 86.19-5.17 154.49-76.71 154.49-164.19 0-87.49-68.3-159.02-154.49-164.19 3.31-.2 6.64-.3 10-.3 90.84 0 164.49 73.64 164.49 164.49z" fill="#bae1e5"/><g><g><path d="m286.22 479.661c0 13.71-11.09 24.83-24.779 24.83h-228.921c-13.69 0-24.779-11.12-24.779-24.83 0-13.72 11.09-24.84 24.779-24.84h6.64l19.11-26.399 19.1 26.399h184.07c13.69 0 24.78 11.12 24.78 24.84z" fill="#9090fb"/><path d="m286.22 479.661c0 13.71-11.09 24.83-24.779 24.83h-20c13.69 0 24.779-11.12 24.779-24.83 0-13.72-11.09-24.84-24.779-24.84h20c13.689 0 24.779 11.12 24.779 24.84z" fill="#6c5fea"/></g><g><path d="m504.5 32.336c0 13.71-11.09 24.83-24.78 24.83h-6.64l-1.21 1.68-17.9 24.73-19.1-26.41h-124.099c-13.69 0-24.78-11.12-24.78-24.83 0-13.72 11.09-24.84 24.78-24.84h168.949c13.689 0 24.78 11.12 24.78 24.84z" fill="#fbdf63"/><g><path d="m504.5 32.336c0 13.71-11.09 24.83-24.78 24.83h-6.64l-1.21 1.68c-2.07-1.98-3.15-3.36-2.51-3.63 8.9-3.77 15.14-12.6 15.14-22.88 0-13.72-11.09-24.84-24.78-24.84h20c13.689 0 24.78 11.12 24.78 24.84z" fill="#ffa402"/></g></g></g><g fill="#ff6b81"><ellipse cx="115.029" cy="167.979" rx="17.508" ry="17.5"/><ellipse cx="256.12" cy="304.456" rx="17.508" ry="17.5"/><ellipse cx="351.337" cy="199.306" rx="17.508" ry="17.5"/></g></g><g><path d="m401.731 329.605c-3.563-2.106-8.164-.924-10.272 2.642-9.151 15.485-20.917 29.288-34.664 40.779-6.168-2.777-12.571-5.277-19.177-7.495 16.003-29.387 25.185-66.291 26.225-105.504h49.169c-.691 14.703-3.415 29.135-8.125 43-1.332 3.922.768 8.182 4.689 9.514.8.271 1.612.4 2.413.4 3.123 0 6.04-1.968 7.101-5.09 6.037-17.772 9.099-36.387 9.099-55.324 0-94.834-77.189-171.987-172.067-171.987-27.433 0-53.654 6.263-77.938 18.614-21.355 10.863-40.487 26.339-55.655 44.973-2.368-.746-4.887-1.148-7.498-1.148-13.79 0-25.009 11.215-25.009 25 0 6.961 2.861 13.267 7.469 17.804-8.919 21.122-13.437 43.544-13.437 66.744 0 94.835 77.189 171.988 172.067 171.988 30.467 0 60.406-8.066 86.58-23.327 25.394-14.807 46.72-36.007 61.673-61.31 2.106-3.565.924-8.165-2.643-10.273zm-78.839 31.536c-18.641-4.884-38.607-7.662-59.272-8.204v-24.63c10.136-3.192 17.508-12.677 17.508-23.851s-7.371-20.659-17.508-23.851v-20.578h85.217c-1.06 37.989-10.157 73.477-25.945 101.114zm-66.772-46.685c-5.519 0-10.009-4.486-10.009-10s4.49-10 10.009-10 10.008 4.486 10.008 10-4.489 10-10.008 10zm-7.5-33.851c-10.137 3.192-17.509 12.677-17.509 23.851s7.372 20.659 17.509 23.851v24.63c-20.666.541-40.631 3.319-59.272 8.203-15.788-27.637-24.885-63.125-25.944-101.114h85.217v20.579zm0 87.337v41.058c-18.536-2.551-36.099-14.526-50.693-34.548 16.03-3.823 33.073-6.024 50.693-6.51zm15 41.058v-41.057c17.62.486 34.663 2.687 50.692 6.51-14.593 20.02-32.156 31.996-50.692 34.547zm0-312.932c18.639 2.628 36.283 14.952 50.65 34.545-16.017 3.817-33.045 6.014-50.65 6.499zm-15-.011v41.054c-17.647-.487-34.714-2.693-50.765-6.527 14.333-19.629 31.968-31.926 50.765-34.527zm15 56.06c20.661-.541 40.621-3.318 59.259-8.2 5.808 10.16 10.853 21.692 14.925 34.375-6.899 4.455-11.475 12.21-11.475 21.014 0 12.444 9.142 22.792 21.064 24.689.76 6.926 1.242 13.961 1.442 21.032h-85.215zm87.718 57.189c-5.519 0-10.009-4.486-10.009-10s4.49-10 10.009-10 10.008 4.486 10.008 10-4.49 10-10.008 10zm61.672 35.72h-49.17c-.209-7.808-.744-15.578-1.599-23.225 8.342-4.057 14.104-12.616 14.104-22.496 0-13.469-10.709-24.484-24.062-24.982-3.995-12.57-8.924-24.247-14.662-34.801 6.581-2.21 12.96-4.7 19.105-7.464 32.695 27.322 54.141 67.663 56.284 112.968zm-70.211-123.361c-4.278 1.697-8.666 3.26-13.153 4.686-4.239-6.289-8.807-12.044-13.669-17.199-.939-.995-1.886-1.965-2.842-2.911 10.479 4.095 20.414 9.283 29.664 15.424zm-157.816-9.142c4.699-2.391 9.479-4.531 14.332-6.42-5.963 5.859-11.559 12.64-16.703 20.254-4.514-1.434-8.928-3.007-13.231-4.716 5.026-3.34 10.237-6.389 15.602-9.118zm-69.954 45.456c5.519 0 10.008 4.486 10.008 10s-4.489 10-10.008 10-10.009-4.486-10.009-10 4.491-10 10.009-10zm0 35c13.789 0 25.008-11.215 25.008-25 0-5.725-1.935-11.006-5.185-15.226 6.207-7.519 13.124-14.463 20.61-20.718 6.164 2.774 12.562 5.272 19.163 7.489-7.313 13.428-13.38 28.814-17.867 45.806-1.057 4.005 1.333 8.108 5.338 9.166.642.169 1.285.25 1.919.25 3.322 0 6.358-2.225 7.247-5.588 4.5-17.044 10.642-32.28 18.023-45.262 18.66 4.894 38.647 7.678 59.336 8.22v92.91h-85.215c.22-7.795.783-15.552 1.683-23.146.486-4.113-2.453-7.843-6.566-8.33-4.106-.481-7.842 2.453-8.33 6.566-.968 8.174-1.567 16.524-1.792 24.909h-49.175c.843-18.143 4.751-35.71 11.658-52.391 1.349.227 2.733.345 4.145.345zm-15.799 67.047h49.168c1.04 39.212 10.222 76.116 26.224 105.504-6.582 2.21-12.962 4.7-19.109 7.465-32.693-27.322-54.14-67.663-56.283-112.969zm70.212 123.363c4.279-1.697 8.667-3.26 13.155-4.687 5.104 7.588 10.601 14.295 16.421 20.075-10.447-4.089-20.353-9.265-29.576-15.388zm165.703 4.84c-7.047 4.109-14.394 7.646-21.965 10.591 5.836-5.79 11.348-12.512 16.465-20.119 4.513 1.435 8.926 3.007 13.227 4.716-2.527 1.677-5.103 3.282-7.727 4.812z"/><path d="m261.333 447.329h-48.186c-4.143 0-7.5 3.357-7.5 7.5s3.357 7.5 7.5 7.5h48.186c9.529 0 17.281 7.777 17.281 17.336s-7.752 17.335-17.281 17.335h-229.053c-9.528 0-17.28-7.776-17.28-17.335s7.752-17.336 17.28-17.336h6.636c2.405 0 4.665-1.154 6.076-3.103l13.033-18.01 13.033 18.01c1.411 1.948 3.671 3.103 6.076 3.103h101.332c4.143 0 7.5-3.357 7.5-7.5s-3.357-7.5-7.5-7.5h-97.501l-16.863-23.302c-1.411-1.948-3.671-3.103-6.076-3.103s-4.665 1.154-6.076 3.103l-16.863 23.302h-2.807c-17.8 0-32.28 14.506-32.28 32.336 0 17.829 14.48 32.335 32.28 32.335h229.053c17.8 0 32.281-14.506 32.281-32.335 0-17.83-14.481-32.336-32.281-32.336z"/><path d="m479.719 0h-169.053c-17.8 0-32.281 14.506-32.281 32.336 0 17.829 14.481 32.335 32.281 32.335h28.214c4.143 0 7.5-3.357 7.5-7.5s-3.357-7.5-7.5-7.5h-28.214c-9.529 0-17.281-7.776-17.281-17.335s7.752-17.336 17.281-17.336h169.053c9.529 0 17.281 7.777 17.281 17.336s-7.752 17.335-17.281 17.335h-6.636c-2.405 0-4.665 1.154-6.076 3.103l-13.033 18.01-13.033-18.01c-1.411-1.948-3.671-3.103-6.076-3.103h-61.304c-4.143 0-7.5 3.357-7.5 7.5s3.357 7.5 7.5 7.5h57.474l16.863 23.302c1.411 1.948 3.671 3.103 6.076 3.103s4.665-1.154 6.076-3.103l16.863-23.302h2.806c17.8 0 32.281-14.506 32.281-32.335 0-17.83-14.481-32.336-32.281-32.336z"/><path d="m464.317 422.213h-72.176c-4.143 0-7.5 3.357-7.5 7.5s3.357 7.5 7.5 7.5h72.176c4.143 0 7.5-3.357 7.5-7.5s-3.357-7.5-7.5-7.5z"/><path d="m464.317 457.213h-32.125c-4.143 0-7.5 3.357-7.5 7.5s3.357 7.5 7.5 7.5h32.125c4.143 0 7.5-3.357 7.5-7.5s-3.357-7.5-7.5-7.5z"/><path d="m48.367 90h68.425c4.143 0 7.5-3.357 7.5-7.5s-3.357-7.5-7.5-7.5h-68.425c-4.143 0-7.5 3.357-7.5 7.5s3.358 7.5 7.5 7.5z"/><path d="m48.367 55h32.125c4.143 0 7.5-3.357 7.5-7.5s-3.357-7.5-7.5-7.5h-32.125c-4.143 0-7.5 3.357-7.5 7.5s3.358 7.5 7.5 7.5z"/></g></svg>