<svg id="Layer_1" enable-background="new 0 0 512 512" height="512" viewBox="0 0 512 512" width="512" xmlns="http://www.w3.org/2000/svg"><g><g><path d="m420.682 252.527c0 90.84-73.65 164.49-164.49 164.49-3.36 0-6.69-.1-10-.3-86.19-5.17-154.49-76.71-154.49-164.19 0-87.49 68.3-159.03 154.49-164.19 3.31-.2 6.64-.3 10-.3 90.84 0 164.49 73.639 164.49 164.49z" fill="#d9f0f4"/><path d="m420.682 252.527c0 90.84-73.65 164.49-164.49 164.49-3.36 0-6.69-.1-10-.3 86.19-5.17 154.49-76.71 154.49-164.19 0-87.49-68.3-159.02-154.49-164.19 3.31-.2 6.64-.3 10-.3 90.84 0 164.49 73.639 164.49 164.49z" fill="#bae1e5"/><g fill="#ff6b81"><ellipse cx="115.098" cy="167.977" rx="17.508" ry="17.5"/><ellipse cx="256.189" cy="304.454" rx="17.508" ry="17.5"/><ellipse cx="351.407" cy="199.304" rx="17.508" ry="17.5"/></g></g><g><path d="m103.657 55.579c0 16.05-7.86 30.26-19.95 38.99-7.91 5.72-17.63 9.09-28.13 9.09-3.42 0-6.76-.36-9.98-1.05-6.67-1.4-12.82-4.18-18.15-8.04-12.09-8.73-19.95-22.94-19.95-38.99 0-23.12 16.33-42.44 38.08-47.03 3.22-.69 6.57-1.05 10-1.05 26.55 0 48.08 21.53 48.08 48.08z" fill="#d9f0f4"/><path d="m103.657 55.579c0 16.05-7.86 30.26-19.95 38.99-7.91 5.72-17.63 9.09-28.13 9.09-3.42 0-6.76-.36-9.98-1.05 21.75-4.61 38.06-23.92 38.06-47.03 0-23.13-16.32-42.44-38.08-47.03 3.22-.69 6.57-1.05 10-1.05 26.55 0 48.08 21.53 48.08 48.08z" fill="#bae1e5"/><path d="m83.707 94.569c-7.91 5.72-17.63 9.09-28.13 9.09-3.42 0-6.76-.36-9.98-1.05-6.67-1.4-12.82-4.18-18.15-8.04 0-15.54 12.59-27.65 28.13-27.65 9.24 0 17.44 4.29 22.57 11.03 3.49 4.59 5.56 10.32 5.56 16.62z" fill="#ff6b81"/><path d="m83.707 94.569c-7.91 5.72-17.63 9.09-28.13 9.09-3.42 0-6.76-.36-9.98-1.05 14.15-3 26-12.22 32.55-24.66 3.49 4.59 5.56 10.32 5.56 16.62z" fill="#ed2061"/><circle cx="55.576" cy="51.915" fill="#fdd9b4" r="15"/></g><g><path d="m504.5 55.579c0 16.05-7.86 30.26-19.95 38.99-7.91 5.72-17.63 9.09-28.13 9.09-3.42 0-6.76-.36-9.98-1.05-6.67-1.4-12.82-4.18-18.15-8.04-12.09-8.73-19.95-22.94-19.95-38.99 0-23.12 16.33-42.44 38.08-47.03 3.22-.69 6.57-1.05 10-1.05 26.55 0 48.08 21.53 48.08 48.08z" fill="#d9f0f4"/><path d="m504.5 55.579c0 16.05-7.86 30.26-19.95 38.99-7.91 5.72-17.63 9.09-28.13 9.09-3.42 0-6.76-.36-9.98-1.05 21.75-4.61 38.06-23.92 38.06-47.03 0-23.13-16.32-42.44-38.08-47.03 3.22-.69 6.57-1.05 10-1.05 26.55 0 48.08 21.53 48.08 48.08z" fill="#bae1e5"/><path d="m484.55 94.569c-7.91 5.72-17.63 9.09-28.13 9.09-3.42 0-6.76-.36-9.98-1.05-6.67-1.4-12.82-4.18-18.15-8.04 0-15.54 12.59-27.65 28.13-27.65 9.24 0 17.44 4.29 22.57 11.03 3.49 4.59 5.56 10.32 5.56 16.62z" fill="#09eaa3"/><path d="m484.55 94.569c-7.91 5.72-17.63 9.09-28.13 9.09-3.42 0-6.76-.36-9.98-1.05 14.15-3 26-12.22 32.55-24.66 3.49 4.59 5.56 10.32 5.56 16.62z" fill="#14bb87"/><circle cx="456.419" cy="51.915" fill="#fdd9b4" r="15"/></g><g><path d="m103.657 456.421c0 16.05-7.86 30.26-19.95 38.99-7.91 5.72-17.63 9.09-28.13 9.09-3.42 0-6.76-.36-9.98-1.05-6.67-1.4-12.82-4.18-18.15-8.04-12.09-8.73-19.95-22.94-19.95-38.99 0-23.12 16.33-42.44 38.08-47.03 3.22-.69 6.57-1.05 10-1.05 26.55 0 48.08 21.531 48.08 48.08z" fill="#d9f0f4"/><path d="m103.657 456.421c0 16.05-7.86 30.26-19.95 38.99-7.91 5.72-17.63 9.09-28.13 9.09-3.42 0-6.76-.36-9.98-1.05 21.75-4.61 38.06-23.92 38.06-47.03 0-23.13-16.32-42.44-38.08-47.03 3.22-.69 6.57-1.05 10-1.05 26.55 0 48.08 21.531 48.08 48.08z" fill="#bae1e5"/><path d="m83.707 495.412c-7.91 5.72-17.63 9.09-28.13 9.09-3.42 0-6.76-.36-9.98-1.05-6.67-1.4-12.82-4.18-18.15-8.04 0-15.54 12.59-27.65 28.13-27.65 9.24 0 17.44 4.29 22.57 11.03 3.49 4.59 5.56 10.32 5.56 16.62z" fill="#56788b"/><path d="m83.707 495.412c-7.91 5.72-17.63 9.09-28.13 9.09-3.42 0-6.76-.36-9.98-1.05 14.15-3 26-12.22 32.55-24.66 3.49 4.59 5.56 10.32 5.56 16.62z" fill="#415e6f"/><circle cx="55.576" cy="452.758" fill="#fdd9b4" r="15"/></g><g><path d="m504.5 456.421c0 16.05-7.86 30.26-19.95 38.99-7.91 5.72-17.63 9.09-28.13 9.09-3.42 0-6.76-.36-9.98-1.05-6.67-1.4-12.82-4.18-18.15-8.04-12.09-8.73-19.95-22.94-19.95-38.99 0-23.12 16.33-42.44 38.08-47.03 3.22-.69 6.57-1.05 10-1.05 26.55 0 48.08 21.531 48.08 48.08z" fill="#d9f0f4"/><path d="m504.5 456.421c0 16.05-7.86 30.26-19.95 38.99-7.91 5.72-17.63 9.09-28.13 9.09-3.42 0-6.76-.36-9.98-1.05 21.75-4.61 38.06-23.92 38.06-47.03 0-23.13-16.32-42.44-38.08-47.03 3.22-.69 6.57-1.05 10-1.05 26.55 0 48.08 21.531 48.08 48.08z" fill="#bae1e5"/><path d="m484.55 495.412c-7.91 5.72-17.63 9.09-28.13 9.09-3.42 0-6.76-.36-9.98-1.05-6.67-1.4-12.82-4.18-18.15-8.04 0-15.54 12.59-27.65 28.13-27.65 9.24 0 17.44 4.29 22.57 11.03 3.49 4.59 5.56 10.32 5.56 16.62z" fill="#9090fb"/><path d="m484.55 495.412c-7.91 5.72-17.63 9.09-28.13 9.09-3.42 0-6.76-.36-9.98-1.05 14.15-3 26-12.22 32.55-24.66 3.49 4.59 5.56 10.32 5.56 16.62z" fill="#6c5fea"/><circle cx="456.419" cy="452.758" fill="#fdd9b4" r="15"/></g></g><g><path d="m401.726 329.605c-3.567-2.107-8.166-.923-10.272 2.642-9.152 15.485-20.918 29.288-34.665 40.779-6.168-2.777-12.571-5.277-19.177-7.496 16.003-29.387 25.184-66.291 26.224-105.503h49.169c-.691 14.704-3.415 29.136-8.125 43-1.332 3.922.767 8.182 4.689 9.514.8.271 1.613.4 2.414.4 3.124 0 6.04-1.968 7.101-5.09 6.037-17.771 9.098-36.386 9.098-55.324 0-94.834-77.189-171.987-172.067-171.987-27.432 0-53.654 6.263-77.937 18.614-21.355 10.863-40.487 26.34-55.655 44.973-2.368-.746-4.887-1.148-7.498-1.148-13.79 0-25.009 11.215-25.009 25 0 6.961 2.861 13.267 7.47 17.804-8.919 21.122-13.438 43.544-13.438 66.743 0 94.835 77.189 171.988 172.067 171.988 30.467 0 60.406-8.066 86.58-23.327 25.394-14.807 46.72-36.007 61.673-61.31 2.106-3.564.924-8.164-2.642-10.272zm-78.84 31.535c-18.641-4.884-38.607-7.663-59.272-8.204v-24.63c10.137-3.192 17.508-12.677 17.508-23.851s-7.372-20.659-17.508-23.851v-20.577h85.216c-1.059 37.988-10.156 73.476-25.944 101.113zm-66.772-46.685c-5.519 0-10.008-4.486-10.008-10s4.49-10 10.008-10 10.008 4.486 10.008 10-4.489 10-10.008 10zm-7.5-33.851c-10.137 3.192-17.508 12.677-17.508 23.851s7.372 20.659 17.508 23.851v24.63c-20.665.541-40.631 3.32-59.273 8.204-15.788-27.637-24.885-63.125-25.944-101.114h85.217zm0 87.337v41.059c-18.536-2.551-36.099-14.526-50.693-34.548 16.031-3.824 33.074-6.025 50.693-6.511zm15 41.059v-41.058c17.62.486 34.663 2.687 50.692 6.51-14.593 20.021-32.156 31.996-50.692 34.548zm0-312.932c18.64 2.628 36.284 14.952 50.651 34.545-16.017 3.817-33.046 6.014-50.651 6.499zm-15-.011v41.054c-17.647-.487-34.714-2.693-50.765-6.527 14.333-19.629 31.969-31.926 50.765-34.527zm15 56.06c20.661-.541 40.622-3.318 59.259-8.2 5.808 10.16 10.853 21.692 14.925 34.375-6.899 4.455-11.476 12.211-11.476 21.015 0 12.444 9.142 22.792 21.064 24.689.76 6.925 1.242 13.959 1.442 21.032h-85.215v-92.911zm87.718 57.189c-5.519 0-10.009-4.486-10.009-10s4.49-10 10.009-10 10.008 4.486 10.008 10-4.489 10-10.008 10zm61.672 35.72h-49.169c-.209-7.809-.744-15.579-1.599-23.225 8.342-4.057 14.105-12.616 14.105-22.496 0-13.468-10.709-24.483-24.062-24.982-3.995-12.57-8.924-24.248-14.663-34.802 6.58-2.21 12.959-4.7 19.104-7.464 32.694 27.322 54.141 67.663 56.284 112.969zm-70.211-123.361c-4.278 1.697-8.666 3.26-13.153 4.686-4.239-6.289-8.808-12.045-13.67-17.199-.939-.995-1.886-1.965-2.842-2.911 10.48 4.095 20.415 9.283 29.665 15.424zm-157.815-9.142c4.699-2.39 9.478-4.531 14.331-6.42-5.963 5.859-11.558 12.64-16.702 20.253-4.514-1.434-8.928-3.007-13.231-4.716 5.025-3.339 10.237-6.388 15.602-9.117zm-69.955 45.456c5.519 0 10.008 4.486 10.008 10s-4.49 10-10.008 10c-5.519 0-10.009-4.486-10.009-10s4.49-10 10.009-10zm0 35c13.79 0 25.008-11.215 25.008-25 0-5.725-1.935-11.006-5.185-15.225 6.207-7.519 13.124-14.463 20.61-20.718 6.163 2.774 12.561 5.272 19.163 7.489-7.313 13.428-13.38 28.814-17.866 45.806-1.058 4.005 1.332 8.108 5.337 9.166.642.169 1.286.25 1.919.25 3.322 0 6.359-2.225 7.247-5.588 4.5-17.044 10.643-32.28 18.023-45.262 18.659 4.894 38.646 7.678 59.336 8.22v92.91h-85.215c.22-7.796.784-15.552 1.683-23.146.487-4.113-2.452-7.843-6.566-8.33-4.107-.483-7.842 2.453-8.33 6.566-.968 8.173-1.568 16.522-1.793 24.909h-49.174c.843-18.142 4.752-35.709 11.657-52.392 1.35.227 2.734.345 4.146.345zm-15.798 67.047h49.167c1.04 39.212 10.222 76.117 26.224 105.504-6.582 2.21-12.962 4.701-19.108 7.465-32.694-27.322-54.141-67.663-56.283-112.969zm70.211 123.363c4.279-1.697 8.667-3.26 13.154-4.687 5.104 7.588 10.601 14.295 16.421 20.075-10.446-4.089-20.351-9.265-29.575-15.388zm165.703 4.84c-7.047 4.109-14.394 7.646-21.965 10.591 5.836-5.79 11.348-12.512 16.465-20.119 4.513 1.435 8.926 3.007 13.227 4.716-2.527 1.677-5.103 3.282-7.727 4.812z"/><path d="m55.579 400.843c-30.646 0-55.579 24.932-55.579 55.579 0 30.645 24.933 55.578 55.579 55.578s55.579-24.933 55.579-55.578c-.001-30.647-24.933-55.579-55.579-55.579zm-20.272 90.721c1.788-9.399 10.052-16.305 20.271-16.305s18.483 6.906 20.271 16.305c-5.967 3.456-12.892 5.436-20.27 5.436s-14.304-1.98-20.272-5.436zm12.772-38.805c0-4.136 3.364-7.5 7.5-7.5s7.5 3.364 7.5 7.5-3.364 7.5-7.5 7.5-7.5-3.364-7.5-7.5zm39.984 27.955c-2.932-6.441-7.757-11.792-13.82-15.403 2.421-3.588 3.835-7.908 3.835-12.552 0-12.406-10.093-22.5-22.5-22.5s-22.5 10.094-22.5 22.5c0 4.644 1.414 8.964 3.835 12.552-6.062 3.612-10.888 8.962-13.82 15.403-5.08-6.777-8.093-15.189-8.093-24.292 0-22.375 18.204-40.579 40.579-40.579s40.579 18.204 40.579 40.579c-.001 9.103-3.014 17.515-8.095 24.292z"/><path d="m456.421 400.843c-30.646 0-55.579 24.933-55.579 55.579s24.933 55.578 55.579 55.578 55.579-24.933 55.579-55.578c0-30.647-24.933-55.579-55.579-55.579zm-20.271 90.721c1.788-9.399 10.052-16.305 20.271-16.305s18.483 6.906 20.271 16.305c-5.967 3.456-12.892 5.436-20.271 5.436s-14.303-1.98-20.271-5.436zm12.771-38.805c0-4.136 3.364-7.5 7.5-7.5s7.5 3.364 7.5 7.5-3.364 7.5-7.5 7.5-7.5-3.364-7.5-7.5zm39.985 27.955c-2.932-6.441-7.757-11.792-13.82-15.403 2.421-3.588 3.835-7.908 3.835-12.552 0-12.406-10.093-22.5-22.5-22.5s-22.5 10.094-22.5 22.5c0 4.644 1.414 8.964 3.835 12.552-6.062 3.612-10.888 8.962-13.82 15.403-5.081-6.777-8.094-15.189-8.094-24.292 0-22.375 18.204-40.579 40.579-40.579s40.579 18.204 40.579 40.579c0 9.103-3.013 17.515-8.094 24.292z"/><path d="m55.579 111.157c30.646 0 55.579-24.933 55.579-55.579-.001-30.645-24.933-55.578-55.579-55.578s-55.579 24.933-55.579 55.578c0 30.647 24.933 55.579 55.579 55.579zm-20.272-20.436c1.788-9.399 10.052-16.305 20.271-16.305s18.483 6.906 20.271 16.305c-5.968 3.456-12.893 5.436-20.271 5.436s-14.303-1.98-20.271-5.436zm12.772-38.805c0-4.136 3.364-7.5 7.5-7.5s7.5 3.364 7.5 7.5-3.364 7.5-7.5 7.5-7.5-3.364-7.5-7.5zm7.5-36.916c22.375 0 40.579 18.203 40.579 40.578 0 9.103-3.013 17.516-8.094 24.293-2.932-6.441-7.757-11.791-13.82-15.403 2.421-3.588 3.835-7.908 3.835-12.552 0-12.406-10.093-22.5-22.5-22.5s-22.5 10.094-22.5 22.5c0 4.644 1.414 8.964 3.835 12.552-6.062 3.612-10.888 8.962-13.82 15.403-5.081-6.777-8.094-15.19-8.094-24.293 0-22.375 18.204-40.578 40.579-40.578z"/><path d="m456.421 111.157c30.646 0 55.579-24.933 55.579-55.579 0-30.645-24.933-55.578-55.579-55.578s-55.579 24.933-55.579 55.578c.001 30.647 24.933 55.579 55.579 55.579zm-20.271-20.436c1.788-9.399 10.052-16.305 20.271-16.305s18.483 6.906 20.271 16.305c-5.968 3.456-12.893 5.436-20.271 5.436s-14.303-1.98-20.271-5.436zm12.771-38.805c0-4.136 3.364-7.5 7.5-7.5s7.5 3.364 7.5 7.5-3.364 7.5-7.5 7.5-7.5-3.364-7.5-7.5zm7.5-36.916c22.375 0 40.579 18.203 40.579 40.578 0 9.103-3.013 17.516-8.094 24.293-2.932-6.441-7.757-11.791-13.82-15.403 2.421-3.588 3.835-7.908 3.835-12.552 0-12.406-10.093-22.5-22.5-22.5s-22.5 10.094-22.5 22.5c0 4.644 1.414 8.964 3.835 12.552-6.062 3.612-10.888 8.962-13.82 15.403-5.081-6.777-8.094-15.19-8.094-24.293.001-22.375 18.204-40.578 40.579-40.578z"/><path d="m53.762 134.86c-4.019-.99-8.087 1.456-9.083 5.477-.98 3.958-23.741 98.379-.091 223.963.679 3.603 3.826 6.114 7.362 6.113.46 0 .928-.042 1.396-.131 4.07-.767 6.749-4.688 5.982-8.758-23.012-122.19-.322-216.644-.09-217.584.995-4.019-1.457-8.084-5.476-9.08z"/><path d="m458.019 370.282c.469.089.936.131 1.396.131 3.536 0 6.684-2.512 7.362-6.113 23.65-125.584.89-220.005-.091-223.963-.995-4.018-5.054-6.471-9.08-5.476-4.02.994-6.473 5.06-5.481 9.079.232.94 22.921 95.394-.09 217.584-.765 4.071 1.914 7.992 5.984 8.758z"/><path d="m364.681 448.881c-122.189 23.013-216.643.321-217.584.089v.001c-4.019-.999-8.084 1.457-9.08 5.477-.996 4.021 1.456 8.088 5.477 9.084 2.614.647 44.697 10.799 109.169 10.799 33.126 0 72.168-2.682 114.794-10.709 4.07-.767 6.749-4.688 5.982-8.758-.766-4.072-4.688-6.752-8.758-5.983z"/><path d="m145.291 56.304c.597 0 1.204-.072 1.809-.222.938-.233 95.178-22.958 217.581.09 4.074.767 7.992-1.912 8.759-5.982s-1.912-7.991-5.982-8.758c-125.585-23.651-220.005-.89-223.963.09-4.021.996-6.473 5.063-5.477 9.084.845 3.415 3.906 5.698 7.273 5.698z"/></g></svg>