<svg id="Layer_1" enable-background="new 0 0 512 512" height="512" viewBox="0 0 512 512" width="512" xmlns="http://www.w3.org/2000/svg"><g><path d="m475.7 74.68v389.82h-370.94c-8.96 0-16.22-7.28-16.22-16.26v-424.48c0-8.98 7.26-16.26 16.22-16.26h303.76z" fill="#d9f0f4"/><path d="m475.7 74.68v389.82h-20v-409.82z" fill="#bae1e5"/><g><path d="m191.941 87.665v105.59c0 9.64-7.81 17.44-17.44 17.44h-30.502l-18.28 26.35-18.28-26.35h-82.497c-9.64 0-17.44-7.8-17.44-17.44v-105.59c0-9.63 7.8-17.44 17.44-17.44h149.559c9.63 0 17.44 7.81 17.44 17.44z" fill="#ff6b81"/><path d="m191.941 87.665v105.59c0 9.64-7.81 17.44-17.44 17.44h-20c9.63 0 17.44-7.8 17.44-17.44v-105.59c0-9.63-7.81-17.44-17.44-17.44h20c9.63 0 17.44 7.81 17.44 17.44z" fill="#ed2061"/><path d="m128.463 116.29c-6.797-6.798-17.826-6.789-24.634.018l-4.109 4.109-4.109-4.109c-6.808-6.808-17.837-6.816-24.634-.018-6.797 6.797-6.789 17.826.018 24.634l28.724 28.724 28.724-28.724c6.81-6.808 6.818-17.837.02-24.634z" fill="#fff"/></g><g><path d="m504.5 416.708c0 48.49-39.33 87.79-87.84 87.79-3.38 0-6.72-.19-10-.57-43.8-4.95-77.84-42.11-77.84-87.22s34.04-82.27 77.84-87.22c3.28-.38 6.62-.57 10-.57 48.51 0 87.84 39.3 87.84 87.79z" fill="#4dd4f7"/><path d="m504.5 416.708c0 48.49-39.33 87.79-87.84 87.79-3.38 0-6.72-.19-10-.57 43.8-4.95 77.84-42.11 77.84-87.22s-34.04-82.27-77.84-87.22c3.28-.38 6.62-.57 10-.57 48.51 0 87.84 39.3 87.84 87.79z" fill="#00c2f3"/></g><path d="m191.941 93.218h170.681v30h-170.681z" fill="#9fccce"/><path d="m191.941 158.218h200.681v30h-200.681z" fill="#9fccce"/><path d="m408.517 7.5v67.18h67.18z" fill="#bae1e5"/></g><g><path d="m309.482 457h-140.973c-4.142 0-7.5 3.357-7.5 7.5s3.358 7.5 7.5 7.5h140.973c4.143 0 7.5-3.357 7.5-7.5s-3.357-7.5-7.5-7.5z"/><path d="m133.555 457h-28.796c-4.805 0-8.714-3.928-8.714-8.756v-207.738c0-4.143-3.358-7.5-7.5-7.5s-7.5 3.357-7.5 7.5v207.738c0 13.099 10.638 23.756 23.714 23.756h28.796c4.142 0 7.5-3.357 7.5-7.5s-3.358-7.5-7.5-7.5z"/><path d="m416.658 321.416c-5.585 0-11.184.487-16.641 1.447-4.079.719-6.804 4.607-6.086 8.688.719 4.079 4.604 6.804 8.688 6.086 4.6-.811 9.323-1.221 14.039-1.221 44.301 0 80.342 36.019 80.342 80.292s-36.041 80.292-80.342 80.292-80.342-36.019-80.342-80.292c0-27.629 13.95-52.982 37.316-67.821 3.497-2.221 4.531-6.854 2.311-10.352-2.22-3.496-6.854-4.531-10.352-2.311-27.724 17.605-44.275 47.692-44.275 80.483 0 52.544 42.771 95.292 95.342 95.292s95.342-42.747 95.342-95.291-42.771-95.292-95.342-95.292z"/><path d="m119.557 241.375c1.401 2.021 3.704 3.226 6.163 3.226s4.761-1.205 6.163-3.226l16.042-23.129h26.577c13.751 0 24.939-11.19 24.939-24.946v-105.636c0-13.756-11.188-24.946-24.939-24.946h-25.104c-4.142 0-7.5 3.357-7.5 7.5s3.358 7.5 7.5 7.5h25.104c5.48 0 9.939 4.462 9.939 9.946v105.636c0 5.484-4.459 9.946-9.939 9.946h-30.502c-2.459 0-4.761 1.205-6.163 3.226l-12.117 17.47-12.117-17.47c-1.401-2.021-3.704-3.226-6.163-3.226h-82.5c-5.48 0-9.939-4.462-9.939-9.946v-105.636c0-5.484 4.459-9.946 9.939-9.946h89.913c4.142 0 7.5-3.357 7.5-7.5s-3.358-7.5-7.5-7.5h-89.914c-13.751 0-24.939 11.19-24.939 24.946v105.636c0 13.756 11.188 24.946 24.939 24.946h78.575z"/><path d="m116.144 103.706c-6.105.005-11.877 2.191-16.424 6.189-4.546-3.998-10.318-6.185-16.423-6.189h-.019c-6.651 0-12.903 2.59-17.604 7.292-9.709 9.713-9.701 25.524.018 35.248l28.724 28.735c1.406 1.407 3.314 2.198 5.304 2.198s3.898-.791 5.304-2.198l28.724-28.735c9.718-9.723 9.727-25.535.018-35.247-4.702-4.704-10.952-7.293-17.604-7.293zm6.996 31.937-23.419 23.429-23.419-23.429c-3.874-3.876-3.882-10.174-.018-14.04 1.867-1.868 4.351-2.896 6.995-2.896h.008c2.65.002 5.144 1.037 7.021 2.916l4.109 4.11c1.407 1.407 3.315 2.197 5.304 2.197 1.99 0 3.898-.791 5.305-2.198l4.108-4.11c1.877-1.878 4.371-2.913 7.021-2.915h.008c2.644 0 5.128 1.029 6.995 2.896 3.863 3.866 3.855 10.164-.018 14.04z"/><path d="m221.501 180.718c-4.142 0-7.5 3.357-7.5 7.5s3.358 7.5 7.5 7.5h171.121c4.143 0 7.5-3.357 7.5-7.5v-30c0-4.143-3.357-7.5-7.5-7.5h-171.121c-4.142 0-7.5 3.357-7.5 7.5s3.358 7.5 7.5 7.5h163.621v15z"/><path d="m221.501 115.718c-4.142 0-7.5 3.357-7.5 7.5s3.358 7.5 7.5 7.5h141.121c4.143 0 7.5-3.357 7.5-7.5v-30c0-4.143-3.357-7.5-7.5-7.5h-141.121c-4.142 0-7.5 3.357-7.5 7.5s3.358 7.5 7.5 7.5h133.621v15z"/><path d="m88.544 49.053c4.142 0 7.5-3.357 7.5-7.5v-17.797c0-4.828 3.909-8.756 8.714-8.756h296.258v59.68c0 4.143 3.357 7.5 7.5 7.5h59.68v41.07c0 4.143 3.357 7.5 7.5 7.5s7.5-3.357 7.5-7.5v-48.57c0-1.989-.79-3.896-2.196-5.304l-67.18-67.18c-1.407-1.406-3.314-2.196-5.303-2.196h-303.759c-13.075 0-23.714 10.657-23.714 23.756v17.797c0 4.142 3.358 7.5 7.5 7.5zm327.473-23.447 41.573 41.574h-41.573z"/><path d="m475.696 150.872c-4.143 0-7.5 3.357-7.5 7.5v156.872c0 4.143 3.357 7.5 7.5 7.5s7.5-3.357 7.5-7.5v-156.872c0-4.143-3.357-7.5-7.5-7.5z"/><path d="m419.961 265.646c0-4.143-3.357-7.5-7.5-7.5h-60.035c-4.143 0-7.5 3.357-7.5 7.5s3.357 7.5 7.5 7.5h60.035c4.143 0 7.5-3.357 7.5-7.5z"/><path d="m144.28 265.646c0 4.143 3.358 7.5 7.5 7.5h171.037c4.143 0 7.5-3.357 7.5-7.5s-3.357-7.5-7.5-7.5h-171.037c-4.142 0-7.5 3.358-7.5 7.5z"/><path d="m382.461 293.146h-158.857c-4.142 0-7.5 3.357-7.5 7.5s3.358 7.5 7.5 7.5h158.856c4.143 0 7.5-3.357 7.5-7.5s-3.356-7.5-7.499-7.5z"/><path d="m151.78 308.146h41.341c4.142 0 7.5-3.357 7.5-7.5s-3.358-7.5-7.5-7.5h-41.341c-4.142 0-7.5 3.357-7.5 7.5s3.358 7.5 7.5 7.5z"/><path d="m311.961 335.646c0-4.143-3.357-7.5-7.5-7.5h-152.681c-4.142 0-7.5 3.357-7.5 7.5s3.358 7.5 7.5 7.5h152.681c4.143 0 7.5-3.357 7.5-7.5z"/><path d="m151.78 363.146c-4.142 0-7.5 3.357-7.5 7.5s3.358 7.5 7.5 7.5h142.681c4.143 0 7.5-3.357 7.5-7.5s-3.357-7.5-7.5-7.5z"/><path d="m291.961 405.646c0-4.143-3.357-7.5-7.5-7.5h-132.681c-4.142 0-7.5 3.357-7.5 7.5s3.358 7.5 7.5 7.5h132.681c4.143 0 7.5-3.357 7.5-7.5z"/><path d="m416.66 379.33c9.047 0 17.779 3.274 24.587 9.22 3.121 2.724 7.858 2.403 10.583-.716 2.725-3.12 2.403-7.858-.716-10.583-9.542-8.332-21.777-12.921-34.454-12.921-28.883 0-52.38 23.497-52.38 52.38s23.497 52.38 52.38 52.38c12.683 0 24.92-4.594 34.458-12.935 3.118-2.727 3.435-7.465.708-10.583-2.726-3.117-7.463-3.436-10.583-.708-6.803 5.949-15.533 9.226-24.583 9.226-20.611 0-37.38-16.769-37.38-37.38s16.769-37.38 37.38-37.38z"/></g></svg>