<svg id="Layer_1" enable-background="new 0 0 512 512" height="512" viewBox="0 0 512 512" width="512" xmlns="http://www.w3.org/2000/svg"><g><path d="m474.61 97.21v304.13h-450.89c-8.96 0-16.22-7.28-16.22-16.25v-287.88c0-8.97 7.26-16.25 16.22-16.25h434.67c8.96 0 16.22 7.28 16.22 16.25z" fill="#ff6b81"/><g><path d="m53.74 80.96v320.38h-30.02c-8.96 0-16.22-7.28-16.22-16.25v-287.88c0-8.97 7.26-16.25 16.22-16.25z" fill="#56788b"/><path d="m474.61 97.21v304.13h-46.24v-320.38h30.02c8.96 0 16.22 7.28 16.22 16.25z" fill="#56788b"/><path d="m474.61 97.21v304.13h-20v-304.13c0-8.97-7.26-16.25-16.22-16.25h20c8.96 0 16.22 7.28 16.22 16.25z" fill="#415e6f"/></g><g><path d="m504.5 416.757c0 48.462-39.34 87.74-87.861 87.74-3.381 0-6.722-.19-10.002-.57-43.811-4.947-77.859-42.086-77.859-87.171s34.048-82.223 77.859-87.171c3.281-.38 6.622-.57 10.002-.57 48.521.002 87.861 39.28 87.861 87.742z" fill="#4dd4f7"/><path d="m504.5 416.757c0 48.462-39.34 87.74-87.861 87.74-3.381 0-6.722-.19-10.002-.57 43.811-4.947 77.859-42.086 77.859-87.171s-34.048-82.223-77.859-87.171c3.281-.38 6.622-.57 10.002-.57 48.521.002 87.861 39.28 87.861 87.742z" fill="#00c2f3"/></g><path d="m224.261 227.697v76.587l63.733-38.294z" fill="#fff"/><ellipse cx="78.863" cy="459.048" fill="#ff6b81" rx="21.334" ry="21.326"/><g><path d="m287.888 24.936v105.59c0 9.64-7.81 17.44-17.44 17.44h-56.524l-18.28 26.35-18.28-26.35h-56.474c-9.64 0-17.44-7.8-17.44-17.44v-105.59c0-9.63 7.8-17.44 17.44-17.44h149.559c9.629 0 17.439 7.811 17.439 17.44z" fill="#fbdf63"/><path d="m287.888 24.936v105.59c0 9.64-7.81 17.44-17.44 17.44h-20c9.63 0 17.44-7.8 17.44-17.44v-105.59c0-9.63-7.81-17.44-17.44-17.44h20c9.63 0 17.44 7.811 17.44 17.44z" fill="#ffa402"/><path d="m224.411 53.562c-6.797-6.798-17.826-6.789-24.634.018l-4.109 4.109-4.109-4.109c-6.808-6.808-17.837-6.816-24.634-.018-6.797 6.797-6.789 17.826.018 24.634l28.724 28.724 28.724-28.724c6.809-6.808 6.817-17.837.02-24.634z" fill="#ff6b81"/></g></g><g><path d="m416.637 321.516c-5.585 0-11.184.486-16.643 1.446-4.079.717-6.805 4.605-6.088 8.686s4.6 6.806 8.686 6.088c4.604-.81 9.329-1.22 14.045-1.22 44.313 0 80.363 35.996 80.363 80.242s-36.051 80.242-80.363 80.242-80.363-35.996-80.363-80.242c0-27.611 13.953-52.948 37.325-67.778 3.497-2.22 4.533-6.854 2.314-10.352-2.22-3.496-6.854-4.531-10.352-2.314-27.731 17.597-44.288 47.67-44.288 80.444 0 52.517 42.779 95.242 95.363 95.242s95.364-42.726 95.364-95.242-42.779-95.242-95.363-95.242z"/><path d="m120.847 155.448h52.59l16.047 23.116c1.401 2.02 3.703 3.224 6.161 3.224s4.76-1.204 6.161-3.224l16.047-23.116h52.593c13.754 0 24.943-11.187 24.943-24.937v-105.574c0-13.75-11.19-24.937-24.944-24.937h-25.111c-4.143 0-7.5 3.357-7.5 7.5s3.357 7.5 7.5 7.5h25.111c5.482 0 9.943 4.457 9.943 9.937v105.575c0 5.479-4.461 9.937-9.943 9.937h-56.517c-2.458 0-4.76 1.204-6.161 3.224l-12.123 17.464-12.123-17.464c-1.401-2.02-3.703-3.224-6.161-3.224h-56.514c-5.483 0-9.944-4.457-9.944-9.937v-105.575c0-5.479 4.461-9.937 9.944-9.937h89.935c4.143 0 7.5-3.357 7.5-7.5s-3.357-7.5-7.5-7.5h-89.935c-13.754 0-24.944 11.187-24.944 24.937v105.575c0 13.75 11.191 24.936 24.945 24.936z"/><path d="m195.646 47.152c-9.782-8.587-24.729-8.221-34.051 1.1-4.707 4.705-7.297 10.963-7.292 17.621.005 6.653 2.602 12.91 7.31 17.617l28.73 28.72c1.465 1.464 3.384 2.195 5.303 2.195s3.838-.731 5.303-2.195l28.729-28.72c4.709-4.707 7.306-10.964 7.311-17.617.005-6.658-2.585-12.916-7.292-17.621-9.323-9.32-24.269-9.685-34.051-1.1zm23.446 11.708s0 .001 0 0c1.87 1.869 2.898 4.355 2.896 7.001-.002 2.65-1.037 5.144-2.915 7.02l-23.428 23.42-23.429-23.42c-1.877-1.876-2.912-4.369-2.914-7.02-.002-2.646 1.026-5.132 2.896-7.001 1.929-1.928 4.464-2.892 7.001-2.892 2.545 0 5.093.97 7.033 2.909l4.109 4.108c2.93 2.928 7.676 2.928 10.605 0l4.108-4.107c3.879-3.87 10.174-3.88 14.038-.018z"/><path d=""/><path d="m416.64 379.405c9.051 0 17.785 3.272 24.596 9.215 3.122 2.723 7.857 2.401 10.582-.721 2.723-3.121 2.4-7.858-.721-10.582-9.543-8.326-21.78-12.912-34.457-12.912-28.889 0-52.392 23.486-52.392 52.354s23.503 52.354 52.392 52.354c12.685 0 24.923-4.591 34.462-12.927 3.119-2.726 3.438-7.464.712-10.583-2.727-3.117-7.464-3.436-10.583-.712-6.805 5.946-15.538 9.222-24.591 9.222-20.618 0-37.392-16.757-37.392-37.354s16.773-37.354 37.392-37.354z"/><path d="m474.613 162.369c-4.143 0-7.5 3.357-7.5 7.5v147.259c0 4.143 3.357 7.5 7.5 7.5s7.5-3.357 7.5-7.5v-147.259c0-4.142-3.357-7.5-7.5-7.5z"/><path d="m23.725 408.836h275.817c4.143 0 7.5-3.357 7.5-7.5s-3.357-7.5-7.5-7.5h-238.3v-41.247c0-4.143-3.357-7.5-7.5-7.5s-7.5 3.357-7.5 7.5v41.247h-22.517c-4.811 0-8.725-3.924-8.725-8.746v-287.882c0-4.822 3.914-8.746 8.725-8.746h22.518v229.454c0 4.143 3.357 7.5 7.5 7.5s7.5-3.357 7.5-7.5v-229.454h12.505c4.143 0 7.5-3.357 7.5-7.5s-3.357-7.5-7.5-7.5h-50.023c-13.082 0-23.725 10.652-23.725 23.746v287.882c0 13.094 10.643 23.746 23.725 23.746z"/><path d="m291.855 259.562-63.732-38.293c-2.316-1.392-5.203-1.43-7.556-.099s-3.807 3.824-3.807 6.527v76.586c0 2.703 1.454 5.196 3.807 6.527 1.146.649 2.421.973 3.693.973 1.338 0 2.675-.357 3.862-1.071l63.732-38.293c2.257-1.355 3.638-3.796 3.638-6.429s-1.38-5.073-3.637-6.428zm-60.094 31.465v-50.074l41.67 25.037z"/><path d="m420.871 299.633c0 4.143 3.357 7.5 7.5 7.5s7.5-3.357 7.5-7.5v-211.171h22.519c4.811 0 8.724 3.924 8.724 8.746v38.252c0 4.143 3.357 7.5 7.5 7.5s7.5-3.357 7.5-7.5v-38.252c0-13.094-10.643-23.746-23.724-23.746h-140.51c-4.143 0-7.5 3.357-7.5 7.5s3.357 7.5 7.5 7.5h102.991z"/><path d="m307.208 451.548h-200.502c-3.312-12.264-14.542-21.314-27.848-21.314s-24.536 9.051-27.848 21.314h-43.51c-4.143 0-7.5 3.357-7.5 7.5s3.357 7.5 7.5 7.5h43.51c3.312 12.263 14.542 21.313 27.848 21.313s24.536-9.05 27.848-21.313h200.502c4.143 0 7.5-3.357 7.5-7.5s-3.357-7.5-7.5-7.5zm-228.35 21.313c-7.631 0-13.839-6.196-13.839-13.813s6.208-13.814 13.839-13.814 13.839 6.197 13.839 13.814-6.208 13.813-13.839 13.813z"/></g></svg>