<svg id="Layer_1" enable-background="new 0 0 512 512" height="512" viewBox="0 0 512 512" width="512" xmlns="http://www.w3.org/2000/svg"><g><g><g><path d="m103.657 55.578c0 16.05-7.86 30.26-19.95 38.99-7.91 5.72-17.63 9.09-28.13 9.09-3.42 0-6.76-.36-9.98-1.05-6.67-1.4-12.82-4.18-18.15-8.04-12.09-8.73-19.95-22.94-19.95-38.99 0-23.12 16.33-42.44 38.08-47.03 3.22-.69 6.57-1.05 10-1.05 26.55 0 48.08 21.53 48.08 48.08z" fill="#d9f0f4"/><path d="m103.657 55.578c0 16.05-7.86 30.26-19.95 38.99-7.91 5.72-17.63 9.09-28.13 9.09-3.42 0-6.76-.36-9.98-1.05 21.75-4.61 38.06-23.92 38.06-47.03 0-23.13-16.32-42.44-38.08-47.03 3.22-.69 6.57-1.05 10-1.05 26.55 0 48.08 21.53 48.08 48.08z" fill="#bae1e5"/><path d="m83.707 94.568c-7.91 5.72-17.63 9.09-28.13 9.09-3.42 0-6.76-.36-9.98-1.05-6.67-1.4-12.82-4.18-18.15-8.04 0-15.54 12.59-27.65 28.13-27.65 9.24 0 17.44 4.29 22.57 11.03 3.49 4.59 5.56 10.32 5.56 16.62z" fill="#ff6b81"/><path d="m83.707 94.568c-7.91 5.72-17.63 9.09-28.13 9.09-3.42 0-6.76-.36-9.98-1.05 14.15-3 26-12.22 32.55-24.66 3.49 4.59 5.56 10.32 5.56 16.62z" fill="#ed2061"/><circle cx="55.576" cy="51.915" fill="#fdd9b4" r="15"/></g><g><path d="m304.14 55.578c0 16.05-7.86 30.26-19.95 38.99-7.91 5.72-17.63 9.09-28.13 9.09-3.42 0-6.76-.36-9.98-1.05-6.67-1.4-12.82-4.18-18.15-8.04-12.09-8.73-19.95-22.94-19.95-38.99 0-23.12 16.33-42.44 38.08-47.03 3.22-.69 6.57-1.05 10-1.05 26.55 0 48.08 21.53 48.08 48.08z" fill="#d9f0f4"/><path d="m304.14 55.578c0 16.05-7.86 30.26-19.95 38.99-7.91 5.72-17.63 9.09-28.13 9.09-3.42 0-6.76-.36-9.98-1.05 21.75-4.61 38.06-23.92 38.06-47.03 0-23.13-16.32-42.44-38.08-47.03 3.22-.69 6.57-1.05 10-1.05 26.55 0 48.08 21.53 48.08 48.08z" fill="#bae1e5"/><path d="m284.19 94.568c-7.91 5.72-17.63 9.09-28.13 9.09-3.42 0-6.76-.36-9.98-1.05-6.67-1.4-12.82-4.18-18.15-8.04 0-15.54 12.59-27.65 28.13-27.65 9.24 0 17.44 4.29 22.57 11.03 3.49 4.59 5.56 10.32 5.56 16.62z" fill="#4dd4f7"/><path d="m284.19 94.568c-7.91 5.72-17.63 9.09-28.13 9.09-3.42 0-6.76-.36-9.98-1.05 14.15-3 26-12.22 32.55-24.66 3.49 4.59 5.56 10.32 5.56 16.62z" fill="#00c2f3"/><circle cx="256.059" cy="51.915" fill="#fdd9b4" r="15"/></g><g><path d="m504.5 55.578c0 16.05-7.86 30.26-19.95 38.99-7.91 5.72-17.63 9.09-28.13 9.09-3.42 0-6.76-.36-9.98-1.05-6.67-1.4-12.82-4.18-18.15-8.04-12.09-8.73-19.95-22.94-19.95-38.99 0-23.12 16.33-42.44 38.08-47.03 3.22-.69 6.57-1.05 10-1.05 26.55 0 48.08 21.53 48.08 48.08z" fill="#d9f0f4"/><path d="m504.5 55.578c0 16.05-7.86 30.26-19.95 38.99-7.91 5.72-17.63 9.09-28.13 9.09-3.42 0-6.76-.36-9.98-1.05 21.75-4.61 38.06-23.92 38.06-47.03 0-23.13-16.32-42.44-38.08-47.03 3.22-.69 6.57-1.05 10-1.05 26.55 0 48.08 21.53 48.08 48.08z" fill="#bae1e5"/><path d="m484.55 94.568c-7.91 5.72-17.63 9.09-28.13 9.09-3.42 0-6.76-.36-9.98-1.05-6.67-1.4-12.82-4.18-18.15-8.04 0-15.54 12.59-27.65 28.13-27.65 9.24 0 17.44 4.29 22.57 11.03 3.49 4.59 5.56 10.32 5.56 16.62z" fill="#09eaa3"/><path d="m484.55 94.568c-7.91 5.72-17.63 9.09-28.13 9.09-3.42 0-6.76-.36-9.98-1.05 14.15-3 26-12.22 32.55-24.66 3.49 4.59 5.56 10.32 5.56 16.62z" fill="#14bb87"/><circle cx="456.419" cy="51.915" fill="#fdd9b4" r="15"/></g><g><path d="m304.328 456.421c0 16.05-7.86 30.26-19.95 38.99-7.91 5.72-17.63 9.09-28.13 9.09-3.42 0-6.76-.36-9.98-1.05-6.67-1.4-12.82-4.18-18.15-8.04-12.09-8.73-19.95-22.94-19.95-38.99 0-23.12 16.33-42.44 38.08-47.03 3.22-.69 6.57-1.05 10-1.05 26.55 0 48.08 21.53 48.08 48.08z" fill="#d9f0f4"/><path d="m304.328 456.421c0 16.05-7.86 30.26-19.95 38.99-7.91 5.72-17.63 9.09-28.13 9.09-3.42 0-6.76-.36-9.98-1.05 21.75-4.61 38.06-23.92 38.06-47.03 0-23.13-16.32-42.44-38.08-47.03 3.22-.69 6.57-1.05 10-1.05 26.55 0 48.08 21.53 48.08 48.08z" fill="#bae1e5"/><path d="m284.378 495.411c-7.91 5.72-17.63 9.09-28.13 9.09-3.42 0-6.76-.36-9.98-1.05-6.67-1.4-12.82-4.18-18.15-8.04 0-15.54 12.59-27.65 28.13-27.65 9.24 0 17.44 4.29 22.57 11.03 3.49 4.59 5.56 10.32 5.56 16.62z" fill="#09eaa3"/><path d="m284.378 495.411c-7.91 5.72-17.63 9.09-28.13 9.09-3.42 0-6.76-.36-9.98-1.05 14.15-3 26-12.22 32.55-24.66 3.49 4.59 5.56 10.32 5.56 16.62z" fill="#14bb87"/><circle cx="256.246" cy="452.758" fill="#fdd9b4" r="15"/></g><g><path d="m103.657 456.421c0 16.05-7.86 30.26-19.95 38.99-7.91 5.72-17.63 9.09-28.13 9.09-3.42 0-6.76-.36-9.98-1.05-6.67-1.4-12.82-4.18-18.15-8.04-12.09-8.73-19.95-22.94-19.95-38.99 0-23.12 16.33-42.44 38.08-47.03 3.22-.69 6.57-1.05 10-1.05 26.55 0 48.08 21.53 48.08 48.08z" fill="#d9f0f4"/><path d="m103.657 456.421c0 16.05-7.86 30.26-19.95 38.99-7.91 5.72-17.63 9.09-28.13 9.09-3.42 0-6.76-.36-9.98-1.05 21.75-4.61 38.06-23.92 38.06-47.03 0-23.13-16.32-42.44-38.08-47.03 3.22-.69 6.57-1.05 10-1.05 26.55 0 48.08 21.53 48.08 48.08z" fill="#bae1e5"/><path d="m83.707 495.411c-7.91 5.72-17.63 9.09-28.13 9.09-3.42 0-6.76-.36-9.98-1.05-6.67-1.4-12.82-4.18-18.15-8.04 0-15.54 12.59-27.65 28.13-27.65 9.24 0 17.44 4.29 22.57 11.03 3.49 4.59 5.56 10.32 5.56 16.62z" fill="#56788b"/><path d="m83.707 495.411c-7.91 5.72-17.63 9.09-28.13 9.09-3.42 0-6.76-.36-9.98-1.05 14.15-3 26-12.22 32.55-24.66 3.49 4.59 5.56 10.32 5.56 16.62z" fill="#415e6f"/><circle cx="55.576" cy="452.758" fill="#fdd9b4" r="15"/></g><g><path d="m504.5 256c0 16.05-7.86 30.26-19.95 38.99-7.91 5.72-17.63 9.09-28.13 9.09-3.42 0-6.76-.36-9.98-1.05-6.67-1.4-12.82-4.18-18.15-8.04-12.09-8.73-19.95-22.94-19.95-38.99 0-23.12 16.33-42.44 38.08-47.03 3.22-.69 6.57-1.05 10-1.05 26.55 0 48.08 21.53 48.08 48.08z" fill="#d9f0f4"/><path d="m504.5 256c0 16.05-7.86 30.26-19.95 38.99-7.91 5.72-17.63 9.09-28.13 9.09-3.42 0-6.76-.36-9.98-1.05 21.75-4.61 38.06-23.92 38.06-47.03 0-23.13-16.32-42.44-38.08-47.03 3.22-.69 6.57-1.05 10-1.05 26.55 0 48.08 21.53 48.08 48.08z" fill="#bae1e5"/><path d="m484.55 294.99c-7.91 5.72-17.63 9.09-28.13 9.09-3.42 0-6.76-.36-9.98-1.05-6.67-1.4-12.82-4.18-18.15-8.04 0-15.54 12.59-27.65 28.13-27.65 9.24 0 17.44 4.29 22.57 11.03 3.49 4.59 5.56 10.32 5.56 16.62z" fill="#56788b"/><path d="m484.55 294.99c-7.91 5.72-17.63 9.09-28.13 9.09-3.42 0-6.76-.36-9.98-1.05 14.15-3 26-12.22 32.55-24.66 3.49 4.59 5.56 10.32 5.56 16.62z" fill="#415e6f"/><circle cx="456.419" cy="252.336" fill="#fdd9b4" r="15"/></g><g><path d="m504.5 456.421c0 16.05-7.86 30.26-19.95 38.99-7.91 5.72-17.63 9.09-28.13 9.09-3.42 0-6.76-.36-9.98-1.05-6.67-1.4-12.82-4.18-18.15-8.04-12.09-8.73-19.95-22.94-19.95-38.99 0-23.12 16.33-42.44 38.08-47.03 3.22-.69 6.57-1.05 10-1.05 26.55 0 48.08 21.53 48.08 48.08z" fill="#d9f0f4"/><path d="m504.5 456.421c0 16.05-7.86 30.26-19.95 38.99-7.91 5.72-17.63 9.09-28.13 9.09-3.42 0-6.76-.36-9.98-1.05 21.75-4.61 38.06-23.92 38.06-47.03 0-23.13-16.32-42.44-38.08-47.03 3.22-.69 6.57-1.05 10-1.05 26.55 0 48.08 21.53 48.08 48.08z" fill="#bae1e5"/><path d="m484.55 495.411c-7.91 5.72-17.63 9.09-28.13 9.09-3.42 0-6.76-.36-9.98-1.05-6.67-1.4-12.82-4.18-18.15-8.04 0-15.54 12.59-27.65 28.13-27.65 9.24 0 17.44 4.29 22.57 11.03 3.49 4.59 5.56 10.32 5.56 16.62z" fill="#9090fb"/><path d="m484.55 495.411c-7.91 5.72-17.63 9.09-28.13 9.09-3.42 0-6.76-.36-9.98-1.05 14.15-3 26-12.22 32.55-24.66 3.49 4.59 5.56 10.32 5.56 16.62z" fill="#6c5fea"/><circle cx="456.419" cy="452.758" fill="#fdd9b4" r="15"/></g><g><path d="m103.782 256c0 16.05-7.86 30.26-19.95 38.99-7.91 5.72-17.63 9.09-28.13 9.09-3.42 0-6.76-.36-9.98-1.05-6.67-1.4-12.82-4.18-18.15-8.04-12.09-8.73-19.95-22.94-19.95-38.99 0-23.12 16.33-42.44 38.08-47.03 3.22-.69 6.57-1.05 10-1.05 26.55 0 48.08 21.53 48.08 48.08z" fill="#d9f0f4"/><path d="m103.782 256c0 16.05-7.86 30.26-19.95 38.99-7.91 5.72-17.63 9.09-28.13 9.09-3.42 0-6.76-.36-9.98-1.05 21.75-4.61 38.06-23.92 38.06-47.03 0-23.13-16.32-42.44-38.08-47.03 3.22-.69 6.57-1.05 10-1.05 26.55 0 48.08 21.53 48.08 48.08z" fill="#bae1e5"/><path d="m83.832 294.99c-7.91 5.72-17.63 9.09-28.13 9.09-3.42 0-6.76-.36-9.98-1.05-6.67-1.4-12.82-4.18-18.15-8.04 0-15.54 12.59-27.65 28.13-27.65 9.24 0 17.44 4.29 22.57 11.03 3.49 4.59 5.56 10.32 5.56 16.62z" fill="#9090fb"/><path d="m83.832 294.99c-7.91 5.72-17.63 9.09-28.13 9.09-3.42 0-6.76-.36-9.98-1.05 14.15-3 26-12.22 32.55-24.66 3.49 4.59 5.56 10.32 5.56 16.62z" fill="#6c5fea"/><circle cx="55.701" cy="252.336" fill="#fdd9b4" r="15"/></g></g><path d="m256.09 156.48h-.01c-3.38 0-6.72.21-9.99.63-39.16 4.91-69.45 38.36-69.45 78.87 0 61.14 54.81 104.76 73.38 117.79 3.57 2.5 5.8 3.87 6.05 4.02v.02s0-.01.01-.01.01.01.01.01v-.02c1.54-.94 79.43-48.92 79.43-121.81 0-43.901-35.56-79.49-79.43-79.5zm-37.84 79.38c0-21.02 17.02-38.06 38.03-38.06s38.03 17.04 38.03 38.06c0 21.01-17.02 38.05-38.03 38.05s-38.03-17.04-38.03-38.05z" fill="#ff6b81"/><path d="m335.52 235.98c0 72.89-77.89 120.87-79.43 121.81v.02s0-.01-.01-.01-.01.01-.01.01v-.02c-.25-.15-2.48-1.52-6.05-4.02 22.79-19.66 65.5-63.82 65.5-117.79 0-40.51-30.28-73.95-69.43-78.87 3.27-.42 6.61-.63 9.99-.63h.01c43.87.01 79.43 35.599 79.43 79.5z" fill="#ed2061"/></g><g><path d="m55.548 111.156c30.629 0 55.547-24.933 55.547-55.578s-24.918-55.578-55.547-55.578-55.548 24.933-55.548 55.578 24.919 55.578 55.548 55.578zm-20.255-20.435c1.786-9.4 10.043-16.306 20.254-16.306s18.467 6.907 20.253 16.307c-5.963 3.455-12.881 5.435-20.253 5.435-7.371-.001-14.29-1.98-20.254-5.436zm12.764-38.806c0-4.136 3.36-7.5 7.491-7.5 4.13 0 7.49 3.364 7.49 7.5s-3.36 7.5-7.49 7.5c-4.131 0-7.491-3.364-7.491-7.5zm7.491-36.915c22.357 0 40.547 18.203 40.547 40.578 0 9.1-3.009 17.509-8.083 24.285-2.93-6.437-7.752-11.785-13.808-15.395 2.42-3.588 3.834-7.908 3.834-12.553 0-12.406-10.089-22.5-22.49-22.5s-22.491 10.094-22.491 22.5c0 4.645 1.414 8.965 3.834 12.553-6.056 3.61-10.878 8.958-13.808 15.396-5.074-6.776-8.083-15.186-8.083-24.286 0-22.375 18.189-40.578 40.548-40.578z"/><path d="m256.093 111.156c30.629 0 55.547-24.933 55.547-55.578s-24.918-55.578-55.547-55.578-55.548 24.933-55.548 55.578 24.919 55.578 55.548 55.578zm-20.255-20.435c1.786-9.4 10.043-16.306 20.254-16.306s18.467 6.907 20.253 16.307c-5.963 3.455-12.881 5.435-20.253 5.435-7.372-.001-14.29-1.98-20.254-5.436zm12.765-38.806c0-4.136 3.36-7.5 7.49-7.5s7.49 3.364 7.49 7.5-3.36 7.5-7.49 7.5-7.49-3.364-7.49-7.5zm7.49-36.915c22.357 0 40.547 18.203 40.547 40.578 0 9.1-3.009 17.509-8.083 24.285-2.93-6.437-7.752-11.785-13.808-15.395 2.42-3.588 3.834-7.908 3.834-12.553 0-12.406-10.089-22.5-22.49-22.5s-22.49 10.094-22.49 22.5c0 4.645 1.414 8.965 3.834 12.553-6.057 3.61-10.879 8.958-13.809 15.396-5.074-6.776-8.083-15.186-8.083-24.285 0-22.376 18.189-40.579 40.548-40.579z"/><path d="m456.265 111.156c30.629 0 55.548-24.933 55.548-55.578s-24.919-55.578-55.548-55.578c-15.924 0-31.104 6.854-41.65 18.805-2.741 3.106-2.445 7.846.66 10.587 3.107 2.739 7.847 2.444 10.586-.661 7.7-8.726 18.782-13.73 30.404-13.73 22.358 0 40.548 18.203 40.548 40.578 0 9.1-3.009 17.51-8.083 24.285-2.93-6.437-7.752-11.785-13.809-15.396 2.42-3.588 3.834-7.908 3.834-12.553 0-12.406-10.089-22.5-22.49-22.5s-22.49 10.094-22.49 22.5c0 4.645 1.414 8.965 3.834 12.553-6.057 3.61-10.878 8.959-13.809 15.396-5.074-6.776-8.083-15.186-8.083-24.286 0-4.143-3.357-7.5-7.5-7.5s-7.5 3.357-7.5 7.5c0 30.646 24.919 55.578 55.548 55.578zm-20.254-20.434c1.786-9.4 10.042-16.307 20.253-16.307s18.468 6.907 20.254 16.306c-5.963 3.455-12.882 5.435-20.254 5.435-7.371 0-14.29-1.979-20.253-5.434zm12.763-38.807c0-4.136 3.36-7.5 7.49-7.5s7.49 3.364 7.49 7.5-3.36 7.5-7.49 7.5-7.49-3.364-7.49-7.5z"/><path d="m135.653 62.664c.171-.058 17.245-5.746 39.161.156.653.176 1.31.26 1.955.26 3.308 0 6.336-2.205 7.237-5.552 1.077-4-1.293-8.115-5.292-9.192-26.612-7.164-47.146-.136-48.008.167-3.896 1.37-5.936 5.626-4.582 9.527 1.354 3.902 5.622 5.97 9.529 4.634z"/><path d="m334.395 63.08c.825 0 1.665-.138 2.488-.427.166-.058 16.959-5.805 39.13.167 4.002 1.075 8.115-1.292 9.192-5.292s-1.293-8.115-5.292-9.192c-26.616-7.165-47.146-.136-48.007.167-3.907 1.374-5.961 5.655-4.587 9.563 1.085 3.084 3.981 5.014 7.076 5.014z"/><path d="m150.146 160.442c1.18.68 2.468 1.003 3.738 1.003 2.594 0 5.116-1.347 6.505-3.756 2.068-3.589.836-8.175-2.753-10.243-19.57-11.279-27.644-27.279-27.803-27.599-1.799-3.717-6.266-5.277-9.994-3.494-3.734 1.792-5.31 6.271-3.519 10.007.396.824 9.946 20.319 33.826 34.082z"/><path d="m392.297 116.354c-3.733-1.792-8.214-.216-10.006 3.52-.076.159-7.891 16.104-27.79 27.573-3.589 2.068-4.821 6.654-2.753 10.243 1.389 2.409 3.911 3.756 6.505 3.756 1.271 0 2.559-.323 3.738-1.003 23.881-13.764 33.43-33.26 33.825-34.083 1.791-3.735.216-8.214-3.519-10.006z"/><path d="m129.832 391.216c.079-.161 8.136-16.266 27.804-27.602 3.589-2.068 4.821-6.654 2.753-10.243-2.069-3.589-6.656-4.821-10.243-2.753-23.88 13.764-33.43 33.259-33.825 34.082-1.786 3.724-.219 8.177 3.497 9.979 1.051.509 2.162.75 3.257.75 2.779 0 5.453-1.553 6.757-4.213z"/><path d="m361.991 350.618c-3.588-2.068-8.175-.836-10.243 2.753s-.836 8.175 2.753 10.243c19.612 11.304 27.679 27.348 27.803 27.6 1.295 2.673 3.97 4.232 6.755 4.232 1.088 0 2.192-.238 3.238-.739 3.735-1.792 5.311-6.271 3.52-10.006-.396-.823-9.945-20.319-33.826-34.083z"/><path d="m55.735 400.843c-30.629 0-55.548 24.933-55.548 55.578.001 30.646 24.919 55.579 55.548 55.579s55.547-24.933 55.547-55.579-24.918-55.578-55.547-55.578zm-20.254 90.722c1.786-9.4 10.043-16.307 20.254-16.307s18.467 6.907 20.253 16.307c-5.962 3.456-12.881 5.435-20.253 5.435s-14.291-1.979-20.254-5.435zm12.763-38.807c0-4.136 3.36-7.5 7.491-7.5 4.13 0 7.49 3.364 7.49 7.5s-3.36 7.5-7.49 7.5c-4.131 0-7.491-3.364-7.491-7.5zm39.956 27.949c-2.93-6.437-7.752-11.785-13.808-15.396 2.42-3.588 3.834-7.909 3.834-12.553 0-12.406-10.089-22.5-22.49-22.5s-22.491 10.094-22.491 22.5c0 4.645 1.414 8.965 3.835 12.553-6.056 3.61-10.878 8.958-13.808 15.396-5.074-6.776-8.083-15.186-8.083-24.286 0-22.375 18.189-40.578 40.548-40.578 22.357 0 40.547 18.203 40.547 40.578-.002 9.1-3.01 17.51-8.084 24.286z"/><path d="m55.735 200.421c-4.143 0-7.5 3.357-7.5 7.5s3.357 7.5 7.5 7.5c22.357 0 40.547 18.204 40.547 40.579 0 9.1-3.009 17.509-8.083 24.285-2.93-6.437-7.752-11.785-13.808-15.395 2.42-3.588 3.834-7.908 3.834-12.553 0-12.406-10.089-22.5-22.49-22.5s-22.491 10.094-22.491 22.5c0 4.645 1.414 8.965 3.834 12.553-6.056 3.61-10.878 8.958-13.808 15.396-5.074-6.776-8.082-15.186-8.082-24.286 0-10.84 4.218-21.031 11.877-28.695 2.929-2.93 2.927-7.679-.003-10.606-2.931-2.929-7.68-2.927-10.606.003-10.491 10.496-16.268 24.453-16.268 39.298 0 30.646 24.919 55.578 55.548 55.578s55.547-24.933 55.547-55.578c-.001-30.646-24.919-55.579-55.548-55.579zm-7.491 51.916c0-4.136 3.36-7.5 7.491-7.5 4.13 0 7.49 3.364 7.49 7.5s-3.36 7.5-7.49 7.5c-4.131 0-7.491-3.364-7.491-7.5zm-12.763 38.806c1.786-9.4 10.043-16.306 20.254-16.306s18.467 6.907 20.253 16.307c-5.963 3.455-12.881 5.435-20.253 5.435-7.372-.001-14.291-1.98-20.254-5.436z"/><path d="m512 256c0-30.646-24.919-55.579-55.548-55.579s-55.548 24.933-55.548 55.579 24.919 55.578 55.548 55.578 55.548-24.932 55.548-55.578zm-96.096 0c0-22.375 18.189-40.579 40.548-40.579s40.548 18.204 40.548 40.579c0 9.1-3.009 17.51-8.083 24.285-2.93-6.437-7.752-11.785-13.809-15.396 2.42-3.588 3.834-7.908 3.834-12.553 0-12.406-10.089-22.5-22.49-22.5s-22.49 10.094-22.49 22.5c0 4.645 1.414 8.965 3.834 12.553-6.057 3.61-10.878 8.959-13.809 15.396-5.074-6.775-8.083-15.185-8.083-24.285zm33.058-3.663c0-4.136 3.36-7.5 7.49-7.5s7.49 3.364 7.49 7.5-3.36 7.5-7.49 7.5-7.49-3.364-7.49-7.5zm-12.763 38.807c1.786-9.4 10.042-16.307 20.253-16.307s18.468 6.907 20.254 16.306c-5.963 3.455-12.882 5.435-20.254 5.435s-14.29-1.979-20.253-5.434z"/><path d="m256.28 400.843c-30.629 0-55.548 24.933-55.548 55.578 0 30.646 24.919 55.579 55.548 55.579s55.547-24.933 55.547-55.579-24.918-55.578-55.547-55.578zm-20.254 90.722c1.786-9.4 10.043-16.307 20.254-16.307s18.467 6.907 20.253 16.307c-5.963 3.456-12.881 5.435-20.253 5.435s-14.291-1.979-20.254-5.435zm12.764-38.807c0-4.136 3.36-7.5 7.49-7.5s7.49 3.364 7.49 7.5-3.36 7.5-7.49 7.5-7.49-3.364-7.49-7.5zm39.955 27.949c-2.93-6.437-7.752-11.785-13.808-15.396 2.42-3.588 3.834-7.909 3.834-12.553 0-12.406-10.089-22.5-22.49-22.5s-22.49 10.094-22.49 22.5c0 4.645 1.414 8.965 3.834 12.553-6.057 3.61-10.878 8.959-13.809 15.396-5.074-6.776-8.083-15.186-8.083-24.286 0-22.375 18.189-40.578 40.548-40.578 22.357 0 40.547 18.203 40.547 40.578-.001 9.1-3.01 17.51-8.083 24.286z"/><path d="m456.452 400.843c-2.76 0-5.529.204-8.233.607-4.097.61-6.923 4.427-6.312 8.524.61 4.097 4.421 6.913 8.524 6.312 1.973-.294 3.999-.443 6.021-.443 22.358 0 40.548 18.203 40.548 40.578 0 9.1-3.009 17.51-8.083 24.286-2.93-6.437-7.752-11.786-13.809-15.396 2.42-3.588 3.834-7.908 3.834-12.553 0-12.406-10.089-22.5-22.49-22.5s-22.49 10.094-22.49 22.5c0 4.645 1.414 8.965 3.834 12.553-6.056 3.61-10.878 8.959-13.808 15.396-5.074-6.776-8.083-15.187-8.083-24.287 0-9.328 3.074-18.097 8.891-25.358 2.59-3.232 2.068-7.952-1.165-10.542-3.231-2.59-7.952-2.068-10.542 1.165-7.856 9.808-12.184 22.144-12.184 34.735 0 30.646 24.919 55.579 55.548 55.579s55.547-24.932 55.547-55.578-24.919-55.578-55.548-55.578zm-7.49 51.915c0-4.136 3.36-7.5 7.49-7.5s7.49 3.364 7.49 7.5-3.36 7.5-7.49 7.5-7.49-3.364-7.49-7.5zm-12.763 38.807c1.786-9.4 10.042-16.308 20.253-16.308s18.468 6.907 20.254 16.307c-5.963 3.456-12.882 5.435-20.254 5.435-7.372.001-14.29-1.978-20.253-5.434z"/><path d="m175.003 446.227c-21.807 5.871-38.818.271-39.158.157-3.903-1.354-8.167.698-9.537 4.598-1.374 3.907.68 8.189 4.588 9.563.572.201 9.837 3.375 23.806 3.375 7.042 0 15.281-.807 24.2-3.208 4-1.077 6.37-5.192 5.293-9.191-1.078-4.002-5.198-6.371-9.192-5.294z"/><path d="m376.201 446.227c-21.805 5.871-38.815.272-39.157.158-3.898-1.356-8.167.696-9.537 4.597-1.374 3.907.68 8.188 4.588 9.563.572.201 9.836 3.375 23.806 3.375 7.041 0 15.28-.807 24.199-3.208 4-1.077 6.37-5.192 5.293-9.191-1.079-4.002-5.197-6.371-9.192-5.294z"/><path d="m58.97 327.763c-4.002-1.073-8.114 1.296-9.19 5.296-7.159 26.627-.136 47.168.167 48.029 1.084 3.087 3.98 5.018 7.076 5.018.824 0 1.663-.137 2.484-.426 3.908-1.372 5.965-5.652 4.592-9.561-.059-.168-5.801-16.973.167-39.166 1.075-4-1.296-8.114-5.296-9.19z"/><path d="m58.97 126.435c-4.002-1.073-8.114 1.296-9.19 5.296-7.159 26.627-.136 47.168.167 48.029 1.084 3.087 3.98 5.018 7.076 5.018.824 0 1.663-.137 2.484-.426 3.908-1.372 5.965-5.652 4.592-9.561-.059-.168-5.801-16.973.167-39.166 1.075-4-1.296-8.114-5.296-9.19z"/><path d="m453.968 385.68c.821.289 1.66.426 2.484.426 3.096 0 5.993-1.931 7.076-5.018.303-.861 7.326-21.402.167-48.029-1.075-3.999-5.188-6.368-9.19-5.296-4 1.076-6.371 5.19-5.296 9.19 5.877 21.856.255 38.902.157 39.192-1.353 3.902.702 8.166 4.602 9.535z"/><path d="m453.968 184.352c.821.289 1.66.426 2.484.426 3.096 0 5.993-1.931 7.076-5.018.303-.861 7.326-21.402.167-48.029-1.075-3.999-5.188-6.368-9.19-5.296-4 1.076-6.371 5.19-5.296 9.19 5.877 21.856.255 38.902.157 39.192-1.353 3.902.702 8.165 4.602 9.535z"/><path d="m201.454 292.929c-11.491-18.684-17.317-37.843-17.317-56.945 0-39.7 32.27-71.999 71.94-72.007 19.216.002 37.281 7.491 50.87 21.088 13.592 13.601 21.076 31.684 21.076 50.919 0 35.448-20.361 64.762-37.442 83.111-13.854 14.883-27.889 25.214-34.5 29.733-6.787-4.64-21.388-15.398-35.594-30.918-2.798-3.056-7.541-3.266-10.597-.468-3.055 2.797-3.265 7.541-.468 10.597 19.964 21.81 40.184 34.577 42.574 36.052 1.189.773 2.604 1.214 4.096 1.214 1.576 0 3.061-.492 4.287-1.348 3.113-1.94 21.916-14.029 40.896-34.337 27.312-29.223 41.748-61.602 41.748-93.637.001-23.239-9.044-45.089-25.467-61.521-16.416-16.427-38.241-25.477-61.456-25.485h-.02c-.01-.001-.017-.001-.021 0-47.932.02-86.924 39.043-86.924 87.007 0 21.919 6.574 43.722 19.54 64.803 2.171 3.529 6.791 4.628 10.317 2.46 3.53-2.171 4.632-6.791 2.462-10.318z"/><path d="m256.28 281.413c25.107 0 45.533-20.438 45.533-45.559s-20.426-45.559-45.533-45.559-45.534 20.438-45.534 45.559 20.427 45.559 45.534 45.559zm0-76.117c16.836 0 30.533 13.709 30.533 30.559s-13.697 30.559-30.533 30.559c-16.837 0-30.534-13.709-30.534-30.559s13.697-30.559 30.534-30.559z"/></g></svg>