<svg id="Layer_1" enable-background="new 0 0 512 512" height="512" viewBox="0 0 512 512" width="512" xmlns="http://www.w3.org/2000/svg"><g><g><path d="m376.14 111v240.99c0 11.23-9.11 20.33-20.35 20.33h-199.29c-11.24 0-20.36-9.1-20.36-20.33v-240.99c0-11.23 9.12-20.33 20.36-20.33h199.29c11.24 0 20.35 9.1 20.35 20.33z" fill="#ff6b81"/><path d="m376.14 111v240.99c0 11.23-9.11 20.33-20.35 20.33h-20c11.24 0 20.35-9.1 20.35-20.33v-240.99c0-11.23-9.11-20.33-20.35-20.33h20c11.24 0 20.35 9.1 20.35 20.33z" fill="#ed2061"/><path d="m376.14 111v38.6h-240v-38.6c0-11.23 9.12-20.33 20.36-20.33h199.29c11.24 0 20.35 9.1 20.35 20.33z" fill="#90abbd"/><path d="m376.14 111v38.6h-20v-38.6c0-11.23-9.11-20.33-20.35-20.33h20c11.24 0 20.35 9.1 20.35 20.33z" fill="#56788b"/></g><g><path d="m504.5 90.67v281.65h-73c-11.24 0-20.36-9.1-20.36-20.33v-240.99c0-11.23 9.12-20.33 20.36-20.33z" fill="#fbdf63"/><path d="m484.5 90.67h20v281.65h-20z" fill="#ffa402"/><path d="m504.5 90.67v58.93h-93.36v-38.6c0-11.23 9.12-20.33 20.36-20.33z" fill="#90abbd"/></g><path d="m484.5 90.67h20v58.93h-20z" fill="#56788b"/><g><path d="m101.14 111v240.99c0 11.23-9.11 20.33-20.35 20.33h-73.29v-281.65h73.29c11.24 0 20.35 9.1 20.35 20.33z" fill="#09eaa3"/><path d="m101.144 110.996v240.99c0 11.23-9.11 20.33-20.35 20.33h-20c11.24 0 20.35-9.1 20.35-20.33v-240.99c0-11.23-9.11-20.33-20.35-20.33h20c11.24 0 20.35 9.1 20.35 20.33z" fill="#14bb87"/><path d="m101.14 111v38.6h-93.64v-58.93h73.29c11.24 0 20.35 9.1 20.35 20.33z" fill="#90abbd"/><path d="m101.144 110.996v38.6h-20v-38.6c0-11.23-9.11-20.33-20.35-20.33h20c11.24 0 20.35 9.1 20.35 20.33z" fill="#56788b"/></g><path d="m229.47 201.954v76.45l63.733-38.225z" fill="#fff"/><g><path d="m213.418 504.5c-11 0-20-9-20-20l.01-19.8.03-124.327c0-9.47 7.08-17.22 15.73-17.22s15.73 7.74 15.72 17.21l-.01 48.5c0-9.47 7.08-17.22 15.73-17.22s15.72 7.74 15.72 17.21c0-9.47 7.08-17.22 15.73-17.22s15.72 7.74 15.72 17.21c0-4.73 1.77-9.04 4.62-12.16s6.78-5.06 11.11-5.06c8.65 0 15.73 7.74 15.72 17.21l-.02 75.627v20c0 11-9.01 20.01-20.01 20.01z" fill="#fdd9b4"/><path d="m213.418 504.506c-11 0-20-9-20-20l.01-19.8c.1 10.91 9.06 19.8 19.99 19.8l85.8-.03c11 0 20-9 20.01-20v19.99c0 11-9.01 20.01-20.01 20.01z" fill="#fab684"/></g><path d="m140.2 28.78c0 11.75-9.56 21.27-21.34 21.27-3.62 0-7.02-.9-10-2.48-6.75-3.57-11.34-10.64-11.34-18.79s4.59-15.23 11.34-18.8c2.98-1.58 6.38-2.48 10-2.48 11.78 0 21.34 9.53 21.34 21.28z" fill="#ff6b81"/><path d="m140.2 28.78c0 11.75-9.56 21.27-21.34 21.27-3.62 0-7.02-.9-10-2.48 6.75-3.57 11.34-10.64 11.34-18.79s-4.59-15.22-11.34-18.8c2.98-1.58 6.38-2.48 10-2.48 11.78 0 21.34 9.53 21.34 21.28z" fill="#ed2061"/></g><g><path d="m163.791 364.819h-7.289c-7.09 0-12.858-5.757-12.858-12.833v-130.635c0-4.143-3.358-7.5-7.5-7.5s-7.5 3.357-7.5 7.5v130.636c0 15.348 12.497 27.833 27.858 27.833h7.289c4.142 0 7.5-3.357 7.5-7.5s-3.358-7.501-7.5-7.501z"/><path d="m383.645 351.986v-240.986c0-15.348-12.497-27.834-27.858-27.834h-199.285c-15.361 0-27.858 12.486-27.858 27.834v75.214c0 4.143 3.358 7.5 7.5 7.5s7.5-3.357 7.5-7.5v-29.118h225v194.891c0 7.076-5.768 12.833-12.858 12.833h-10.525c-4.142 0-7.5 3.357-7.5 7.5s3.358 7.5 7.5 7.5h10.525c15.361-.001 27.859-12.486 27.859-27.834zm-15-209.89h-225v-31.096c0-7.077 5.768-12.834 12.858-12.834h199.284c7.09 0 12.858 5.757 12.858 12.834z"/><path d="m196.336 112.619h-30.639c-4.142 0-7.5 3.357-7.5 7.5s3.358 7.5 7.5 7.5h30.639c4.142 0 7.5-3.357 7.5-7.5s-3.357-7.5-7.5-7.5z"/><path d="m256.336 112.619h-30.639c-4.142 0-7.5 3.357-7.5 7.5s3.358 7.5 7.5 7.5h30.639c4.142 0 7.5-3.357 7.5-7.5s-3.357-7.5-7.5-7.5z"/><path d="m80.787 364.819h-73.287c-4.142 0-7.5 3.357-7.5 7.5s3.358 7.5 7.5 7.5h73.287c15.361 0 27.858-12.485 27.858-27.833v-240.986c0-15.348-12.497-27.834-27.858-27.834h-73.287c-4.142 0-7.5 3.357-7.5 7.5s3.358 7.5 7.5 7.5h73.287c7.09 0 12.858 5.757 12.858 12.834v31.096h-86.145c-4.142 0-7.5 3.357-7.5 7.5s3.358 7.5 7.5 7.5h86.145v194.891c0 7.076-5.769 12.832-12.858 12.832z"/><path d="m504.5 364.819h-72.998c-7.09 0-12.858-5.757-12.858-12.833v-50.206c0-4.143-3.358-7.5-7.5-7.5s-7.5 3.357-7.5 7.5v50.206c0 15.348 12.497 27.833 27.858 27.833h72.998c4.142 0 7.5-3.357 7.5-7.5s-3.358-7.5-7.5-7.5z"/><path d="m512 90.666c0-4.143-3.358-7.5-7.5-7.5h-72.998c-15.361 0-27.858 12.486-27.858 27.834v156.242c0 4.143 3.358 7.5 7.5 7.5s7.5-3.357 7.5-7.5v-110.146h85.856c4.142 0 7.5-3.357 7.5-7.5s-3.358-7.5-7.5-7.5h-85.855v-31.096c0-7.077 5.768-12.834 12.858-12.834h72.997c4.142 0 7.5-3.357 7.5-7.5z"/><path d="m440.698 112.619c-4.142 0-7.5 3.357-7.5 7.5s3.358 7.5 7.5 7.5h30.639c4.142 0 7.5-3.357 7.5-7.5s-3.358-7.5-7.5-7.5z"/><path d="m229.47 285.904c1.336 0 2.671-.356 3.858-1.068l63.732-38.226c2.259-1.355 3.642-3.797 3.642-6.432s-1.383-5.076-3.643-6.432l-63.732-38.225c-2.316-1.39-5.202-1.425-7.553-.095-2.351 1.332-3.804 3.824-3.804 6.526v76.45c0 2.702 1.453 5.195 3.804 6.526 1.148.652 2.422.976 3.696.976zm7.5-70.706 41.651 24.98-41.651 24.982z"/><path d="m303.526 364.038c-6.061.002-11.587 2.484-15.728 6.542-4.3-4.223-9.833-6.532-15.718-6.532h-.005c-6.062.001-11.588 2.482-15.729 6.54-4.3-4.222-9.832-6.531-15.716-6.531h-.005c-2.894.001-5.665.566-8.222 1.599l.007-25.319c.001-6.451-2.337-12.561-6.583-17.201-4.416-4.824-10.323-7.481-16.636-7.481h-.005c-12.805.003-23.225 11.078-23.228 24.688l-.036 144.192c-.002 7.318 2.865 14.213 8.074 19.412 5.203 5.194 12.099 8.055 19.418 8.055h.01l85.792-.023c15.166-.004 27.506-12.329 27.509-27.475l.005-36.779c0-4.143-3.357-7.5-7.499-7.501 0 0 0 0-.001 0-4.142 0-7.5 3.357-7.5 7.499l-.005 36.778c-.001 6.879-5.615 12.476-12.513 12.478l-85.792.021h-.005c-3.318 0-6.451-1.304-8.821-3.67-2.369-2.364-3.672-5.487-3.671-8.793l.036-144.192c.001-5.253 3.771-9.69 8.231-9.691h.002c2.052 0 4.031.927 5.57 2.608 1.709 1.867 2.65 4.379 2.649 7.07l-.014 48.411c-.001 4.143 3.356 7.501 7.498 7.502h.002c4.141 0 7.499-3.356 7.5-7.498.001-5.252 3.771-9.689 8.231-9.69h.002c2.051 0 4.029.926 5.568 2.608 1.708 1.867 2.649 4.378 2.648 7.069-.001 4.143 3.356 7.501 7.498 7.502h.002c4.141 0 7.499-3.356 7.5-7.498.001-5.252 3.771-9.689 8.231-9.69h.002c2.052 0 4.03.927 5.569 2.608 1.709 1.868 2.65 4.379 2.649 7.07-.001 4.142 3.356 7.501 7.498 7.502h.002c4.141 0 7.499-3.356 7.5-7.498.001-5.252 3.771-9.69 8.231-9.692 2.053 0 4.031.927 5.571 2.609 1.709 1.868 2.65 4.378 2.65 7.068l-.01 24.263c-.001 4.142 3.355 7.501 7.497 7.503h.003c4.141 0 7.499-3.356 7.5-7.497l.01-24.264c.001-6.45-2.337-12.559-6.584-17.2-4.415-4.826-10.324-7.483-16.639-7.482z"/><path d="m143.353 440.322h-124.105l17.956-17.914c2.933-2.926 2.938-7.675.013-10.606-2.926-2.933-7.674-2.938-10.606-.013l-19.891 19.843c-4.334 4.324-6.72 10.074-6.72 16.191s2.387 11.866 6.721 16.189l19.889 19.843c1.464 1.461 3.38 2.19 5.297 2.19 1.922 0 3.845-.734 5.31-2.203 2.925-2.932 2.92-7.681-.013-10.606l-17.956-17.914h124.105c4.142 0 7.5-3.357 7.5-7.5s-3.358-7.5-7.5-7.5z"/><path d="m485.39 411.789c-2.933-2.927-7.682-2.921-10.606.013-2.925 2.932-2.92 7.681.013 10.606l17.956 17.914h-124.106c-4.142 0-7.5 3.357-7.5 7.5s3.358 7.5 7.5 7.5h124.105l-17.956 17.914c-2.933 2.926-2.938 7.675-.013 10.606 1.465 1.469 3.387 2.203 5.31 2.203 1.917 0 3.833-.73 5.297-2.19l19.889-19.843c4.333-4.323 6.72-10.072 6.721-16.189s-2.386-11.867-6.721-16.191z"/><path d="m7.5 36.276h83.513c3.315 12.242 14.543 21.276 27.845 21.276s24.531-9.034 27.846-21.276h357.796c4.142 0 7.5-3.357 7.5-7.5s-3.358-7.5-7.5-7.5h-357.796c-3.315-12.242-14.543-21.276-27.846-21.276s-24.53 9.034-27.845 21.276h-83.513c-4.142 0-7.5 3.357-7.5 7.5s3.358 7.5 7.5 7.5zm111.358-21.276c7.631 0 13.839 6.18 13.839 13.776s-6.208 13.776-13.839 13.776-13.839-6.18-13.839-13.776 6.208-13.776 13.839-13.776z"/></g></svg>