<svg id="Layer_1" enable-background="new 0 0 512 512" height="512" viewBox="0 0 512 512" width="512" xmlns="http://www.w3.org/2000/svg"><g><g><g><path d="m504.501 107.597v286.56c0 25.4-20.54 46-45.88 46h-405.24c-25.34 0-45.88-20.6-45.88-46v-286.56c0-25.4 20.54-46 45.88-46h405.24c25.34 0 45.88 20.6 45.88 46z" fill="#56788b"/><path d="m504.501 107.597v286.56c0 25.4-20.54 46-45.88 46h-20c25.34 0 45.88-20.6 45.88-46v-286.56c0-25.4-20.54-46-45.88-46h20c25.34 0 45.88 20.6 45.88 46z" fill="#415e6f"/><path d="m474.581 106.357v258.04c0 8.98-7.26 16.26-16.22 16.26h-404.72c-8.96 0-16.22-7.28-16.22-16.26v-258.04c0-8.98 7.26-16.26 16.22-16.26h404.72c8.96 0 16.22 7.28 16.22 16.26z" fill="#d9f0f4"/><path d="m474.581 106.357v258.04c0 8.98-7.26 16.26-16.22 16.26h-20c8.96 0 16.22-7.28 16.22-16.26v-258.04c0-8.98-7.26-16.26-16.22-16.26h20c8.96 0 16.22 7.28 16.22 16.26z" fill="#bae1e5"/><path d="m315.908 504.5h-119.816l19.694-64.344h80.428z" fill="#90abbd"/></g></g><g><path d="m420.922 171.854c0 90.84-73.65 164.49-164.49 164.49-3.36 0-6.69-.1-10-.3-86.19-5.17-154.49-76.71-154.49-164.19 0-87.49 68.3-159.03 154.49-164.19 3.31-.2 6.64-.3 10-.3 90.84 0 164.49 73.64 164.49 164.49z" fill="#d9f0f4"/><path d="m420.922 171.854c0 90.84-73.65 164.49-164.49 164.49-3.36 0-6.69-.1-10-.3 86.19-5.17 154.49-76.71 154.49-164.19 0-87.49-68.3-159.02-154.49-164.19 3.31-.2 6.64-.3 10-.3 90.84 0 164.49 73.64 164.49 164.49z" fill="#bae1e5"/><g fill="#ff6b81"><ellipse cx="115.338" cy="87.304" rx="17.508" ry="17.5"/><ellipse cx="256.429" cy="223.781" rx="17.508" ry="17.5"/><ellipse cx="351.647" cy="118.631" rx="17.508" ry="17.5"/></g></g></g><g><path d="m458.617 54.277h-42.681c-4.142 0-7.5 3.357-7.5 7.5s3.358 7.5 7.5 7.5h42.681c21.165 0 38.383 17.263 38.383 38.481v286.442c0 21.219-17.218 38.481-38.383 38.481h-405.234c-21.164.001-38.383-17.262-38.383-38.481v-53.095c0-4.143-3.358-7.5-7.5-7.5s-7.5 3.357-7.5 7.5v53.095c0 29.49 23.948 53.481 53.383 53.481h152.263l-15.101 49.319h-33.262c-4.142 0-7.5 3.357-7.5 7.5s3.358 7.5 7.5 7.5h197.434c4.142 0 7.5-3.357 7.5-7.5s-3.358-7.5-7.5-7.5h-33.262l-15.101-49.318h152.263c29.436 0 53.383-23.991 53.383-53.481v-286.442c0-29.49-23.947-53.482-53.383-53.482zm-152.849 442.723h-99.536l15.101-49.318h69.333z"/><path d="m7.5 313.72c4.142 0 7.5-3.357 7.5-7.5v-198.461c0-21.219 17.219-38.481 38.383-38.481h21.778c4.142 0 7.5-3.357 7.5-7.5s-3.358-7.5-7.5-7.5h-21.778c-29.435-.001-53.383 23.991-53.383 53.481v198.461c0 4.142 3.358 7.5 7.5 7.5z"/><path d="m482.076 106.516c0-13.096-10.638-23.749-23.714-23.749h-26.694c-4.142 0-7.5 3.357-7.5 7.5s3.358 7.5 7.5 7.5h26.694c4.805 0 8.714 3.925 8.714 8.749v147.062c0 4.143 3.358 7.5 7.5 7.5s7.5-3.357 7.5-7.5z"/><path d="m482.076 364.457v-75.57c0-4.143-3.358-7.5-7.5-7.5s-7.5 3.357-7.5 7.5v75.57c0 4.824-3.909 8.749-8.714 8.749h-404.724c-4.805 0-8.714-3.925-8.714-8.749v-257.941c0-4.824 3.909-8.749 8.714-8.749h14.125c4.142 0 7.5-3.357 7.5-7.5s-3.358-7.5-7.5-7.5h-14.125c-13.076 0-23.714 10.653-23.714 23.749v257.941c0 13.096 10.638 23.749 23.714 23.749h404.724c13.076 0 23.714-10.653 23.714-23.749z"/><path d="m64.056 402.975c-4.142 0-7.5 3.357-7.5 7.5s3.358 7.5 7.5 7.5h30.639c4.142 0 7.5-3.357 7.5-7.5s-3.358-7.5-7.5-7.5z"/><path d="m124.056 402.975c-4.142 0-7.5 3.357-7.5 7.5s3.358 7.5 7.5 7.5h30.639c4.142 0 7.5-3.357 7.5-7.5s-3.358-7.5-7.5-7.5z"/><path d="m256.432 343.844c30.467 0 60.405-8.063 86.579-23.318 25.394-14.8 46.72-35.992 61.673-61.284 2.108-3.566.926-8.165-2.639-10.273-3.567-2.108-8.165-.926-10.273 2.639-9.152 15.48-20.919 29.278-34.666 40.764-6.167-2.775-12.569-5.275-19.174-7.492 16.001-29.374 25.182-66.262 26.222-105.456h49.169c-.691 14.695-3.415 29.119-8.124 42.978-1.333 3.922.766 8.182 4.688 9.515.8.271 1.614.4 2.414.4 3.124 0 6.04-1.967 7.101-5.089 6.037-17.767 9.098-36.373 9.098-55.304-.001-94.8-77.19-171.924-172.068-171.924-27.432 0-53.653 6.26-77.936 18.606-21.355 10.858-40.488 26.33-55.656 44.957-2.368-.746-4.887-1.148-7.499-1.148-13.79 0-25.008 11.212-25.008 24.992 0 6.959 2.861 13.262 7.468 17.798-8.919 21.113-13.437 43.527-13.437 66.716 0 94.799 77.189 171.923 172.068 171.923zm-156.89-164.422h49.168c1.04 39.194 10.221 76.082 26.222 105.456-6.581 2.209-12.96 4.699-19.107 7.462-32.693-27.31-54.139-67.632-56.283-112.918zm149.39 148.907c-18.535-2.55-36.097-14.518-50.69-34.529 16.029-3.821 33.071-6.02 50.69-6.506zm15 0v-41.035c17.619.486 34.661 2.685 50.69 6.506-14.593 20.011-32.155 31.979-50.69 34.529zm-7.5-94.506c-5.519 0-10.008-4.483-10.008-9.993s4.49-9.993 10.008-9.993c5.519 0 10.009 4.483 10.009 9.993s-4.49 9.993-10.009 9.993zm-7.5-33.838c-10.137 3.191-17.508 12.674-17.508 23.845s7.372 20.653 17.508 23.845v24.614c-20.666.541-40.631 3.318-59.273 8.201-15.787-27.625-24.884-63.096-25.943-101.067h85.216zm-79.174 102.747c4.277-1.696 8.664-3.258 13.15-4.683 5.101 7.581 10.595 14.283 16.412 20.059-10.441-4.086-20.342-9.258-29.562-15.376zm165.699 4.834c-7.045 4.106-14.389 7.641-21.957 10.584 5.833-5.785 11.341-12.501 16.455-20.102 4.511 1.433 8.922 3.005 13.222 4.712-2.523 1.675-5.098 3.278-7.72 4.806zm-12.252-27.076c-18.642-4.883-38.607-7.66-59.273-8.201v-24.614c10.137-3.191 17.509-12.674 17.509-23.845s-7.372-20.654-17.509-23.845v-20.563h85.217c-1.06 37.971-10.157 73.442-25.944 101.068zm-59.273-264.962c18.638 2.626 36.281 14.944 50.647 34.525-16.017 3.815-33.044 6.011-50.647 6.496zm-15-.01v41.032c-17.645-.487-34.711-2.692-50.762-6.523 14.332-19.62 31.966-31.909 50.762-34.509zm15 56.037c20.66-.541 40.621-3.317 59.259-8.198 5.807 10.155 10.852 21.681 14.924 34.356-6.898 4.454-11.474 12.207-11.474 21.008 0 12.44 9.142 22.786 21.064 24.682.76 6.922 1.242 13.951 1.442 21.018h-85.215zm87.717 57.16c-5.519 0-10.008-4.483-10.008-9.993s4.49-9.993 10.008-9.993 10.008 4.483 10.008 9.993-4.489 9.993-10.008 9.993zm61.672 35.707h-49.169c-.209-7.803-.744-15.569-1.599-23.21 8.341-4.056 14.104-12.613 14.104-22.49 0-13.465-10.71-24.477-24.063-24.975-3.994-12.562-8.923-24.234-14.66-34.782 6.58-2.209 12.958-4.698 19.103-7.46 32.694 27.308 54.141 67.631 56.284 112.917zm-70.216-123.31c-4.277 1.696-8.663 3.257-13.148 4.682-4.239-6.287-8.808-12.04-13.67-17.192-.936-.992-1.88-1.958-2.833-2.9 10.475 4.091 20.405 9.274 29.651 15.41zm-157.811-9.134c4.697-2.388 9.473-4.526 14.323-6.414-5.959 5.854-11.552 12.63-16.693 20.236-4.513-1.433-8.925-3.005-13.227-4.712 5.025-3.337 10.234-6.383 15.597-9.11zm-69.953 45.437c5.519 0 10.008 4.482 10.008 9.992s-4.49 9.993-10.008 9.993-10.008-4.483-10.008-9.993 4.489-9.992 10.008-9.992zm0 34.985c13.79 0 25.008-11.212 25.008-24.993 0-5.722-1.935-11.001-5.184-15.219 6.207-7.515 13.123-14.457 20.609-20.708 6.163 2.772 12.56 5.27 19.161 7.485-7.312 13.422-13.379 28.801-17.864 45.784-1.058 4.005 1.332 8.108 5.336 9.166.642.17 1.286.251 1.92.251 3.322 0 6.358-2.224 7.247-5.587 4.499-17.037 10.642-32.267 18.022-45.243 18.66 4.893 38.647 7.676 59.336 8.218v92.867h-85.215c.221-7.792.784-15.544 1.682-23.134.487-4.113-2.452-7.843-6.566-8.33-4.108-.476-7.842 2.454-8.33 6.566-.968 8.17-1.568 16.516-1.792 24.897h-49.173c.843-18.134 4.752-35.692 11.657-52.365 1.349.228 2.734.345 4.146.345z"/><path d="m109.121 298.687h-32.141c-4.142 0-7.5 3.357-7.5 7.5s3.358 7.5 7.5 7.5h32.141c4.142 0 7.5-3.357 7.5-7.5s-3.358-7.5-7.5-7.5z"/><path d="m69.48 341.187c0 4.143 3.358 7.5 7.5 7.5h52.11c4.142 0 7.5-3.357 7.5-7.5s-3.358-7.5-7.5-7.5h-52.11c-4.142 0-7.5 3.357-7.5 7.5z"/></g></svg>