<svg id="Layer_1" enable-background="new 0 0 512 512" height="512" viewBox="0 0 512 512" width="512" xmlns="http://www.w3.org/2000/svg"><g><g fill="#9fccce"><path d="m66.017 118.993c-12.313 2.355-21.217 13.123-21.217 25.659v25.62l52.248-10.382v-15.238c0-16.396-14.927-28.739-31.031-25.659z"/><path d="m445.983 118.993c-16.104-3.08-31.032 9.263-31.032 25.659v15.238l52.248 10.382v-25.62c.001-12.536-8.903-23.304-21.216-25.659z"/></g><path d="m504.499 194.38v168.76c0 17.63-14.3 31.93-31.95 31.93h-433.1c-17.64 0-31.95-14.3-31.95-31.93v-168.76c0-7.37 2.53-14.26 6.85-19.74 4.32-5.49 10.43-9.56 17.6-11.29 41.71-10.07 83.93-17.28 126.37-21.64l7.39-35.32c1.52-7.27 7.94-12.48 15.38-12.48h149.82c7.44 0 13.86 5.21 15.38 12.48l7.39 35.32c38.45 3.95 76.72 10.24 114.6 18.89 3.93.88 7.85 1.8 11.77 2.75 14.34 3.46 24.45 16.29 24.45 31.03z" fill="#d9f0f4"/><path d="m504.499 194.38v168.76c0 17.63-14.3 31.93-31.95 31.93h-20c17.65 0 31.95-14.3 31.95-31.93v-174.76c0-7.37-2.53-14.26-6.85-19.74-2.55-3.24-5.72-5.98-9.37-8.04 3.93.88 7.85 1.8 11.77 2.75 14.34 3.46 24.45 16.29 24.45 31.03z" fill="#bae1e5"/><path d="m94.473 232.556c0-8.569-6.947-15.516-15.516-15.516h-71.457v125.865h71.457c8.569 0 15.516-6.947 15.516-15.516z" fill="#9fccce"/><circle cx="430.006" cy="231.307" fill="#9fccce" r="20.266"/><g><path d="m349.639 262.21c0 51.68-41.92 93.57-93.64 93.57-3.38 0-6.72-.18-10-.53-47.02-4.99-83.64-44.74-83.64-93.04s36.62-88.06 83.64-93.05c3.28-.35 6.62-.53 10-.53 51.72 0 93.64 41.9 93.64 93.58z" fill="#56788b"/><path d="m349.639 262.21c0 51.68-41.92 93.57-93.64 93.57-3.38 0-6.72-.18-10-.53 47.02-4.99 83.64-44.74 83.64-93.04s-36.62-88.06-83.64-93.05c3.28-.35 6.62-.53 10-.53 51.72 0 93.64 41.9 93.64 93.58z" fill="#415e6f"/></g><path d="m318.369 262.21c0 34.42-27.92 62.32-62.37 62.32-3.4 0-6.74-.27-10-.8-29.7-4.78-52.37-30.5-52.37-61.52s22.67-56.75 52.37-61.53c3.26-.53 6.6-.8 10-.8 34.45 0 62.37 27.91 62.37 62.33z" fill="#4dd4f7"/><path d="m318.369 262.21c0 34.42-27.92 62.32-62.37 62.32-3.4 0-6.74-.27-10-.8 29.7-4.78 52.37-30.5 52.37-61.52s-22.67-56.75-52.37-61.53c3.26-.53 6.6-.8 10-.8 34.45 0 62.37 27.91 62.37 62.33z" fill="#00c2f3"/><ellipse cx="256" cy="262.207" fill="#fff" rx="20.387" ry="20.372"/><g><g><path d="m286.22 479.661c0 13.71-11.09 24.83-24.779 24.83h-228.921c-13.69 0-24.779-11.12-24.779-24.83 0-13.72 11.09-24.84 24.779-24.84h6.64l19.11-26.399 19.1 26.399h184.072c13.689 0 24.778 11.12 24.778 24.84z" fill="#09eaa3"/><path d="m286.22 479.661c0 13.71-11.09 24.83-24.779 24.83h-20c13.69 0 24.779-11.12 24.779-24.83 0-13.72-11.09-24.84-24.779-24.84h20c13.69 0 24.779 11.12 24.779 24.84z" fill="#14bb87"/></g><g><path d="m504.5 32.336c0 13.71-11.09 24.83-24.78 24.83h-6.64l-1.21 1.68-17.9 24.73-19.1-26.41h-124.099c-13.69 0-24.78-11.12-24.78-24.83 0-13.72 11.09-24.84 24.78-24.84h168.949c13.69 0 24.78 11.12 24.78 24.84z" fill="#fbdf63"/><g><path d="m504.5 32.336c0 13.71-11.09 24.83-24.78 24.83h-6.64l-1.21 1.68c-2.07-1.98-3.15-3.36-2.51-3.63 8.9-3.77 15.14-12.6 15.14-22.88 0-13.72-11.09-24.84-24.78-24.84h20c13.69 0 24.78 11.12 24.78 24.84z" fill="#ffa402"/></g></g></g></g><g><path d="m154.86 262.206c0 55.732 45.371 101.073 101.14 101.073s101.14-45.341 101.14-101.073c0-55.731-45.371-101.072-101.14-101.072s-101.14 45.341-101.14 101.072zm101.14-86.072c47.498 0 86.14 38.612 86.14 86.072s-38.643 86.073-86.14 86.073c-47.498 0-86.14-38.613-86.14-86.073s38.642-86.072 86.14-86.072z"/><path d="m481.807 156.057c-2.365-.571-4.734-1.132-7.106-1.685v-9.72c0-16.11-11.484-29.999-27.308-33.025-9.876-1.891-19.991.702-27.743 7.112-6.864 5.675-11.135 13.731-12.023 22.485-15.875-2.533-31.804-4.67-47.725-6.399l-6.27-29.966c-2.235-10.692-11.791-18.453-22.721-18.453h-149.822c-10.928 0-20.484 7.76-22.722 18.452l-6.268 29.967c-15.921 1.729-31.85 3.866-47.725 6.399-.888-8.754-5.159-16.81-12.023-22.485-7.751-6.41-17.864-9.003-27.743-7.112-15.823 3.025-27.308 16.914-27.308 33.024v9.72c-2.372.553-4.741 1.115-7.106 1.685-17.778 4.29-30.194 20.051-30.194 38.328v168.755c0 21.74 17.698 39.428 39.451 39.428h294.614c4.143 0 7.5-3.357 7.5-7.5s-3.357-7.5-7.5-7.5h-294.614c-13.482 0-24.451-10.958-24.451-24.428v-12.734h63.957c12.691 0 23.016-10.325 23.016-23.016v-94.833c0-12.691-10.325-23.016-23.016-23.016h-63.957v-15.156c0-11.323 7.694-21.087 18.711-23.745 41.119-9.921 83.302-17.145 125.378-21.469 3.247-.334 5.906-2.73 6.574-5.926l7.387-35.314c.792-3.78 4.172-6.524 8.04-6.524h149.822c3.867 0 7.248 2.743 8.039 6.524l7.388 35.315c.668 3.194 3.326 5.591 6.574 5.925 42.075 4.324 84.259 11.548 125.377 21.469 11.016 2.657 18.71 12.422 18.71 23.745v168.755c0 13.47-10.969 24.428-24.451 24.428h-103.387c-4.143 0-7.5 3.357-7.5 7.5s3.357 7.5 7.5 7.5h103.387c21.753 0 39.451-17.688 39.451-39.428v-168.755c0-18.277-12.416-34.038-30.193-38.327zm-402.85 68.484c4.42 0 8.016 3.596 8.016 8.016v94.833c0 4.42-3.596 8.016-8.016 8.016h-63.957v-110.865zm-26.657-79.89c0-8.923 6.361-16.615 15.126-18.292 5.471-1.043 11.073.39 15.367 3.939 4.051 3.35 6.472 8.197 6.732 13.414-12.463 2.188-24.881 4.619-37.224 7.289v-6.35zm376.908-14.352c4.294-3.551 9.891-4.983 15.367-3.939 8.764 1.677 15.125 9.369 15.125 18.292v6.35c-12.343-2.67-24.761-5.101-37.224-7.289.26-5.217 2.681-10.064 6.732-13.414z"/><path d="m311.229 136.599c4.143 0 7.5-3.357 7.5-7.5s-3.357-7.5-7.5-7.5h-110.459c-4.142 0-7.5 3.357-7.5 7.5s3.358 7.5 7.5 7.5z"/><path d="m422.506 281.128v55.777c0 4.143 3.357 7.5 7.5 7.5s7.5-3.357 7.5-7.5v-55.777c0-4.143-3.357-7.5-7.5-7.5s-7.5 3.358-7.5 7.5z"/><path d="m193.63 269.706c4.142 0 7.5-3.357 7.5-7.5 0-30.255 24.615-54.87 54.87-54.87s54.87 24.614 54.87 54.87-24.614 54.871-54.87 54.871c-19.292 0-37.393-10.323-47.242-26.942-2.111-3.564-6.712-4.74-10.276-2.629-3.563 2.111-4.74 6.713-2.628 10.275 12.536 21.154 35.583 34.295 60.146 34.295 38.526 0 69.87-31.344 69.87-69.871s-31.344-69.87-69.87-69.87-69.87 31.343-69.87 69.87c0 4.144 3.358 7.501 7.5 7.501z"/><path d="m283.886 262.206c0-15.31-12.456-27.766-27.766-27.766-15.311 0-27.767 12.456-27.767 27.766 0 15.311 12.456 27.767 27.767 27.767 15.31 0 27.766-12.456 27.766-27.767zm-40.532 0c0-7.039 5.727-12.766 12.767-12.766 7.039 0 12.766 5.727 12.766 12.766s-5.727 12.767-12.766 12.767c-7.04 0-12.767-5.728-12.767-12.767z"/><path d="m457.772 231.307c0-15.311-12.456-27.767-27.767-27.767s-27.767 12.456-27.767 27.767c0 15.31 12.456 27.766 27.767 27.766s27.767-12.456 27.767-27.766zm-27.766 12.766c-7.039 0-12.767-5.727-12.767-12.766s5.728-12.767 12.767-12.767 12.767 5.728 12.767 12.767c-.001 7.04-5.728 12.766-12.767 12.766z"/><path d="m261.333 447.329h-98.185c-4.142 0-7.5 3.357-7.5 7.5s3.358 7.5 7.5 7.5h98.185c9.529 0 17.281 7.777 17.281 17.336s-7.751 17.335-17.281 17.335h-229.052c-9.529 0-17.281-7.777-17.281-17.335s7.752-17.336 17.281-17.336h6.636c2.406 0 4.665-1.154 6.076-3.103l13.034-18.009 13.033 18.009c1.41 1.948 3.67 3.103 6.076 3.103h51.333c4.142 0 7.5-3.357 7.5-7.5s-3.358-7.5-7.5-7.5h-47.504l-16.863-23.301c-1.41-1.948-3.67-3.103-6.076-3.103s-4.665 1.154-6.076 3.103l-16.864 23.301h-2.806c-17.799 0-32.28 14.506-32.28 32.336 0 17.829 14.481 32.335 32.281 32.335h229.053c17.8 0 32.281-14.506 32.281-32.335 0-17.83-14.482-32.336-32.282-32.336z"/><path d="m310.667 64.671h28.214c4.143 0 7.5-3.357 7.5-7.5s-3.357-7.5-7.5-7.5h-28.214c-9.529 0-17.281-7.776-17.281-17.335s7.751-17.336 17.281-17.336h169.052c9.529 0 17.281 7.778 17.281 17.336s-7.752 17.335-17.281 17.335h-6.636c-2.405 0-4.665 1.154-6.076 3.103l-13.032 18.009-13.033-18.009c-1.411-1.948-3.671-3.103-6.076-3.103h-61.304c-4.143 0-7.5 3.357-7.5 7.5s3.357 7.5 7.5 7.5h57.474l16.863 23.302c1.411 1.948 3.671 3.103 6.076 3.103 2.406 0 4.665-1.154 6.076-3.103l16.862-23.302h2.806c17.8 0 32.281-14.506 32.281-32.335 0-17.83-14.481-32.336-32.281-32.336h-169.052c-17.8 0-32.281 14.506-32.281 32.336-.001 17.829 14.481 32.335 32.281 32.335z"/><path d="m461.265 437.164h-72.176c-4.143 0-7.5 3.357-7.5 7.5s3.357 7.5 7.5 7.5h72.176c4.143 0 7.5-3.357 7.5-7.5s-3.358-7.5-7.5-7.5z"/><path d="m461.265 472.165h-32.126c-4.143 0-7.5 3.357-7.5 7.5s3.357 7.5 7.5 7.5h32.126c4.143 0 7.5-3.357 7.5-7.5s-3.358-7.5-7.5-7.5z"/><path d="m50.736 74.836h68.425c4.142 0 7.5-3.357 7.5-7.5s-3.358-7.5-7.5-7.5h-68.425c-4.142 0-7.5 3.357-7.5 7.5s3.358 7.5 7.5 7.5z"/><path d="m50.736 39.836h32.126c4.142 0 7.5-3.357 7.5-7.5s-3.358-7.5-7.5-7.5h-32.126c-4.142 0-7.5 3.357-7.5 7.5s3.358 7.5 7.5 7.5z"/></g></svg>