<svg id="Layer_1" enable-background="new 0 0 511.974 511.974" height="512" viewBox="0 0 511.974 511.974" width="512" xmlns="http://www.w3.org/2000/svg"><g><g><g><path d="m247.814 44.113c-16.806-44.047-200.409-84.173-171.478 106.226h171.478z" fill="#56788b"/><path d="m321.851 148.657c50.32-81.435-89.183-187.644-86.547-48.977v45.445z" fill="#415e6f"/><path d="m346.717 298.812h-291.91c16.06-41.73 17.19-117.98 17.19-117.98h257.53s1.13 76.25 17.19 117.98z" fill="#56788b"/><path d="m346.717 298.812h-145.85v-117.98h128.66s1.13 76.25 17.19 117.98z" fill="#415e6f"/><g><path d="m351.081 504.471h-305.824c0-138.68 53.69-161.84 97.73-165.57 10.92-.92 21.25-.65 30.02-.65h55.72c8.7 0 18.94-.27 29.77.63 43.499 3.622 96.562 26.048 97.952 160.161.031 2.986-2.383 5.429-5.368 5.429z" fill="#9090fb"/><path d="m351.081 504.471h-14.604c0-138.94-53.9-161.92-97.98-165.59-4.8-.4-9.48-.57-13.95-.63h4.18c8.7 0 18.94-.27 29.77.63 43.499 3.622 96.562 26.048 97.952 160.161.031 2.986-2.383 5.429-5.368 5.429z" fill="#6c5fea"/></g><path d="m258.747 339.292c-1.54 30.6-26.86 54.94-57.88 54.94-31.01 0-56.33-24.33-57.88-54.92v-.41c10.92-.92 21.25-.65 30.02-.65h55.72c8.7 0 18.94-.27 29.77.63z" fill="#d9f0f4"/><g><g fill="#fab684"><path d="m309.653 145.114h-17.448l.11 45.691h17.337c12.616 0 22.844-10.228 22.844-22.845s-10.227-22.846-22.843-22.846z"/><path d="m68.023 167.96c0 12.617 10.228 22.845 22.844 22.845h17.337l.11-45.691h-17.447c-12.616 0-22.844 10.229-22.844 22.846z"/></g><path d="m228.725 306.627h-55.718c2.331 6.319 3.534 22.527 0 31.708 0 15.39 12.473 27.866 27.859 27.866s27.859-12.476 27.859-27.866c-3.534-9.18-2.33-25.389 0-31.708z" fill="#fab684"/><path d="m293.825 222.298c0 22.12-18.81 48.54-55.92 78.55-10.41 8.45-23.82 13.06-37.24 13.03-3.36.01-6.7-.28-9.97-.84-9.8-1.68-19.06-5.86-26.86-12.19-37.11-30.01-55.92-56.43-55.92-78.55 0-2.35.09-4.7.28-7.01.96-9.65.68-53.71.66-82.16v-.03c-.25-9.64 5.15-18.55 13.82-22.8 18.94-8.42 48.55-12.62 78.19-12.6 21.27-.01 42.52 2.14 59.83 6.48 6.81 1.7 13.02 3.74 18.37 6.12 8.66 4.25 14.06 13.16 13.81 22.8v.03c-.02 28.45-.29 72.51.66 82.16.19 2.31.29 4.66.29 7.01z" fill="#fdd9b4"/><path d="m293.825 222.298c0 22.12-18.81 48.54-55.92 78.55-10.41 8.45-23.82 13.06-37.24 13.03-3.36.01-6.7-.28-9.97-.84 9.92-1.68 19.4-5.86 27.21-12.19 37.11-30.01 55.92-56.43 55.92-78.55 0-2.35-.1-4.7-.29-7.01-.95-9.65-.68-53.71-.66-82.16v-7.03c.23-9.02-4.48-17.4-12.18-21.92 6.81 1.7 13.02 3.74 18.37 6.12 8.66 4.25 14.06 13.16 13.81 22.8v.03c-.02 28.45-.29 72.51.66 82.16.19 2.31.29 4.66.29 7.01z" fill="#f9c19b"/></g></g></g><g><path d="m466.727 420.401c0 46.43-37.64 84.07-84.07 84.07-3.38 0-6.72-.2-10-.6-41.71-4.93-74.06-40.42-74.06-83.47 0-43.04 32.35-78.53 74.06-83.46 3.28-.4 6.62-.6 10-.6 46.43 0 84.07 37.64 84.07 84.06z" fill="#56788b"/><path d="m466.727 420.401c0 46.43-37.64 84.07-84.07 84.07-3.38 0-6.72-.2-10-.6 41.72-4.93 74.07-40.42 74.07-83.47 0-43.04-32.35-78.53-74.07-83.46 3.28-.4 6.62-.6 10-.6 46.43 0 84.07 37.64 84.07 84.06z" fill="#415e6f"/></g><g><path d="m430.708 420.405c0 16.05-7.86 30.26-19.95 38.99-7.91 5.72-17.63 9.09-28.13 9.09-3.42 0-6.76-.36-9.98-1.05-6.67-1.4-12.82-4.18-18.15-8.04-12.09-8.73-19.95-22.94-19.95-38.99 0-23.12 16.33-42.44 38.08-47.03 3.22-.69 6.57-1.05 10-1.05 26.55 0 48.08 21.53 48.08 48.08z" fill="#d9f0f4"/><path d="m430.708 420.405c0 16.05-7.86 30.26-19.95 38.99-7.91 5.72-17.63 9.09-28.13 9.09-3.42 0-6.76-.36-9.98-1.05 21.75-4.61 38.06-23.92 38.06-47.03 0-23.13-16.32-42.44-38.08-47.03 3.22-.69 6.57-1.05 10-1.05 26.55 0 48.08 21.53 48.08 48.08z" fill="#bae1e5"/><path d="m410.758 459.395c-7.91 5.72-17.63 9.09-28.13 9.09-3.42 0-6.76-.36-9.98-1.05-6.67-1.4-12.82-4.18-18.15-8.04 0-15.54 12.59-27.65 28.13-27.65 9.24 0 17.44 4.29 22.57 11.03 3.49 4.59 5.56 10.32 5.56 16.62z" fill="#ff6b81"/><path d="m410.758 459.395c-7.91 5.72-17.63 9.09-28.13 9.09-3.42 0-6.76-.36-9.98-1.05 14.15-3 26-12.22 32.55-24.66 3.49 4.59 5.56 10.32 5.56 16.62z" fill="#ed2061"/><circle cx="382.626" cy="416.742" fill="#fdd9b4" r="15"/></g></g><g><path d="m187.186 211.953c3.479 2.247 8.122 1.246 10.369-2.232.731-1.133 1.97-1.809 3.313-1.809s2.58.676 3.312 1.809c1.435 2.222 3.846 3.433 6.308 3.433 1.394 0 2.804-.388 4.062-1.2 3.479-2.247 4.479-6.89 2.232-10.369-3.507-5.43-9.455-8.672-15.913-8.672-6.459 0-12.407 3.242-15.914 8.672-2.249 3.478-1.249 8.121 2.231 10.368z"/><path d="m51.227 433.611c-4.08-.691-7.955 2.058-8.647 6.142-3.203 18.898-4.827 40.674-4.827 64.721 0 4.143 3.357 7.5 7.5 7.5s7.5-3.357 7.5-7.5c0-23.209 1.553-44.141 4.616-62.215.692-4.084-2.058-7.955-6.142-8.648z"/><path d="m289.393 353.638c.965.414 1.968.61 2.955.61 2.908 0 5.676-1.701 6.896-4.543 1.634-3.807-.127-8.217-3.933-9.851-21.321-9.155-43.993-9.205-60.796-9.119-.961-6.212-.456-14.056.508-18.808 2.65-1.582 5.189-3.353 7.593-5.304.129-.104.256-.208.384-.312h103.719c2.472 0 4.784-1.218 6.183-3.255s1.704-4.633.817-6.938c-3.935-10.223-7.298-23.672-9.999-39.975-.678-4.088-4.551-6.854-8.625-6.174-4.087.678-6.851 4.539-6.174 8.625 2.061 12.437 4.517 23.391 7.331 32.717h-75.943c27.236-25.424 41.014-48.59 41.014-69.036 0-2.551-.105-5.118-.314-7.63-.004-.038-.007-.076-.011-.115-.27-2.737-.437-8.616-.536-16.234h9.191c4.604 0 8.97-1.031 12.883-2.872.374 7.717 1.013 17.978 2.096 29.456.366 3.884 3.633 6.796 7.458 6.796.235 0 .474-.012.714-.034 4.123-.389 7.151-4.048 6.762-8.172-2.075-21.992-2.487-39.86-2.537-42.43 1.902-3.962 2.968-8.398 2.968-13.079 0-8.176-3.253-15.607-8.532-21.068 18.387-35.599 5.099-72.813-12.714-94.637-18.038-22.1-41.759-31.95-60.443-25.094-2.956 1.085-6.02 2.656-9.015 4.902-8.01-9.975-22.233-18.904-40.172-24.914-24.2-8.107-50.886-9.384-73.214-3.5-24.848 6.547-44.231 21.668-56.056 43.729-13.417 25.031-17.278 58.746-11.488 100.255-4.87 5.383-7.839 12.515-7.839 20.327 0 5.419 1.429 10.51 3.929 14.917-.339 12.579-2.732 77.083-16.646 113.24-.887 2.307-.581 4.901.817 6.938s3.711 3.255 6.183 3.255h103.929c.124.1.247.2.371.301 2.414 1.96 4.958 3.738 7.607 5.325.963 4.752 1.466 12.589.506 18.797-34.276-.186-90.639.212-116.156 74.745-1.342 3.919.748 8.184 4.666 9.525.806.275 1.625.406 2.431.406 3.117 0 6.028-1.959 7.095-5.072 15.821-46.211 43.906-59.46 71.045-63.191 5.165 31.149 32.21 54.585 64.567 54.585 32.345 0 59.373-23.408 64.557-54.533 7.996 1.121 16.12 3.069 23.968 6.439zm20.26-170.342h-9.306c-.037-9.756-.023-20.541-.004-30.67h9.311c8.461 0 15.344 6.879 15.344 15.335s-6.884 15.335-15.345 15.335zm-46.176-142.052c12.389-4.551 29.936 3.688 43.653 20.496 14.678 17.983 25.771 48.332 11.518 77.246-2.843-.884-5.864-1.36-8.995-1.36h-9.284c.002-1.503.003-2.976.004-4.412.286-12.5-6.775-24.118-18.012-29.621-.084-.041-.168-.08-.253-.118-10.362-4.605-23.878-8.133-39.316-10.385.469-28.399 7.884-47.148 20.685-51.846zm-170.405 13.22c9.946-18.557 25.645-30.773 46.657-36.31 19.572-5.159 43.126-3.985 64.626 3.219 16.387 5.49 29.428 13.867 34.722 22.062-6.176 9.932-10.74 25.043-11.261 47.927-8.52-.74-17.449-1.124-26.617-1.124-.213-.001-.426-.001-.635 0-7.057 0-14.116.235-20.988.699-4.133.28-7.257 3.856-6.978 7.989.28 4.133 3.857 7.234 7.989 6.978 6.537-.442 13.255-.666 19.989-.666h.598c29.959 0 57.853 4.438 74.708 11.885 5.944 2.968 9.667 9.156 9.494 15.803-.002.063-.003.155-.003.219-.003 4.613-.013 9.638-.022 14.859-.055 27.841-.115 59.387.713 67.937.172 2.084.259 4.215.259 6.336 0 19.451-18.375 44.584-53.15 72.692-8.885 7.213-20.67 11.344-32.396 11.344h-.262c-11.597 0-22.941-4.026-31.967-11.354-34.764-28.098-53.139-53.23-53.139-72.682 0-2.12.087-4.25.259-6.333.828-8.545.768-40.096.713-67.939-.01-5.222-.02-10.246-.022-14.883 0-.065-.001-.13-.003-.195-.173-6.646 3.551-12.835 9.495-15.804 5.848-2.584 13.005-4.819 21.276-6.646 4.045-.893 6.601-4.895 5.708-8.939-.894-4.045-4.899-6.608-8.94-5.707-9.315 2.056-17.481 4.628-24.271 7.646-.085.038-.169.077-.253.118-11.236 5.503-18.298 17.122-18.012 29.622.001 1.433.002 2.906.005 4.411h-10.497c-2.952 0-5.807.424-8.507 1.214-4.063-35.166-.471-63.514 10.712-84.378zm8.314 128.832h-10.519c-8.461 0-15.344-6.879-15.344-15.335s6.883-15.335 15.344-15.335h10.523c.019 10.129.033 20.914-.004 30.67zm-36.11 108.015c9.43-31.209 12.634-73.312 13.704-95.441 3.652 1.561 7.67 2.425 11.886 2.425h10.404c-.1 7.618-.266 13.498-.536 16.234-.004.039-.007.077-.011.115-.208 2.512-.314 5.079-.314 7.63 0 20.449 13.781 43.616 41.015 69.036h-76.148zm135.202 30h.346c6.242 0 12.41-.871 18.318-2.545-.383 6.968.109 14.662 2.05 20.671-.613 10.677-9.494 19.174-20.324 19.174s-19.712-8.497-20.325-19.174c1.937-5.997 2.43-13.671 2.052-20.627 5.792 1.647 11.813 2.502 17.883 2.501zm.389 65.421c-24.517 0-45.077-17.445-49.552-40.832 5.16-.195 10.189-.193 14.988-.169 3.439 15.917 17.631 27.88 34.564 27.88s31.124-11.963 34.563-27.881c4.732-.023 9.77-.024 14.985.184-4.479 23.381-25.032 40.818-49.548 40.818z"/><path d="m124.1 470.953c-1.4-.043-4.148.323-6.819 2.947-2.942 2.89-6.854 9.203-6.854 30.573 0 4.143 3.357 7.5 7.5 7.5s7.5-3.357 7.5-7.5c0-13.048 1.568-17.979 2.247-19.502 2.223-1.267 3.74-3.64 3.79-6.384.074-4.141-3.223-7.559-7.364-7.634z"/><path d="m284.455 473.9c-2.672-2.624-5.416-2.964-6.819-2.947-4.142.075-7.438 3.493-7.363 7.635.05 2.744 1.567 5.116 3.789 6.384.68 1.523 2.247 6.454 2.247 19.502 0 4.143 3.357 7.5 7.5 7.5s7.5-3.357 7.5-7.5c0-21.372-3.913-27.684-6.854-30.574z"/><path d="m200.667 261.398c10.959 0 21.056-5.505 27.009-14.725 2.247-3.48 1.247-8.122-2.232-10.369-3.482-2.248-8.122-1.248-10.369 2.232-3.178 4.923-8.563 7.861-14.407 7.861s-11.229-2.938-14.406-7.86c-2.247-3.48-6.888-4.479-10.368-2.234-3.48 2.247-4.48 6.889-2.234 10.369 5.95 9.222 16.047 14.726 27.007 14.726z"/><path d="m382.66 328.844c-50.487 0-91.562 41.074-91.562 91.562s41.074 91.562 91.562 91.562 91.562-41.074 91.562-91.562-41.075-91.562-91.562-91.562zm0 168.123c-42.216 0-76.562-34.346-76.562-76.562s34.346-76.562 76.562-76.562 76.562 34.346 76.562 76.562-34.346 76.562-76.562 76.562z"/><path d="m382.66 364.827c-2.76 0-5.53.204-8.233.607-4.097.61-6.923 4.427-6.312 8.524.61 4.097 4.422 6.913 8.524 6.312 1.973-.294 3.999-.443 6.021-.443 22.358 0 40.548 18.203 40.548 40.578 0 9.1-3.009 17.51-8.083 24.286-2.93-6.437-7.752-11.786-13.809-15.396 2.42-3.588 3.834-7.908 3.834-12.553 0-12.406-10.089-22.5-22.49-22.5s-22.49 10.094-22.49 22.5c0 4.645 1.414 8.965 3.834 12.553-6.056 3.61-10.878 8.958-13.808 15.396-5.074-6.776-8.083-15.186-8.083-24.286 0-9.329 3.074-18.098 8.89-25.358 2.59-3.232 2.068-7.952-1.165-10.542-3.231-2.59-7.953-2.068-10.542 1.165-7.856 9.808-12.183 22.144-12.183 34.735 0 30.646 24.918 55.579 55.547 55.579s55.548-24.933 55.548-55.579c0-30.645-24.919-55.578-55.548-55.578zm-7.49 51.915c0-4.136 3.36-7.5 7.49-7.5s7.49 3.364 7.49 7.5-3.36 7.5-7.49 7.5-7.49-3.364-7.49-7.5zm-12.763 38.807c1.786-9.4 10.042-16.307 20.253-16.307s18.468 6.907 20.254 16.307c-5.963 3.456-12.882 5.435-20.254 5.435s-14.29-1.979-20.253-5.435z"/></g></svg>