<svg id="Layer_1" enable-background="new 0 0 512.002 512.002" height="512" viewBox="0 0 512.002 512.002" width="512" xmlns="http://www.w3.org/2000/svg"><g><path d="m338.322 148.891-70.65.38-175.45.93c-5.27-25.77-6.5-57.27 1.58-82.31 9.83-31.92 43.17-47.02 72.38-54.15 45.54-11.14 113.57-10.6 132.09 28.93 1.18 2.9 3.86 4.93 6.98 5.27 38.19 3.71 40.76 60.76 33.07 100.95z" fill="#56788b"/><path d="m338.322 148.891-70.65.38 10.68-44.77c-19.72-59.14 26.9-56.56 26.9-56.56 38.19 3.71 40.76 60.76 33.07 100.95z" fill="#415e6f"/><path d="m414.502 504.501h-395.5c0-56.04-15.7-154.29 139.85-165.28 9.38-.66 19.38-1.01 30.04-1.01h55.72c10.66 0 20.65.34 30.02 1.01 23.61 1.67 43.28 5.34 59.65 10.58 91.52 29.26 80.22 107.17 80.22 154.7z" fill="#09eaa3"/><path d="m414.502 504.501h-20c0-43.74 9.57-118.69-60.22-154.7 91.52 29.26 80.22 107.17 80.22 154.7z" fill="#14bb87"/><path d="m274.632 339.221v.02c-1.54 30.62-26.86 54.97-57.88 54.97-31.01 0-56.33-24.34-57.88-54.94l-.02-.05c9.38-.66 19.38-1.01 30.04-1.01h55.72c10.66 0 20.65.34 30.02 1.01z" fill="#d9f0f4"/><g fill="#fab684"><path d="m325.541 144.987h-17.448l.11 45.691h17.337c12.616 0 22.844-10.228 22.844-22.846s-10.227-22.845-22.843-22.845z"/><path d="m83.911 167.832c0 12.617 10.228 22.846 22.844 22.846h17.337l.11-45.691h-17.448c-12.616 0-22.843 10.228-22.843 22.845z"/></g><path d="m244.613 306.5h-55.718c2.331 6.319 3.534 22.528 0 31.708 0 15.39 12.473 27.866 27.859 27.866s27.859-12.476 27.859-27.866c-3.534-9.18-2.331-25.389 0-31.708z" fill="#fab684"/><path d="m309.712 222.171c0 22.12-18.81 48.54-55.92 78.55-10.41 8.45-23.82 13.06-37.24 13.03-3.36.01-6.7-.28-9.97-.84-9.8-1.68-19.06-5.86-26.86-12.19-37.11-30.01-55.92-56.43-55.92-78.55 0-2.35.09-4.7.28-7.01.96-9.65.68-53.71.66-82.16v-.03c-.25-9.64 5.15-18.55 13.82-22.8 18.94-8.42 48.55-12.62 78.19-12.6 21.27-.01 42.52 2.14 59.83 6.48 6.81 1.7 13.02 3.74 18.37 6.12 8.66 4.25 14.06 13.16 13.81 22.8v.03c-.02 28.45-.29 72.51.66 82.16.19 2.31.29 4.66.29 7.01z" fill="#fdd9b4"/><path d="m309.712 222.171c0 22.12-18.81 48.54-55.92 78.55-10.41 8.45-23.82 13.06-37.24 13.03-3.36.01-6.7-.28-9.97-.84 9.92-1.68 19.4-5.86 27.21-12.19 37.11-30.01 55.92-56.43 55.92-78.55 0-2.35-.1-4.7-.29-7.01-.95-9.65-.68-53.71-.66-82.16v-7.03c.23-9.02-4.48-17.4-12.18-21.92 6.81 1.7 13.02 3.74 18.37 6.12 8.66 4.25 14.06 13.16 13.81 22.8v.03c-.02 28.45-.29 72.51.66 82.16.19 2.31.29 4.66.29 7.01z" fill="#f9c19b"/><path d="m493.442 360.871c0 48.49-39.33 87.79-87.84 87.79-3.38 0-6.72-.19-10-.57-43.8-4.95-77.84-42.11-77.84-87.22s34.04-82.27 77.84-87.22c3.28-.38 6.62-.57 10-.57 48.51 0 87.84 39.3 87.84 87.79z" fill="#56788b"/><path d="m493.442 360.871c0 48.49-39.33 87.79-87.84 87.79-3.38 0-6.72-.19-10-.57 43.8-4.95 77.84-42.11 77.84-87.22s-34.04-82.27-77.84-87.22c3.28-.38 6.62-.57 10-.57 48.51 0 87.84 39.3 87.84 87.79z" fill="#415e6f"/><g><path d="m453.65 360.795c0 16.05-7.86 30.26-19.95 38.99-7.91 5.72-17.63 9.09-28.13 9.09-3.42 0-6.76-.36-9.98-1.05-6.67-1.4-12.82-4.18-18.15-8.04-12.09-8.73-19.95-22.94-19.95-38.99 0-23.12 16.33-42.44 38.08-47.03 3.22-.69 6.57-1.05 10-1.05 26.55 0 48.08 21.53 48.08 48.08z" fill="#d9f0f4"/><path d="m453.65 360.795c0 16.05-7.86 30.26-19.95 38.99-7.91 5.72-17.63 9.09-28.13 9.09-3.42 0-6.76-.36-9.98-1.05 21.75-4.61 38.06-23.92 38.06-47.03 0-23.13-16.32-42.44-38.08-47.03 3.22-.69 6.57-1.05 10-1.05 26.55 0 48.08 21.53 48.08 48.08z" fill="#bae1e5"/><path d="m433.7 399.785c-7.91 5.72-17.63 9.09-28.13 9.09-3.42 0-6.76-.36-9.98-1.05-6.67-1.4-12.82-4.18-18.15-8.04 0-15.54 12.59-27.65 28.13-27.65 9.24 0 17.44 4.29 22.57 11.03 3.49 4.59 5.56 10.32 5.56 16.62z" fill="#4dd4f7"/><path d="m433.7 399.785c-7.91 5.72-17.63 9.09-28.13 9.09-3.42 0-6.76-.36-9.98-1.05 14.15-3 26-12.22 32.55-24.66 3.49 4.59 5.56 10.32 5.56 16.62z" fill="#00c2f3"/><circle cx="405.569" cy="357.132" fill="#fdd9b4" r="15"/></g></g><g><path d="m40.567 387.89c-3.491-2.231-8.128-1.21-10.359 2.279-20.362 31.85-19.557 69.765-18.91 100.229.106 4.978.206 9.68.206 14.104 0 4.143 3.358 7.5 7.5 7.5s7.5-3.357 7.5-7.5c0-4.583-.102-9.362-.209-14.422-.604-28.434-1.355-63.821 16.551-91.83 2.231-3.491 1.211-8.128-2.279-10.36z"/><path d="m287.492 332.819c-11.517-1.222-23.966-1.918-37.081-2.075-.974-6.227-.468-14.112.5-18.881 2.65-1.583 5.189-3.354 7.593-5.307 38.955-31.5 58.707-59.891 58.707-84.383 0-2.56-.105-5.128-.314-7.633-.003-.039-.006-.077-.01-.115-.27-2.739-.437-8.623-.537-16.246h9.191c16.731 0 30.344-13.613 30.344-30.346 0-8.622-3.614-16.415-9.407-21.945 5.028-29.872 4.521-67.643-11.405-88.924-7.315-9.775-17.104-15.322-28.998-16.476-.382-.042-.711-.29-.856-.648-.048-.118-.1-.235-.154-.352-9.428-20.119-30.733-33.156-61.612-37.704-23.784-3.502-52.599-1.798-79.046 4.673-42.111 10.271-69.006 30.752-77.747 59.133-7.223 22.391-8.128 52.105-2.57 82.086-4.775 5.364-7.68 12.427-7.68 20.156 0 16.732 13.612 30.346 30.344 30.346h10.404c-.1 7.624-.266 13.507-.537 16.246-.004.039-.007.078-.01.116-.208 2.512-.314 5.079-.314 7.632 0 24.492 19.752 52.883 58.694 84.372 2.415 1.962 4.959 3.74 7.608 5.329.966 4.77 1.47 12.647.498 18.868-57.352.665-99.125 11.3-127.578 32.454-3.324 2.471-4.016 7.169-1.544 10.493 1.472 1.98 3.734 3.025 6.025 3.025 1.555 0 3.125-.481 4.469-1.481 20.258-15.061 49.685-24.414 87.752-27.934 5.246 31.064 32.244 54.411 64.533 54.411 32.301 0 59.3-23.355 64.537-54.43 1.557.142 3.097.294 4.619.455.269.028.536.043.8.043 3.787 0 7.041-2.86 7.449-6.71.437-4.118-2.548-7.812-6.667-8.248zm38.048-149.641h-9.306c-.037-9.76-.023-20.552-.005-30.691h9.311c8.46 0 15.344 6.884 15.344 15.346s-6.883 15.345-15.344 15.345zm-2.477-117.227c12.254 16.374 12.903 47.346 9.407 72.335-2.226-.522-4.546-.799-6.929-.799h-9.284c.002-1.505.004-2.979.005-4.418.286-12.503-6.775-24.125-18.011-29.631-.083-.041-.168-.08-.253-.118-4.103-1.824-8.701-3.479-13.716-4.953-4.665-15.744-4.353-27.698.942-34.715 6.21-8.227 18.157-8.243 19.53-8.221 7.614.793 13.606 4.236 18.309 10.52zm-216.309 117.227c-8.46 0-15.344-6.884-15.344-15.346s6.883-15.346 15.344-15.346h10.524c.019 10.14.032 20.931-.005 30.691h-10.519zm24.544 38.995c0-2.122.087-4.254.258-6.337.829-8.557.768-40.157.714-68.046-.01-5.197-.02-10.197-.023-14.813 0-.064-.001-.13-.002-.194-.173-6.653 3.551-12.846 9.497-15.815 5.847-2.585 13.004-4.821 21.276-6.649 4.045-.894 6.599-4.896 5.706-8.941-.893-4.043-4.9-6.597-8.941-5.705-9.316 2.058-17.482 4.632-24.271 7.649-.085.038-.169.077-.253.118-11.235 5.505-18.296 17.128-18.011 29.632.001 1.435.003 2.909.005 4.417h-10.497c-3.116 0-6.124.472-8.956 1.349-3.942-25.448-2.864-50.038 3.167-68.735 9.009-29.25 41.405-42.83 67.001-49.073 24.643-6.03 51.36-7.634 73.3-4.404 16.948 2.496 38.687 9.094 48.656 26.253-5.682 1.948-11.848 5.421-16.563 11.593-7.34 9.611-9.197 23.026-5.56 39.982-15.05-2.844-32.403-4.375-50.713-4.375h-.325c-7.125.033-14.311.229-21.299.699-4.133.279-7.256 3.856-6.977 7.989s3.845 7.25 7.989 6.978c6.538-.442 13.243-.666 19.949-.666.213 0 .422-.001.638 0 29.959 0 57.852 4.438 74.706 11.89 5.946 2.97 9.67 9.162 9.497 15.814-.001.063-.002.155-.002.219-.003 4.593-.013 9.593-.023 14.79-.054 27.887-.115 59.485.713 68.044.171 2.077.258 4.21.258 6.339 0 19.462-18.375 44.608-53.152 72.729-8.884 7.217-20.669 11.35-32.394 11.35h-.261c-11.598 0-22.941-4.028-31.967-11.36-34.765-28.113-53.14-53.26-53.14-72.721zm85.067 99.079h.346c6.242 0 12.41-.871 18.318-2.546-.383 6.972.109 14.671 2.05 20.683-.613 10.683-9.495 19.187-20.325 19.187s-19.712-8.504-20.325-19.187c1.937-6 2.431-13.679 2.053-20.639 5.792 1.647 11.813 2.502 17.883 2.502zm.389 65.458c-24.385 0-44.855-17.268-49.478-40.477 4.852-.244 9.829-.402 14.929-.476 3.466 15.887 17.64 27.818 34.548 27.818s31.082-11.931 34.548-27.818c5.093.073 10.075.23 14.93.471-4.618 23.213-25.087 40.482-49.477 40.482z"/><path d="m414.999 472.171c-4.142-.084-7.542 3.263-7.594 7.405-.045 3.586-.12 7.098-.192 10.512-.107 5.057-.209 9.833-.209 14.414 0 4.143 3.358 7.5 7.5 7.5s7.5-3.357 7.5-7.5c0-4.422.1-9.121.206-14.096.073-3.456.149-7.011.194-10.643.052-4.141-3.263-7.541-7.405-7.592z"/><path d="m216.554 261.286c10.958 0 21.055-5.505 27.008-14.725 2.247-3.48 1.247-8.122-2.232-10.369-3.48-2.248-8.123-1.248-10.369 2.232-3.178 4.923-8.564 7.861-14.407 7.861s-11.229-2.938-14.407-7.861c-2.247-3.479-6.89-4.48-10.369-2.232-3.479 2.247-4.479 6.889-2.232 10.369 5.953 9.22 16.05 14.725 27.008 14.725z"/><path d="m203.073 211.842c3.48 2.247 8.122 1.248 10.369-2.232.732-1.134 1.97-1.811 3.312-1.811s2.581.677 3.313 1.811c1.435 2.222 3.846 3.433 6.308 3.433 1.394 0 2.804-.388 4.062-1.2 3.479-2.247 4.479-6.889 2.232-10.369-3.507-5.432-9.456-8.674-15.914-8.674s-12.407 3.242-15.914 8.674c-2.247 3.48-1.248 8.121 2.232 10.368z"/><path d="m405.602 265.579c-5.582 0-11.181.487-16.64 1.448-4.08.719-6.804 4.607-6.086 8.688.718 4.079 4.61 6.799 8.687 6.086 4.604-.811 9.327-1.222 14.04-1.222 44.301 0 80.342 36.019 80.342 80.292s-36.041 80.292-80.342 80.292-80.342-36.019-80.342-80.292c0-27.629 13.95-52.982 37.317-67.821 3.497-2.221 4.531-6.854 2.311-10.352-2.22-3.497-6.854-4.53-10.352-2.311-27.724 17.605-44.276 47.693-44.276 80.483 0 52.544 42.77 95.292 95.342 95.292s95.342-42.748 95.342-95.292-42.771-95.291-95.343-95.291z"/><path d="m104.986 470.969c-1.39-.038-4.147.322-6.818 2.947-2.943 2.89-6.855 9.204-6.855 30.585 0 4.143 3.358 7.5 7.5 7.5s7.5-3.357 7.5-7.5c0-13.057 1.569-17.99 2.248-19.514 2.222-1.268 3.739-3.641 3.788-6.384.075-4.14-3.222-7.558-7.363-7.634z"/><path d="m335.34 473.917c-2.671-2.624-5.421-2.959-6.818-2.947-4.142.075-7.438 3.493-7.363 7.635.049 2.743 1.566 5.116 3.788 6.384.68 1.524 2.248 6.458 2.248 19.514 0 4.143 3.358 7.5 7.5 7.5s7.5-3.357 7.5-7.5c0-21.382-3.912-27.697-6.855-30.586z"/><path d="m405.602 416.375c30.629 0 55.547-24.933 55.547-55.579s-24.918-55.578-55.547-55.578-55.548 24.933-55.548 55.578c.001 30.646 24.919 55.579 55.548 55.579zm-20.253-20.435c1.786-9.4 10.043-16.306 20.254-16.306s18.468 6.906 20.254 16.306c-5.963 3.456-12.882 5.435-20.254 5.435-7.373 0-14.291-1.98-20.254-5.435zm12.763-38.807c0-4.136 3.36-7.5 7.49-7.5s7.49 3.364 7.49 7.5-3.36 7.5-7.49 7.5-7.49-3.364-7.49-7.5zm7.49-36.916c22.358 0 40.547 18.203 40.547 40.578 0 9.1-3.009 17.51-8.083 24.286-2.93-6.437-7.752-11.785-13.808-15.395 2.42-3.588 3.834-7.908 3.834-12.553 0-12.406-10.089-22.5-22.49-22.5s-22.49 10.094-22.49 22.5c0 4.645 1.414 8.965 3.834 12.553-6.056 3.61-10.878 8.958-13.808 15.396-5.074-6.776-8.083-15.186-8.083-24.286 0-22.375 18.189-40.579 40.547-40.579z"/></g></svg>