<svg id="Layer_1" enable-background="new 0 0 512 512" height="512" viewBox="0 0 512 512" width="512" xmlns="http://www.w3.org/2000/svg"><g><g><g><path d="m286.221 479.657c0 13.71-11.09 24.829-24.779 24.829h-228.921c-13.69 0-24.779-11.12-24.779-24.829 0-13.72 11.09-24.839 24.779-24.839h6.64l19.11-26.399 19.099 26.399h184.072c13.689-.001 24.779 11.119 24.779 24.839z" fill="#ff6b81"/><path d="m286.221 479.657c0 13.71-11.09 24.829-24.779 24.829h-19.999c13.69 0 24.779-11.12 24.779-24.829 0-13.72-11.09-24.839-24.779-24.839h19.999c13.689-.001 24.779 11.119 24.779 24.839z" fill="#ed2061"/></g><g><path d="m504.5 32.335c0 13.71-11.09 24.83-24.78 24.83h-6.64l-1.21 1.68-17.9 24.73-19.1-26.409h-124.098c-13.69 0-24.78-11.12-24.78-24.83 0-13.72 11.09-24.839 24.78-24.839h168.948c13.69-.001 24.78 11.119 24.78 24.838z" fill="#fbdf63"/><g><path d="m504.5 32.335c0 13.71-11.09 24.83-24.78 24.83h-6.64l-1.21 1.68c-2.07-1.98-3.15-3.36-2.51-3.63 8.9-3.77 15.14-12.6 15.14-22.88 0-13.72-11.09-24.839-24.78-24.839h20c13.69 0 24.78 11.12 24.78 24.839z" fill="#ffa402"/></g></g></g><path d="m453.27 173.39v165.22c0 23.86-19.36 43.21-43.24 43.21h-307.58c-23.88 0-43.23-19.35-43.23-43.21v-165.22c0-23.86 19.35-43.21 43.23-43.21h307.58c23.88 0 43.24 19.35 43.24 43.21z" fill="#d9f0f4"/><path d="m453.27 173.39v165.22c0 23.86-19.36 43.21-43.24 43.21h-20c23.88 0 43.24-19.35 43.24-43.21v-165.22c0-23.86-19.36-43.21-43.24-43.21h20c23.88 0 43.24 19.35 43.24 43.21z" fill="#bae1e5"/><path d="m423.83 176.23v159.95c0 3.75-1.27 7.21-3.41 9.96-2.97 3.83-7.61 6.29-12.82 6.29h-302.87c-4.98 0-9.43-2.25-12.41-5.78-2.38-2.83-3.81-6.49-3.81-10.47v-159.95c0-4.87 2.14-9.25 5.54-12.22 2.86-2.5 6.59-4.02 10.68-4.02h302.87c4.09 0 7.83 1.52 10.69 4.02 3.39 2.97 5.54 7.35 5.54 12.22z" fill="#fbdf63"/><path d="m423.83 176.23v159.95c0 3.75-1.27 7.21-3.41 9.96-2.97 3.83-7.61 6.29-12.82 6.29h-19.97l-.02-.01c8.96 0 16.22-7.27 16.22-16.25v-159.94c0-8.83-7.03-16.02-15.8-16.24h19.57c4.09 0 7.83 1.52 10.69 4.02 3.39 2.97 5.54 7.35 5.54 12.22z" fill="#ffa402"/><path d="m420.42 346.14c-2.97 3.83-7.61 6.29-12.82 6.29h-302.87c-4.98 0-9.43-2.25-12.41-5.78l99.7-117.09h129.14z" fill="#ffa402"/><path d="m418.29 164.01-149.63 100.59c-7.32 4.92-16.9 4.93-24.24.03l-150.37-100.62c2.86-2.5 6.59-4.02 10.68-4.02h302.87c4.09 0 7.83 1.52 10.69 4.02z" fill="#ff6b81"/></g><g><path d="m261.333 447.329h-68.186c-4.142 0-7.5 3.357-7.5 7.5s3.358 7.5 7.5 7.5h68.186c9.529 0 17.281 7.777 17.281 17.336s-7.752 17.335-17.281 17.335h-229.052c-9.529 0-17.281-7.776-17.281-17.335s7.752-17.336 17.281-17.336h6.636c2.406 0 4.666-1.154 6.076-3.103l13.034-18.01 13.033 18.01c1.41 1.948 3.67 3.103 6.076 3.103h81.333c4.142 0 7.5-3.357 7.5-7.5s-3.358-7.5-7.5-7.5h-77.504l-16.863-23.302c-1.41-1.948-3.67-3.103-6.076-3.103s-4.666 1.154-6.076 3.103l-16.864 23.302h-2.806c-17.799 0-32.28 14.506-32.28 32.336 0 17.829 14.481 32.335 32.281 32.335h229.053c17.8 0 32.281-14.506 32.281-32.335 0-17.83-14.482-32.336-32.282-32.336z"/><path d="m479.719 0h-169.052c-17.8 0-32.281 14.506-32.281 32.336 0 17.829 14.481 32.335 32.281 32.335h28.214c4.142 0 7.5-3.357 7.5-7.5s-3.358-7.5-7.5-7.5h-28.214c-9.529 0-17.281-7.776-17.281-17.335s7.752-17.336 17.281-17.336h169.053c9.528 0 17.28 7.777 17.28 17.336s-7.752 17.335-17.281 17.335h-6.636c-2.406 0-4.666 1.154-6.076 3.103l-13.034 18.01-13.033-18.01c-1.41-1.948-3.67-3.103-6.076-3.103h-61.304c-4.142 0-7.5 3.357-7.5 7.5s3.358 7.5 7.5 7.5h57.474l16.863 23.302c1.41 1.948 3.67 3.103 6.076 3.103s4.666-1.154 6.076-3.103l16.864-23.302h2.806c17.8 0 32.281-14.506 32.281-32.335 0-17.83-14.481-32.336-32.281-32.336z"/><path d="m464.318 422.213h-112.195c-4.142 0-7.5 3.357-7.5 7.5s3.358 7.5 7.5 7.5h112.195c4.142 0 7.5-3.357 7.5-7.5s-3.358-7.5-7.5-7.5z"/><path d="m464.318 457.213h-52.136c-4.142 0-7.5 3.357-7.5 7.5s3.358 7.5 7.5 7.5h52.136c4.142 0 7.5-3.357 7.5-7.5s-3.358-7.5-7.5-7.5z"/><path d="m48.367 90h98.44c4.142 0 7.5-3.357 7.5-7.5s-3.358-7.5-7.5-7.5h-98.44c-4.142 0-7.5 3.357-7.5 7.5s3.358 7.5 7.5 7.5z"/><path d="m48.367 55h52.136c4.142 0 7.5-3.357 7.5-7.5s-3.358-7.5-7.5-7.5h-52.136c-4.142 0-7.5 3.357-7.5 7.5s3.358 7.5 7.5 7.5z"/><path d="m453.266 290.601c4.142 0 7.5-3.357 7.5-7.5v-109.706c0-27.962-22.758-50.711-50.731-50.711h-307.588c-27.973 0-50.731 22.749-50.731 50.711v165.211c0 27.962 22.758 50.711 50.731 50.711h307.588c27.973 0 50.731-22.749 50.731-50.711v-20.631c0-4.143-3.358-7.5-7.5-7.5s-7.5 3.357-7.5 7.5v20.631c0 19.691-16.029 35.711-35.731 35.711h-307.588c-19.702 0-35.731-16.02-35.731-35.711v-165.211c0-19.691 16.029-35.711 35.731-35.711h307.588c19.702 0 35.731 16.02 35.731 35.711v109.706c0 4.142 3.358 7.5 7.5 7.5z"/><path d="m172.575 159.985c0-4.143-3.358-7.5-7.5-7.5h-60.341c-13.08 0-23.722 10.653-23.722 23.749v159.942c0 13.095 10.642 23.748 23.722 23.748h302.871c13.081 0 23.722-10.653 23.722-23.748v-159.942c0-13.096-10.642-23.749-23.722-23.749h-208.306c-4.142 0-7.5 3.357-7.5 7.5s3.358 7.5 7.5 7.5h200.38l-135.201 90.889c-4.821 3.241-11.056 3.248-15.883.019l-135.867-90.907h52.348c4.141-.001 7.499-3.358 7.499-7.501zm8.273 71.127-84.835 99.632v-154.51c0-.604.061-1.195.178-1.766zm235.304-56.626c.115.565.175 1.149.175 1.748v153.528l-84.148-98.825zm-159.629 101.334c5.684 0 11.369-1.666 16.324-4.997l46.803-31.463 89.731 105.382c-.574.12-1.168.183-1.776.183h-302.871c-.353 0-.7-.022-1.042-.063l89.706-105.353 46.855 31.35c4.945 3.309 10.607 4.961 16.27 4.961z"/></g></svg>