<svg id="Layer_1" enable-background="new 0 0 512 512" height="512" viewBox="0 0 512 512" width="512" xmlns="http://www.w3.org/2000/svg"><g><path d="m256 7.504c-3.02 0-6.02.09-9 .26-80.08 4.68-143.79 71.3-143.79 152.53 0 79.19 60.55 144.5 137.79 152.06v177.15c0 4.9 2.36 9.26 6 12 2.5 1.88 5.62 3 9 3 8.28 0 15-6.72 15-15v-177.15c77.24-7.56 137.79-72.87 137.79-152.06 0-84.25-68.54-152.79-152.79-152.79zm-122.79 152.79c0-67.71 55.08-122.79 122.79-122.79s122.79 55.08 122.79 122.79c0 67.7-55.08 122.79-122.79 122.79s-122.79-55.09-122.79-122.79z" fill="#d9f0f4"/><path d="m408.79 160.294c0 79.19-60.55 144.5-137.79 152.06v177.15c0 8.28-6.72 15-15 15-3.38 0-6.5-1.12-9-3 3.64-2.74 6-7.1 6-12v-177.15c77.24-7.56 137.79-72.87 137.79-152.06 0-81.23-63.71-147.85-143.79-152.53 2.98-.17 5.98-.26 9-.26 84.25 0 152.79 68.54 152.79 152.79z" fill="#bae1e5"/><g><path d="m164.421 381.839v75.62c0 8.52-6.9 15.43-15.41 15.43h-99.79l-41.55 31.61v-122.66c0-8.52 6.9-15.43 15.41-15.43h125.93c8.51 0 15.41 6.91 15.41 15.43z" fill="#fbdf63"/><path d="m164.421 381.839v75.62c0 8.52-6.9 15.43-15.41 15.43h-20c8.51 0 15.41-6.91 15.41-15.43v-75.62c0-8.52-6.9-15.43-15.41-15.43h20c8.51 0 15.41 6.91 15.41 15.43z" fill="#ffa402"/></g><g><path d="m504.5 344.384v122.66l-20-15.22-21.55-16.39h-99.79c-8.51 0-15.41-6.91-15.41-15.43v-75.62c0-8.52 6.9-15.43 15.41-15.43h125.93c8.51 0 15.41 6.91 15.41 15.43z" fill="#ff6b81"/><path d="m504.5 344.384v122.66l-20-15.22v-107.44c0-8.52-6.9-15.43-15.41-15.43h20c8.51 0 15.41 6.91 15.41 15.43z" fill="#ed2061"/></g><g><path d="m436.12 120.184v80.21c0 8.23-6.67 14.9-14.89 14.9h-330.22c-8.22 0-14.89-6.67-14.89-14.9v-80.21c0-8.23 6.67-14.89 14.89-14.89h330.22c8.22 0 14.89 6.66 14.89 14.89z" fill="#4dd4f7"/><path d="m436.12 120.184v80.21c0 8.23-6.67 14.9-14.89 14.9h-20c8.22 0 14.89-6.67 14.89-14.9v-80.21c0-8.23-6.67-14.89-14.89-14.89h20c8.22 0 14.89 6.66 14.89 14.89z" fill="#00c2f3"/></g></g><g><path d="m148.998 358.91h-75.331c-4.142 0-7.5 3.357-7.5 7.5s3.358 7.5 7.5 7.5h75.331c4.369 0 7.923 3.557 7.923 7.929v75.616c0 4.372-3.554 7.93-7.923 7.93h-99.898c-1.639 0-3.233.537-4.538 1.528l-29.562 22.467v-107.541c0-4.372 3.554-7.929 7.923-7.929h16.238c4.142 0 7.5-3.357 7.5-7.5s-3.358-7.5-7.5-7.5h-16.238c-12.64 0-22.923 10.286-22.923 22.929v122.661c0 2.85 1.615 5.453 4.167 6.719 1.056.523 2.197.781 3.332.781 1.61 0 3.209-.518 4.539-1.528l39.588-30.087h97.372c12.64 0 22.923-10.286 22.923-22.93v-75.616c0-12.643-10.283-22.929-22.923-22.929z"/><path d="m133.444 402.081c0-4.143-3.358-7.5-7.5-7.5h-79.968c-4.142 0-7.5 3.357-7.5 7.5s3.358 7.5 7.5 7.5h79.968c4.142 0 7.5-3.357 7.5-7.5z"/><path d="m45.976 428.581c-4.142 0-7.5 3.357-7.5 7.5s3.358 7.5 7.5 7.5h69.973c4.142 0 7.5-3.357 7.5-7.5s-3.358-7.5-7.5-7.5z"/><path d="m489.077 321.449h-16.238c-4.143 0-7.5 3.357-7.5 7.5s3.357 7.5 7.5 7.5h16.238c4.369 0 7.923 3.557 7.923 7.929v107.542l-29.562-22.467c-1.305-.992-2.899-1.529-4.538-1.529h-99.898c-4.369 0-7.923-3.557-7.923-7.929v-75.617c0-4.372 3.554-7.929 7.923-7.929h75.331c4.143 0 7.5-3.357 7.5-7.5s-3.357-7.5-7.5-7.5h-75.331c-12.64 0-22.923 10.286-22.923 22.929v75.617c0 12.643 10.283 22.929 22.923 22.929h97.372l39.588 30.088c1.33 1.011 2.93 1.528 4.539 1.528 1.136 0 2.276-.258 3.332-.781 2.553-1.266 4.167-3.869 4.167-6.719v-122.662c0-12.643-10.283-22.929-22.923-22.929z"/><path d="m466.023 357.12h-79.968c-4.143 0-7.5 3.357-7.5 7.5s3.357 7.5 7.5 7.5h79.968c4.143 0 7.5-3.357 7.5-7.5s-3.357-7.5-7.5-7.5z"/><path d="m466.023 391.12h-69.972c-4.143 0-7.5 3.357-7.5 7.5s3.357 7.5 7.5 7.5h69.972c4.143 0 7.5-3.357 7.5-7.5s-3.357-7.5-7.5-7.5z"/><path d="m404.182 43h72.177c4.143 0 7.5-3.357 7.5-7.5s-3.357-7.5-7.5-7.5h-72.177c-4.143 0-7.5 3.357-7.5 7.5s3.357 7.5 7.5 7.5z"/><path d="m476.358 63h-32.126c-4.143 0-7.5 3.357-7.5 7.5s3.357 7.5 7.5 7.5h32.126c4.143 0 7.5-3.357 7.5-7.5s-3.357-7.5-7.5-7.5z"/><path d="m35.642 329.232h68.425c4.142 0 7.5-3.357 7.5-7.5s-3.358-7.5-7.5-7.5h-68.425c-4.142 0-7.5 3.357-7.5 7.5s3.358 7.5 7.5 7.5z"/><path d="m35.642 294.232h32.125c4.142 0 7.5-3.357 7.5-7.5s-3.358-7.5-7.5-7.5h-32.125c-4.142 0-7.5 3.357-7.5 7.5s3.358 7.5 7.5 7.5z"/><path d="m193.857 132.122c-3.829-1.574-8.213.248-9.792 4.077l-10.565 25.64-10.565-25.64c-1.158-2.81-3.896-4.643-6.935-4.643s-5.777 1.833-6.935 4.643l-10.565 25.64-10.565-25.64c-1.579-3.829-5.962-5.653-9.792-4.077-3.83 1.578-5.655 5.962-4.077 9.792l17.5 42.468c1.158 2.81 3.896 4.643 6.935 4.643s5.777-1.833 6.935-4.643l10.564-25.64 10.565 25.64c1.158 2.81 3.896 4.643 6.935 4.643s5.777-1.833 6.935-4.643l17.5-42.468c1.578-3.83-.248-8.214-4.078-9.792z"/><path d="m214.065 141.914 17.5 42.468c1.158 2.81 3.896 4.643 6.935 4.643s5.777-1.833 6.935-4.643l10.565-25.64 10.565 25.64c1.158 2.81 3.896 4.643 6.935 4.643s5.776-1.833 6.935-4.643l17.5-42.468c1.578-3.83-.247-8.214-4.077-9.792-3.828-1.577-8.213.248-9.792 4.077l-10.565 25.64-10.565-25.64c-1.158-2.81-3.896-4.643-6.935-4.643s-5.777 1.833-6.935 4.643l-10.565 25.64-10.565-25.64c-1.578-3.829-5.961-5.653-9.792-4.077-3.831 1.578-5.657 5.962-4.079 9.792z"/><path d="m338.5 189.024c3.038 0 5.776-1.833 6.935-4.643l10.565-25.639 10.565 25.64c1.158 2.81 3.896 4.643 6.935 4.643s5.776-1.833 6.935-4.643l17.5-42.468c1.578-3.83-.247-8.214-4.077-9.792-3.828-1.577-8.213.248-9.792 4.077l-10.565 25.64-10.565-25.64c-1.158-2.81-3.896-4.643-6.935-4.643s-5.776 1.833-6.935 4.643l-10.565 25.64-10.565-25.64c-1.579-3.829-5.964-5.653-9.792-4.077-3.83 1.578-5.655 5.962-4.077 9.792l17.5 42.468c1.157 2.809 3.895 4.642 6.933 4.642z"/><path d="m91.014 222.791h330.212c12.348 0 22.394-10.046 22.394-22.395v-80.212c0-12.348-10.046-22.394-22.394-22.394h-195.071c-4.142 0-7.5 3.357-7.5 7.5s3.358 7.5 7.5 7.5h195.071c4.077 0 7.394 3.316 7.394 7.394v80.212c0 4.077-3.316 7.395-7.394 7.395h-330.212c-4.077 0-7.394-3.317-7.394-7.395v-80.212c0-4.077 3.317-7.394 7.394-7.394h99.986c4.142 0 7.5-3.357 7.5-7.5s-3.358-7.5-7.5-7.5h-99.986c-12.348 0-22.394 10.046-22.394 22.394v80.212c.001 12.349 10.047 22.395 22.394 22.395z"/><path d="m125.538 80.483c3.42 2.338 8.086 1.46 10.424-1.96 27.185-39.776 72.059-63.523 120.038-63.523s92.853 23.747 120.037 63.523c1.453 2.125 3.806 3.269 6.199 3.269 1.458 0 2.931-.425 4.226-1.309 3.419-2.338 4.297-7.005 1.96-10.425-29.983-43.868-79.486-70.058-132.422-70.058s-102.44 26.19-132.422 70.059c-2.337 3.42-1.46 8.087 1.96 10.424z"/><path d="m338.212 79.547c2.905 2.957 7.653 2.996 10.606.095 2.955-2.902 2.997-7.651.095-10.606-24.726-25.173-57.724-39.036-92.913-39.036s-68.187 13.863-92.914 39.035c-2.902 2.955-2.86 7.704.095 10.606 1.46 1.435 3.358 2.149 5.255 2.149 1.942 0 3.883-.75 5.351-2.244 21.884-22.277 51.081-34.546 82.213-34.546 31.133 0 60.329 12.269 82.212 34.547z"/><path d="m336.604 242.642c-21.697 21.241-50.323 32.939-80.604 32.939s-58.906-11.698-80.604-32.939c-2.96-2.897-7.708-2.847-10.606.112-2.897 2.96-2.847 7.709.113 10.606 24.518 24.002 56.87 37.221 91.097 37.221s66.58-13.219 91.098-37.221c2.959-2.897 3.01-7.646.112-10.606-2.896-2.957-7.644-3.012-10.606-.112z"/><path d="m387.178 252.316c2.384-3.388 1.569-8.066-1.818-10.449-3.388-2.384-8.065-1.568-10.449 1.818-24.469 34.779-62.608 57.086-104.641 61.2-3.841.375-6.77 3.604-6.77 7.464v62.9c0 4.143 3.357 7.5 7.5 7.5s7.5-3.357 7.5-7.5v-56.245c43.691-6.168 83.013-30.207 108.678-66.688z"/><path d="m271 402.097c-4.143 0-7.5 3.357-7.5 7.5v79.903c0 4.136-3.364 7.5-7.5 7.5s-7.5-3.364-7.5-7.5v-177.15c0-3.859-2.929-7.089-6.77-7.464-42.032-4.114-80.172-26.421-104.641-61.2-2.382-3.388-7.062-4.201-10.449-1.818s-4.202 7.062-1.818 10.449c25.665 36.48 64.986 60.52 108.678 66.688v170.495c0 12.406 10.093 22.5 22.5 22.5 12.406 0 22.5-10.094 22.5-22.5v-79.903c0-4.143-3.357-7.5-7.5-7.5z"/></g></svg>