<svg id="Layer_1" enable-background="new 0 0 512 512" height="512" viewBox="0 0 512 512" width="512" xmlns="http://www.w3.org/2000/svg"><g><g><g><path d="m286.221 479.657c0 13.71-11.09 24.829-24.779 24.829h-228.921c-13.69 0-24.779-11.12-24.779-24.829 0-13.72 11.09-24.839 24.779-24.839h6.64l19.11-26.399 19.099 26.399h184.072c13.689-.001 24.779 11.119 24.779 24.839z" fill="#ff6b81"/><path d="m286.221 479.657c0 13.71-11.09 24.829-24.779 24.829h-19.999c13.69 0 24.779-11.12 24.779-24.829 0-13.72-11.09-24.839-24.779-24.839h19.999c13.689-.001 24.779 11.119 24.779 24.839z" fill="#ed2061"/></g><g><path d="m504.5 32.335c0 13.71-11.09 24.83-24.78 24.83h-6.64l-1.21 1.68-17.9 24.73-19.1-26.409h-124.098c-13.69 0-24.78-11.12-24.78-24.83 0-13.72 11.09-24.839 24.78-24.839h168.948c13.69-.001 24.78 11.119 24.78 24.838z" fill="#fbdf63"/><g><path d="m504.5 32.335c0 13.71-11.09 24.83-24.78 24.83h-6.64l-1.21 1.68c-2.07-1.98-3.15-3.36-2.51-3.63 8.9-3.77 15.14-12.6 15.14-22.88 0-13.72-11.09-24.839-24.78-24.839h20c13.69 0 24.78 11.12 24.78 24.839z" fill="#ffa402"/></g></g></g><path d="m378.95 328.954v44.23c0 9.1-7.38 16.48-16.49 16.48h-338.47c-9.11 0-16.49-7.38-16.49-16.48v-172.31c0-9.1 7.38-16.48 16.49-16.48h109.06z" fill="#14bb87"/><path d="m378.95 328.954v20h-229.42c-20.11 0-36.48-16.36-36.48-36.48v-128.08h20z" fill="#0ea88a"/><path d="m504.5 140.164v172.31c0 9.1-7.38 16.48-16.48 16.48h-338.49c-9.1 0-16.48-7.38-16.48-16.48v-172.31c0-9.11 7.38-16.48 16.48-16.48h338.49c9.1 0 16.48 7.37 16.48 16.48z" fill="#14bb87"/><path d="m504.5 140.164v172.31c0 9.1-7.38 16.48-16.48 16.48h-20c9.1 0 16.48-7.38 16.48-16.48v-172.31c0-9.11-7.38-16.48-16.48-16.48h20c9.1 0 16.48 7.37 16.48 16.48z" fill="#0ea88a"/><path d="m438.177 153.314h-237.803c0 20.521-16.644 37.156-37.174 37.156v71.688c20.531 0 37.174 16.635 37.174 37.156h237.802c0-20.521 16.644-37.156 37.174-37.156v-71.688c-20.53 0-37.173-16.635-37.173-37.156z" fill="#09eaa3"/><ellipse cx="318.775" cy="226.314" fill="#14bb87" rx="33.348" ry="33.331"/></g><g><path d="m261.334 447.329h-68.186c-4.143 0-7.5 3.357-7.5 7.5s3.357 7.5 7.5 7.5h68.186c9.528 0 17.28 7.777 17.28 17.336s-7.752 17.335-17.28 17.335h-229.053c-9.529 0-17.281-7.776-17.281-17.335s7.752-17.336 17.281-17.336h6.636c2.405 0 4.665-1.154 6.076-3.103l13.032-18.009 13.033 18.009c1.411 1.948 3.671 3.103 6.076 3.103h81.333c4.143 0 7.5-3.357 7.5-7.5s-3.357-7.5-7.5-7.5h-77.502l-16.863-23.302c-1.411-1.948-3.671-3.103-6.076-3.103-2.406 0-4.665 1.154-6.076 3.103l-16.862 23.302h-2.806c-17.801 0-32.282 14.506-32.282 32.336 0 17.829 14.481 32.335 32.281 32.335h229.053c17.8 0 32.28-14.506 32.28-32.335 0-17.83-14.48-32.336-32.28-32.336z"/><path d="m310.666 64.671h28.215c4.143 0 7.5-3.357 7.5-7.5s-3.357-7.5-7.5-7.5h-28.215c-9.528 0-17.28-7.776-17.28-17.335s7.752-17.336 17.28-17.336h169.053c9.529 0 17.281 7.777 17.281 17.336s-7.752 17.335-17.281 17.335h-6.636c-2.405 0-4.665 1.154-6.076 3.103l-13.032 18.009-13.033-18.009c-1.411-1.948-3.671-3.103-6.076-3.103h-61.304c-4.143 0-7.5 3.357-7.5 7.5s3.357 7.5 7.5 7.5h57.474l16.863 23.302c1.411 1.948 3.671 3.103 6.076 3.103 2.406 0 4.665-1.154 6.076-3.103l16.862-23.302h2.806c17.8 0 32.281-14.506 32.281-32.335 0-17.83-14.481-32.336-32.281-32.336h-169.053c-17.8 0-32.28 14.506-32.28 32.336 0 17.829 14.48 32.335 32.28 32.335z"/><path d="m464.318 422.213h-112.195c-4.143 0-7.5 3.357-7.5 7.5s3.357 7.5 7.5 7.5h112.195c4.143 0 7.5-3.357 7.5-7.5s-3.357-7.5-7.5-7.5z"/><path d="m464.318 457.213h-52.136c-4.143 0-7.5 3.357-7.5 7.5s3.357 7.5 7.5 7.5h52.136c4.143 0 7.5-3.357 7.5-7.5s-3.357-7.5-7.5-7.5z"/><path d="m48.367 90h98.44c4.143 0 7.5-3.357 7.5-7.5s-3.357-7.5-7.5-7.5h-98.44c-4.143 0-7.5 3.357-7.5 7.5s3.358 7.5 7.5 7.5z"/><path d="m48.367 55h52.136c4.143 0 7.5-3.357 7.5-7.5s-3.357-7.5-7.5-7.5h-52.136c-4.143 0-7.5 3.357-7.5 7.5s3.358 7.5 7.5 7.5z"/><path d="m488.02 116.179h-338.489c-13.223 0-23.98 10.758-23.98 23.98v172.31c0 13.223 10.758 23.98 23.98 23.98h338.489c13.223 0 23.98-10.758 23.98-23.98v-172.31c0-13.222-10.758-23.98-23.98-23.98zm8.98 196.29c0 4.952-4.028 8.98-8.98 8.98h-338.489c-4.952 0-8.98-4.028-8.98-8.98v-172.31c0-4.952 4.028-8.98 8.98-8.98h338.489c4.952 0 8.98 4.028 8.98 8.98z"/><path d="m23.988 397.165h338.473c13.228 0 23.988-10.758 23.988-23.98v-13.77c0-4.143-3.357-7.5-7.5-7.5s-7.5 3.357-7.5 7.5v13.77c0 4.952-4.032 8.98-8.988 8.98h-338.473c-4.956 0-8.988-4.028-8.988-8.98v-52.513c0-4.143-3.357-7.5-7.5-7.5s-7.5 3.357-7.5 7.5v52.513c0 13.222 10.761 23.98 23.988 23.98z"/><path d="m7.5 293.501c4.143 0 7.5-3.357 7.5-7.5v-85.126c0-4.952 4.032-8.98 8.988-8.98h79.613c4.143 0 7.5-3.357 7.5-7.5s-3.357-7.5-7.5-7.5h-79.613c-13.227 0-23.988 10.757-23.988 23.98v85.126c0 4.143 3.357 7.5 7.5 7.5z"/><path d="m475.352 182.971c-16.362 0-29.675-13.304-29.675-29.656 0-4.143-3.357-7.5-7.5-7.5h-165.738c-4.143 0-7.5 3.357-7.5 7.5s3.357 7.5 7.5 7.5h158.867c3.165 18.628 17.908 33.365 36.545 36.527v57.945c-18.637 3.162-33.38 17.899-36.545 36.527h-224.062c-3.164-18.628-17.907-33.365-36.544-36.526v-57.947c18.637-3.161 33.38-17.898 36.544-36.526h29.8c4.143 0 7.5-3.357 7.5-7.5s-3.357-7.5-7.5-7.5h-36.67c-4.143 0-7.5 3.357-7.5 7.5 0 16.353-13.312 29.656-29.674 29.656-4.143 0-7.5 3.357-7.5 7.5v71.688c0 4.143 3.357 7.5 7.5 7.5 16.362 0 29.674 13.304 29.674 29.656 0 4.143 3.357 7.5 7.5 7.5h237.803c4.143 0 7.5-3.357 7.5-7.5 0-16.353 13.313-29.656 29.675-29.656 4.143 0 7.5-3.357 7.5-7.5v-71.688c0-4.143-3.358-7.5-7.5-7.5z"/><path d="m359.623 226.314c0-22.515-18.324-40.832-40.848-40.832s-40.848 18.317-40.848 40.832 18.324 40.831 40.848 40.831 40.848-18.316 40.848-40.831zm-66.695 0c0-14.244 11.595-25.832 25.848-25.832s25.848 11.588 25.848 25.832c0 14.243-11.595 25.831-25.848 25.831s-25.848-11.587-25.848-25.831z"/></g></svg>