<svg id="Layer_1" enable-background="new 0 0 512 512" height="512" viewBox="0 0 512 512" width="512" xmlns="http://www.w3.org/2000/svg"><g><g><g><path d="m421.247 53.5v405c0 25.41-20.57 46-45.94 46h-227.66c-25.36 0-45.93-20.59-45.93-46v-405c0-25.41 20.57-46 45.93-46h227.66c25.37 0 45.94 20.59 45.94 46z" fill="#56788b"/><path d="m421.247 53.5v405c0 25.41-20.57 46-45.94 46h-20c25.37 0 45.94-20.59 45.94-46v-405c0-25.41-20.57-46-45.94-46h20c25.37 0 45.94 20.59 45.94 46z" fill="#415e6f"/><path d="m391.287 52.26v407.48c0 8.98-7.27 16.26-16.23 16.26h-227.15c-8.97 0-16.23-7.28-16.23-16.26v-407.48c0-8.98 7.26-16.26 16.23-16.26h23.71l5.87 18.23c2.45 7.61 9.52 12.77 17.51 12.77h132.97c7.98 0 15.06-5.16 17.51-12.77l5.87-18.23h23.71c8.96 0 16.23 7.28 16.23 16.26z" fill="#d9f0f4"/><path d="m391.287 52.26v407.48c0 8.98-7.27 16.26-16.23 16.26h-20c8.96 0 16.23-7.28 16.23-16.26v-407.48c0-8.98-7.27-16.26-16.23-16.26h20c8.96 0 16.23 7.28 16.23 16.26z" fill="#bae1e5"/><path d="m205.875 120.699v75.62c0 8.52-6.9 15.43-15.41 15.43h-99.79l-41.55 31.61v-122.66c0-8.52 6.9-15.43 15.41-15.43h125.93c8.51 0 15.41 6.91 15.41 15.43z" fill="#09eaa3"/><path d="m205.875 120.699v75.62c0 8.52-6.9 15.43-15.41 15.43h-20c8.51 0 15.41-6.91 15.41-15.43v-75.62c0-8.52-6.9-15.43-15.41-15.43h20c8.51 0 15.41 6.91 15.41 15.43z" fill="#14bb87"/></g></g><path d="m462.87 371.064c0 8.64-7.74 15.72-17.19 15.72-.01 0-.01 0-.02 0h-19.98c-.01 0-.01 0-.02 0h-94.25c-5.85 0-11.07-3.32-13.93-8.42-2.95-5.25-8.58-8.81-15.04-8.81l-20-.01-85.56-.02v-82.7l85.56-.02h20c9.52-.01 17.23-7.72 17.23-17.24v-70c0-8.69 7.05-15.74 15.74-15.74 4.35 0 8.28 1.76 11.13 4.61s4.61 6.78 4.61 11.13v44.17c0 9.52 7.71 17.24 17.23 17.24l57.26.02 19.98.01c9.47 0 17.22 7.08 17.22 15.73 0 8.49-7.46 15.46-16.69 15.71 9.23.26 16.69 7.24 16.7 15.72 0 8.64-7.73 15.72-17.19 15.72 9.46.01 17.19 7.09 17.2 15.73 0 8.64-7.74 15.72-17.19 15.72 9.45.019 17.19 7.09 17.2 15.73z" fill="#fdd9b4"/><path d="m462.87 371.064c0 8.64-7.74 15.72-17.19 15.72-.01 0-.01 0-.02 0h-19.98c9.45 0 17.19-7.08 17.19-15.72-.01-8.64-7.75-15.71-17.2-15.73 9.45 0 17.19-7.08 17.19-15.72-.01-8.64-7.74-15.72-17.2-15.73 9.46 0 17.19-7.08 17.19-15.72-.01-8.48-7.47-15.46-16.7-15.72 9.23-.25 16.69-7.22 16.69-15.71 0-8.65-7.75-15.73-17.22-15.73l.02-.01 19.98.01c9.47 0 17.22 7.08 17.22 15.73 0 8.49-7.46 15.46-16.69 15.71 9.23.26 16.69 7.24 16.7 15.72 0 8.64-7.73 15.72-17.19 15.72 9.46.01 17.19 7.09 17.2 15.73 0 8.64-7.74 15.72-17.19 15.72 9.45.019 17.19 7.09 17.2 15.73z" fill="#f9c19b"/><path d="m282.44 286.804v82.74l-85.56-.02v-82.7z" fill="#fff"/></g><g><path d="m94.24 241.694v141.767c0 4.143 3.357 7.5 7.5 7.5s7.5-3.357 7.5-7.5v-141.767c0-4.143-3.357-7.5-7.5-7.5s-7.5 3.358-7.5 7.5z"/><path d="m421.248 409.731c-4.143 0-7.5 3.357-7.5 7.5v41.269c0 21.229-17.239 38.5-38.429 38.5h-227.65c-21.189 0-38.429-17.271-38.429-38.5v-39.632c0-4.143-3.357-7.5-7.5-7.5s-7.5 3.357-7.5 7.5v39.632c0 29.5 23.968 53.5 53.429 53.5h227.65c29.461 0 53.429-24 53.429-53.5v-41.269c0-4.142-3.358-7.5-7.5-7.5z"/><path d="m421.248 109.706c-4.143 0-7.5 3.357-7.5 7.5v113.707c0 4.143 3.357 7.5 7.5 7.5s7.5-3.357 7.5-7.5v-113.707c0-4.143-3.358-7.5-7.5-7.5z"/><path d="m101.74 82.773c4.143 0 7.5-3.357 7.5-7.5v-21.773c0-21.229 17.239-38.5 38.429-38.5h227.65c21.189 0 38.429 17.271 38.429 38.5v29c0 4.143 3.357 7.5 7.5 7.5s7.5-3.357 7.5-7.5v-29c0-29.5-23.968-53.5-53.429-53.5h-227.65c-29.461 0-53.429 24-53.429 53.5v21.773c0 4.143 3.357 7.5 7.5 7.5z"/><path d="m391.293 238.413c4.143 0 7.5-3.357 7.5-7.5v-178.658c0-13.099-10.646-23.755-23.73-23.755h-23.708c-3.256 0-6.141 2.102-7.139 5.2l-5.872 18.232c-1.458 4.526-5.625 7.567-10.37 7.567h-132.962c-4.744 0-8.911-3.041-10.369-7.567l-5.872-18.232c-.998-3.099-3.883-5.2-7.139-5.2h-23.709c-13.085 0-23.729 10.656-23.729 23.755v23.019c0 4.143 3.357 7.5 7.5 7.5s7.5-3.357 7.5-7.5v-23.019c0-4.827 3.916-8.755 8.729-8.755h18.245l4.197 13.03c3.462 10.748 13.366 17.97 24.646 17.97h132.962c11.281 0 21.186-7.222 24.647-17.969l4.197-13.031h18.244c4.814 0 8.73 3.928 8.73 8.755v178.658c.002 4.143 3.36 7.5 7.502 7.5z"/><path d="m139.194 459.745v-217.944c0-4.143-3.357-7.5-7.5-7.5s-7.5 3.357-7.5 7.5v217.944c0 13.099 10.645 23.755 23.729 23.755h227.14c13.085 0 23.73-10.656 23.73-23.755v-42.905c0-4.143-3.357-7.5-7.5-7.5s-7.5 3.357-7.5 7.5v42.905c0 4.827-3.916 8.755-8.73 8.755h-227.14c-4.813 0-8.729-3.928-8.729-8.755z"/><path d="m302.107 44.985c4.143 0 7.5-3.357 7.5-7.5s-3.357-7.5-7.5-7.5h-81.227c-4.143 0-7.5 3.357-7.5 7.5s3.357 7.5 7.5 7.5z"/><path d="m302.107 448.723c4.143 0 7.5-3.357 7.5-7.5s-3.357-7.5-7.5-7.5h-81.227c-4.143 0-7.5 3.357-7.5 7.5s3.357 7.5 7.5 7.5z"/><path d="m213.375 196.319v-75.617c0-12.643-10.275-22.929-22.905-22.929h-15.244c-4.143 0-7.5 3.357-7.5 7.5s3.357 7.5 7.5 7.5h15.244c4.359 0 7.905 3.557 7.905 7.929v75.617c0 4.372-3.546 7.929-7.905 7.929h-99.785c-1.641 0-3.235.538-4.541 1.531l-29.511 22.453v-107.53c0-4.372 3.546-7.929 7.905-7.929h76.22c4.143 0 7.5-3.357 7.5-7.5s-3.357-7.5-7.5-7.5h-76.22c-12.63 0-22.905 10.286-22.905 22.929v122.661c0 2.851 1.615 5.454 4.169 6.72 1.056.523 2.195.78 3.33.78 1.611 0 3.212-.519 4.542-1.531l39.54-30.084h97.255c12.63 0 22.906-10.286 22.906-22.929z"/><path d="m174.943 140.944c0-4.143-3.357-7.5-7.5-7.5h-79.877c-4.143 0-7.5 3.357-7.5 7.5s3.357 7.5 7.5 7.5h79.877c4.142 0 7.5-3.357 7.5-7.5z"/><path d="m87.566 167.444c-4.143 0-7.5 3.357-7.5 7.5s3.357 7.5 7.5 7.5h69.892c4.143 0 7.5-3.357 7.5-7.5s-3.357-7.5-7.5-7.5z"/><path d="m463.818 355.338c4.229-4.302 6.54-9.837 6.538-15.724-.001-6.061-2.485-11.587-6.548-15.728 4.229-4.3 6.54-9.834 6.539-15.721-.001-6.015-2.521-11.558-6.618-15.719 4.095-4.161 6.61-9.703 6.609-15.72-.004-12.805-11.094-23.224-24.718-23.227l-77.243-.028c-5.365-.002-9.73-4.368-9.73-9.734v-44.173c0-12.813-10.425-23.238-23.238-23.238s-23.238 10.425-23.238 23.238v70c0 5.366-4.365 9.732-9.73 9.734l-105.564.028c-4.143.001-7.499 3.36-7.498 7.502s3.358 7.498 7.5 7.498h.002l78.063-.021v67.739l-78.063-.021c-.001 0-.001 0-.002 0-4.142 0-7.499 3.356-7.5 7.498s3.355 7.501 7.498 7.502l105.564.028c3.516.001 6.771 1.91 8.495 4.982 4.24 7.558 12.087 12.252 20.478 12.252h18.832c4.143 0 7.5-3.357 7.5-7.5s-3.357-7.5-7.5-7.5h-18.832c-3.018 0-5.782-1.717-7.396-4.593-4.374-7.795-12.641-12.639-21.572-12.642l-12.502-.003v-67.747l12.502-.003c13.635-.004 24.727-11.1 24.727-24.734v-70c0-4.543 3.695-8.238 8.238-8.238s8.238 3.695 8.238 8.238v44.173c0 13.635 11.092 24.73 24.726 24.734l77.243.028c5.269.001 9.721 3.771 9.723 8.231.001 4.366-4.17 8.037-9.315 8.213h-32.321c-4.143 0-7.5 3.357-7.5 7.5s3.357 7.5 7.5 7.5h32.316c5.15.178 9.327 3.854 9.328 8.225 0 2.049-.927 4.025-2.611 5.563-1.874 1.711-4.393 2.653-7.093 2.653h-.004c-.001 0-.001 0-.002 0h-42.448c-4.143 0-7.5 3.357-7.5 7.5s3.357 7.5 7.5 7.5h42.446c5.269.001 9.72 3.771 9.721 8.232.001 2.05-.927 4.026-2.611 5.565-1.873 1.711-4.393 2.653-7.094 2.653-.001 0-.002 0-.002 0-.001 0-.001 0-.002 0h-32.449c-4.143 0-7.5 3.357-7.5 7.5s3.357 7.5 7.5 7.5h32.447c5.269.001 9.72 3.771 9.722 8.231 0 2.049-.928 4.025-2.612 5.565-1.873 1.711-4.392 2.653-7.094 2.653h-60.279c-4.143 0-7.5 3.357-7.5 7.5s3.357 7.5 7.5 7.5h60.281c6.453 0 12.564-2.337 17.209-6.579 4.835-4.417 7.496-10.328 7.495-16.645-.004-6.054-2.49-11.58-6.551-15.72z"/><path d="m349.372 135.6h-32.141c-4.143 0-7.5 3.357-7.5 7.5s3.357 7.5 7.5 7.5h32.141c4.143 0 7.5-3.357 7.5-7.5s-3.358-7.5-7.5-7.5z"/><path d="m349.372 100.6h-52.11c-4.143 0-7.5 3.357-7.5 7.5s3.357 7.5 7.5 7.5h52.11c4.143 0 7.5-3.357 7.5-7.5s-3.358-7.5-7.5-7.5z"/><path d="m260.133 339.99c0-4.142-3.358-7.5-7.5-7.5s-7.5 3.358-7.5 7.5 3.358 7.5 7.5 7.5c4.143 0 7.5-3.358 7.5-7.5z"/></g></svg>